<?xml version="1.0" encoding="UTF-8" standalone="no"?>
<!DOCTYPE svg PUBLIC "-//W3C//DTD SVG 1.1//EN" "http://www.w3.org/Graphics/SVG/1.1/DTD/svg11.dtd">
<svg width="100%" height="100%" viewBox="0 0 181 154" version="1.1" xmlns="http://www.w3.org/2000/svg" xmlns:xlink="http://www.w3.org/1999/xlink" xml:space="preserve" xmlns:serif="http://www.serif.com/" style="fill-rule:evenodd;clip-rule:evenodd;stroke-linejoin:round;stroke-miterlimit:1;">
    <g transform="matrix(1,0,0,1,-2670,-360)">
        <g transform="matrix(0.512821,0,0,0.512821,2305.53,-213.612)">
            <g id="ClassDiagram">
                <g transform="matrix(1.2332,0,0,1,-212.482,-58.3105)">
                    <g transform="matrix(0.342477,0,0,0.322581,550.617,816.856)">
                        <rect x="840.832" y="1202.39" width="275.896" height="144.148" style="fill:none;"/>
                        <g transform="matrix(4.61709,0,0,6.04499,-3031.84,-6087.3)">
                            <text x="839.089px" y="1215.1px" style="font-family:'LucidaGrande', 'Lucida Grande', sans-serif;font-weight:500;font-size:8.333px;">• <tspan x="844.995px " y="1215.1px ">N</tspan>a</text>
                            <g transform="matrix(8.33333,0,0,8.33333,883.138,1223.43)">
                            </g>
                            <text x="839.089px" y="1223.43px" style="font-family:'LucidaGrande', 'Lucida Grande', sans-serif;font-weight:500;font-size:8.333px;">• <tspan x="844.995px " y="1223.43px ">J</tspan>a auf auf</text>
                        </g>
                        <rect x="840.832" y="1202.39" width="275.896" height="144.148" style="fill:none;stroke:black;stroke-width:12.4px;"/>
                    </g>
                    <g transform="matrix(0.342477,0,0,0.163873,550.617,984.062)">
                        <rect x="840.832" y="1202.39" width="275.896" height="144.148" style="fill-opacity:0.39;"/>
                        <g transform="matrix(4.61709,0,0,11.8994,-3045.86,-12852.1)">
                            <g transform="matrix(8.33333,0,0,8.33333,870.275,1188.71)">
                            </g>
                            <text x="842.126px" y="1188.7px" style="font-family:'LucidaGrande', 'Lucida Grande', sans-serif;font-weight:500;font-size:8.333px;">Ralf ;-)</text>
                        </g>
                        <rect x="840.832" y="1202.39" width="275.896" height="144.148" style="fill:none;stroke:black;stroke-width:14.55px;"/>
                    </g>
                </g>
                <g transform="matrix(1.4375,0,0,1,-281.25,36.1777)">
                    <g transform="matrix(0.342477,0,0,0.322581,550.617,816.856)">
                        <rect x="840.832" y="1202.39" width="275.896" height="144.148" style="fill:none;"/>
                        <g transform="matrix(3.96091,0,0,6.04499,-2481.25,-6087.3)">
                            <text x="839.089px" y="1216.14px" style="font-family:'LucidaGrande', 'Lucida Grande', sans-serif;font-weight:500;font-size:8.333px;">• <tspan x="844.995px " y="1216.14px ">W</tspan>au</text>
                            <g transform="matrix(8.33333,0,0,8.33333,880.729,1222.39)">
                            </g>
                            <text x="839.089px" y="1222.39px" style="font-family:'LucidaGrande', 'Lucida Grande', sans-serif;font-weight:500;font-size:8.333px;">• <tspan x="844.995px " y="1222.39px ">W</tspan>au wau</text>
                        </g>
                        <rect x="840.832" y="1202.39" width="275.896" height="144.148" style="fill:none;stroke:black;stroke-width:11.2px;"/>
                    </g>
                    <g transform="matrix(0.342477,0,0,0.163873,550.617,984.062)">
                        <rect x="840.832" y="1202.39" width="275.896" height="144.148" style="fill-opacity:0.39;"/>
                        <g transform="matrix(3.96091,0,0,11.8994,-2493.28,-12852.1)">
                            <g transform="matrix(8.33333,0,0,8.33333,863.838,1188.71)">
                            </g>
                            <text x="842.126px" y="1188.7px" style="font-family:'LucidaGrande', 'Lucida Grande', sans-serif;font-weight:500;font-size:8.333px;">Hund</text>
                        </g>
                        <rect x="840.832" y="1202.39" width="275.896" height="144.148" style="fill:none;stroke:black;stroke-width:12.7px;"/>
                    </g>
                </g>
                <g transform="matrix(1.62931,0,0,1,-628.32,139.884)">
                    <g transform="matrix(0.342477,0,0,0.486454,550.617,619.816)">
                        <rect x="840.832" y="1202.39" width="275.896" height="144.148" style="fill:none;"/>
                        <g transform="matrix(3.49463,0,0,4.0086,-2089.99,-3631.6)">
                            <text x="839.089px" y="1219.01px" style="font-family:'LucidaGrande', 'Lucida Grande', sans-serif;font-weight:500;font-size:8.333px;">• <tspan x="844.995px " y="1219.01px ">M</tspan>iau miau</text>
                            <text x="839.089px" y="1225.26px" style="font-family:'LucidaGrande', 'Lucida Grande', sans-serif;font-weight:500;font-size:8.333px;">• <tspan x="844.995px " y="1225.26px ">o</tspan>der wie</text>
                            <g transform="matrix(8.33333,0,0,8.33333,900.15,1231.51)">
                            </g>
                            <text x="839.089px" y="1231.51px" style="font-family:'LucidaGrande', 'Lucida Grande', sans-serif;font-weight:500;font-size:8.333px;">• <tspan x="844.995px " y="1231.51px ">m</tspan>acht eine K.</text>
                        </g>
                        <rect x="840.832" y="1202.39" width="275.896" height="144.148" style="fill:none;stroke:black;stroke-width:8.9px;"/>
                    </g>
                    <g transform="matrix(0.342477,0,0,0.163873,550.617,984.062)">
                        <rect x="840.832" y="1202.39" width="275.896" height="144.148" style="fill-opacity:0.39;"/>
                        <g transform="matrix(3.49463,0,0,11.8994,-2100.6,-12852.1)">
                            <g transform="matrix(8.33333,0,0,8.33333,864.705,1188.71)">
                            </g>
                            <text x="842.126px" y="1188.7px" style="font-family:'LucidaGrande', 'Lucida Grande', sans-serif;font-weight:500;font-size:8.333px;">Katze</text>
                        </g>
                        <rect x="840.832" y="1202.39" width="275.896" height="144.148" style="fill:none;stroke:black;stroke-width:11.33px;"/>
                    </g>
                </g>
                <g transform="matrix(1,0,0,1.76954,0,-967.569)">
                    <path d="M850.394,1257.34C879.921,1257.87 874.016,1263.78 874.016,1293.31" style="fill:none;stroke:black;stroke-width:4.73px;"/>
                </g>
                <g transform="matrix(0.830398,0,0,1,130.206,-4.54747e-13)">
                    <path d="M832.677,1169.29C767.717,1169.66 767.717,1169.66 767.717,1216.54" style="fill:none;stroke:black;stroke-width:5.14px;"/>
                </g>
                <g transform="matrix(-0.830398,0,0,1,1629.64,-4.54747e-13)">
                    <path d="M832.677,1169.29C767.717,1169.66 767.717,1169.66 767.717,1216.54" style="fill:none;stroke:black;stroke-width:5.14px;"/>
                </g>
                <g transform="matrix(1.4375,0,0,1,-490.896,35.4331)">
                    <g transform="matrix(0.342477,0,0,0.240644,550.617,915.376)">
                        <rect x="840.832" y="1202.39" width="275.896" height="144.148" style="fill:none;"/>
                        <g transform="matrix(3.96091,0,0,8.10325,-2481.25,-8569.36)">
                            <g transform="matrix(8.33333,0,0,8.33333,887.192,1216.26)">
                            </g>
                            <text x="839.089px" y="1216.26px" style="font-family:'LucidaGrande', 'Lucida Grande', sans-serif;font-weight:500;font-size:8.333px;">• <tspan x="850.9px " y="1216.26px ">P</tspan>ips pips</text>
                        </g>
                        <rect x="840.832" y="1202.39" width="275.896" height="144.148" style="fill:none;stroke:black;stroke-width:12.03px;"/>
                    </g>
                    <g transform="matrix(0.342477,0,0,0.163873,550.617,984.062)">
                        <rect x="840.832" y="1202.39" width="275.896" height="144.148" style="fill-opacity:0.39;"/>
                        <g transform="matrix(3.96091,0,0,11.8994,-2493.28,-12852.1)">
                            <g transform="matrix(8.33333,0,0,8.33333,863.326,1188.71)">
                            </g>
                            <text x="842.126px" y="1188.7px" style="font-family:'LucidaGrande', 'Lucida Grande', sans-serif;font-weight:500;font-size:8.333px;">Maus</text>
                        </g>
                        <rect x="840.832" y="1202.39" width="275.896" height="144.148" style="fill:none;stroke:black;stroke-width:12.7px;"/>
                    </g>
                </g>
            </g>
        </g>
    </g>
</svg>
