<?xml version="1.0" encoding="UTF-8" standalone="no"?>
<!DOCTYPE svg PUBLIC "-//W3C//DTD SVG 1.1//EN" "http://www.w3.org/Graphics/SVG/1.1/DTD/svg11.dtd">
<svg width="100%" height="100%" viewBox="0 0 158 181" version="1.1" xmlns="http://www.w3.org/2000/svg" xmlns:xlink="http://www.w3.org/1999/xlink" xml:space="preserve" xmlns:serif="http://www.serif.com/" style="fill-rule:evenodd;clip-rule:evenodd;stroke-linejoin:round;stroke-miterlimit:2;">
    <g transform="matrix(1,0,0,1,-2344,-331)">
        <g transform="matrix(0.664619,0,0,0.664619,2122.28,-11.4521)">
            <g id="Cup">
                <g transform="matrix(3.10937,3.19556e-16,-3.19556e-16,-0.5,-321.943,1177.2)">
                    <path d="M287.198,805.512L211.132,805.512C211.132,805.512 211.222,806.148 211.36,803.15C211.797,793.701 232.309,779.771 232.309,779.771L267.256,779.528C267.256,779.528 286.248,793.701 287.008,803.15L287.198,805.512Z"/>
                </g>
                <path d="M429.921,520.866C430.931,524.878 431.906,527.573 433.052,529.616C434.118,531.515 435.352,532.703 436.907,533.813C445.524,540.154 451.184,545.306 454.645,549.832C457.708,553.837 458.972,557.504 459.281,560.844C459.709,565.467 457.98,569.688 454.718,574.025C452.673,576.743 449.869,579.48 446.647,582.549C444.994,584.027 443.517,585.476 442.144,586.84C439.731,589.236 437.711,591.411 436.145,593.528C432.825,598.016 431.352,601.849 431.81,605.691C432.323,610.006 434.683,614.116 438.293,618.508C441.356,622.235 445.128,626.102 449.474,630.288C450.61,631.39 451.495,632.6 452.018,634.314C452.526,635.979 452.718,638.078 452.512,641C452.164,638.216 451.611,636.277 450.833,634.801C450.143,633.492 449.253,632.636 448.164,631.912C441.776,627.622 436.304,623.697 432.187,619.626C428.176,615.661 425.588,611.509 424.448,607.075C422.822,600.753 424.275,593.647 430.304,585.258C432.639,582.009 435.819,578.634 439.74,574.931C442.676,572.399 445.203,570.116 447.155,567.886C449.099,565.664 450.562,563.664 450.628,561.14C450.717,557.739 449.017,553.886 445.19,548.649C442.588,545.089 439.228,541.01 434.747,536.265C433.19,534.584 432.017,532.894 431.233,530.403C430.505,528.088 430.081,525.149 429.921,520.866Z"/>
                <path d="M465.945,573.425C465.92,574.795 465.717,575.882 465.431,576.857C465.027,578.238 464.43,579.228 463.871,580.122C461.138,584.206 459.113,587.828 457.4,591.162C456.61,592.7 455.957,594.146 455.365,595.536C454.414,597.77 453.868,599.84 453.578,601.84C453.332,603.531 453.266,605.16 453.556,606.831C453.848,608.514 454.317,610.227 455.148,612.023C456.619,615.2 458.735,618.592 461.844,622.365C463.139,624.002 463.861,625.706 464.127,627.663C464.45,630.035 464.219,632.582 464.173,635.433C463.453,632.778 462.985,630.358 462.065,628.239C461.482,626.895 460.663,625.797 459.416,624.879C453.991,620.683 450.234,616.802 448.012,612.791C445.826,608.846 445.08,604.772 445.752,600.625C446.316,597.148 447.942,593.574 450.625,589.919C452.109,587.898 453.898,585.879 456.074,583.787C457.875,582.055 459.862,580.376 462.113,578.54C462.837,577.973 463.621,577.339 464.365,576.329C464.939,575.549 465.472,574.642 465.945,573.425Z"/>
                <path d="M533.06,673.104C530.847,673.316 528.879,671.691 528.668,669.478C528.456,667.265 530.081,665.296 532.294,665.085C532.294,665.085 535.777,664.797 539.995,665.242C542.519,665.508 545.297,666.019 547.781,666.98C552.976,668.886 556.655,671.976 559.311,675.594C563.502,681.302 565.069,688.663 564.1,696.202C563.522,700.698 562,705.203 559.859,709.296C556.411,715.892 551.245,721.39 545.439,724.415C540.702,726.852 536.785,727.919 533.431,728.239C528.342,728.724 524.575,727.552 521.222,726.777C519.046,726.321 517.649,724.185 518.105,722.009C518.561,719.833 520.697,718.437 522.873,718.892C525.518,719.389 528.487,720.325 532.449,719.782C534.916,719.444 537.751,718.472 541.176,716.53C546.241,713.701 550.219,708.085 552.732,701.964C554.384,697.937 555.443,693.668 555.402,689.56C555.367,686.126 554.82,682.768 552.992,680.002C551.305,677.449 548.665,675.45 545.132,674.127C543.263,673.464 541.18,673.171 539.296,673.031C535.872,672.777 533.06,673.104 533.06,673.104Z"/>
                <path d="M373.573,655.512L532.333,655.512C532.333,655.512 532.522,661.735 532.376,669.685C532.215,678.454 531.648,689.325 529.971,696.262C516.978,750 485.512,770.079 485.512,770.079L420.393,770.079C420.393,770.079 388.927,750 375.935,696.262C372.738,683.037 373.573,655.512 373.573,655.512Z"/>
            </g>
        </g>
    </g>
</svg>
