<?xml version="1.0" encoding="UTF-8" standalone="no"?>
<!DOCTYPE svg PUBLIC "-//W3C//DTD SVG 1.1//EN" "http://www.w3.org/Graphics/SVG/1.1/DTD/svg11.dtd">
<svg width="100%" height="100%" viewBox="0 0 185 184" version="1.1" xmlns="http://www.w3.org/2000/svg" xmlns:xlink="http://www.w3.org/1999/xlink" xml:space="preserve" xmlns:serif="http://www.serif.com/" style="fill-rule:evenodd;clip-rule:evenodd;stroke-linejoin:round;stroke-miterlimit:2;">
    <g transform="matrix(1,0,0,1,-356,-672)">
        <g transform="matrix(0.916782,0,0,0.916782,-2245.72,-773.916)">
            <g id="Fist-" serif:id="Fist ">
                <g transform="matrix(1.37731,0,0,1.37731,-1125.74,-676.657)">
                    <path d="M2951.22,1638.1C2970.92,1638.1 2988.76,1646.09 3001.69,1659.02C3014.61,1671.94 3022.61,1689.79 3022.61,1709.49C3022.61,1729.19 3014.61,1747.04 3001.69,1759.96C2988.76,1772.88 2970.92,1780.88 2951.22,1780.88C2931.51,1780.88 2913.67,1772.88 2900.74,1759.96C2887.82,1747.04 2879.83,1729.19 2879.83,1709.49C2879.83,1689.79 2887.82,1671.94 2900.74,1659.02C2913.67,1646.09 2931.51,1638.1 2951.22,1638.1ZM2951.22,1640.57C2932.2,1640.57 2914.97,1648.29 2902.49,1660.77C2890.02,1673.24 2882.3,1690.47 2882.3,1709.49C2882.3,1728.5 2890.02,1745.73 2902.49,1758.21C2914.97,1770.68 2932.2,1778.4 2951.22,1778.4C2970.23,1778.4 2987.46,1770.68 2999.94,1758.21C3012.41,1745.73 3020.13,1728.5 3020.13,1709.49C3020.13,1690.47 3012.41,1673.24 2999.94,1660.77C2987.46,1648.29 2970.23,1640.57 2951.22,1640.57Z" style="fill:rgb(15,0,0);"/>
                </g>
                <path d="M2900.32,1750.11L2898.45,1750.08C2898.53,1745.94 2899.07,1741.78 2899.11,1737.64C2899.13,1735.91 2899.06,1734.17 2898.82,1732.45C2898.61,1730.9 2898.22,1729.49 2897.71,1728.17C2895.28,1721.88 2890.43,1717.65 2889.57,1711.35C2889.08,1707.77 2888.99,1702.77 2889.1,1697.18C2889.3,1686.46 2890.23,1673.56 2890.4,1664.44L2892.27,1664.48C2892.11,1673.59 2891.18,1686.5 2890.97,1697.22C2890.87,1702.69 2890.95,1707.59 2891.43,1711.1C2892.26,1717.25 2897.09,1721.35 2899.46,1727.5C2900.02,1728.94 2900.45,1730.49 2900.68,1732.2C2900.93,1734.01 2901.01,1735.83 2900.99,1737.66C2900.94,1741.8 2900.41,1745.97 2900.32,1750.11Z" style="fill:rgb(15,0,0);"/>
                <path d="M2987.36,1645.57C2987.24,1645.53 2986.41,1645.28 2985.64,1645.15C2983.58,1644.81 2980.28,1644.51 2976.5,1644.26C2966.22,1643.58 2952.4,1643.23 2949.9,1643.17C2948.11,1645.07 2945.07,1650.67 2948.44,1655.17C2950.91,1658.47 2956.65,1661.08 2968.22,1661.56C2969.25,1661.61 2969.98,1662.22 2970.35,1663.36C2970.7,1664.44 2970.69,1666.13 2970.36,1668.09C2969.59,1672.54 2967.22,1678.51 2964.65,1681.67C2962.58,1684.22 2959.47,1684.57 2955.78,1684.47C2950.33,1684.33 2943.49,1683.25 2937.42,1689.57C2933.19,1693.98 2929.37,1701.89 2926.56,1715.95L2924.72,1715.58C2927.63,1701.01 2931.68,1692.84 2936.07,1688.27C2941.56,1682.55 2947.61,1682.31 2952.9,1682.49C2954.98,1682.56 2956.93,1682.7 2958.66,1682.55C2960.49,1682.38 2962.05,1681.89 2963.2,1680.49C2964.9,1678.38 2966.5,1674.94 2967.55,1671.63C2968.35,1669.09 2968.83,1666.62 2968.73,1664.92C2968.7,1664.45 2968.63,1664.06 2968.49,1663.76C2968.41,1663.58 2968.32,1663.44 2968.14,1663.44C2955.69,1662.92 2949.6,1659.85 2946.94,1656.3C2942.68,1650.61 2946.8,1643.44 2948.89,1641.53C2949.06,1641.37 2949.3,1641.28 2949.54,1641.28C2949.54,1641.28 2969.24,1641.73 2980.49,1642.68C2983.77,1642.96 2986.35,1643.29 2987.57,1643.65C2988.15,1643.82 2988.52,1644.05 2988.69,1644.24C2990.3,1645.99 2991.01,1650.28 2991.15,1655.55C2991.37,1663.99 2990.34,1675.05 2990.64,1681.41C2990.87,1686.42 2989.83,1691.53 2987.93,1696.35C2986.05,1701.09 2983.34,1705.55 2980.19,1709.35C2976.24,1714.11 2970.73,1719.16 2967.38,1725.97C2965.51,1729.75 2964.33,1734.09 2964.48,1739.24C2964.53,1740.93 2964.51,1742.62 2964.44,1744.31C2964.28,1748.21 2963.9,1752.1 2963.72,1755.99L2961.85,1755.9C2962.03,1752.02 2962.41,1748.13 2962.57,1744.24C2962.63,1742.59 2962.66,1740.94 2962.61,1739.3C2962.44,1733.8 2963.71,1729.17 2965.7,1725.14C2969.12,1718.19 2974.72,1713.02 2978.75,1708.15C2981.77,1704.5 2984.38,1700.22 2986.18,1695.66C2987.99,1691.09 2988.99,1686.25 2988.77,1681.5C2988.47,1675.13 2989.5,1664.05 2989.28,1655.6C2989.16,1650.97 2988.75,1647.16 2987.36,1645.57Z" style="fill:rgb(15,0,0);"/>
                <g transform="matrix(1.06329,0,0,1.37013,-184.423,-608.406)">
                    <path d="M2914.77,1636.69L2914.77,1656.47C2914.77,1657.96 2913.99,1659.31 2912.74,1660.28C2911.48,1661.26 2909.74,1661.86 2907.83,1661.86L2904.97,1661.86C2903.05,1661.86 2901.32,1661.26 2900.06,1660.28C2898.81,1659.31 2898.03,1657.96 2898.03,1656.47L2898.03,1636.69C2898.03,1635.2 2898.81,1633.85 2900.06,1632.88C2901.32,1631.9 2903.05,1631.3 2904.97,1631.3L2907.83,1631.3C2909.74,1631.3 2911.48,1631.9 2912.74,1632.88C2913.99,1633.85 2914.77,1635.2 2914.77,1636.69ZM2913,1636.69C2913,1635.58 2912.43,1634.57 2911.49,1633.85C2910.55,1633.12 2909.26,1632.67 2907.83,1632.67L2904.97,1632.67C2903.54,1632.67 2902.25,1633.12 2901.31,1633.85C2900.37,1634.57 2899.79,1635.58 2899.79,1636.69L2899.79,1656.47C2899.79,1657.58 2900.37,1658.59 2901.31,1659.31C2902.25,1660.04 2903.54,1660.49 2904.97,1660.49L2907.83,1660.49C2909.26,1660.49 2910.55,1660.04 2911.49,1659.31C2912.43,1658.59 2913,1657.58 2913,1656.47L2913,1636.69Z" style="fill:rgb(15,0,0);"/>
                </g>
                <g transform="matrix(1.21519,0,0,1.77273,-585.533,-1271.88)">
                    <path d="M2914.66,1644.79L2913.11,1644.79L2913.11,1635.32C2913.11,1634.94 2913.01,1634.58 2912.8,1634.24C2912.6,1633.91 2912.3,1633.6 2911.92,1633.33C2911.53,1633.07 2911.08,1632.87 2910.59,1632.73C2910.1,1632.59 2909.57,1632.51 2909.03,1632.51L2903.77,1632.51C2903.23,1632.51 2902.7,1632.59 2902.21,1632.73C2901.72,1632.87 2901.26,1633.07 2900.88,1633.33C2900.5,1633.6 2900.2,1633.91 2899.99,1634.24C2899.79,1634.58 2899.68,1634.94 2899.68,1635.32L2899.68,1657.84C2899.68,1658.22 2899.79,1658.58 2899.99,1658.92C2900.2,1659.25 2900.5,1659.56 2900.88,1659.83C2901.26,1660.09 2901.72,1660.29 2902.21,1660.43C2902.7,1660.57 2903.23,1660.65 2903.77,1660.65L2909.03,1660.65C2909.57,1660.65 2910.1,1660.57 2910.59,1660.43C2911.08,1660.29 2911.53,1660.09 2911.92,1659.83C2912.3,1659.56 2912.6,1659.25 2912.8,1658.92C2913.01,1658.58 2913.11,1658.22 2913.11,1657.84L2913.11,1653.74L2914.66,1653.74L2914.66,1657.84C2914.66,1658.36 2914.51,1658.86 2914.23,1659.32C2913.95,1659.78 2913.54,1660.21 2913.01,1660.57C2912.48,1660.93 2911.86,1661.22 2911.18,1661.41C2910.5,1661.6 2909.77,1661.7 2909.03,1661.7L2903.77,1661.7C2903.03,1661.7 2902.29,1661.6 2901.62,1661.41C2900.94,1661.22 2900.32,1660.93 2899.79,1660.57C2899.26,1660.21 2898.85,1659.78 2898.57,1659.32C2898.29,1658.86 2898.14,1658.36 2898.14,1657.84L2898.14,1635.32C2898.14,1634.8 2898.29,1634.3 2898.57,1633.84C2898.85,1633.38 2899.26,1632.95 2899.79,1632.59C2900.32,1632.22 2900.94,1631.94 2901.62,1631.75C2902.29,1631.56 2903.03,1631.46 2903.77,1631.46L2909.03,1631.46C2909.77,1631.46 2910.5,1631.56 2911.18,1631.75C2911.86,1631.94 2912.48,1632.22 2913.01,1632.59C2913.54,1632.95 2913.95,1633.38 2914.23,1633.84C2914.51,1634.3 2914.66,1634.8 2914.66,1635.32L2914.66,1644.79Z" style="fill:rgb(15,0,0);"/>
                </g>
                <g transform="matrix(1.26583,0,0,0.805196,-713.173,311.094)">
                    <path d="M2914.63,1653.84L2913.14,1653.84L2913.14,1639.32C2913.14,1638.5 2913.04,1637.7 2912.85,1636.96C2912.65,1636.22 2912.36,1635.53 2912,1634.96C2911.63,1634.38 2911.19,1633.93 2910.72,1633.62C2910.25,1633.31 2909.74,1633.15 2909.22,1633.15L2903.58,1633.15C2903.06,1633.15 2902.55,1633.31 2902.08,1633.62C2901.6,1633.93 2901.17,1634.38 2900.8,1634.96C2900.43,1635.53 2900.15,1636.22 2899.95,1636.96C2899.76,1637.7 2899.65,1638.5 2899.65,1639.32L2899.65,1653.84L2898.17,1653.84L2898.17,1639.32C2898.17,1638.19 2898.31,1637.09 2898.58,1636.07C2898.85,1635.05 2899.25,1634.11 2899.76,1633.31C2900.26,1632.51 2900.86,1631.89 2901.51,1631.47C2902.16,1631.04 2902.86,1630.82 2903.58,1630.82L2909.22,1630.82C2909.94,1630.82 2910.64,1631.04 2911.29,1631.47C2911.94,1631.89 2912.54,1632.51 2913.04,1633.31C2913.55,1634.11 2913.95,1635.05 2914.22,1636.07C2914.48,1637.09 2914.63,1638.19 2914.63,1639.32L2914.63,1653.84Z" style="fill:rgb(15,0,0);"/>
                </g>
                <g transform="matrix(1.50633,0,0,1.84416,-1452.26,-1387.32)">
                    <path d="M2914.51,1638.1L2914.51,1655.06C2914.51,1655.94 2914.3,1656.8 2913.89,1657.59C2913.49,1658.39 2912.89,1659.12 2912.13,1659.74C2911.37,1660.36 2910.48,1660.85 2909.5,1661.18C2908.53,1661.51 2907.47,1661.68 2906.4,1661.68L2906.4,1661.68C2905.32,1661.68 2904.27,1661.51 2903.3,1661.18C2902.32,1660.85 2901.43,1660.36 2900.66,1659.74C2899.9,1659.12 2899.31,1658.39 2898.91,1657.59C2898.5,1656.8 2898.29,1655.94 2898.29,1655.06L2898.29,1638.1C2898.29,1637.22 2898.5,1636.36 2898.91,1635.57C2899.31,1634.77 2899.9,1634.04 2900.66,1633.42C2901.43,1632.8 2902.32,1632.31 2903.3,1631.98C2904.27,1631.65 2905.32,1631.48 2906.4,1631.48L2906.4,1631.48C2907.47,1631.48 2908.53,1631.65 2909.5,1631.98C2910.48,1632.31 2911.37,1632.8 2912.13,1633.42C2912.89,1634.04 2913.49,1634.77 2913.89,1635.57C2914.3,1636.36 2914.51,1637.22 2914.51,1638.1ZM2913.26,1638.1C2913.26,1637.36 2913.08,1636.63 2912.74,1635.95C2912.4,1635.28 2911.9,1634.66 2911.25,1634.13C2910.61,1633.61 2909.85,1633.2 2909.03,1632.92C2908.2,1632.64 2907.31,1632.49 2906.4,1632.49L2906.4,1632.49C2905.49,1632.49 2904.6,1632.64 2903.77,1632.92C2902.95,1633.2 2902.19,1633.61 2901.54,1634.13C2900.9,1634.66 2900.4,1635.28 2900.06,1635.95C2899.72,1636.63 2899.53,1637.36 2899.53,1638.1L2899.53,1655.06C2899.53,1655.8 2899.72,1656.53 2900.06,1657.2C2900.4,1657.88 2900.9,1658.5 2901.54,1659.02C2902.19,1659.55 2902.95,1659.96 2903.77,1660.24C2904.6,1660.52 2905.49,1660.67 2906.4,1660.67L2906.4,1660.67C2907.31,1660.67 2908.2,1660.52 2909.03,1660.24C2909.85,1659.96 2910.61,1659.55 2911.25,1659.02C2911.9,1658.5 2912.4,1657.88 2912.74,1657.2C2913.08,1656.53 2913.26,1655.8 2913.26,1655.06L2913.26,1638.1Z" style="fill:rgb(15,0,0);"/>
                </g>
            </g>
        </g>
    </g>
</svg>
