<?xml version="1.0" encoding="UTF-8" standalone="no"?>
<!DOCTYPE svg PUBLIC "-//W3C//DTD SVG 1.1//EN" "http://www.w3.org/Graphics/SVG/1.1/DTD/svg11.dtd">
<svg width="100%" height="100%" viewBox="0 0 178 178" version="1.1" xmlns="http://www.w3.org/2000/svg" xmlns:xlink="http://www.w3.org/1999/xlink" xml:space="preserve" xmlns:serif="http://www.serif.com/" style="fill-rule:evenodd;clip-rule:evenodd;stroke-linejoin:round;stroke-miterlimit:2;">
    <g transform="matrix(1,0,0,1,-1013,-57)">
        <g transform="matrix(0.783917,0,0,0.783917,-362.805,-359.985)">
            <g id="Gear">
                <g transform="matrix(0.889764,0,0,0.889764,257.638,140.504)">
                    <path d="M1819.37,440.276C1813.8,439.908 1808.2,439.908 1802.63,440.276C1801.09,446.778 1800.62,453.356 1801.23,460.01C1796.52,460.44 1791.84,461.18 1787.23,462.226C1785.76,455.709 1783.28,449.598 1779.8,443.891C1774.39,445.264 1769.07,446.993 1763.88,449.066C1764.42,455.726 1766.01,462.126 1768.64,468.267C1764.3,470.13 1760.08,472.279 1756.02,474.698C1752.6,468.957 1748.36,463.91 1743.29,459.557C1738.56,462.536 1734.03,465.824 1729.74,469.4C1732.31,475.566 1735.8,481.162 1740.2,486.188C1736.65,489.303 1733.3,492.649 1730.19,496.205C1725.16,491.802 1719.57,488.314 1713.4,485.74C1709.82,490.034 1706.54,494.56 1703.56,499.287C1707.91,504.357 1712.96,508.601 1718.7,512.021C1716.28,516.082 1714.13,520.298 1712.27,524.642C1706.13,522.008 1699.73,520.419 1693.07,519.877C1690.99,525.066 1689.26,530.386 1687.89,535.803C1693.6,539.279 1699.71,541.756 1706.23,543.234C1705.18,547.844 1704.44,552.518 1704.01,557.225C1697.36,556.618 1690.78,557.085 1684.28,558.627C1683.91,564.203 1683.91,569.797 1684.28,575.373C1690.78,576.915 1697.36,577.382 1704.01,576.775C1704.44,581.482 1705.18,586.156 1706.23,590.766C1699.71,592.244 1693.6,594.721 1687.89,598.197C1689.26,603.614 1690.99,608.934 1693.07,614.123C1699.73,613.581 1706.13,611.992 1712.27,609.358C1714.13,613.702 1716.28,617.918 1718.7,621.979C1712.96,625.399 1707.91,629.643 1703.56,634.713C1706.54,639.44 1709.82,643.966 1713.4,648.26C1719.57,645.686 1725.16,642.198 1730.19,637.795C1733.3,641.351 1736.65,644.697 1740.2,647.812C1735.8,652.838 1732.31,658.434 1729.74,664.6C1734.03,668.176 1738.56,671.464 1743.29,674.443C1748.36,670.09 1752.6,665.043 1756.02,659.302C1760.08,661.721 1764.3,663.87 1768.64,665.733C1766.01,671.874 1764.42,678.274 1763.88,684.934C1769.07,687.007 1774.39,688.736 1779.8,690.109C1783.28,684.402 1785.76,678.291 1787.23,671.774C1791.84,672.82 1796.52,673.56 1801.23,673.99C1800.62,680.644 1801.09,687.222 1802.63,693.724C1808.2,694.092 1813.8,694.092 1819.37,693.724C1820.91,687.222 1821.38,680.644 1820.78,673.99C1825.48,673.56 1830.16,672.82 1834.77,671.774C1836.24,678.291 1838.72,684.402 1842.2,690.109C1847.61,688.736 1852.93,687.007 1858.12,684.934C1857.58,678.274 1855.99,671.874 1853.36,665.733C1857.7,663.87 1861.92,661.721 1865.98,659.302C1869.4,665.043 1873.64,670.09 1878.71,674.443C1883.44,671.464 1887.97,668.176 1892.26,664.6C1889.69,658.434 1886.2,652.838 1881.8,647.812C1885.35,644.697 1888.7,641.351 1891.81,637.795C1896.84,642.198 1902.43,645.686 1908.6,648.26C1912.18,643.966 1915.46,639.44 1918.44,634.713C1914.09,629.643 1909.04,625.399 1903.3,621.979C1905.72,617.918 1907.87,613.702 1909.73,609.358C1915.87,611.992 1922.27,613.581 1928.93,614.123C1931.01,608.934 1932.74,603.614 1934.11,598.197C1928.4,594.721 1922.29,592.244 1915.77,590.766C1916.82,586.156 1917.56,581.482 1917.99,576.775C1924.64,577.382 1931.22,576.915 1937.72,575.373C1938.09,569.797 1938.09,564.203 1937.72,558.627C1931.22,557.085 1924.64,556.618 1917.99,557.225C1917.56,552.518 1916.82,547.844 1915.77,543.234C1922.29,541.756 1928.4,539.279 1934.11,535.803C1932.74,530.386 1931.01,525.066 1928.93,519.877C1922.27,520.419 1915.87,522.008 1909.73,524.642C1907.87,520.298 1905.72,516.082 1903.3,512.021C1909.04,508.601 1914.09,504.357 1918.44,499.287C1915.46,494.56 1912.18,490.034 1908.6,485.74C1902.43,488.314 1896.84,491.802 1891.81,496.205C1888.7,492.649 1885.35,489.303 1881.8,486.188C1886.2,481.162 1889.69,475.566 1892.26,469.4C1887.97,465.824 1883.44,462.536 1878.71,459.557C1873.64,463.91 1869.4,468.957 1865.98,474.698C1861.92,472.279 1857.7,470.13 1853.36,468.267C1855.99,462.126 1857.58,455.726 1858.12,449.066C1852.93,446.993 1847.61,445.264 1842.2,443.891C1838.72,449.598 1836.24,455.709 1834.77,462.226C1830.16,461.18 1825.48,460.44 1820.78,460.01C1821.38,453.356 1820.91,446.778 1819.37,440.276ZM1811,476.658C1860.86,476.658 1901.34,517.139 1901.34,567C1901.34,616.861 1860.86,657.342 1811,657.342C1761.14,657.342 1720.66,616.861 1720.66,567C1720.66,517.139 1761.14,476.658 1811,476.658Z"/>
                </g>
                <g transform="matrix(1.06431,0,0,1.06431,-142.021,-49.4648)">
                    <path d="M1889.5,612C1911.85,612 1930,630.147 1930,652.5C1930,674.853 1911.85,693 1889.5,693C1867.15,693 1849,674.853 1849,652.5C1849,630.147 1867.15,612 1889.5,612ZM1889.5,623.958C1905.25,623.958 1918.04,636.747 1918.04,652.5C1918.04,668.253 1905.25,681.042 1889.5,681.042C1873.75,681.042 1860.96,668.253 1860.96,652.5C1860.96,636.747 1873.75,623.958 1889.5,623.958Z"/>
                </g>
                <g transform="matrix(0.710644,0,0,1.14268,540.093,-92.0261)">
                    <rect x="1861" y="570" width="18.009" height="40"/>
                </g>
                <g transform="matrix(0.219601,-0.675863,1.08675,0.353106,757.392,1681.11)">
                    <rect x="1861" y="570" width="18.009" height="40"/>
                </g>
                <g transform="matrix(-0.574923,-0.417706,0.671648,-0.924444,2510.9,2022.38)">
                    <rect x="1861" y="570" width="18.009" height="40"/>
                </g>
                <g transform="matrix(-0.574923,0.417706,-0.671648,-0.924444,3377.32,460.154)">
                    <rect x="1861" y="570" width="18.009" height="40"/>
                </g>
                <g transform="matrix(0.219601,0.675863,-1.08675,0.353106,2159.3,-846.62)">
                    <rect x="1861" y="570" width="18.009" height="40"/>
                </g>
            </g>
        </g>
    </g>
</svg>
