<?xml version="1.0" encoding="UTF-8" standalone="no"?>
<!DOCTYPE svg PUBLIC "-//W3C//DTD SVG 1.1//EN" "http://www.w3.org/Graphics/SVG/1.1/DTD/svg11.dtd">
<svg width="100%" height="100%" viewBox="0 0 176 144" version="1.1" xmlns="http://www.w3.org/2000/svg" xmlns:xlink="http://www.w3.org/1999/xlink" xml:space="preserve" xmlns:serif="http://www.serif.com/" style="fill-rule:evenodd;clip-rule:evenodd;stroke-linecap:round;stroke-linejoin:round;stroke-miterlimit:1;">
    <g transform="matrix(1,0,0,1,-684,-57)">
        <g transform="matrix(1.41588,0,0,1.41588,-20.376,-2342.05)">
            <g id="Gears">
                <g id="Keilriemen">
                    <g transform="matrix(1.77517,0,0,1.77517,-455.802,-1328.59)">
                        <path d="M585.732,1708.99C587.783,1708.99 589.448,1710.65 589.448,1712.7C589.448,1714.76 587.783,1716.42 585.732,1716.42C583.68,1716.42 582.015,1714.76 582.015,1712.7C582.015,1710.65 583.68,1708.99 585.732,1708.99ZM585.732,1709.92C584.193,1709.92 582.944,1711.17 582.944,1712.7C582.944,1714.24 584.193,1715.49 585.732,1715.49C587.27,1715.49 588.519,1714.24 588.519,1712.7C588.519,1711.17 587.27,1709.92 585.732,1709.92Z"/>
                    </g>
                    <g transform="matrix(4.23346,0,0,4.23346,-1940.49,-5497.43)">
                        <path d="M585.732,1708.99C587.783,1708.99 589.448,1710.65 589.448,1712.7C589.448,1714.76 587.783,1716.42 585.732,1716.42C583.68,1716.42 582.015,1714.76 582.015,1712.7C582.015,1710.65 583.68,1708.99 585.732,1708.99ZM585.732,1709.52C583.975,1709.52 582.549,1710.95 582.549,1712.7C582.549,1714.46 583.975,1715.89 585.732,1715.89C587.488,1715.89 588.914,1714.46 588.914,1712.7C588.914,1710.95 587.488,1709.52 585.732,1709.52Z"/>
                    </g>
                    <path d="M528.922,1742.73L580.2,1707.36" style="fill:none;stroke:black;stroke-width:1.73px;"/>
                    <path d="M588.329,1715.66L549.726,1763.73" style="fill:none;stroke:black;stroke-width:1.73px;"/>
                </g>
                <g id="Zahnrad" transform="matrix(0.364995,0,0,0.367102,-142.998,1516.45)">
                    <g transform="matrix(0.889764,0,0,0.889764,257.638,140.504)">
                        <path d="M1819.37,440.276C1813.8,439.908 1808.2,439.908 1802.63,440.276C1801.09,446.778 1800.62,453.356 1801.23,460.01C1796.52,460.44 1791.84,461.18 1787.23,462.226C1785.76,455.709 1783.28,449.598 1779.8,443.891C1774.39,445.264 1769.07,446.993 1763.88,449.066C1764.42,455.726 1766.01,462.126 1768.64,468.267C1764.3,470.13 1760.08,472.279 1756.02,474.698C1752.6,468.957 1748.36,463.91 1743.29,459.557C1738.56,462.536 1734.03,465.824 1729.74,469.4C1732.31,475.566 1735.8,481.162 1740.2,486.188C1736.65,489.303 1733.3,492.649 1730.19,496.205C1725.16,491.802 1719.57,488.314 1713.4,485.74C1709.82,490.034 1706.54,494.56 1703.56,499.287C1707.91,504.357 1712.96,508.601 1718.7,512.021C1716.28,516.082 1714.13,520.298 1712.27,524.642C1706.13,522.008 1699.73,520.419 1693.07,519.877C1690.99,525.066 1689.26,530.386 1687.89,535.803C1693.6,539.279 1699.71,541.756 1706.23,543.234C1705.18,547.844 1704.44,552.518 1704.01,557.225C1697.36,556.618 1690.78,557.085 1684.28,558.627C1683.91,564.203 1683.91,569.797 1684.28,575.373C1690.78,576.915 1697.36,577.382 1704.01,576.775C1704.44,581.482 1705.18,586.156 1706.23,590.766C1699.71,592.244 1693.6,594.721 1687.89,598.197C1689.26,603.614 1690.99,608.934 1693.07,614.123C1699.73,613.581 1706.13,611.992 1712.27,609.358C1714.13,613.702 1716.28,617.918 1718.7,621.979C1712.96,625.399 1707.91,629.643 1703.56,634.713C1706.54,639.44 1709.82,643.966 1713.4,648.26C1719.57,645.686 1725.16,642.198 1730.19,637.795C1733.3,641.351 1736.65,644.697 1740.2,647.812C1735.8,652.838 1732.31,658.434 1729.74,664.6C1734.03,668.176 1738.56,671.464 1743.29,674.443C1748.36,670.09 1752.6,665.043 1756.02,659.302C1760.08,661.721 1764.3,663.87 1768.64,665.733C1766.01,671.874 1764.42,678.274 1763.88,684.934C1769.07,687.007 1774.39,688.736 1779.8,690.109C1783.28,684.402 1785.76,678.291 1787.23,671.774C1791.84,672.82 1796.52,673.56 1801.23,673.99C1800.62,680.644 1801.09,687.222 1802.63,693.724C1808.2,694.092 1813.8,694.092 1819.37,693.724C1820.91,687.222 1821.38,680.644 1820.78,673.99C1825.48,673.56 1830.16,672.82 1834.77,671.774C1836.24,678.291 1838.72,684.402 1842.2,690.109C1847.61,688.736 1852.93,687.007 1858.12,684.934C1857.58,678.274 1855.99,671.874 1853.36,665.733C1857.7,663.87 1861.92,661.721 1865.98,659.302C1869.4,665.043 1873.64,670.09 1878.71,674.443C1883.44,671.464 1887.97,668.176 1892.26,664.6C1889.69,658.434 1886.2,652.838 1881.8,647.812C1885.35,644.697 1888.7,641.351 1891.81,637.795C1896.84,642.198 1902.43,645.686 1908.6,648.26C1912.18,643.966 1915.46,639.44 1918.44,634.713C1914.09,629.643 1909.04,625.399 1903.3,621.979C1905.72,617.918 1907.87,613.702 1909.73,609.358C1915.87,611.992 1922.27,613.581 1928.93,614.123C1931.01,608.934 1932.74,603.614 1934.11,598.197C1928.4,594.721 1922.29,592.244 1915.77,590.766C1916.82,586.156 1917.56,581.482 1917.99,576.775C1924.64,577.382 1931.22,576.915 1937.72,575.373C1938.09,569.797 1938.09,564.203 1937.72,558.627C1931.22,557.085 1924.64,556.618 1917.99,557.225C1917.56,552.518 1916.82,547.844 1915.77,543.234C1922.29,541.756 1928.4,539.279 1934.11,535.803C1932.74,530.386 1931.01,525.066 1928.93,519.877C1922.27,520.419 1915.87,522.008 1909.73,524.642C1907.87,520.298 1905.72,516.082 1903.3,512.021C1909.04,508.601 1914.09,504.357 1918.44,499.287C1915.46,494.56 1912.18,490.034 1908.6,485.74C1902.43,488.314 1896.84,491.802 1891.81,496.205C1888.7,492.649 1885.35,489.303 1881.8,486.188C1886.2,481.162 1889.69,475.566 1892.26,469.4C1887.97,465.824 1883.44,462.536 1878.71,459.557C1873.64,463.91 1869.4,468.957 1865.98,474.698C1861.92,472.279 1857.7,470.13 1853.36,468.267C1855.99,462.126 1857.58,455.726 1858.12,449.066C1852.93,446.993 1847.61,445.264 1842.2,443.891C1838.72,449.598 1836.24,455.709 1834.77,462.226C1830.16,461.18 1825.48,460.44 1820.78,460.01C1821.38,453.356 1820.91,446.778 1819.37,440.276ZM1811,476.658C1860.86,476.658 1901.34,517.139 1901.34,567C1901.34,616.861 1860.86,657.342 1811,657.342C1761.14,657.342 1720.66,616.861 1720.66,567C1720.66,517.139 1761.14,476.658 1811,476.658Z"/>
                    </g>
                    <g transform="matrix(1.06431,0,0,1.06431,-142.021,-49.4648)">
                        <path d="M1889.5,612C1911.85,612 1930,630.147 1930,652.5C1930,674.853 1911.85,693 1889.5,693C1867.15,693 1849,674.853 1849,652.5C1849,630.147 1867.15,612 1889.5,612ZM1889.5,623.958C1905.25,623.958 1918.04,636.747 1918.04,652.5C1918.04,668.253 1905.25,681.042 1889.5,681.042C1873.75,681.042 1860.96,668.253 1860.96,652.5C1860.96,636.747 1873.75,623.958 1889.5,623.958Z"/>
                    </g>
                    <g transform="matrix(0.710644,0,0,1.14268,540.093,-92.0261)">
                        <rect x="1861" y="570" width="18.009" height="40"/>
                    </g>
                    <g transform="matrix(0.219601,-0.675863,1.08675,0.353106,757.392,1681.11)">
                        <rect x="1861" y="570" width="18.009" height="40"/>
                    </g>
                    <g transform="matrix(-0.574923,-0.417706,0.671648,-0.924444,2510.9,2022.38)">
                        <rect x="1861" y="570" width="18.009" height="40"/>
                    </g>
                    <g transform="matrix(-0.574923,0.417706,-0.671648,-0.924444,3377.32,460.154)">
                        <rect x="1861" y="570" width="18.009" height="40"/>
                    </g>
                    <g transform="matrix(0.219601,0.675863,-1.08675,0.353106,2159.3,-846.62)">
                        <rect x="1861" y="570" width="18.009" height="40"/>
                    </g>
                </g>
                <g transform="matrix(0.997239,-0.0742535,0.0742535,0.997239,70.3614,4.66994)">
                    <path d="M398.276,1778.95C396.028,1778.62 393.744,1778.62 391.495,1778.95L390.391,1782.73C388.254,1783.22 386.214,1784.07 384.353,1785.23L380.899,1783.34C379.077,1784.69 377.462,1786.31 376.104,1788.13L377.997,1791.59C376.836,1793.45 375.991,1795.49 375.495,1797.62L371.716,1798.73C371.387,1800.98 371.387,1803.26 371.716,1805.51L375.495,1806.61C375.991,1808.75 376.836,1810.79 377.997,1812.65L376.104,1816.1C377.462,1817.93 379.077,1819.54 380.899,1820.9L384.353,1819.01C386.214,1820.17 388.254,1821.01 390.391,1821.51L391.495,1825.29C393.744,1825.62 396.028,1825.62 398.276,1825.29L399.38,1821.51C401.517,1821.01 403.557,1820.17 405.419,1819.01L408.872,1820.9C410.694,1819.54 412.31,1817.93 413.667,1816.1L411.775,1812.65C412.935,1810.79 413.781,1808.75 414.276,1806.61L418.056,1805.51C418.385,1803.26 418.385,1800.98 418.056,1798.73L414.276,1797.62C413.781,1795.49 412.935,1793.45 411.775,1791.59L413.667,1788.13C412.31,1786.31 410.694,1784.69 408.872,1783.34L405.419,1785.23C403.557,1784.07 401.517,1783.22 399.38,1782.73L398.276,1778.95ZM394.886,1786.43C403.542,1786.43 410.57,1793.46 410.57,1802.12C410.57,1810.77 403.542,1817.8 394.886,1817.8C386.229,1817.8 379.201,1810.77 379.201,1802.12C379.201,1793.46 386.229,1786.43 394.886,1786.43Z"/>
                </g>
                <g transform="matrix(0.601979,0,0,0.601979,223.09,694.948)">
                    <path d="M620.696,1764.12C620.696,1762.99 621.615,1762.07 622.747,1762.07C623.879,1762.07 624.798,1762.99 624.798,1764.12C624.798,1764.12 624.813,1767.54 624.622,1771.89C624.286,1779.54 623.441,1790 623.441,1790C623.441,1790.38 623.13,1790.69 622.747,1790.69C622.364,1790.69 622.053,1790.38 622.053,1790C622.053,1790 621.208,1779.54 620.872,1771.89C620.681,1767.54 620.696,1764.12 620.696,1764.12Z"/>
                </g>
                <g transform="matrix(0.601979,0,0,0.601979,223.09,694.948)">
                    <path d="M620.696,1764.12C620.696,1762.99 621.615,1762.07 622.747,1762.07C623.879,1762.07 624.798,1762.99 624.798,1764.12C624.798,1764.12 624.813,1767.54 624.622,1771.89C624.286,1779.54 623.441,1790 623.441,1790C623.441,1790.38 623.13,1790.69 622.747,1790.69C622.364,1790.69 622.053,1790.38 622.053,1790C622.053,1790 621.208,1779.54 620.872,1771.89C620.681,1767.54 620.696,1764.12 620.696,1764.12Z"/>
                </g>
                <g transform="matrix(0.425664,-0.425664,0.425664,0.425664,-429.049,1275.63)">
                    <path d="M620.696,1764.12C620.696,1762.99 621.615,1762.07 622.747,1762.07C623.879,1762.07 624.798,1762.99 624.798,1764.12C624.798,1764.12 624.813,1767.54 624.622,1771.89C624.286,1779.54 623.441,1790 623.441,1790C623.441,1790.38 623.13,1790.69 622.747,1790.69C622.364,1790.69 622.053,1790.38 622.053,1790C622.053,1790 621.208,1779.54 620.872,1771.89C620.681,1767.54 620.696,1764.12 620.696,1764.12Z"/>
                </g>
                <g transform="matrix(0,-0.601979,0.601979,0,-479.573,2147.37)">
                    <path d="M620.696,1764.12C620.696,1762.99 621.615,1762.07 622.747,1762.07C623.879,1762.07 624.798,1762.99 624.798,1764.12C624.798,1764.12 624.813,1767.54 624.622,1771.89C624.286,1779.54 623.441,1790 623.441,1790C623.441,1790.38 623.13,1790.69 622.747,1790.69C622.364,1790.69 622.053,1790.38 622.053,1790C622.053,1790 621.208,1779.54 620.872,1771.89C620.681,1767.54 620.696,1764.12 620.696,1764.12Z"/>
                </g>
                <g transform="matrix(-0.425664,-0.425664,0.425664,-0.425664,101.113,2799.51)">
                    <path d="M620.696,1764.12C620.696,1762.99 621.615,1762.07 622.747,1762.07C623.879,1762.07 624.798,1762.99 624.798,1764.12C624.798,1764.12 624.813,1767.54 624.622,1771.89C624.286,1779.54 623.441,1790 623.441,1790C623.441,1790.38 623.13,1790.69 622.747,1790.69C622.364,1790.69 622.053,1790.38 622.053,1790C622.053,1790 621.208,1779.54 620.872,1771.89C620.681,1767.54 620.696,1764.12 620.696,1764.12Z"/>
                </g>
                <g transform="matrix(-0.601979,0,0,-0.601979,972.851,2850.04)">
                    <path d="M620.696,1764.12C620.696,1762.99 621.615,1762.07 622.747,1762.07C623.879,1762.07 624.798,1762.99 624.798,1764.12C624.798,1764.12 624.813,1767.54 624.622,1771.89C624.286,1779.54 623.441,1790 623.441,1790C623.441,1790.38 623.13,1790.69 622.747,1790.69C622.364,1790.69 622.053,1790.38 622.053,1790C622.053,1790 621.208,1779.54 620.872,1771.89C620.681,1767.54 620.696,1764.12 620.696,1764.12Z"/>
                </g>
                <g transform="matrix(-0.425664,0.425664,-0.425664,-0.425664,1624.99,2269.35)">
                    <path d="M620.696,1764.12C620.696,1762.99 621.615,1762.07 622.747,1762.07C623.879,1762.07 624.798,1762.99 624.798,1764.12C624.798,1764.12 624.813,1767.54 624.622,1771.89C624.286,1779.54 623.441,1790 623.441,1790C623.441,1790.38 623.13,1790.69 622.747,1790.69C622.364,1790.69 622.053,1790.38 622.053,1790C622.053,1790 621.208,1779.54 620.872,1771.89C620.681,1767.54 620.696,1764.12 620.696,1764.12Z"/>
                </g>
                <g transform="matrix(0,0.601979,-0.601979,0,1675.51,1397.61)">
                    <path d="M620.696,1764.12C620.696,1762.99 621.615,1762.07 622.747,1762.07C623.879,1762.07 624.798,1762.99 624.798,1764.12C624.798,1764.12 624.813,1767.54 624.622,1771.89C624.286,1779.54 623.441,1790 623.441,1790C623.441,1790.38 623.13,1790.69 622.747,1790.69C622.364,1790.69 622.053,1790.38 622.053,1790C622.053,1790 621.208,1779.54 620.872,1771.89C620.681,1767.54 620.696,1764.12 620.696,1764.12Z"/>
                </g>
                <g transform="matrix(0.425664,0.425664,-0.425664,0.425664,1094.83,745.472)">
                    <path d="M620.696,1764.12C620.696,1762.99 621.615,1762.07 622.747,1762.07C623.879,1762.07 624.798,1762.99 624.798,1764.12C624.798,1764.12 624.813,1767.54 624.622,1771.89C624.286,1779.54 623.441,1790 623.441,1790C623.441,1790.38 623.13,1790.69 622.747,1790.69C622.364,1790.69 622.053,1790.38 622.053,1790C622.053,1790 621.208,1779.54 620.872,1771.89C620.681,1767.54 620.696,1764.12 620.696,1764.12Z"/>
                </g>
                <g transform="matrix(1.77517,0,0,1.77517,-453.269,-1323.43)">
                    <path d="M584.683,1700.05C584.431,1700.04 584.179,1700.04 583.927,1700.05L583.802,1701.52C583.559,1701.54 583.317,1701.56 583.077,1701.6L582.648,1700.19C582.4,1700.23 582.154,1700.28 581.909,1700.35L582.093,1701.81C581.858,1701.87 581.627,1701.95 581.399,1702.04L580.687,1700.74C580.453,1700.84 580.223,1700.94 579.997,1701.05L580.48,1702.44C580.265,1702.56 580.054,1702.68 579.849,1702.81L578.883,1701.69C578.674,1701.83 578.47,1701.98 578.272,1702.14L579.035,1703.4C578.847,1703.55 578.667,1703.72 578.493,1703.89L577.317,1703C577.141,1703.18 576.972,1703.36 576.811,1703.56L577.82,1704.63C577.669,1704.83 577.526,1705.02 577.392,1705.23L576.055,1704.6C575.921,1704.81 575.795,1705.03 575.678,1705.25L576.888,1706.1C576.78,1706.31 576.681,1706.54 576.592,1706.76L575.155,1706.43C575.068,1706.66 574.99,1706.9 574.921,1707.15L576.281,1707.72C576.22,1707.95 576.17,1708.19 576.13,1708.43L574.654,1708.4C574.618,1708.65 574.592,1708.9 574.575,1709.15L576.024,1709.43C576.014,1709.68 576.014,1709.92 576.024,1710.16L574.575,1710.44C574.592,1710.69 574.618,1710.94 574.654,1711.19L576.13,1711.16C576.17,1711.4 576.22,1711.64 576.281,1711.88L574.921,1712.45C574.99,1712.69 575.068,1712.93 575.155,1713.17L576.592,1712.83C576.681,1713.06 576.78,1713.28 576.888,1713.5L575.678,1714.34C575.795,1714.57 575.921,1714.78 576.055,1715L577.392,1714.37C577.526,1714.57 577.669,1714.77 577.82,1714.96L576.811,1716.04C576.972,1716.23 577.141,1716.42 577.317,1716.6L578.493,1715.71C578.667,1715.88 578.847,1716.04 579.035,1716.19L578.272,1717.46C578.47,1717.61 578.674,1717.76 578.883,1717.9L579.849,1716.79C580.054,1716.92 580.265,1717.04 580.48,1717.15L579.997,1718.55C580.223,1718.66 580.453,1718.76 580.687,1718.85L581.399,1717.56C581.627,1717.64 581.858,1717.72 582.093,1717.79L581.909,1719.25C582.154,1719.31 582.4,1719.36 582.648,1719.41L583.077,1717.99C583.317,1718.03 583.559,1718.06 583.802,1718.07L583.927,1719.54C584.179,1719.55 584.431,1719.55 584.683,1719.54L584.808,1718.07C585.051,1718.06 585.292,1718.03 585.533,1717.99L585.961,1719.41C586.209,1719.36 586.456,1719.31 586.7,1719.25L586.517,1717.79C586.751,1717.72 586.983,1717.64 587.21,1717.56L587.923,1718.85C588.157,1718.76 588.387,1718.66 588.613,1718.55L588.129,1717.15C588.345,1717.04 588.556,1716.92 588.761,1716.79L589.727,1717.9C589.936,1717.76 590.14,1717.61 590.338,1717.46L589.575,1716.19C589.762,1716.04 589.943,1715.88 590.116,1715.71L591.293,1716.6C591.469,1716.42 591.637,1716.23 591.799,1716.04L590.79,1714.96C590.941,1714.77 591.084,1714.57 591.218,1714.37L592.554,1715C592.689,1714.78 592.815,1714.57 592.932,1714.34L591.721,1713.5C591.83,1713.28 591.929,1713.06 592.018,1712.83L593.455,1713.17C593.542,1712.93 593.62,1712.69 593.688,1712.45L592.329,1711.88C592.389,1711.64 592.44,1711.4 592.48,1711.16L593.956,1711.19C593.992,1710.94 594.018,1710.69 594.035,1710.44L592.585,1710.16C592.596,1709.92 592.596,1709.68 592.585,1709.43L594.035,1709.15C594.018,1708.9 593.992,1708.65 593.956,1708.4L592.48,1708.43C592.44,1708.19 592.389,1707.95 592.329,1707.72L593.688,1707.15C593.62,1706.9 593.542,1706.66 593.455,1706.43L592.018,1706.76C591.929,1706.54 591.83,1706.31 591.721,1706.1L592.932,1705.25C592.815,1705.03 592.689,1704.81 592.554,1704.6L591.218,1705.23C591.084,1705.02 590.941,1704.83 590.79,1704.63L591.799,1703.56C591.637,1703.36 591.469,1703.18 591.293,1703L590.116,1703.89C589.943,1703.72 589.762,1703.55 589.575,1703.4L590.338,1702.14C590.14,1701.98 589.936,1701.83 589.727,1701.69L588.761,1702.81C588.556,1702.68 588.345,1702.56 588.129,1702.44L588.613,1701.05C588.387,1700.94 588.157,1700.84 587.923,1700.74L587.21,1702.04C586.983,1701.95 586.751,1701.87 586.517,1701.81L586.7,1700.35C586.456,1700.28 586.209,1700.23 585.961,1700.19L585.533,1701.6C585.292,1701.56 585.051,1701.54 584.808,1701.52L584.683,1700.05ZM584.305,1703.76C587.637,1703.76 590.342,1706.47 590.342,1709.8C590.342,1713.13 587.637,1715.84 584.305,1715.84C580.973,1715.84 578.267,1713.13 578.267,1709.8C578.267,1706.47 580.973,1703.76 584.305,1703.76Z"/>
                </g>
                <g transform="matrix(1.08673,-0.151894,0.151894,1.08673,-290.286,-39.506)">
                    <path d="M584.82,1700.06C584.477,1700.04 584.133,1700.04 583.79,1700.06L583.619,1701.54C583.289,1701.57 582.96,1701.61 582.636,1701.68L582.056,1700.31C581.721,1700.39 581.391,1700.49 581.067,1700.6L581.32,1702.07C581.011,1702.18 580.709,1702.32 580.416,1702.48L579.474,1701.33C579.175,1701.5 578.886,1701.68 578.607,1701.88L579.262,1703.22C578.999,1703.42 578.748,1703.64 578.511,1703.87L577.283,1703.03C577.045,1703.28 576.819,1703.54 576.608,1703.81L577.613,1704.91C577.418,1705.17 577.238,1705.45 577.076,1705.74L575.661,1705.28C575.502,1705.59 575.359,1705.9 575.233,1706.22L576.506,1706.99C576.394,1707.3 576.301,1707.62 576.226,1707.94L574.74,1707.9C574.673,1708.24 574.624,1708.58 574.593,1708.92L576.031,1709.3C576.011,1709.63 576.011,1709.96 576.031,1710.29L574.593,1710.67C574.624,1711.02 574.673,1711.36 574.74,1711.69L576.226,1711.65C576.301,1711.98 576.394,1712.29 576.506,1712.61L575.233,1713.37C575.359,1713.69 575.502,1714.01 575.661,1714.31L577.076,1713.85C577.238,1714.14 577.418,1714.42 577.613,1714.69L576.608,1715.79C576.819,1716.06 577.045,1716.32 577.283,1716.56L578.511,1715.73C578.748,1715.96 578.999,1716.17 579.262,1716.38L578.607,1717.71C578.886,1717.91 579.175,1718.1 579.474,1718.27L580.416,1717.12C580.709,1717.27 581.011,1717.41 581.32,1717.53L581.067,1719C581.391,1719.11 581.721,1719.21 582.056,1719.29L582.636,1717.92C582.96,1717.98 583.289,1718.03 583.619,1718.06L583.79,1719.54C584.133,1719.55 584.477,1719.55 584.82,1719.54L584.991,1718.06C585.321,1718.03 585.649,1717.98 585.974,1717.92L586.554,1719.29C586.888,1719.21 587.218,1719.11 587.542,1719L587.29,1717.53C587.599,1717.41 587.901,1717.27 588.194,1717.12L589.136,1718.27C589.435,1718.1 589.724,1717.91 590.003,1717.71L589.347,1716.38C589.61,1716.17 589.861,1715.96 590.098,1715.73L591.327,1716.56C591.565,1716.32 591.79,1716.06 592.001,1715.79L590.996,1714.69C591.192,1714.42 591.371,1714.14 591.534,1713.85L592.948,1714.31C593.107,1714.01 593.25,1713.69 593.376,1713.37L592.103,1712.61C592.216,1712.29 592.309,1711.98 592.383,1711.65L593.87,1711.69C593.937,1711.36 593.986,1711.02 594.017,1710.67L592.578,1710.29C592.598,1709.96 592.598,1709.63 592.578,1709.3L594.017,1708.92C593.986,1708.58 593.937,1708.24 593.87,1707.9L592.383,1707.94C592.309,1707.62 592.216,1707.3 592.103,1706.99L593.376,1706.22C593.25,1705.9 593.107,1705.59 592.948,1705.28L591.534,1705.74C591.371,1705.45 591.192,1705.17 590.996,1704.91L592.001,1703.81C591.79,1703.54 591.565,1703.28 591.327,1703.03L590.098,1703.87C589.861,1703.64 589.61,1703.42 589.347,1703.22L590.003,1701.88C589.724,1701.68 589.435,1701.5 589.136,1701.33L588.194,1702.48C587.901,1702.32 587.599,1702.18 587.29,1702.07L587.542,1700.6C587.218,1700.49 586.888,1700.39 586.554,1700.31L585.974,1701.68C585.649,1701.61 585.321,1701.57 584.991,1701.54L584.82,1700.06ZM584.305,1703.76C587.637,1703.76 590.342,1706.47 590.342,1709.8C590.342,1713.13 587.637,1715.84 584.305,1715.84C580.973,1715.84 578.267,1713.13 578.267,1709.8C578.267,1706.47 580.973,1703.76 584.305,1703.76Z"/>
                </g>
                <g transform="matrix(1.77517,0,0,1.77517,-455.802,-1328.59)">
                    <path d="M585.732,1708.99C587.783,1708.99 589.448,1710.65 589.448,1712.7C589.448,1714.76 587.783,1716.42 585.732,1716.42C583.68,1716.42 582.015,1714.76 582.015,1712.7C582.015,1710.65 583.68,1708.99 585.732,1708.99ZM585.732,1709.92C587.27,1709.92 588.519,1711.17 588.519,1712.7C588.519,1714.24 587.27,1715.49 585.732,1715.49C584.193,1715.49 582.944,1714.24 582.944,1712.7C582.944,1711.17 584.193,1709.92 585.732,1709.92Z"/>
                </g>
            </g>
        </g>
    </g>
</svg>
