<?xml version="1.0" encoding="UTF-8" standalone="no"?>
<!DOCTYPE svg PUBLIC "-//W3C//DTD SVG 1.1//EN" "http://www.w3.org/Graphics/SVG/1.1/DTD/svg11.dtd">
<svg width="100%" height="100%" viewBox="0 0 178 57" version="1.1" xmlns="http://www.w3.org/2000/svg" xmlns:xlink="http://www.w3.org/1999/xlink" xml:space="preserve" xmlns:serif="http://www.serif.com/" style="fill-rule:evenodd;clip-rule:evenodd;stroke-linejoin:round;stroke-miterlimit:2;">
    <g transform="matrix(1,0,0,1,-702,-406)">
        <g transform="matrix(1.07322,0,0,1.07322,-572.437,-1689.83)">
            <g id="Hand">
                <g transform="matrix(0.415774,0,0,0.415774,590.159,1353.92)">
                    <path d="M1438.91,1546.08L1447.26,1471.39C1449.11,1454.91 1463.54,1442.77 1480.09,1443.78L1508.62,1445.51C1514.21,1445.85 1519.44,1448.42 1523.12,1452.65C1526.8,1456.88 1528.62,1462.41 1528.18,1468L1522.33,1542.49C1521.5,1552.95 1512.74,1560.99 1502.25,1560.92L1451.78,1560.56C1448.08,1560.53 1444.57,1558.94 1442.12,1556.18C1439.67,1553.42 1438.5,1549.75 1438.91,1546.08ZM1485.83,1513.84C1476.61,1513.84 1469.12,1521.33 1469.12,1530.56C1469.12,1539.78 1476.61,1547.27 1485.83,1547.27C1495.06,1547.27 1502.55,1539.78 1502.55,1530.56C1502.55,1521.33 1495.06,1513.84 1485.83,1513.84Z"/>
                </g>
                <g transform="matrix(0.415774,0,0,0.415774,590.159,1353.92)">
                    <path d="M1553.78,1452.95C1554.12,1450.28 1557.37,1448.36 1560,1447.8C1569.65,1445.75 1596.64,1441.33 1611.71,1440.67C1624.63,1440.11 1637.75,1441.04 1650.37,1443.86C1669.61,1448.15 1712.26,1462.16 1727.1,1466.45C1748.1,1472.53 1737.38,1491.28 1728.62,1493.59C1695.94,1502.24 1676.6,1493.97 1665.69,1491.93C1639.01,1486.93 1658.99,1499.9 1661.75,1501.18C1668.32,1504.21 1690.65,1508.01 1705.11,1510.12C1730.92,1513.89 1768.5,1500.64 1787.15,1493.9C1796.63,1490.47 1807.23,1482.89 1814.29,1480.55C1837.93,1472.73 1836.89,1498.28 1830.21,1505.57C1812.02,1525.44 1757.44,1552.02 1736.96,1562.44C1726.61,1567.7 1716.45,1566.8 1706.18,1565.77C1681.86,1563.35 1617.31,1551.96 1591.08,1547.88C1582.99,1546.62 1574.39,1543.88 1566.52,1546.82C1561.89,1548.55 1557.05,1552.38 1554.84,1554.86C1549.16,1561.23 1546.12,1556.42 1547.11,1551.06C1550.2,1534.36 1551.63,1470.17 1553.78,1452.95Z"/>
                </g>
            </g>
        </g>
    </g>
</svg>
