<?xml version="1.0" encoding="UTF-8" standalone="no"?>
<!DOCTYPE svg PUBLIC "-//W3C//DTD SVG 1.1//EN" "http://www.w3.org/Graphics/SVG/1.1/DTD/svg11.dtd">
<svg width="100%" height="100%" viewBox="0 0 154 182" version="1.1" xmlns="http://www.w3.org/2000/svg" xmlns:xlink="http://www.w3.org/1999/xlink" xml:space="preserve" xmlns:serif="http://www.serif.com/" style="fill-rule:evenodd;clip-rule:evenodd;stroke-linecap:round;stroke-miterlimit:1;">
    <g transform="matrix(1,0,0,1,-1701,-330)">
        <g transform="matrix(0.596217,0,0,0.596217,123.816,-400.832)">
            <g id="Lamp">
                <g transform="matrix(0.923653,0,0,0.923653,205.597,103.425)">
                    <path d="M2650.57,1354.66L2692.91,1354.66" style="fill:none;stroke:black;stroke-width:11.16px;"/>
                </g>
                <g transform="matrix(0.653121,0.653121,-0.653121,0.653121,1842.84,-1346.77)">
                    <path d="M2650.57,1354.66L2692.91,1354.66" style="fill:none;stroke:black;stroke-width:11.16px;"/>
                </g>
                <g transform="matrix(0,0.923653,-0.923653,0,4025.99,-1214.5)">
                    <path d="M2650.57,1354.66L2692.91,1354.66" style="fill:none;stroke:black;stroke-width:11.16px;"/>
                </g>
                <g transform="matrix(-0.653121,0.653121,-0.653121,-0.653121,5476.18,422.744)">
                    <path d="M2650.57,1354.66L2692.91,1354.66" style="fill:none;stroke:black;stroke-width:11.16px;"/>
                </g>
                <g transform="matrix(-0.923653,-7.32747e-15,7.32747e-15,-0.923653,5343.91,2605.89)">
                    <path d="M2650.57,1354.66L2692.91,1354.66" style="fill:none;stroke:black;stroke-width:11.16px;"/>
                </g>
                <g transform="matrix(-1.74545,2.13757e-16,-1.69224e-16,-1.38182,7611.24,3372.37)">
                    <path d="M2769.75,1372.95C2781.93,1372.95 2785.31,1372.1 2785.99,1386.63C2786.9,1406.27 2811.02,1431.93 2811.02,1457.57C2811.02,1485.88 2792.83,1508.86 2770.42,1508.86C2748.01,1508.86 2729.82,1485.88 2729.82,1457.57C2729.82,1436.2 2752.83,1405.43 2752.83,1386.63C2752.83,1372.1 2758.07,1372.95 2769.75,1372.95ZM2769.75,1378.15C2766.4,1378.15 2763.61,1378.06 2761.33,1378.33C2759.98,1378.49 2758.87,1378.63 2758.12,1379.46C2757.65,1379.97 2757.44,1380.79 2757.26,1381.86C2757.03,1383.17 2756.94,1384.74 2756.94,1386.63C2756.94,1396.69 2751.05,1410.11 2744.9,1423.72C2739.53,1435.57 2733.93,1447.61 2733.93,1457.57C2733.93,1483.01 2750.28,1503.66 2770.42,1503.66C2790.56,1503.66 2806.91,1483.01 2806.91,1457.57C2806.91,1445.67 2801.1,1433.87 2795.39,1422.66C2788.81,1409.73 2782.37,1397.45 2781.88,1386.93C2781.77,1384.49 2781.59,1382.55 2781.25,1381.03C2781.08,1380.25 2780.91,1379.63 2780.58,1379.21C2780.03,1378.51 2779.17,1378.47 2778.09,1378.33C2775.96,1378.06 2773.23,1378.15 2769.75,1378.15Z"/>
                </g>
                <g transform="matrix(0.87234,0,0,0.87234,354.557,189.378)">
                    <path d="M2749.61,1483.46L2805.12,1483.46" style="fill:none;stroke:black;stroke-width:13.19px;"/>
                </g>
                <g transform="matrix(0.87234,0,0,0.87234,355.147,205.914)">
                    <path d="M2749.61,1483.46L2805.12,1483.46" style="fill:none;stroke:black;stroke-width:13.19px;"/>
                </g>
                <g transform="matrix(2,1.04955e-16,-1.04955e-16,-1.14298,-2897.24,3242.65)">
                    <path d="M2848.82,1511.22C2848.83,1505.65 2845.94,1502.79 2842.91,1498.82C2841.73,1497.27 2832.28,1497.27 2831.1,1498.82C2827.95,1502.95 2825.2,1505.65 2825.2,1511.22C2825.2,1516.39 2827.56,1516.39 2827.56,1516.39L2846.16,1516.39C2846.16,1516.39 2848.81,1515.77 2848.82,1511.22Z"/>
                </g>
                <path d="M2774.76,1315.57C2795.12,1315.85 2816.64,1334.65 2816.32,1358.27" style="fill:none;stroke:black;stroke-width:13.19px;"/>
            </g>
        </g>
    </g>
</svg>
