<?xml version="1.0" encoding="UTF-8" standalone="no"?>
<!DOCTYPE svg PUBLIC "-//W3C//DTD SVG 1.1//EN" "http://www.w3.org/Graphics/SVG/1.1/DTD/svg11.dtd">
<svg width="100%" height="100%" viewBox="0 0 109 150" version="1.1" xmlns="http://www.w3.org/2000/svg" xmlns:xlink="http://www.w3.org/1999/xlink" xml:space="preserve" xmlns:serif="http://www.serif.com/" style="fill-rule:evenodd;clip-rule:evenodd;stroke-linejoin:round;stroke-miterlimit:2;">
    <g transform="matrix(1,0,0,1,-53,-58)">
        <g transform="matrix(0.345562,-0.199511,0.199511,0.345562,-688.015,394.47)">
            <g id="Magnifier1">
                <g transform="matrix(1.22159,0,0,1.22159,-422.1,-93.2727)">
                    <path d="M2040.26,272C2088.83,272 2128.26,311.431 2128.26,360C2128.26,408.569 2088.83,448 2040.26,448C1991.69,448 1952.26,408.569 1952.26,360C1952.26,311.431 1991.69,272 2040.26,272ZM2040.26,287.343C2000.16,287.343 1967.61,319.899 1967.61,360C1967.61,400.101 2000.16,432.657 2040.26,432.657C2080.36,432.657 2112.92,400.101 2112.92,360C2112.92,319.899 2080.36,287.343 2040.26,287.343Z"/>
                </g>
                <path d="M2085.42,463.472L2092.68,626.013C2092.74,626.668 2092.77,627.33 2092.77,628C2092.77,640.142 2082.91,650 2070.77,650C2058.62,650 2048.77,640.142 2048.77,628C2048.77,627.376 2048.79,626.759 2048.84,626.148L2055.6,463.52C2060.47,463.989 2065.36,464.225 2070.27,464.225C2075.33,464.225 2080.39,463.973 2085.42,463.472Z"/>
                <path d="M2085.42,463.472L2092.68,626.013C2092.74,626.668 2092.77,627.33 2092.77,628C2092.77,640.142 2082.91,650 2070.77,650C2058.62,650 2048.77,640.142 2048.77,628C2048.77,627.376 2048.79,626.759 2048.84,626.148L2055.6,463.52C2060.47,463.989 2065.36,464.225 2070.27,464.225C2075.33,464.225 2080.39,463.973 2085.42,463.472ZM2083.78,465.359C2079.29,465.753 2074.78,465.951 2070.27,465.951C2065.92,465.951 2061.57,465.768 2057.25,465.402L2050.57,626.22C2050.57,626.244 2050.56,626.268 2050.56,626.292C2050.51,626.855 2050.49,627.425 2050.49,628C2050.49,639.19 2059.58,648.274 2070.77,648.274C2081.95,648.274 2091.04,639.19 2091.04,628C2091.04,627.382 2091.01,626.771 2090.96,626.167C2090.96,626.142 2090.95,626.116 2090.95,626.09L2083.78,465.359Z"/>
            </g>
        </g>
    </g>
</svg>
