<?xml version="1.0" encoding="UTF-8" standalone="no"?>
<!DOCTYPE svg PUBLIC "-//W3C//DTD SVG 1.1//EN" "http://www.w3.org/Graphics/SVG/1.1/DTD/svg11.dtd">
<svg width="100%" height="100%" viewBox="0 0 161 178" version="1.1" xmlns="http://www.w3.org/2000/svg" xmlns:xlink="http://www.w3.org/1999/xlink" xml:space="preserve" xmlns:serif="http://www.serif.com/" style="fill-rule:evenodd;clip-rule:evenodd;stroke-linejoin:round;stroke-miterlimit:2;">
    <g transform="matrix(1,0,0,1,-1034,-317)">
        <g transform="matrix(1.06923,0,0,1.06923,-1124.32,-1156.16)">
            <g id="ManInMotion">
                <path id="Hemd-Bund-Rechts" serif:id="Hemd Bund Rechts" d="M2155.61,1434.86L2156.62,1434.86C2156.62,1434.86 2157.24,1438.85 2157.28,1440.35C2157.38,1443.31 2156.69,1443.9 2156.69,1443.9L2155.61,1434.86Z" style="fill:white;"/>
                <path id="Hemd-Kragen" serif:id="Hemd Kragen" d="M2117.13,1399.61L2125.69,1410.24L2125.39,1411.42L2123.62,1412.6L2125.98,1415.55L2123.62,1424.41L2118.9,1428.54L2116.53,1413.78L2114.76,1400.79L2117.13,1399.61Z" style="fill:white;"/>
                <path id="Hand-Rechts" serif:id="Hand Rechts" d="M2156.55,1435.04L2158.47,1434.74C2158.47,1434.74 2159.94,1433.09 2160.83,1432.53C2161.71,1431.97 2162.01,1431.5 2163.78,1431.5C2164.87,1431.5 2166.4,1430.95 2167.32,1432C2168.18,1432.97 2167.03,1433.26 2167,1433.27C2165.11,1433.56 2166.84,1433.52 2167.47,1433.71C2169.39,1434.3 2168.88,1435.29 2168.65,1436.07C2168.35,1437.11 2166.8,1439.61 2165.85,1440.35C2164.52,1441.39 2163.63,1441.09 2163.04,1440.8C2162.66,1440.61 2162.3,1440.21 2162.16,1440.35C2161.1,1441.41 2159.65,1441.24 2158.47,1440.94C2158.06,1440.84 2157.28,1440.65 2157.28,1440.65L2156.55,1435.04Z" style="fill:rgb(255,197,173);"/>
                <path id="Kopf" d="M2124.95,1409.65C2124.95,1409.65 2127.46,1408.02 2128.35,1407.58C2128.95,1407.28 2129.61,1407.13 2130.27,1406.99C2131.59,1406.69 2133.22,1407.28 2134.1,1407.43C2134.69,1407.53 2135.28,1406.99 2135.28,1406.1C2135.28,1404.03 2134.7,1404.33 2135.43,1403.44C2135.72,1403.1 2136.47,1401.97 2135.28,1401.23C2135.19,1401.17 2134.85,1401.14 2135.58,1401.08C2137.41,1400.93 2136.61,1399.16 2136.61,1398.87C2136.61,1398.6 2136.92,1398.63 2137.49,1398.59C2138.39,1398.53 2138.98,1398.5 2138.33,1397.06C2138.05,1396.45 2136.96,1395.28 2136.61,1394.59C2136.35,1394.05 2135.98,1393.28 2136.4,1392.86C2136.65,1392.61 2136.86,1391.28 2136.32,1389.27C2135.97,1387.96 2135.14,1384.84 2135.14,1384.84L2124.8,1386.91L2115.95,1398.13L2124.95,1409.65Z" style="fill:rgb(255,197,173);"/>
                <path d="M2071.06,1487.01C2061.02,1485.24 2056.22,1484.42 2053.35,1483.46C2052.76,1483.27 2051.57,1481.1 2046.26,1479.33C2045.01,1478.91 2043.31,1474.02 2039.76,1473.42C2037.7,1473.08 2033.27,1478.15 2033.27,1478.15C2033.27,1478.15 2034.95,1479.08 2034.45,1479.33C2028.54,1482.28 2020.28,1488.78 2019.09,1498.23C2018.99,1499.1 2021.79,1500.24 2022.64,1500C2024.02,1499.61 2027.95,1495.28 2027.95,1495.28L2040.94,1490.55C2040.94,1490.55 2040.35,1500.59 2040.94,1500.59C2047.55,1500.59 2067.48,1505.45 2076.38,1507.68C2081.1,1508.86 2085.73,1509.73 2087.6,1504.13C2089.37,1498.82 2092.32,1482.28 2092.32,1482.28L2103.54,1491.73L2095.87,1531.37L2096.46,1531.37L2095.28,1533.44C2095.28,1533.44 2094.22,1532.68 2094.09,1533.07C2093.21,1535.73 2092.29,1538.39 2093.95,1543.85C2093.99,1543.99 2104.43,1542.37 2104.43,1542.37C2104.43,1542.37 2104.14,1540.28 2104.43,1540.31C2108.86,1540.75 2116.48,1542.55 2123.03,1538.98C2129.53,1535.43 2123.6,1533.74 2121.86,1534.25C2111.81,1537.2 2110.04,1531.89 2110.04,1531.89L2115.17,1532.48C2115.17,1532.48 2119.49,1507.04 2121.26,1498.82C2122.44,1493.32 2123.62,1487.6 2120.08,1482.28C2117.18,1477.93 2111.22,1469.88 2111.22,1469.88L2113.58,1469.29L2105.32,1449.8C2105.32,1449.8 2117.85,1435.85 2118.31,1436.22C2130.06,1445.67 2136.61,1446.85 2149.61,1445.67C2151.96,1445.45 2156.69,1445.67 2156.69,1445.67L2155.51,1434.45C2155.51,1434.45 2136.4,1433.71 2136.01,1433.27C2131.67,1428.28 2127.11,1425.39 2127.16,1424.39C2127.65,1416.48 2125.4,1409.5 2125.4,1409.5L2124.8,1409.8L2122.44,1412.78C2122.44,1412.78 2124.65,1414.9 2124.8,1415.96C2125,1417.31 2123.62,1420.87 2123.62,1420.87C2123.62,1420.87 2119.76,1427.53 2120.08,1425.59C2121.26,1418.5 2120.46,1405.2 2116.53,1400.79C2115.74,1399.89 2122.63,1397.23 2122.44,1396.06C2121.86,1392.52 2125.98,1390.16 2125.98,1393.7C2125.98,1394.09 2127.16,1395.88 2127.16,1395.88L2128.35,1394.88C2128.35,1394.88 2128.35,1391.86 2130.53,1391.34C2132.89,1390.78 2128.22,1386.98 2135.43,1386.61C2136.46,1386.56 2138.01,1385.29 2137.8,1384.43C2137.15,1381.89 2133.59,1381.55 2130.53,1379.53C2126.95,1377.16 2124.23,1378.35 2122.44,1379.53C2121.51,1380.14 2121.18,1380.74 2120.08,1380.89C2118.7,1381.07 2114.17,1383.07 2113.88,1388.98C2113.68,1393 2115.17,1399.42 2115.17,1399.42L2111.81,1400.79C2111.81,1400.79 2108.69,1398.39 2107.09,1397.24C2104.72,1395.56 2100.86,1397.24 2100.02,1398.42C2098.38,1400.72 2096.46,1401.97 2091.73,1403.33C2088.51,1404.26 2084.12,1406.4 2081.1,1407.87C2076.38,1410.18 2074.02,1412.6 2072.84,1417.32C2071.4,1423.07 2069.29,1436.81 2069.29,1440.94C2069.29,1444.19 2071.95,1443.31 2072.84,1442.13C2073.05,1441.83 2074.02,1440.94 2074.02,1440.94L2064.57,1455.71L2066.93,1457.48C2066.93,1457.48 2071.64,1487.11 2071.06,1487.01ZM2082.87,1428.54C2083.28,1427.42 2085.09,1422.45 2085.09,1422.45L2088.19,1421.46C2088.19,1421.46 2084.68,1427.54 2083.76,1428.69C2081.99,1430.91 2082.28,1430.17 2082.87,1428.54Z"/>
                <path id="Hand-Links" serif:id="Hand Links" d="M2074.61,1440.5C2074.61,1440.5 2079.86,1441.5 2081.69,1441.98C2084.5,1442.72 2084.5,1443.9 2084.94,1445.82C2085.18,1446.83 2087.17,1448.68 2087.89,1449.21C2090.11,1450.84 2087.75,1451.28 2086.27,1450.69C2085.59,1450.42 2083.61,1448.18 2083.61,1448.18C2083.61,1448.18 2083.14,1448.17 2083.17,1448.33C2083.76,1451.13 2083.67,1454.27 2082.43,1456C2081.69,1457.04 2080.95,1457.41 2080.22,1457.15C2079.79,1457 2079.71,1456.98 2079.48,1457.33C2078.59,1458.66 2077.83,1458.32 2077.41,1458.22C2076.99,1458.12 2076.86,1457.04 2076.97,1456.74C2077.12,1456.34 2076.93,1456.41 2076.67,1456.45C2075.65,1456.59 2074.75,1456.15 2075.05,1454.09C2075.16,1453.29 2075.49,1452.28 2075.49,1452.28L2075.34,1449.95C2075.34,1449.95 2074.94,1449.73 2074.9,1450.25C2074.87,1450.71 2074.85,1452.35 2074.46,1452.61C2073.57,1453.2 2072.54,1453.24 2072.47,1451.43C2072.44,1450.78 2072.84,1449.07 2072.84,1449.07L2072.69,1447.15L2074.61,1440.5Z" style="fill:rgb(255,197,173);"/>
            </g>
        </g>
    </g>
</svg>
