<?xml version="1.0" encoding="UTF-8" standalone="no"?>
<!DOCTYPE svg PUBLIC "-//W3C//DTD SVG 1.1//EN" "http://www.w3.org/Graphics/SVG/1.1/DTD/svg11.dtd">
<svg width="100%" height="100%" viewBox="0 0 34 178" version="1.1" xmlns="http://www.w3.org/2000/svg" xmlns:xlink="http://www.w3.org/1999/xlink" xml:space="preserve" xmlns:serif="http://www.serif.com/" style="fill-rule:evenodd;clip-rule:evenodd;stroke-linecap:round;stroke-miterlimit:1;">
    <g transform="matrix(1,0,0,1,-2712,-35)">
        <g transform="matrix(0.821295,0,0,0.821295,2227.77,-1376.06)">
            <g id="Pen">
                <g transform="matrix(0.794479,-0.607292,0.607292,0.794479,-1089.41,792.455)">
                    <path d="M772.093,1779.57C777.723,1783.88 788.183,1789.64 779.934,1800.43C745.505,1845.47 744.788,1846.41 744.788,1846.41" style="fill:none;stroke:black;stroke-width:9.59px;"/>
                </g>
                <g transform="matrix(1,-1.11022e-16,8.88178e-16,8.55749,-65.4488,-14441.2)">
                    <path d="M679,1889.74C679,1889.38 677.805,1889.05 675.678,1888.8C673.55,1888.55 670.665,1888.41 667.657,1888.41L667.655,1888.41C664.564,1888.41 661.599,1888.55 659.414,1888.81C657.228,1889.06 656,1889.41 656,1889.77C656,1894.06 656,1907 656,1907L679,1907L679,1889.74Z"/>
                    <path d="M679,1889.74L679,1907L656,1907L656,1889.77C656,1889.41 657.228,1889.06 659.414,1888.81C661.599,1888.55 664.564,1888.41 667.655,1888.41L667.657,1888.41C670.665,1888.41 673.55,1888.55 675.678,1888.8C677.805,1889.05 679,1889.38 679,1889.74ZM676.591,1889.74C676.591,1889.46 675.65,1889.19 673.974,1889C672.299,1888.8 670.026,1888.69 667.657,1888.69L667.655,1888.69C665.203,1888.69 662.851,1888.81 661.117,1889.01C659.383,1889.21 658.409,1889.49 658.409,1889.77L658.409,1906.72C658.409,1906.72 676.591,1906.72 676.591,1906.72L676.591,1889.74Z"/>
                </g>
                <g transform="matrix(1,0,4.44089e-16,1.00935,-65.4488,-17.6499)">
                    <rect x="656" y="1888.41" width="23" height="18.591"/>
                    <path d="M679,1888.41L679,1907L656,1907L656,1888.41L679,1888.41ZM678.603,1888.8C678.603,1888.8 656.397,1888.8 656.397,1888.8C656.397,1888.8 656.397,1906.61 656.397,1906.61C656.397,1906.61 678.603,1906.61 678.603,1906.61L678.603,1888.8Z"/>
                </g>
                <g transform="matrix(1,0,4.44089e-16,1.00935,-65.4488,9.75538)">
                    <path d="M679,1888.41C679.047,1888.36 655.932,1888.34 656,1888.41C667.5,1899.46 667.5,1907 667.5,1907C667.5,1907 667.811,1899.46 679,1888.41Z"/>
                    <path d="M679,1888.41C667.811,1899.46 667.5,1907 667.5,1907C667.5,1907 667.5,1899.46 656,1888.41C655.932,1888.34 679.047,1888.36 679,1888.41ZM656.95,1888.78C664.37,1896.11 666.761,1901.85 667.532,1904.8C668.369,1901.86 670.833,1896.12 678.063,1888.79C675.225,1888.77 666.537,1888.75 660.948,1888.77C659.238,1888.77 657.819,1888.78 656.95,1888.78Z"/>
                </g>
            </g>
        </g>
    </g>
</svg>
