<?xml version="1.0" encoding="UTF-8" standalone="no"?>
<!DOCTYPE svg PUBLIC "-//W3C//DTD SVG 1.1//EN" "http://www.w3.org/Graphics/SVG/1.1/DTD/svg11.dtd">
<svg width="100%" height="100%" viewBox="0 0 178 161" version="1.1" xmlns="http://www.w3.org/2000/svg" xmlns:xlink="http://www.w3.org/1999/xlink" xml:space="preserve" xmlns:serif="http://www.serif.com/" style="fill-rule:evenodd;clip-rule:evenodd;stroke-linejoin:round;stroke-miterlimit:2;">
    <g transform="matrix(1,0,0,1,-1346,-367)">
        <g transform="matrix(0.0118109,0,0,0.0118109,1346.41,410.175)">
            <g id="Plaster">
                <g id="Layer_2-2" transform="matrix(4.16667,0,0,4.16667,-20.6783,-4068.28)">
                    <path d="M3500.34,1417.16C3466.62,1375.86 3427.24,1343.37 3383.29,1320.6C3337.29,1296.79 3288.43,1284.72 3237.97,1284.72L375.08,1284.72C324.64,1284.72 275.73,1296.8 229.77,1320.61C185.77,1343.38 146.43,1375.88 112.71,1417.17C44.23,1501 6.53,1612.23 6.53,1730.25C6.53,1848.27 44.23,1959.48 112.71,2043.35C146.43,2084.64 185.81,2117.14 229.77,2139.9C275.77,2163.72 324.64,2175.8 375.08,2175.79L3238,2175.79C3274.53,2175.82 3310.78,2169.39 3345.06,2156.79C3358.15,2151.99 3370.93,2146.36 3383.3,2139.93C3427.3,2117.16 3466.66,2084.67 3500.37,2043.38C3568.85,1959.5 3606.56,1848.32 3606.56,1730.27C3606.56,1612.22 3568.81,1501 3500.34,1417.16ZM475.31,1943C458.01,1943 443.99,1930.71 443.99,1915.59C443.99,1900.47 457.99,1888.18 475.31,1888.18C492.63,1888.18 506.63,1900.45 506.63,1915.59C506.63,1930.73 492.6,1943 475.31,1943ZM475.31,1757.67C458.01,1757.67 443.99,1745.39 443.99,1730.26C443.99,1715.13 457.99,1702.85 475.31,1702.85C492.63,1702.85 506.63,1715.12 506.63,1730.26C506.63,1745.4 492.6,1757.67 475.31,1757.67ZM475.31,1572.34C458.01,1572.34 443.99,1560.06 443.99,1544.93C443.99,1529.8 457.99,1517.53 475.31,1517.53C492.63,1517.53 506.63,1529.79 506.63,1544.93C506.63,1560.07 492.6,1572.34 475.31,1572.34ZM668.47,1943C651.16,1943 637.15,1930.71 637.15,1915.59C637.15,1900.47 651.15,1888.18 668.47,1888.18C685.79,1888.18 699.79,1900.45 699.79,1915.59C699.79,1930.73 685.76,1943 668.47,1943ZM668.47,1757.67C651.16,1757.67 637.15,1745.39 637.15,1730.26C637.15,1715.13 651.15,1702.85 668.47,1702.85C685.79,1702.85 699.79,1715.12 699.79,1730.26C699.79,1745.4 685.76,1757.67 668.47,1757.67ZM668.47,1572.34C651.16,1572.34 637.15,1560.06 637.15,1544.93C637.15,1529.8 651.15,1517.53 668.47,1517.53C685.79,1517.53 699.79,1529.79 699.79,1544.93C699.79,1560.07 685.76,1572.34 668.47,1572.34ZM861.63,1943C844.32,1943 830.3,1930.71 830.3,1915.59C830.3,1900.47 844.3,1888.18 861.63,1888.18C878.96,1888.18 893,1900.45 893,1915.59C893,1930.73 878.92,1943 861.63,1943ZM861.63,1757.67C844.32,1757.67 830.3,1745.39 830.3,1730.26C830.3,1715.13 844.3,1702.85 861.63,1702.85C878.96,1702.85 893,1715.12 893,1730.26C893,1745.4 878.92,1757.67 861.63,1757.67ZM861.63,1572.34C844.32,1572.34 830.3,1560.06 830.3,1544.93C830.3,1529.8 844.3,1517.53 861.63,1517.53C878.96,1517.53 892.95,1529.79 892.95,1544.93C892.95,1560.07 878.92,1572.34 861.63,1572.34ZM1054.78,1943C1037.48,1943 1023.46,1930.71 1023.46,1915.59C1023.46,1900.47 1037.46,1888.18 1054.78,1888.18C1072.1,1888.18 1086.11,1900.45 1086.11,1915.59C1086.11,1930.73 1072.08,1943 1054.78,1943ZM1054.78,1757.67C1037.48,1757.67 1023.46,1745.39 1023.46,1730.26C1023.46,1715.13 1037.46,1702.85 1054.78,1702.85C1072.1,1702.85 1086.11,1715.12 1086.11,1730.26C1086.11,1745.4 1072.08,1757.67 1054.78,1757.67ZM1054.78,1572.34C1037.48,1572.34 1023.46,1560.06 1023.46,1544.93C1023.46,1529.8 1037.46,1517.53 1054.78,1517.53C1072.1,1517.53 1086.11,1529.79 1086.11,1544.93C1086.11,1560.07 1072.08,1572.34 1054.78,1572.34ZM2558.28,1943C2540.97,1943 2526.96,1930.71 2526.96,1915.59C2526.96,1900.47 2540.96,1888.18 2558.28,1888.18C2575.6,1888.18 2589.6,1900.45 2589.6,1915.59C2589.6,1930.73 2575.57,1943 2558.28,1943ZM2558.28,1757.67C2540.97,1757.67 2526.96,1745.39 2526.96,1730.26C2526.96,1715.13 2540.96,1702.85 2558.28,1702.85C2575.6,1702.85 2589.6,1715.12 2589.6,1730.26C2589.6,1745.4 2575.57,1757.67 2558.28,1757.67ZM2558.28,1572.34C2540.97,1572.34 2526.96,1560.06 2526.96,1544.93C2526.96,1529.8 2540.96,1517.53 2558.28,1517.53C2575.6,1517.53 2589.6,1529.79 2589.6,1544.93C2589.6,1560.07 2575.57,1572.34 2558.28,1572.34ZM2751.44,1943C2734.13,1943 2720.11,1930.71 2720.11,1915.59C2720.11,1900.47 2734.11,1888.18 2751.44,1888.18C2768.77,1888.18 2782.76,1900.45 2782.76,1915.59C2782.76,1930.73 2768.73,1943 2751.44,1943ZM2751.44,1757.67C2734.13,1757.67 2720.11,1745.39 2720.11,1730.26C2720.11,1715.13 2734.11,1702.85 2751.44,1702.85C2768.77,1702.85 2782.76,1715.12 2782.76,1730.26C2782.76,1745.4 2768.73,1757.67 2751.44,1757.67ZM2751.44,1572.34C2734.13,1572.34 2720.11,1560.06 2720.11,1544.93C2720.11,1529.8 2734.11,1517.53 2751.44,1517.53C2768.77,1517.53 2782.76,1529.79 2782.76,1544.93C2782.76,1560.07 2768.73,1572.34 2751.44,1572.34ZM2944.6,1943C2927.29,1943 2913.27,1930.71 2913.27,1915.59C2913.27,1900.47 2927.27,1888.18 2944.6,1888.18C2961.93,1888.18 2975.92,1900.45 2975.92,1915.59C2975.92,1930.73 2961.89,1943 2944.6,1943ZM2944.6,1757.67C2927.29,1757.67 2913.27,1745.39 2913.27,1730.26C2913.27,1715.13 2927.27,1702.85 2944.6,1702.85C2961.93,1702.85 2975.92,1715.12 2975.92,1730.26C2975.92,1745.4 2961.89,1757.67 2944.6,1757.67ZM2944.6,1572.34C2927.29,1572.34 2913.27,1560.06 2913.27,1544.93C2913.27,1529.8 2927.27,1517.53 2944.6,1517.53C2961.93,1517.53 2975.92,1529.79 2975.92,1544.93C2975.92,1560.07 2961.89,1572.34 2944.6,1572.34ZM3137.75,1943C3120.45,1943 3106.43,1930.71 3106.43,1915.59C3106.43,1900.47 3120.43,1888.18 3137.75,1888.18C3155.07,1888.18 3169.08,1900.45 3169.08,1915.59C3169.08,1930.73 3155.05,1943 3137.75,1943ZM3137.75,1757.67C3120.45,1757.67 3106.43,1745.39 3106.43,1730.26C3106.43,1715.13 3120.43,1702.85 3137.75,1702.85C3155.07,1702.85 3169.08,1715.12 3169.08,1730.26C3169.08,1745.4 3155.05,1757.67 3137.75,1757.67ZM3137.75,1572.34C3120.45,1572.34 3106.43,1560.06 3106.43,1544.93C3106.43,1529.8 3120.43,1517.53 3137.75,1517.53C3155.07,1517.53 3169.08,1529.79 3169.08,1544.93C3169.08,1560.07 3155.05,1572.34 3137.75,1572.34Z" style="fill:rgb(89,89,89);fill-rule:nonzero;"/>
                    <rect x="1244.82" y="1408.63" width="1123.42" height="643.25"/>
                </g>
                <g id="Layer_2-21" serif:id="Layer_2-2" transform="matrix(2.08333,-3.60844,3.60844,2.08333,-2500.56,6055.23)">
                    <path d="M3500.34,1417.16C3466.62,1375.86 3427.24,1343.37 3383.29,1320.6C3337.29,1296.79 3288.43,1284.72 3237.97,1284.72L375.08,1284.72C324.64,1284.72 275.73,1296.8 229.77,1320.61C185.77,1343.38 146.43,1375.88 112.71,1417.17C44.23,1501 6.53,1612.23 6.53,1730.25C6.53,1848.27 44.23,1959.48 112.71,2043.35C146.43,2084.64 185.81,2117.14 229.77,2139.9C275.77,2163.72 324.64,2175.8 375.08,2175.79L3238,2175.79C3274.53,2175.82 3310.78,2169.39 3345.06,2156.79C3358.15,2151.99 3370.93,2146.36 3383.3,2139.93C3427.3,2117.16 3466.66,2084.67 3500.37,2043.38C3568.85,1959.5 3606.56,1848.32 3606.56,1730.27C3606.56,1612.22 3568.81,1501 3500.34,1417.16ZM475.31,1943C458.01,1943 443.99,1930.71 443.99,1915.59C443.99,1900.47 457.99,1888.18 475.31,1888.18C492.63,1888.18 506.63,1900.45 506.63,1915.59C506.63,1930.73 492.6,1943 475.31,1943ZM475.31,1757.67C458.01,1757.67 443.99,1745.39 443.99,1730.26C443.99,1715.13 457.99,1702.85 475.31,1702.85C492.63,1702.85 506.63,1715.12 506.63,1730.26C506.63,1745.4 492.6,1757.67 475.31,1757.67ZM475.31,1572.34C458.01,1572.34 443.99,1560.06 443.99,1544.93C443.99,1529.8 457.99,1517.53 475.31,1517.53C492.63,1517.53 506.63,1529.79 506.63,1544.93C506.63,1560.07 492.6,1572.34 475.31,1572.34ZM668.47,1943C651.16,1943 637.15,1930.71 637.15,1915.59C637.15,1900.47 651.15,1888.18 668.47,1888.18C685.79,1888.18 699.79,1900.45 699.79,1915.59C699.79,1930.73 685.76,1943 668.47,1943ZM668.47,1757.67C651.16,1757.67 637.15,1745.39 637.15,1730.26C637.15,1715.13 651.15,1702.85 668.47,1702.85C685.79,1702.85 699.79,1715.12 699.79,1730.26C699.79,1745.4 685.76,1757.67 668.47,1757.67ZM668.47,1572.34C651.16,1572.34 637.15,1560.06 637.15,1544.93C637.15,1529.8 651.15,1517.53 668.47,1517.53C685.79,1517.53 699.79,1529.79 699.79,1544.93C699.79,1560.07 685.76,1572.34 668.47,1572.34ZM861.63,1943C844.32,1943 830.3,1930.71 830.3,1915.59C830.3,1900.47 844.3,1888.18 861.63,1888.18C878.96,1888.18 893,1900.45 893,1915.59C893,1930.73 878.92,1943 861.63,1943ZM861.63,1757.67C844.32,1757.67 830.3,1745.39 830.3,1730.26C830.3,1715.13 844.3,1702.85 861.63,1702.85C878.96,1702.85 893,1715.12 893,1730.26C893,1745.4 878.92,1757.67 861.63,1757.67ZM861.63,1572.34C844.32,1572.34 830.3,1560.06 830.3,1544.93C830.3,1529.8 844.3,1517.53 861.63,1517.53C878.96,1517.53 892.95,1529.79 892.95,1544.93C892.95,1560.07 878.92,1572.34 861.63,1572.34ZM1054.78,1943C1037.48,1943 1023.46,1930.71 1023.46,1915.59C1023.46,1900.47 1037.46,1888.18 1054.78,1888.18C1072.1,1888.18 1086.11,1900.45 1086.11,1915.59C1086.11,1930.73 1072.08,1943 1054.78,1943ZM1054.78,1757.67C1037.48,1757.67 1023.46,1745.39 1023.46,1730.26C1023.46,1715.13 1037.46,1702.85 1054.78,1702.85C1072.1,1702.85 1086.11,1715.12 1086.11,1730.26C1086.11,1745.4 1072.08,1757.67 1054.78,1757.67ZM1054.78,1572.34C1037.48,1572.34 1023.46,1560.06 1023.46,1544.93C1023.46,1529.8 1037.46,1517.53 1054.78,1517.53C1072.1,1517.53 1086.11,1529.79 1086.11,1544.93C1086.11,1560.07 1072.08,1572.34 1054.78,1572.34ZM2558.28,1943C2540.97,1943 2526.96,1930.71 2526.96,1915.59C2526.96,1900.47 2540.96,1888.18 2558.28,1888.18C2575.6,1888.18 2589.6,1900.45 2589.6,1915.59C2589.6,1930.73 2575.57,1943 2558.28,1943ZM2558.28,1757.67C2540.97,1757.67 2526.96,1745.39 2526.96,1730.26C2526.96,1715.13 2540.96,1702.85 2558.28,1702.85C2575.6,1702.85 2589.6,1715.12 2589.6,1730.26C2589.6,1745.4 2575.57,1757.67 2558.28,1757.67ZM2558.28,1572.34C2540.97,1572.34 2526.96,1560.06 2526.96,1544.93C2526.96,1529.8 2540.96,1517.53 2558.28,1517.53C2575.6,1517.53 2589.6,1529.79 2589.6,1544.93C2589.6,1560.07 2575.57,1572.34 2558.28,1572.34ZM2751.44,1943C2734.13,1943 2720.11,1930.71 2720.11,1915.59C2720.11,1900.47 2734.11,1888.18 2751.44,1888.18C2768.77,1888.18 2782.76,1900.45 2782.76,1915.59C2782.76,1930.73 2768.73,1943 2751.44,1943ZM2751.44,1757.67C2734.13,1757.67 2720.11,1745.39 2720.11,1730.26C2720.11,1715.13 2734.11,1702.85 2751.44,1702.85C2768.77,1702.85 2782.76,1715.12 2782.76,1730.26C2782.76,1745.4 2768.73,1757.67 2751.44,1757.67ZM2751.44,1572.34C2734.13,1572.34 2720.11,1560.06 2720.11,1544.93C2720.11,1529.8 2734.11,1517.53 2751.44,1517.53C2768.77,1517.53 2782.76,1529.79 2782.76,1544.93C2782.76,1560.07 2768.73,1572.34 2751.44,1572.34ZM2944.6,1943C2927.29,1943 2913.27,1930.71 2913.27,1915.59C2913.27,1900.47 2927.27,1888.18 2944.6,1888.18C2961.93,1888.18 2975.92,1900.45 2975.92,1915.59C2975.92,1930.73 2961.89,1943 2944.6,1943ZM2944.6,1757.67C2927.29,1757.67 2913.27,1745.39 2913.27,1730.26C2913.27,1715.13 2927.27,1702.85 2944.6,1702.85C2961.93,1702.85 2975.92,1715.12 2975.92,1730.26C2975.92,1745.4 2961.89,1757.67 2944.6,1757.67ZM2944.6,1572.34C2927.29,1572.34 2913.27,1560.06 2913.27,1544.93C2913.27,1529.8 2927.27,1517.53 2944.6,1517.53C2961.93,1517.53 2975.92,1529.79 2975.92,1544.93C2975.92,1560.07 2961.89,1572.34 2944.6,1572.34ZM3137.75,1943C3120.45,1943 3106.43,1930.71 3106.43,1915.59C3106.43,1900.47 3120.43,1888.18 3137.75,1888.18C3155.07,1888.18 3169.08,1900.45 3169.08,1915.59C3169.08,1930.73 3155.05,1943 3137.75,1943ZM3137.75,1757.67C3120.45,1757.67 3106.43,1745.39 3106.43,1730.26C3106.43,1715.13 3120.43,1702.85 3137.75,1702.85C3155.07,1702.85 3169.08,1715.12 3169.08,1730.26C3169.08,1745.4 3155.05,1757.67 3137.75,1757.67ZM3137.75,1572.34C3120.45,1572.34 3106.43,1560.06 3106.43,1544.93C3106.43,1529.8 3120.43,1517.53 3137.75,1517.53C3155.07,1517.53 3169.08,1529.79 3169.08,1544.93C3169.08,1560.07 3155.05,1572.34 3137.75,1572.34Z" style="fill:rgb(89,89,89);fill-rule:nonzero;"/>
                    <rect x="1244.82" y="1408.63" width="1123.42" height="643.25"/>
                </g>
            </g>
        </g>
    </g>
</svg>
