<?xml version="1.0" encoding="UTF-8" standalone="no"?>
<!DOCTYPE svg PUBLIC "-//W3C//DTD SVG 1.1//EN" "http://www.w3.org/Graphics/SVG/1.1/DTD/svg11.dtd">
<svg width="100%" height="100%" viewBox="0 0 146 148" version="1.1" xmlns="http://www.w3.org/2000/svg" xmlns:xlink="http://www.w3.org/1999/xlink" xml:space="preserve" xmlns:serif="http://www.serif.com/" style="fill-rule:evenodd;clip-rule:evenodd;stroke-linecap:square;stroke-miterlimit:1;">
    <g transform="matrix(1,0,0,1,-2032,-349)">
        <g transform="matrix(0.265408,0,0,0.265408,1475.79,302.818)">
            <g id="ProcessCircle1">
                <g transform="matrix(3.34304,-2.09614,2.09614,3.34304,-5012.48,3435.63)">
                    <path d="M1990.9,295.873C1988.07,295.475 1985.22,295.276 1982.36,295.276C1954.99,295.276 1930.92,313.409 1923.38,339.724L1982.36,356.638L1990.9,295.873Z" style="fill:none;"/>
                    <clipPath id="_clip1">
                        <path d="M1990.9,295.873C1988.07,295.475 1985.22,295.276 1982.36,295.276C1954.99,295.276 1930.92,313.409 1923.38,339.724L1982.36,356.638L1990.9,295.873Z"/>
                    </clipPath>
                    <g clip-path="url(#_clip1)">
                        <g transform="matrix(0.370088,0.22768,-0.22768,0.370088,1436.55,-191.486)">
                            <circle cx="1730.78" cy="416.224" r="137.776" style="fill:none;stroke:black;stroke-width:5.6px;"/>
                        </g>
                    </g>
                </g>
                <g transform="matrix(-3.47096,-1.87674,1.87674,-3.47096,8573.59,5430.84)">
                    <path d="M1990.9,295.873C1988.07,295.475 1985.22,295.276 1982.36,295.276C1954.99,295.276 1930.92,313.409 1923.38,339.724L1982.36,356.638L1990.9,295.873Z" style="fill:none;"/>
                    <clipPath id="_clip2">
                        <path d="M1990.9,295.873C1988.07,295.475 1985.22,295.276 1982.36,295.276C1954.99,295.276 1930.92,313.409 1923.38,339.724L1982.36,356.638L1990.9,295.873Z"/>
                    </clipPath>
                    <g clip-path="url(#_clip2)">
                        <g transform="matrix(-0.38222,0.206666,-0.206666,-0.38222,2729.96,158.015)">
                            <circle cx="1730.78" cy="416.224" r="137.776" style="fill:none;stroke:black;stroke-width:5.6px;"/>
                        </g>
                    </g>
                </g>
                <g transform="matrix(0.111392,3.94428,-3.94428,0.111392,3548.06,-7386.13)">
                    <path d="M1990.9,295.873C1988.07,295.475 1985.22,295.276 1982.36,295.276C1954.99,295.276 1930.92,313.409 1923.38,339.724L1982.36,356.638L1990.9,295.873Z" style="fill:none;"/>
                    <clipPath id="_clip3">
                        <path d="M1990.9,295.873C1988.07,295.475 1985.22,295.276 1982.36,295.276C1954.99,295.276 1930.92,313.409 1923.38,339.724L1982.36,356.638L1990.9,295.873Z"/>
                    </clipPath>
                    <g clip-path="url(#_clip3)">
                        <g transform="matrix(0.0122665,-0.434341,0.434341,0.0122665,1780.35,1103.32)">
                            <circle cx="1730.78" cy="416.224" r="137.776" style="fill:none;stroke:black;stroke-width:5.6px;"/>
                        </g>
                    </g>
                </g>
                <g transform="matrix(-0.117477,0.993076,-0.993076,-0.117477,3207.33,-1867.74)">
                    <path d="M2365.2,364L2423.26,328L2365.2,292.276" style="fill:none;stroke:rgb(15,28,80);stroke-width:9.39px;stroke-linecap:round;stroke-linejoin:round;"/>
                </g>
                <g transform="matrix(0.918446,-0.395546,0.395546,0.918446,-86.6589,912.618)">
                    <path d="M2365.2,364L2423.26,328L2365.2,292.276" style="fill:none;stroke:rgb(15,28,80);stroke-width:9.39px;stroke-linecap:round;stroke-linejoin:round;"/>
                </g>
                <g transform="matrix(-0.80226,-0.596974,0.596974,-0.80226,3969.38,2371.83)">
                    <path d="M2365.2,364L2423.26,328L2365.2,292.276" style="fill:none;stroke:rgb(15,28,80);stroke-width:9.39px;stroke-linecap:round;stroke-linejoin:round;"/>
                </g>
                <g transform="matrix(0.976118,0,0,0.976118,242.565,-209.377)">
                    <circle cx="2171.5" cy="456.5" r="60.5" style="fill:none;"/>
                    <clipPath id="_clip4">
                        <circle cx="2171.5" cy="456.5" r="60.5"/>
                    </clipPath>
                    <g clip-path="url(#_clip4)">
                        <g transform="matrix(1.04309,0,0,1.04309,-293.851,196.36)">
                            <path d="M2363.5,216L2391,271L2336,271L2363.5,216Z" style="stroke:black;stroke-width:10.34px;stroke-linecap:butt;stroke-linejoin:round;"/>
                        </g>
                    </g>
                    <path d="M2171.5,396C2204.89,396 2232,423.109 2232,456.5C2232,489.891 2204.89,517 2171.5,517C2138.11,517 2111,489.891 2111,456.5C2111,423.109 2138.11,396 2171.5,396ZM2171.5,400.269C2140.47,400.269 2115.27,425.465 2115.27,456.5C2115.27,487.535 2140.47,512.731 2171.5,512.731C2202.53,512.731 2227.73,487.535 2227.73,456.5C2227.73,425.465 2202.53,400.269 2171.5,400.269Z"/>
                </g>
                <g transform="matrix(-0.488059,-0.845343,0.845343,-0.488059,2831.07,2649.85)">
                    <circle cx="2171.5" cy="456.5" r="60.5" style="fill:none;"/>
                    <clipPath id="_clip5">
                        <circle cx="2171.5" cy="456.5" r="60.5"/>
                    </clipPath>
                    <g clip-path="url(#_clip5)">
                        <g transform="matrix(-0.457351,0.792155,-0.792155,-0.457351,3648.4,-1185.79)">
                            <rect x="2334.2" y="472.584" width="56" height="56" style="stroke:black;stroke-width:12.03px;stroke-linecap:butt;stroke-linejoin:round;"/>
                        </g>
                    </g>
                    <path d="M2171.5,396C2204.89,396 2232,423.109 2232,456.5C2232,489.891 2204.89,517 2171.5,517C2138.11,517 2111,489.891 2111,456.5C2111,423.109 2138.11,396 2171.5,396ZM2171.5,400.269C2140.47,400.269 2115.27,425.465 2115.27,456.5C2115.27,487.535 2140.47,512.731 2171.5,512.731C2202.53,512.731 2227.73,487.535 2227.73,456.5C2227.73,425.465 2202.53,400.269 2171.5,400.269Z"/>
                </g>
                <g transform="matrix(-0.488059,0.845343,-0.845343,-0.488059,4012.98,-1021.47)">
                    <circle cx="2171.5" cy="456.5" r="60.5" style="fill:none;"/>
                    <clipPath id="_clip6">
                        <circle cx="2171.5" cy="456.5" r="60.5"/>
                    </clipPath>
                    <g clip-path="url(#_clip6)">
                        <g transform="matrix(-0.714131,-1.23691,1.23691,-0.714131,3220.73,3752.94)">
                            <path d="M2366.1,496L2371.51,512.654L2389.03,512.654L2374.86,522.947L2380.27,539.602L2366.1,529.309L2351.93,539.602L2357.35,522.947L2343.18,512.654L2360.69,512.654L2366.1,496Z" style="stroke:black;stroke-width:12.03px;stroke-linecap:butt;stroke-linejoin:round;"/>
                        </g>
                    </g>
                    <path d="M2171.5,396C2204.89,396 2232,423.109 2232,456.5C2232,489.891 2204.89,517 2171.5,517C2138.11,517 2111,489.891 2111,456.5C2111,423.109 2138.11,396 2171.5,396ZM2171.5,400.269C2140.47,400.269 2115.27,425.465 2115.27,456.5C2115.27,487.535 2140.47,512.731 2171.5,512.731C2202.53,512.731 2227.73,487.535 2227.73,456.5C2227.73,425.465 2202.53,400.269 2171.5,400.269Z"/>
                </g>
            </g>
        </g>
    </g>
</svg>
