<?xml version="1.0" encoding="UTF-8" standalone="no"?>
<!DOCTYPE svg PUBLIC "-//W3C//DTD SVG 1.1//EN" "http://www.w3.org/Graphics/SVG/1.1/DTD/svg11.dtd">
<svg width="100%" height="100%" viewBox="0 0 128 137" version="1.1" xmlns="http://www.w3.org/2000/svg" xmlns:xlink="http://www.w3.org/1999/xlink" xml:space="preserve" xmlns:serif="http://www.serif.com/" style="fill-rule:evenodd;clip-rule:evenodd;stroke-linejoin:round;stroke-miterlimit:2;">
    <g transform="matrix(1,0,0,1,-1355,-77)">
        <g transform="matrix(0.287681,0,0,0.287681,535.672,9.72926)">
            <g id="ProcessCircle2">
                <g>
                    <path d="M2957.19,367.042L2953.92,333.145L2921.11,329.979C2959.81,289.288 3013.82,265.748 3070.87,265.748L3070.87,317.421C3027.41,317.421 2986.3,335.635 2957.19,367.042Z"/>
                    <g transform="matrix(1.32136e-16,2.15794,-1.26938,7.7727e-17,3329.18,-5240.64)">
                        <path d="M2563.5,178L2589,229L2538,229L2563.5,178Z"/>
                    </g>
                </g>
                <g transform="matrix(0.5,-0.866025,0.866025,0.5,1126.29,2895.67)">
                    <path d="M2957.19,367.042L2953.92,333.145L2921.11,329.979C2959.81,289.288 3013.82,265.748 3070.87,265.748L3070.87,317.421C3027.41,317.421 2986.3,335.635 2957.19,367.042Z"/>
                    <g transform="matrix(1.32136e-16,2.15794,-1.26938,7.7727e-17,3329.18,-5240.64)">
                        <path d="M2563.5,178L2589,229L2538,229L2563.5,178Z"/>
                    </g>
                </g>
                <g transform="matrix(-0.5,-0.866025,0.866025,-0.5,4197.15,3368.11)">
                    <path d="M2957.19,367.042L2953.92,333.145L2921.11,329.979C2959.81,289.288 3013.82,265.748 3070.87,265.748L3070.87,317.421C3027.41,317.421 2986.3,335.635 2957.19,367.042Z"/>
                    <g transform="matrix(1.32136e-16,2.15794,-1.26938,7.7727e-17,3329.18,-5240.64)">
                        <path d="M2563.5,178L2589,229L2538,229L2563.5,178Z"/>
                    </g>
                </g>
                <g transform="matrix(-1,-3.88578e-16,3.88578e-16,-1,6141.73,944.882)">
                    <path d="M2957.19,367.042L2953.92,333.145L2921.11,329.979C2959.81,289.288 3013.82,265.748 3070.87,265.748L3070.87,317.421C3027.41,317.421 2986.3,335.635 2957.19,367.042Z"/>
                    <g transform="matrix(1.32136e-16,2.15794,-1.26938,7.7727e-17,3329.18,-5240.64)">
                        <path d="M2563.5,178L2589,229L2538,229L2563.5,178Z"/>
                    </g>
                </g>
                <g transform="matrix(-0.5,0.866025,-0.866025,-0.5,5015.45,-1950.79)">
                    <path d="M2957.19,367.042L2953.92,333.145L2921.11,329.979C2959.81,289.288 3013.82,265.748 3070.87,265.748L3070.87,317.421C3027.41,317.421 2986.3,335.635 2957.19,367.042Z"/>
                    <g transform="matrix(1.32136e-16,2.15794,-1.26938,7.7727e-17,3329.18,-5240.64)">
                        <path d="M2563.5,178L2589,229L2538,229L2563.5,178Z"/>
                    </g>
                </g>
                <g transform="matrix(0.5,0.866025,-0.866025,0.5,1944.58,-2423.23)">
                    <path d="M2957.19,367.042L2953.92,333.145L2921.11,329.979C2959.81,289.288 3013.82,265.748 3070.87,265.748L3070.87,317.421C3027.41,317.421 2986.3,335.635 2957.19,367.042Z"/>
                    <g transform="matrix(1.32136e-16,2.15794,-1.26938,7.7727e-17,3329.18,-5240.64)">
                        <path d="M2563.5,178L2589,229L2538,229L2563.5,178Z"/>
                    </g>
                </g>
            </g>
        </g>
    </g>
</svg>
