<?xml version="1.0" encoding="UTF-8" standalone="no"?>
<!DOCTYPE svg PUBLIC "-//W3C//DTD SVG 1.1//EN" "http://www.w3.org/Graphics/SVG/1.1/DTD/svg11.dtd">
<svg width="100%" height="100%" viewBox="0 0 26 178" version="1.1" xmlns="http://www.w3.org/2000/svg" xmlns:xlink="http://www.w3.org/1999/xlink" xml:space="preserve" xmlns:serif="http://www.serif.com/" style="fill-rule:evenodd;clip-rule:evenodd;stroke-linejoin:round;stroke-miterlimit:2;">
    <g transform="matrix(1,0,0,1,-2398,-60)">
        <g transform="matrix(0.512213,0,0,0.512213,2282.49,-839)">
            <g id="Screwdriver">
                <path d="M256.89,1941.73L275.787,1941.73L275.787,1958.27C271.224,1958.27 267.52,1962.5 267.52,1967.72C267.52,1972.93 271.224,1977.16 275.787,1977.16L275.787,2078.27C275.787,2091.58 265.001,2102.36 251.696,2102.36L251.692,2102.36C238.255,2102.36 227.362,2091.47 227.362,2078.03L227.362,1977.16C231.925,1977.16 235.63,1972.93 235.63,1967.72C235.63,1962.5 231.925,1958.27 227.362,1958.27L227.362,1941.73L246.26,1941.73L246.26,1802.36L239.826,1783.65L239.764,1783.65L239.781,1783.51L239.764,1783.47L239.787,1783.47L243.307,1756.48L259.843,1756.48L263.362,1783.47L263.386,1783.47L263.369,1783.51L263.386,1783.65L263.324,1783.65L256.89,1802.36L256.89,1941.73ZM269.882,1997.01C269.882,1995.19 269.16,1993.45 267.875,1992.16C266.59,1990.88 264.847,1990.16 263.029,1990.16L263.024,1990.16C261.397,1990.16 259.837,1990.8 258.686,1991.95C257.536,1993.11 256.89,1994.66 256.89,1996.29L256.89,2080.96C256.89,2084.55 259.797,2087.46 263.383,2087.46L263.389,2087.46C266.975,2087.46 269.882,2084.55 269.882,2080.96L269.882,1997.01ZM247.441,1997.01C247.441,1995.19 246.719,1993.45 245.434,1992.16C244.149,1990.88 242.406,1990.16 240.588,1990.16L240.583,1990.16C238.956,1990.16 237.396,1990.8 236.245,1991.95C235.095,1993.11 234.449,1994.66 234.449,1996.29L234.449,2080.96C234.449,2084.55 237.356,2087.46 240.942,2087.46L240.948,2087.46C244.534,2087.46 247.441,2084.55 247.441,2080.96L247.441,1997.01Z"/>
                <path d="M262.675,1785.53L256.89,1802.36L256.89,1941.73L275.787,1941.73L275.787,1958.27C271.224,1958.27 267.52,1962.5 267.52,1967.72C267.52,1972.93 271.224,1977.16 275.787,1977.16L275.787,2078.27C275.787,2091.58 265.001,2102.36 251.696,2102.36L251.692,2102.36C238.255,2102.36 227.362,2091.47 227.362,2078.03L227.362,1977.16C231.925,1977.16 235.63,1972.93 235.63,1967.72C235.63,1962.5 231.925,1958.27 227.362,1958.27L227.362,1941.73L246.26,1941.73L246.26,1802.36L239.826,1783.65L239.764,1783.65L239.781,1783.51L239.764,1783.47L239.787,1783.47L243.307,1756.48L259.843,1756.48L263.362,1783.47L263.386,1783.47L263.369,1783.51L263.386,1783.65L263.324,1783.65L262.875,1784.95C262.272,1783.88 261.316,1782.3 261.176,1782.71C261.154,1782.77 261.135,1782.83 261.119,1782.89L262.781,1785.22L262.763,1785.28L261.072,1783.79C261.076,1783.81 261.08,1783.83 261.084,1783.85C261.275,1784.71 262.072,1785.25 262.675,1785.53ZM262.751,1785.31L262.729,1785.37L261.084,1783.85L262.751,1785.31ZM260.981,1783.27L257.791,1758.82L245.359,1758.82L242.169,1783.27L248.47,1801.6L248.596,1802.36L248.596,1941.73L246.26,1944.07L229.699,1944.07C229.699,1944.07 229.699,1956.22 229.698,1956.22C234.375,1957.4 237.967,1962.05 237.967,1967.72C237.967,1973.39 234.375,1978.03 229.699,1979.21L229.699,2078.03C229.699,2090.18 239.545,2100.03 251.676,2100.03C251.682,2100.03 251.687,2100.03 251.693,2100.03C251.715,2100.03 251.736,2100.03 251.759,2100.03C263.745,2099.99 273.451,2090.26 273.451,2078.27C273.451,2078.27 273.451,1979.21 273.451,1979.21C268.774,1978.03 265.183,1973.39 265.183,1967.72C265.183,1962.05 268.774,1957.4 273.451,1956.22C273.451,1956.22 273.451,1944.07 273.451,1944.07L256.89,1944.07L254.553,1941.73L254.553,1802.36L254.68,1801.6L260.981,1783.27ZM240.583,1987.82L240.588,1987.82C243.025,1987.82 245.363,1988.79 247.086,1990.51C248.809,1992.24 249.778,1994.57 249.778,1997.01L249.778,2080.96C249.778,2085.84 245.824,2089.79 240.948,2089.79L240.942,2089.79C236.066,2089.79 232.112,2085.84 232.112,2080.96L232.112,1996.29C232.112,1994.05 233.005,1991.89 234.593,1990.3C236.182,1988.71 238.336,1987.82 240.583,1987.82ZM247.441,1997.01C247.441,1995.19 246.719,1993.45 245.434,1992.16C244.149,1990.88 242.406,1990.16 240.588,1990.16L240.583,1990.16C238.956,1990.16 237.396,1990.8 236.245,1991.95C235.095,1993.11 234.449,1994.66 234.449,1996.29L234.449,2080.96C234.449,2084.55 237.356,2087.46 240.942,2087.46L240.948,2087.46C244.534,2087.46 247.441,2084.55 247.441,2080.96L247.441,1997.01ZM263.024,1987.82L263.029,1987.82C265.466,1987.82 267.804,1988.79 269.527,1990.51C271.25,1992.24 272.218,1994.57 272.218,1997.01L272.218,2080.96C272.218,2085.84 268.265,2089.79 263.389,2089.79L263.383,2089.79C258.506,2089.79 254.553,2085.84 254.553,2080.96L254.553,1996.29C254.553,1994.05 255.446,1991.89 257.034,1990.3C258.623,1988.71 260.777,1987.82 263.024,1987.82ZM269.882,1997.01C269.882,1995.19 269.16,1993.45 267.875,1992.16C266.59,1990.88 264.847,1990.16 263.029,1990.16L263.024,1990.16C261.397,1990.16 259.837,1990.8 258.686,1991.95C257.536,1993.11 256.89,1994.66 256.89,1996.29L256.89,2080.96C256.89,2084.55 259.797,2087.46 263.383,2087.46L263.389,2087.46C266.975,2087.46 269.882,2084.55 269.882,2080.96L269.882,1997.01Z"/>
            </g>
        </g>
    </g>
</svg>
