<?xml version="1.0" encoding="UTF-8" standalone="no"?>
<!DOCTYPE svg PUBLIC "-//W3C//DTD SVG 1.1//EN" "http://www.w3.org/Graphics/SVG/1.1/DTD/svg11.dtd">
<svg width="100%" height="100%" viewBox="0 0 128 178" version="1.1" xmlns="http://www.w3.org/2000/svg" xmlns:xlink="http://www.w3.org/1999/xlink" xml:space="preserve" xmlns:serif="http://www.serif.com/" style="fill-rule:evenodd;clip-rule:evenodd;stroke-linecap:round;stroke-linejoin:round;stroke-miterlimit:1;">
    <g transform="matrix(1,0,0,1,-3335,-95)">
        <g transform="matrix(0.9375,0,0,0.9375,3122.07,-1676.03)">
            <g id="ServiceBus">
                <path d="M236.22,1984.25L354.331,1984.25L272,1984.25" style="fill:none;stroke:black;stroke-width:16.78px;"/>
                <g transform="matrix(1,0,0,1,4.68504,0)">
                    <g transform="matrix(1,0,0,0.833333,-226.535,314.961)">
                        <path d="M510,1898.02L510,1952.37C510,1954.56 509.275,1956.66 507.985,1958.21C506.695,1959.76 504.945,1960.63 503.12,1960.63L479.321,1960.63C477.496,1960.63 475.746,1959.76 474.456,1958.21C473.166,1956.66 472.441,1954.56 472.441,1952.37L472.441,1898.02C472.441,1895.83 473.166,1893.73 474.456,1892.18C475.746,1890.63 477.496,1889.76 479.321,1889.76L503.12,1889.76C504.945,1889.76 506.695,1890.63 507.985,1892.18C509.275,1893.73 510,1895.83 510,1898.02ZM506.46,1898.02C506.46,1896.96 506.108,1895.94 505.481,1895.19C504.855,1894.43 504.006,1894.01 503.12,1894.01L479.321,1894.01C478.435,1894.01 477.586,1894.43 476.96,1895.19C476.333,1895.94 475.981,1896.96 475.981,1898.02L475.981,1952.37C475.981,1953.44 476.333,1954.46 476.96,1955.21C477.586,1955.96 478.435,1956.38 479.321,1956.38L503.12,1956.38C504.006,1956.38 504.855,1955.96 505.481,1955.21C506.108,1954.46 506.46,1953.44 506.46,1952.37L506.46,1898.02Z"/>
                    </g>
                    <g transform="matrix(1,0,0,1,0,33.2441)">
                        <path d="M264.685,1913.39L264.685,1948" style="fill:none;stroke:black;stroke-width:3.85px;"/>
                    </g>
                </g>
                <g transform="matrix(1,0,0,1,65.8661,0)">
                    <g transform="matrix(1,0,0,0.833333,-226.535,314.961)">
                        <path d="M510,1898.02L510,1952.37C510,1954.56 509.275,1956.66 507.985,1958.21C506.695,1959.76 504.945,1960.63 503.12,1960.63L479.321,1960.63C477.496,1960.63 475.746,1959.76 474.456,1958.21C473.166,1956.66 472.441,1954.56 472.441,1952.37L472.441,1898.02C472.441,1895.83 473.166,1893.73 474.456,1892.18C475.746,1890.63 477.496,1889.76 479.321,1889.76L503.12,1889.76C504.945,1889.76 506.695,1890.63 507.985,1892.18C509.275,1893.73 510,1895.83 510,1898.02ZM506.46,1898.02C506.46,1896.96 506.108,1895.94 505.481,1895.19C504.855,1894.43 504.006,1894.01 503.12,1894.01L479.321,1894.01C478.435,1894.01 477.586,1894.43 476.96,1895.19C476.333,1895.94 475.981,1896.96 475.981,1898.02L475.981,1952.37C475.981,1953.44 476.333,1954.46 476.96,1955.21C477.586,1955.96 478.435,1956.38 479.321,1956.38L503.12,1956.38C504.006,1956.38 504.855,1955.96 505.481,1955.21C506.108,1954.46 506.46,1953.44 506.46,1952.37L506.46,1898.02Z"/>
                    </g>
                    <g transform="matrix(1,0,0,1,0,33.2441)">
                        <path d="M264.685,1913.39L264.685,1948" style="fill:none;stroke:black;stroke-width:3.85px;"/>
                    </g>
                </g>
                <g transform="matrix(1,0,0,-1,52.0866,3968.5)">
                    <g transform="matrix(1,0,0,0.833333,-226.535,314.961)">
                        <path d="M510,1898.02C510,1895.83 509.275,1893.73 507.985,1892.18C506.695,1890.63 504.945,1889.76 503.12,1889.76L479.321,1889.76C477.496,1889.76 475.746,1890.63 474.456,1892.18C473.166,1893.73 472.441,1895.83 472.441,1898.02L472.441,1952.37C472.441,1954.56 473.166,1956.66 474.456,1958.21C475.746,1959.76 477.496,1960.63 479.321,1960.63L503.12,1960.63C504.945,1960.63 506.695,1959.76 507.985,1958.21C509.275,1956.66 510,1954.56 510,1952.37L510,1898.02ZM506.46,1898.02L506.46,1952.37C506.46,1953.44 506.108,1954.46 505.481,1955.21C504.855,1955.96 504.006,1956.38 503.12,1956.38L479.321,1956.38C478.435,1956.38 477.586,1955.96 476.96,1955.21C476.333,1954.46 475.981,1953.44 475.981,1952.37L475.981,1898.02C475.981,1896.96 476.333,1895.94 476.96,1895.19C477.586,1894.43 478.435,1894.01 479.321,1894.01L503.12,1894.01C504.006,1894.01 504.855,1894.43 505.481,1895.19C506.108,1895.94 506.46,1896.96 506.46,1898.02Z"/>
                    </g>
                    <g transform="matrix(1,0,0,1,0,33.2441)">
                        <path d="M264.685,1913.39L264.685,1948" style="fill:none;stroke:black;stroke-width:3.85px;"/>
                    </g>
                </g>
                <g transform="matrix(1,0,0,-1,-9.09449,3968.5)">
                    <g transform="matrix(1,0,0,0.833333,-226.535,314.961)">
                        <path d="M510,1898.02C510,1895.83 509.275,1893.73 507.985,1892.18C506.695,1890.63 504.945,1889.76 503.12,1889.76L479.321,1889.76C477.496,1889.76 475.746,1890.63 474.456,1892.18C473.166,1893.73 472.441,1895.83 472.441,1898.02L472.441,1952.37C472.441,1954.56 473.166,1956.66 474.456,1958.21C475.746,1959.76 477.496,1960.63 479.321,1960.63L503.12,1960.63C504.945,1960.63 506.695,1959.76 507.985,1958.21C509.275,1956.66 510,1954.56 510,1952.37L510,1898.02ZM506.46,1898.02L506.46,1952.37C506.46,1953.44 506.108,1954.46 505.481,1955.21C504.855,1955.96 504.006,1956.38 503.12,1956.38L479.321,1956.38C478.435,1956.38 477.586,1955.96 476.96,1955.21C476.333,1954.46 475.981,1953.44 475.981,1952.37L475.981,1898.02C475.981,1896.96 476.333,1895.94 476.96,1895.19C477.586,1894.43 478.435,1894.01 479.321,1894.01L503.12,1894.01C504.006,1894.01 504.855,1894.43 505.481,1895.19C506.108,1895.94 506.46,1896.96 506.46,1898.02Z"/>
                    </g>
                    <g transform="matrix(1,0,0,1,0,33.2441)">
                        <path d="M264.685,1913.39L264.685,1948" style="fill:none;stroke:black;stroke-width:3.85px;"/>
                    </g>
                </g>
            </g>
        </g>
    </g>
</svg>
