<?xml version="1.0" encoding="UTF-8" standalone="no"?>
<!DOCTYPE svg PUBLIC "-//W3C//DTD SVG 1.1//EN" "http://www.w3.org/Graphics/SVG/1.1/DTD/svg11.dtd">
<svg width="100%" height="100%" viewBox="0 0 164 167" version="1.1" xmlns="http://www.w3.org/2000/svg" xmlns:xlink="http://www.w3.org/1999/xlink" xml:space="preserve" xmlns:serif="http://www.serif.com/" style="fill-rule:evenodd;clip-rule:evenodd;stroke-linecap:square;stroke-miterlimit:1;">
    <g transform="matrix(1,0,0,1,-1030,-712)">
        <g transform="matrix(0.311579,0,0,0.311579,794.667,692.33)">
            <g id="StartText">
                <g transform="matrix(0.927094,0,0,0.9375,252.209,175.689)">
                    <path d="M826.772,-118.11C983.22,-118.11 1110.24,8.906 1110.24,165.354C1110.24,321.803 983.22,448.819 826.772,448.819C670.323,448.819 543.307,321.803 543.307,165.354C543.307,8.906 670.323,-118.11 826.772,-118.11ZM826.772,-104.812C677.704,-104.812 556.755,16.286 556.755,165.354C556.755,314.422 677.704,435.52 826.772,435.52C975.84,435.52 1096.79,314.422 1096.79,165.354C1096.79,16.286 975.84,-104.812 826.772,-104.812Z"/>
                </g>
                <g transform="matrix(3.20946,0,0,3.20946,-1264.5,-2285.3)">
                    <g transform="matrix(29.1667,0,0,29.1667,764.734,872.881)">
                    </g>
                    <text x="658.059px" y="872.881px" style="font-family:'LucidaGrande-Bold', 'Lucida Grande', sans-serif;font-weight:600;font-size:29.167px;">S<tspan x="676.763px 698.928px 722.446px 744.611px " y="872.881px 872.881px 872.881px 872.881px ">TART</tspan></text>
                </g>
                <path d="M974.415,157.864L974.415,190.912C941.453,207.254 918.77,241.253 918.77,280.509C918.77,335.664 963.549,380.443 1018.7,380.443C1073.86,380.443 1118.64,335.664 1118.64,280.509C1118.64,241.253 1095.96,207.251 1062.99,190.911L1062.99,157.864C1113.17,176.011 1149.08,224.099 1149.08,280.509C1149.08,352.465 1090.66,410.884 1018.7,410.884C946.748,410.884 888.329,352.465 888.329,280.509C888.329,224.099 924.232,176.008 974.415,157.864Z"/>
                <g transform="matrix(1,0,0,0.914313,0,22.2652)">
                    <path d="M1018.7,118.11L1018.7,259.843" style="fill:none;stroke:black;stroke-width:40.51px;"/>
                </g>
            </g>
        </g>
    </g>
</svg>
