<?xml version="1.0" encoding="UTF-8" standalone="no"?>
<!DOCTYPE svg PUBLIC "-//W3C//DTD SVG 1.1//EN" "http://www.w3.org/Graphics/SVG/1.1/DTD/svg11.dtd">
<svg width="100%" height="100%" viewBox="0 0 179 159" version="1.1" xmlns="http://www.w3.org/2000/svg" xmlns:xlink="http://www.w3.org/1999/xlink" xml:space="preserve" xmlns:serif="http://www.serif.com/" style="fill-rule:evenodd;clip-rule:evenodd;stroke-linejoin:round;stroke-miterlimit:2;">
    <g transform="matrix(1,0,0,1,-2947,-704)">
        <g transform="matrix(0.914634,0,0,0.914634,153.148,-931.901)">
            <g id="Team">
                <g>
                    <g id="Background" transform="matrix(0.659225,0,0,0.659225,1528.48,715.377)">
                        <g transform="matrix(-1.38469,0,0,1.59724,6124.79,-954.987)">
                            <circle cx="2683.15" cy="1651.49" r="33.383" style="fill:white;"/>
                        </g>
                        <g transform="matrix(1.20691,0,0,1.20691,-498.455,-367.069)">
                            <path d="M2381.36,1730.32C2390.43,1730.32 2436.64,1730.32 2436.64,1730.32C2466.14,1730.32 2485.6,1747.3 2485.6,1769.29C2485.6,1781.51 2485.6,1801.18 2485.6,1801.18L2332.4,1801.18C2332.4,1801.18 2332.4,1781.51 2332.4,1769.29C2332.4,1747.3 2351.85,1730.32 2381.36,1730.32Z" style="fill:white;"/>
                        </g>
                        <g transform="matrix(-1.38423,0,0,3.50005,6104.35,-4456.8)">
                            <ellipse cx="2669.6" cy="1789.37" rx="66.787" ry="5.906" style="fill:white;"/>
                        </g>
                    </g>
                    <g transform="matrix(0.659225,0,0,0.659225,1528.86,714.591)">
                        <g transform="matrix(-1.15022,0,0,1.32678,5495.67,-508.321)">
                            <circle cx="2683.15" cy="1651.49" r="33.383" style="fill:white;"/>
                            <path d="M2683.15,1618.11C2664.73,1618.11 2649.77,1633.07 2649.77,1651.49C2649.77,1669.92 2664.73,1684.88 2683.15,1684.88C2701.58,1684.88 2716.53,1669.92 2716.53,1651.49C2716.53,1633.07 2701.58,1618.11 2683.15,1618.11ZM2683.15,1621.45C2691.65,1621.4 2699.33,1624.99 2704.72,1630.74C2709.82,1636.16 2712.89,1643.48 2712.9,1651.49C2712.73,1659.46 2709.49,1666.65 2704.35,1671.98C2698.98,1677.55 2691.46,1681.02 2683.15,1680.92C2674.9,1680.93 2667.49,1677.37 2662.24,1671.78C2657.25,1666.47 2654.16,1659.35 2654.1,1651.49C2654.02,1643.59 2656.97,1636.37 2661.92,1630.98C2667.2,1625.22 2674.72,1621.51 2683.15,1621.45Z"/>
                        </g>
                        <path d="M2437.9,1730.33C2466.7,1730.81 2485.6,1747.61 2485.6,1769.29L2485.6,1801.18L2332.4,1801.18L2332.4,1769.29C2332.4,1747.61 2351.3,1730.81 2380.09,1730.33L2404.55,1754.94C2405.73,1756.12 2407.33,1756.79 2409,1756.79C2410.67,1756.79 2412.26,1756.12 2413.44,1754.94L2437.9,1730.33Z"/>
                        <g transform="matrix(-1.14692,0,0,2.9,5470.82,-3388.58)">
                            <ellipse cx="2669.6" cy="1789.37" rx="66.787" ry="5.906"/>
                        </g>
                    </g>
                </g>
                <g transform="matrix(1,0,0,1,-153.06,9.43804)">
                    <g id="Background1" serif:id="Background" transform="matrix(0.659225,0,0,0.659225,1753.35,710.453)">
                        <g transform="matrix(-1.38469,0,0,1.59724,6124.79,-954.987)">
                            <circle cx="2683.15" cy="1651.49" r="33.383" style="fill:white;"/>
                        </g>
                        <g transform="matrix(1.20691,0,0,1.20691,-498.455,-367.069)">
                            <path d="M2381.36,1730.32C2390.43,1730.32 2436.64,1730.32 2436.64,1730.32C2466.14,1730.32 2485.6,1747.3 2485.6,1769.29C2485.6,1781.51 2485.6,1801.18 2485.6,1801.18L2332.4,1801.18C2332.4,1801.18 2332.4,1781.51 2332.4,1769.29C2332.4,1747.3 2351.85,1730.32 2381.36,1730.32Z" style="fill:white;"/>
                        </g>
                        <g transform="matrix(-1.38423,0,0,3.50005,6104.35,-4456.8)">
                            <ellipse cx="2669.6" cy="1789.37" rx="66.787" ry="5.906" style="fill:white;"/>
                        </g>
                    </g>
                    <g transform="matrix(0.659225,0,0,0.659225,1753.95,709.622)">
                        <g transform="matrix(-1.15022,0,0,1.32678,5495.67,-508.321)">
                            <circle cx="2683.15" cy="1651.49" r="33.383" style="fill:white;"/>
                            <path d="M2683.15,1618.11C2664.73,1618.11 2649.77,1633.07 2649.77,1651.49C2649.77,1669.92 2664.73,1684.88 2683.15,1684.88C2701.58,1684.88 2716.53,1669.92 2716.53,1651.49C2716.53,1633.07 2701.58,1618.11 2683.15,1618.11ZM2683.15,1621.45C2691.65,1621.4 2699.33,1624.99 2704.72,1630.74C2709.82,1636.16 2712.89,1643.48 2712.9,1651.49C2712.73,1659.46 2709.49,1666.65 2704.35,1671.98C2698.98,1677.55 2691.46,1681.02 2683.15,1680.92C2674.9,1680.93 2667.49,1677.37 2662.24,1671.78C2657.25,1666.47 2654.16,1659.35 2654.1,1651.49C2654.02,1643.59 2656.97,1636.37 2661.92,1630.98C2667.2,1625.22 2674.72,1621.51 2683.15,1621.45Z"/>
                        </g>
                        <path d="M2445.12,1730.81C2469.82,1733.74 2485.6,1749.48 2485.6,1769.29L2485.6,1801.18L2332.4,1801.18L2332.4,1769.29C2332.4,1749.26 2348.53,1733.4 2373.68,1730.72C2383.28,1740.27 2395.79,1746.05 2409.45,1746.05C2423.07,1746.05 2435.53,1740.31 2445.12,1730.81Z"/>
                        <g transform="matrix(-1.14692,0,0,2.9,5470.82,-3388.58)">
                            <ellipse cx="2669.6" cy="1789.37" rx="66.787" ry="5.906"/>
                        </g>
                    </g>
                </g>
                <g transform="matrix(1,0,0,1,-86.1733,-9.0277)">
                    <g id="Background2" serif:id="Background" transform="matrix(0.659225,0,0,0.659225,1645.84,766.261)">
                        <g transform="matrix(-1.38469,0,0,1.59724,6124.79,-954.987)">
                            <circle cx="2683.15" cy="1651.49" r="33.383" style="fill:white;"/>
                        </g>
                        <g transform="matrix(1.20691,0,0,1.20691,-498.455,-367.069)">
                            <path d="M2381.36,1730.32C2390.43,1730.32 2436.64,1730.32 2436.64,1730.32C2466.14,1730.32 2485.6,1747.3 2485.6,1769.29C2485.6,1781.51 2485.6,1801.18 2485.6,1801.18L2332.4,1801.18C2332.4,1801.18 2332.4,1781.51 2332.4,1769.29C2332.4,1747.3 2351.85,1730.32 2381.36,1730.32Z" style="fill:white;"/>
                        </g>
                        <g transform="matrix(-1.38423,0,0,3.50005,6104.35,-4456.8)">
                            <ellipse cx="2669.6" cy="1789.37" rx="66.787" ry="5.906" style="fill:white;"/>
                        </g>
                    </g>
                    <g transform="matrix(0.659225,0,0,0.659225,1645.84,766.217)">
                        <g transform="matrix(-1.15022,0,0,1.32678,5495.67,-508.321)">
                            <circle cx="2683.15" cy="1651.49" r="33.383" style="fill:white;"/>
                            <path d="M2683.15,1618.11C2664.73,1618.11 2649.77,1633.07 2649.77,1651.49C2649.77,1669.92 2664.73,1684.88 2683.15,1684.88C2701.58,1684.88 2716.53,1669.92 2716.53,1651.49C2716.53,1633.07 2701.58,1618.11 2683.15,1618.11ZM2683.15,1621.45C2691.65,1621.4 2699.33,1624.99 2704.72,1630.74C2709.82,1636.16 2712.89,1643.48 2712.9,1651.49C2712.73,1659.46 2709.49,1666.65 2704.35,1671.98C2698.98,1677.55 2691.46,1681.02 2683.15,1680.92C2674.9,1680.93 2667.49,1677.37 2662.24,1671.78C2657.25,1666.47 2654.16,1659.35 2654.1,1651.49C2654.02,1643.59 2656.97,1636.37 2661.92,1630.98C2667.2,1625.22 2674.72,1621.51 2683.15,1621.45Z"/>
                        </g>
                        <path d="M2381.36,1730.32C2390.43,1730.32 2436.64,1730.32 2436.64,1730.32C2466.14,1730.32 2485.6,1747.3 2485.6,1769.29C2485.6,1781.51 2485.6,1801.18 2485.6,1801.18L2332.4,1801.18C2332.4,1801.18 2332.4,1781.51 2332.4,1769.29C2332.4,1747.3 2351.85,1730.32 2381.36,1730.32Z"/>
                        <g transform="matrix(-1.14692,0,0,2.9,5470.82,-3388.58)">
                            <ellipse cx="2669.6" cy="1789.37" rx="66.787" ry="5.906"/>
                        </g>
                    </g>
                </g>
            </g>
        </g>
    </g>
</svg>
