<?xml version="1.0" encoding="UTF-8" standalone="no"?>
<!DOCTYPE svg PUBLIC "-//W3C//DTD SVG 1.1//EN" "http://www.w3.org/Graphics/SVG/1.1/DTD/svg11.dtd">
<svg width="100%" height="100%" viewBox="0 0 178 178" version="1.1" xmlns="http://www.w3.org/2000/svg" xmlns:xlink="http://www.w3.org/1999/xlink" xml:space="preserve" xmlns:serif="http://www.serif.com/" style="fill-rule:evenodd;clip-rule:evenodd;stroke-linejoin:round;stroke-miterlimit:2;">
    <g transform="matrix(1,0,0,1,-58,-683)">
        <g transform="matrix(1.97344,0,0,1.97344,-6130.73,-1413)">
            <g id="ThumbsUp">
                <g transform="matrix(1,0,0,1,527.934,-441.819)">
                    <circle cx="2653.27" cy="1549.19" r="44.887" style="fill:white;"/>
                </g>
                <g id="Daumen-Hoch" serif:id="Daumen Hoch" transform="matrix(0.557946,0,0,0.557946,1387.58,129.571)">
                    <g transform="matrix(1.17437,0,0,1.17437,-591.4,-302.53)">
                        <path d="M3240.99,1690.39C3257.41,1690.39 3272.29,1697.06 3283.06,1707.83C3293.83,1718.6 3300.5,1733.48 3300.5,1749.9C3300.5,1766.33 3293.83,1781.2 3283.06,1791.98C3272.29,1802.75 3257.41,1809.41 3240.99,1809.41C3224.57,1809.41 3209.69,1802.75 3198.92,1791.98C3188.14,1781.2 3181.48,1766.33 3181.48,1749.9C3181.48,1733.48 3188.14,1718.6 3198.92,1707.83C3209.69,1697.06 3224.57,1690.39 3240.99,1690.39ZM3240.99,1692.64C3225.19,1692.64 3210.87,1699.05 3200.51,1709.42C3190.14,1719.79 3183.73,1734.1 3183.73,1749.9C3183.73,1765.7 3190.14,1780.02 3200.51,1790.39C3210.87,1800.75 3225.19,1807.17 3240.99,1807.17C3256.79,1807.17 3271.11,1800.75 3281.47,1790.39C3291.84,1780.02 3298.25,1765.7 3298.25,1749.9C3298.25,1734.1 3291.84,1719.79 3281.47,1709.42C3271.11,1699.05 3256.79,1692.64 3240.99,1692.64Z"/>
                    </g>
                    <g transform="matrix(1,0,0,0.96748,0,58.1686)">
                        <path d="M3190.23,1742.05L3190.23,1788.68C3190.23,1789.44 3189.63,1790.06 3188.89,1790.06L3168.23,1790.06C3167.49,1790.06 3166.89,1789.44 3166.89,1788.68L3166.89,1742.05C3166.89,1741.28 3167.49,1740.66 3168.23,1740.66L3188.89,1740.66C3189.63,1740.66 3190.23,1741.28 3190.23,1742.05ZM3187.55,1743.43L3169.57,1743.43L3169.57,1787.29L3187.55,1787.29L3187.55,1743.43Z"/>
                    </g>
                    <g transform="matrix(1,0,0,1,-0.758169,0)">
                        <rect x="3178.29" y="1743.56" width="2.639" height="43.027"/>
                    </g>
                    <path d="M3260.09,1749.39C3260.8,1749.87 3261.56,1750.44 3262.14,1751.04C3263.34,1752.25 3264.32,1753.86 3264.51,1755.97C3264.6,1756.82 3264.32,1757.64 3263.77,1758.42C3263.02,1759.48 3261.67,1760.47 3260.64,1761.37C3260.39,1761.58 3260.11,1761.89 3259.96,1762.07C3261.04,1763.83 3262.08,1765.45 3262.42,1766.87C3262.7,1768.05 3262.58,1769.14 3261.9,1770.12C3261.06,1771.34 3259.33,1772.35 3258.23,1773.42C3257.91,1773.74 3257.59,1774.04 3257.88,1774.47C3260.28,1778.07 3260.95,1782.17 3260.12,1785.19C3259.33,1788.08 3257.27,1790.08 3254.07,1790.21C3250.55,1790.36 3239.74,1790.6 3229.76,1790.65C3223.23,1790.68 3217.06,1790.62 3213.49,1790.39C3208.6,1790.08 3205.73,1789.05 3203.86,1787.63C3201.09,1785.52 3200.49,1782.46 3199.02,1778.97C3197.9,1776.32 3197.23,1772.66 3196.9,1768.66C3196.48,1763.61 3196.6,1758 3196.96,1753.27C3197.56,1745.42 3199.45,1740.14 3201.76,1736.32C3203.98,1732.67 3206.6,1730.34 3208.91,1728.39C3210.78,1726.82 3212.45,1725.56 3213.38,1723.9C3216.53,1718.31 3219.83,1713.47 3222.28,1707.68C3223.72,1704.26 3224.87,1700.51 3225.51,1696.06C3225.73,1694.5 3226.81,1693.72 3228.52,1693.79C3229.91,1693.85 3231.93,1694.65 3233.88,1695.97C3237.43,1698.37 3240.67,1702.46 3240.15,1706.06C3239.97,1707.35 3239.62,1708.86 3239.2,1710.46C3238.37,1713.58 3237.23,1717.1 3236.46,1720.2C3235.64,1723.47 3234.67,1726.07 3234.14,1728.05C3233.85,1729.17 3233.64,1730.02 3233.89,1730.65C3234.09,1731.18 3234.7,1731.33 3235.71,1731.47C3237.38,1731.71 3239.89,1731.62 3243.54,1731.27C3246.18,1731.02 3250.59,1730.91 3254.52,1731.18C3257.72,1731.4 3260.6,1731.92 3262.08,1732.73C3267.7,1735.84 3268.36,1739.49 3267.23,1742.55C3266.05,1745.74 3262.54,1748.37 3260.09,1749.39ZM3228.18,1696.51C3227.5,1701.19 3226.29,1705.14 3224.77,1708.74C3222.28,1714.62 3218.94,1719.55 3215.74,1725.23C3214.89,1726.74 3213.55,1728.01 3211.97,1729.36C3209.57,1731.39 3206.55,1733.66 3204.08,1737.73C3201.93,1741.27 3200.22,1746.18 3199.66,1753.47C3199.31,1758.07 3199.19,1763.52 3199.6,1768.44C3199.9,1772.11 3200.49,1775.48 3201.51,1777.91C3202.78,1780.92 3203.12,1783.66 3205.5,1785.47C3207.08,1786.67 3209.53,1787.42 3213.67,1787.69C3217.19,1787.91 3223.29,1787.97 3229.75,1787.94C3239.68,1787.89 3250.45,1787.65 3253.96,1787.51C3256.35,1787.41 3257.57,1785.49 3257.74,1783.08C3257.88,1780.89 3257.18,1778.31 3255.62,1775.97C3254.68,1774.55 3254.89,1773.36 3255.66,1772.26C3256.55,1771 3258.72,1769.96 3259.67,1768.59C3260,1768.11 3259.85,1767.56 3259.61,1766.95C3259.17,1765.83 3258.32,1764.58 3257.49,1763.23C3257.1,1762.58 3257.06,1761.92 3257.31,1761.25C3257.66,1760.31 3259.03,1759.21 3260.34,1758.09C3260.76,1757.73 3261.17,1757.36 3261.47,1756.98C3261.66,1756.73 3261.84,1756.49 3261.82,1756.22C3261.48,1752.66 3257.9,1751.25 3256.67,1750.5C3255.77,1749.96 3255.51,1749.27 3255.5,1748.93C3255.49,1748.48 3255.63,1747.99 3256.22,1747.62C3256.47,1747.46 3257.09,1747.25 3258.25,1747.14C3259.86,1746.99 3263.59,1744.58 3264.69,1741.61C3265.46,1739.51 3264.62,1737.23 3260.77,1735.1C3259.51,1734.41 3257.05,1734.07 3254.33,1733.88C3250.57,1733.62 3246.33,1733.72 3243.8,1733.97C3238.79,1734.45 3235.73,1734.4 3233.97,1733.86C3232.53,1733.4 3231.75,1732.63 3231.36,1731.64C3231.05,1730.84 3231.01,1729.83 3231.24,1728.6C3231.64,1726.48 3232.84,1723.5 3233.83,1719.54C3234.61,1716.43 3235.75,1712.89 3236.58,1709.76C3236.97,1708.27 3237.3,1706.88 3237.47,1705.67C3237.73,1703.86 3236.51,1701.98 3234.95,1700.37C3233.18,1698.56 3230.9,1697.11 3229.18,1696.63C3228.93,1696.56 3228.69,1696.52 3228.47,1696.5C3228.38,1696.5 3228.26,1696.51 3228.18,1696.51Z"/>
                </g>
            </g>
        </g>
    </g>
</svg>
