<?xml version="1.0" encoding="UTF-8" standalone="no"?>
<!DOCTYPE svg PUBLIC "-//W3C//DTD SVG 1.1//EN" "http://www.w3.org/Graphics/SVG/1.1/DTD/svg11.dtd">
<svg width="100%" height="100%" viewBox="0 0 241 240" version="1.1" xmlns="http://www.w3.org/2000/svg" xmlns:xlink="http://www.w3.org/1999/xlink" xml:space="preserve" xmlns:serif="http://www.serif.com/" style="fill-rule:evenodd;clip-rule:evenodd;stroke-linecap:round;stroke-miterlimit:10;">
    <g transform="matrix(1,0,0,1,-1638,-10)">
        <g transform="matrix(1.33929,0,0,1.33929,1045.94,-2314.59)">
            <g id="Tools">
                <g>
                    <g transform="matrix(0.95072,-0.153679,0.153679,0.95072,-247.777,72.9794)">
                        <g transform="matrix(0.765369,0.123718,-0.123718,0.765369,431.624,1818.67)">
                            <path d="M159.702,206.474L137.782,197.375L154.612,180.64" style="fill:none;stroke:black;stroke-width:6.11px;"/>
                            <path d="M131.142,42.076C164.416,46.917 192.193,72.806 197.839,107.739C204.51,149.007 177.894,188.026 137.782,197.375" style="fill:none;stroke:black;stroke-width:6.11px;stroke-miterlimit:1;"/>
                        </g>
                    </g>
                    <g transform="matrix(-0.956667,0.110789,-0.110789,-0.956667,1232.08,3611.65)">
                        <g transform="matrix(-0.770157,-0.0891897,0.0891897,-0.770157,590.788,2029.34)">
                            <path d="M84.931,32.872L106.42,42.947L88.854,58.908" style="fill:none;stroke:black;stroke-width:6.11px;"/>
                            <path d="M106.072,198.387C73.05,192.056 46.465,164.944 42.394,129.792C37.585,88.267 65.928,50.484 106.42,42.947" style="fill:none;stroke:black;stroke-width:6.11px;stroke-miterlimit:1;"/>
                        </g>
                    </g>
                </g>
                <g transform="matrix(1,0,0,1,-2.64207,0.635578)">
                    <g id="Schraubendreher" transform="matrix(0.193168,-0.193168,0.193168,0.193168,117.04,1504.08)">
                        <path d="M256.89,1941.73L275.787,1941.73L275.787,1958.27C271.224,1958.27 267.52,1962.5 267.52,1967.72C267.52,1972.93 271.224,1977.16 275.787,1977.16L275.787,2078.71C275.787,2084.99 273.296,2091 268.861,2095.44C264.426,2099.87 258.411,2102.36 252.139,2102.36L252.136,2102.36C238.454,2102.36 227.362,2091.27 227.362,2077.59L227.362,1977.16C231.925,1977.16 235.63,1972.93 235.63,1967.72C235.63,1962.5 231.925,1958.27 227.362,1958.27L227.362,1941.73L246.26,1941.73L246.26,1802.36L239.826,1783.65L239.764,1783.65L239.781,1783.51L239.764,1783.47L239.787,1783.47L243.307,1756.48L259.843,1756.48L263.362,1783.47L263.386,1783.47L263.369,1783.51L263.386,1783.65L263.324,1783.65L256.89,1802.36L256.89,1941.73ZM269.882,1996.65C269.882,1993.07 266.974,1990.16 263.388,1990.16L263.384,1990.16C259.797,1990.16 256.89,1993.07 256.89,1996.65L256.89,2080.96C256.89,2084.55 259.797,2087.46 263.384,2087.46L263.388,2087.46C266.974,2087.46 269.882,2084.55 269.882,2080.96L269.882,1996.65ZM247.441,1996.65C247.441,1993.07 244.533,1990.16 240.947,1990.16L240.943,1990.16C237.356,1990.16 234.449,1993.07 234.449,1996.65L234.449,2080.96C234.449,2084.55 237.356,2087.46 240.943,2087.46L240.947,2087.46C244.533,2087.46 247.441,2084.55 247.441,2080.96L247.441,1996.65Z"/>
                        <path d="M250.261,2102.29C237.455,2101.33 227.362,2090.64 227.362,2077.59L227.362,1977.16C231.925,1977.16 235.63,1972.93 235.63,1967.72C235.63,1962.5 231.925,1958.27 227.362,1958.27L227.362,1941.73L246.26,1941.73L246.26,1802.36L239.826,1783.65L239.764,1783.65L239.781,1783.51L239.764,1783.47L239.787,1783.47L243.307,1756.48L259.843,1756.48L263.06,1781.15C261.167,1781.39 261.458,1783.8 261.647,1784.74C261.677,1784.89 261.706,1785.01 261.727,1785.09C261.747,1785.06 261.783,1784.99 261.832,1784.91L263.139,1781.76L263.154,1781.87L262.049,1784.54C262.382,1783.95 262.888,1783.04 263.211,1782.3L263.362,1783.47L263.386,1783.47L263.369,1783.51L263.386,1783.65L263.324,1783.65L256.89,1802.36L256.89,1941.73L275.787,1941.73L275.787,1958.27C271.224,1958.27 267.52,1962.5 267.52,1967.72C267.52,1972.93 271.224,1977.16 275.787,1977.16L275.787,2078.71C275.787,2084.99 273.296,2091 268.861,2095.44C264.426,2099.87 258.41,2102.36 252.138,2102.36C251.895,2102.36 251.653,2102.36 251.411,2102.35C251.983,2101.26 252.538,2100.03 252.138,2100.03C257.79,2100.03 263.212,2097.78 267.209,2093.78C271.206,2089.79 273.451,2084.37 273.451,2078.71C273.451,2078.71 273.451,1979.21 273.451,1979.21C268.774,1978.03 265.183,1973.39 265.183,1967.72C265.183,1962.05 268.774,1957.4 273.451,1956.22L273.451,1944.07L256.89,1944.07L254.553,1941.73L254.553,1802.36L254.68,1801.6L260.981,1783.27C260.524,1779.77 257.791,1758.82 257.791,1758.82C257.791,1758.82 245.359,1758.82 245.359,1758.82L242.169,1783.27L248.47,1801.6L248.596,1802.36L248.596,1941.73L246.26,1944.07C246.26,1944.07 229.699,1944.07 229.699,1944.07C229.699,1944.07 229.699,1956.22 229.698,1956.22C234.375,1957.4 237.967,1962.05 237.967,1967.72C237.967,1973.39 234.375,1978.03 229.699,1979.21L229.699,2077.59C229.699,2089.98 239.746,2100.03 252.138,2100.03C250.623,2100.03 250.27,2101.21 250.261,2102.29ZM240.945,1987.82C245.822,1987.82 249.778,1991.78 249.778,1996.65L249.778,2080.96C249.778,2085.84 245.822,2089.79 240.945,2089.79C236.068,2089.79 232.112,2085.84 232.112,2080.96L232.112,1996.65C232.112,1991.78 236.068,1987.82 240.945,1987.82C239.268,1987.82 239.014,1989.28 239.076,1990.43C236.4,1991.23 234.449,1993.72 234.449,1996.65L234.449,2080.96C234.449,2083.9 236.399,2086.38 239.074,2087.18C239.025,2088.16 239.293,2089.11 239.293,2089.11C239.293,2089.11 239.771,2088.3 240.233,2087.42C240.467,2087.44 240.704,2087.46 240.945,2087.46C244.531,2087.46 247.441,2084.55 247.441,2080.96L247.441,1996.65C247.441,1993.07 244.531,1990.16 240.945,1990.16C240.69,1990.16 240.438,1990.17 240.19,1990.2C240.772,1989.09 241.351,1987.82 240.945,1987.82ZM263.386,1987.82C268.263,1987.82 272.218,1991.78 272.218,1996.65L272.218,2080.96C272.218,2085.84 268.263,2089.79 263.386,2089.79C258.509,2089.79 254.553,2085.84 254.553,2080.96L254.553,1996.65C254.553,1991.78 258.509,1987.82 263.386,1987.82C261.709,1987.82 261.455,1989.28 261.517,1990.43C258.841,1991.23 256.89,1993.72 256.89,1996.65L256.89,2080.96C256.89,2083.9 258.84,2086.38 261.515,2087.18C261.466,2088.16 261.734,2089.11 261.734,2089.11C261.734,2089.11 262.212,2088.3 262.674,2087.42C262.908,2087.44 263.145,2087.46 263.386,2087.46C266.972,2087.46 269.882,2084.55 269.882,2080.96L269.882,1996.65C269.882,1993.07 266.972,1990.16 263.386,1990.16C263.131,1990.16 262.879,1990.17 262.631,1990.2C263.213,1989.09 263.792,1987.82 263.386,1987.82ZM261.558,1784.81L261.574,1784.88L261.716,1785.17L261.702,1785.1L261.558,1784.81ZM261.731,1785.11C261.732,1785.11 261.733,1785.12 261.734,1785.12L261.752,1785.1L261.756,1785.09L261.731,1785.11ZM261.671,1785.3L261.701,1785.23L261.609,1785.03L261.671,1785.3ZM262.71,1785.06C262.55,1785.08 262.402,1785.1 262.271,1785.11C262.156,1785.15 262.055,1785.19 261.973,1785.22L261.992,1785.22L262.71,1785.06ZM261.867,1785.25L261.979,1785.23L261.962,1785.22C261.926,1785.23 261.895,1785.24 261.867,1785.25ZM261.867,1785.25C261.867,1785.25 261.867,1785.25 261.867,1785.25L261.867,1785.25Z"/>
                    </g>
                    <g id="Schraubenschlüssel" transform="matrix(0.185483,0.185483,-0.185483,0.185483,839.492,1414.28)">
                        <path d="M289.276,1765.17C303.393,1773.35 312.898,1788.62 312.898,1806.09C312.898,1832.16 291.728,1853.33 265.654,1853.33C239.579,1853.33 218.409,1832.16 218.409,1806.09C218.409,1788.62 227.915,1773.35 242.031,1765.17L242.031,1785.16C242.031,1791.24 244.447,1797.07 248.746,1801.37C253.046,1805.67 258.877,1808.09 264.957,1808.09L264.967,1808.09C271.414,1808.09 277.597,1805.53 282.156,1800.97C286.714,1796.41 289.276,1790.23 289.276,1783.78L289.276,1765.17Z"/>
                        <path d="M289.276,1765.17C303.393,1773.35 312.898,1788.62 312.898,1806.09C312.898,1832.16 291.728,1853.33 265.654,1853.33C239.579,1853.33 218.409,1832.16 218.409,1806.09C218.409,1788.62 227.915,1773.35 242.031,1765.17L242.031,1785.16C242.031,1791.24 244.447,1797.07 248.746,1801.37C253.046,1805.67 258.877,1808.09 264.957,1808.09L264.967,1808.09C271.414,1808.09 277.597,1805.53 282.156,1800.97C286.714,1796.41 289.276,1790.23 289.276,1783.78L289.276,1765.17ZM264.957,1810.42C258.257,1810.42 251.832,1807.76 247.094,1803.02C242.356,1798.29 239.695,1791.86 239.695,1785.16C239.695,1785.16 239.695,1769.45 239.696,1769.45C228.233,1777.59 220.746,1790.97 220.746,1806.09C220.746,1830.87 240.868,1850.99 265.654,1850.99C290.439,1850.99 310.561,1830.87 310.561,1806.09C310.561,1790.97 303.075,1777.59 291.612,1769.45L291.612,1783.78C291.612,1790.85 288.805,1797.62 283.808,1802.62C278.811,1807.62 272.034,1810.42 264.967,1810.42L266.619,1809.74L264.957,1810.42Z"/>
                        <path d="M283.465,1817.72C283.465,1817.72 289.276,2013.78 289.181,2087.08C289.164,2100.07 278.648,2110.61 265.655,2110.61L265.652,2110.61C252.659,2110.61 242.126,2100.07 242.126,2087.08C242.126,2017.53 248.031,1817.72 248.031,1817.72L283.465,1817.72ZM265.654,2072.91C259.135,2072.91 253.843,2078.2 253.843,2084.72C253.843,2091.24 259.135,2096.53 265.654,2096.53C272.172,2096.53 277.465,2091.24 277.465,2084.72C277.465,2078.2 272.172,2072.91 265.654,2072.91Z"/>
                        <path d="M283.465,1817.72C283.465,1817.72 289.276,2013.78 289.181,2087.08C289.164,2100.07 278.647,2110.61 265.654,2110.61C252.66,2110.61 242.126,2100.07 242.126,2087.08C242.126,2017.53 248.031,1817.72 248.031,1817.72L283.465,1817.72ZM265.652,2108.27C265.661,2108.27 265.671,2108.27 265.681,2108.27C277.372,2108.26 286.829,2098.77 286.845,2087.08C286.933,2018.43 281.84,1842.07 281.196,1820.05C281.196,1820.05 250.301,1820.05 250.301,1820.05C249.651,1842.29 244.463,2021.9 244.463,2087.08C244.463,2098.78 253.949,2108.27 265.652,2108.27ZM265.654,2070.57C273.462,2070.57 279.801,2076.91 279.801,2084.72C279.801,2092.53 273.462,2098.87 265.654,2098.87C257.845,2098.87 251.506,2092.53 251.506,2084.72C251.506,2076.91 257.845,2070.57 265.654,2070.57ZM265.654,2072.91C259.135,2072.91 253.843,2078.2 253.843,2084.72C253.843,2091.24 259.135,2096.53 265.654,2096.53C272.172,2096.53 277.465,2091.24 277.465,2084.72C277.465,2078.2 272.172,2072.91 265.654,2072.91Z"/>
                    </g>
                </g>
            </g>
        </g>
    </g>
</svg>
