<?xml version="1.0" encoding="UTF-8" standalone="no"?>
<!DOCTYPE svg PUBLIC "-//W3C//DTD SVG 1.1//EN" "http://www.w3.org/Graphics/SVG/1.1/DTD/svg11.dtd">
<svg width="100%" height="100%" viewBox="0 0 178 134" version="1.1" xmlns="http://www.w3.org/2000/svg" xmlns:xlink="http://www.w3.org/1999/xlink" xml:space="preserve" xmlns:serif="http://www.serif.com/" style="fill-rule:evenodd;clip-rule:evenodd;stroke-linejoin:round;stroke-miterlimit:2;">
    <g transform="matrix(1,0,0,1,-2981,-57)">
        <g transform="matrix(1.22524e-16,-2.00097,1.33676,8.18529e-17,486.482,580.858)">
            <path id="Transformation" d="M228.21,1866.14C228.21,1866.14 195.077,1924.2 195.077,1949.08C195.077,1976.45 209.923,1998.67 228.21,1998.67C246.497,1998.67 261.343,1976.45 261.343,1949.08C261.343,1924.2 228.21,1866.14 228.21,1866.14Z" style="fill:none;"/>
            <clipPath id="_clip1">
                <path id="Transformation1" serif:id="Transformation" d="M228.21,1866.14C228.21,1866.14 195.077,1924.2 195.077,1949.08C195.077,1976.45 209.923,1998.67 228.21,1998.67C246.497,1998.67 261.343,1976.45 261.343,1949.08C261.343,1924.2 228.21,1866.14 228.21,1866.14Z"/>
            </clipPath>
            <g clip-path="url(#_clip1)">
                <g transform="matrix(2.45392e-17,0.599883,-0.400756,3.67322e-17,976.078,1686.93)">
                    <path d="M462.215,1931.74L462.215,1911.28C478.015,1902.43 488.705,1885.52 488.705,1866.14C488.705,1846.76 478.015,1829.85 462.215,1821L462.215,1800.54C462.322,1800.58 462.429,1800.62 462.536,1800.67C466.44,1798.3 469.338,1795.04 471.228,1790.88C476.092,1793.09 480.73,1795.77 485.077,1798.88C482.422,1802.59 481.046,1806.73 480.947,1811.3C484.972,1814.52 488.629,1818.18 491.853,1822.2C496.419,1822.1 500.559,1820.73 504.275,1818.07C507.381,1822.42 510.059,1827.06 512.271,1831.92C508.114,1833.81 504.851,1836.71 502.483,1840.61C504.356,1845.42 505.695,1850.41 506.475,1855.51C510.478,1857.71 514.752,1858.59 519.297,1858.15C519.814,1863.46 519.814,1868.82 519.297,1874.14C514.752,1873.7 510.478,1874.57 506.475,1876.77C505.695,1881.87 504.356,1886.87 502.483,1891.67C504.851,1895.57 508.114,1898.47 512.271,1900.36C510.059,1905.23 507.381,1909.86 504.275,1914.21C500.559,1911.56 496.419,1910.18 491.853,1910.08C488.629,1914.11 484.972,1917.76 480.947,1920.99C481.046,1925.55 482.422,1929.69 485.077,1933.41C480.73,1936.52 476.092,1939.19 471.228,1941.4C469.338,1937.25 466.44,1933.99 462.536,1931.62C462.429,1931.66 462.322,1931.7 462.215,1931.74Z"/>
                    <path d="M462.215,1931.74L462.215,1911.28C478.015,1902.43 488.705,1885.52 488.705,1866.14C488.705,1846.76 478.015,1829.85 462.215,1821L462.215,1800.54C462.322,1800.58 462.429,1800.62 462.536,1800.67C466.44,1798.3 469.338,1795.04 471.228,1790.88C476.092,1793.09 480.73,1795.77 485.077,1798.88C482.422,1802.59 481.046,1806.73 480.947,1811.3C484.972,1814.52 488.629,1818.18 491.853,1822.2C496.419,1822.1 500.559,1820.73 504.275,1818.07C507.381,1822.42 510.059,1827.06 512.271,1831.92C508.114,1833.81 504.851,1836.71 502.483,1840.61C504.356,1845.42 505.695,1850.41 506.475,1855.51C510.478,1857.71 514.752,1858.59 519.297,1858.15C519.814,1863.46 519.814,1868.82 519.297,1874.14C514.752,1873.7 510.478,1874.57 506.475,1876.77C505.695,1881.87 504.356,1886.87 502.483,1891.67C504.851,1895.57 508.114,1898.47 512.271,1900.36C510.059,1905.23 507.381,1909.86 504.275,1914.21C500.559,1911.56 496.419,1910.18 491.853,1910.08C488.629,1914.11 484.972,1917.76 480.947,1920.99C481.046,1925.55 482.422,1929.69 485.077,1933.41C480.73,1936.52 476.092,1939.19 471.228,1941.4C469.338,1937.25 466.44,1933.99 462.536,1931.62C462.429,1931.66 462.322,1931.7 462.215,1931.74ZM466.774,1803.33C466.774,1808.35 466.774,1818.41 466.773,1818.41C482.678,1828.35 493.264,1846.02 493.264,1866.14C493.264,1886.26 482.678,1903.93 466.774,1913.88L466.774,1928.96C469.276,1930.76 471.381,1932.92 473.088,1935.43C475.098,1934.38 477.061,1933.25 478.972,1932.03C477.334,1928.64 476.474,1924.99 476.389,1921.09L478.097,1917.43C481.86,1914.41 485.28,1910.99 488.295,1907.23L491.951,1905.52C495.858,1905.61 499.507,1906.47 502.898,1908.11C504.115,1906.19 505.248,1904.23 506.295,1902.22C503.181,1900.1 500.611,1897.38 498.585,1894.03L498.236,1890.01C499.987,1885.52 501.239,1880.85 501.968,1876.08L504.281,1872.78C507.707,1870.89 511.297,1869.82 515.052,1869.54C515.151,1867.28 515.151,1865.01 515.052,1862.75C511.297,1862.47 507.707,1861.39 504.281,1859.51L501.968,1856.2C501.239,1851.43 499.987,1846.76 498.236,1842.27L498.585,1838.25C500.611,1834.91 503.181,1832.18 506.295,1830.06C505.248,1828.05 504.115,1826.09 502.898,1824.18C499.507,1825.82 495.858,1826.68 491.951,1826.76L488.295,1825.05C485.28,1821.29 481.86,1817.87 478.097,1814.85L476.389,1811.2C476.474,1807.29 477.334,1803.64 478.972,1800.25C477.061,1799.04 475.098,1797.9 473.088,1796.86C471.381,1799.37 469.276,1801.52 466.774,1803.33Z"/>
                </g>
                <g transform="matrix(0.283377,0.424181,-0.283377,0.424181,652.447,971.44)">
                    <path d="M385.311,1850.37L371.577,1850.37L375.01,1836.63L381.877,1836.63L385.311,1850.37Z" style="fill:rgb(64,64,64);"/>
                </g>
                <g transform="matrix(-0.103723,0.579442,-0.387101,-0.155261,997.003,2002.01)">
                    <path d="M385.311,1850.37L371.577,1850.37L375.01,1836.63L381.877,1836.63L385.311,1850.37Z" style="fill:rgb(64,64,64);"/>
                </g>
                <g transform="matrix(0.2241,0.497326,-0.332242,0.33545,764.962,1125.8)">
                    <path d="M385.311,1850.37L371.577,1850.37L375.01,1836.63L381.877,1836.63L385.311,1850.37Z" style="fill:rgb(64,64,64);"/>
                </g>
                <g transform="matrix(2.45392e-17,0.599883,-0.400756,3.67322e-17,967.004,1697.15)">
                    <path d="M385.311,1850.37L371.577,1850.37L375.01,1836.63L381.877,1836.63L385.311,1850.37Z" style="fill:rgb(64,64,64);"/>
                </g>
                <g transform="matrix(2.45392e-17,0.599883,-0.400756,3.67322e-17,949.282,1725.02)">
                    <path d="M385.311,1850.37L371.577,1850.37L375.01,1836.63L381.877,1836.63L385.311,1850.37Z" style="fill:rgb(64,64,64);"/>
                </g>
                <g transform="matrix(2.45392e-17,0.599883,-0.400756,3.67322e-17,969.756,1658.29)">
                    <path d="M385.311,1850.37L371.577,1850.37L375.01,1836.63L381.877,1836.63L385.311,1850.37Z" style="fill:rgb(64,64,64);"/>
                </g>
                <g transform="matrix(-0.103723,0.579442,-0.387101,-0.155261,989.254,2037.75)">
                    <path d="M385.311,1850.37L371.577,1850.37L375.01,1836.63L381.877,1836.63L385.311,1850.37Z" style="fill:rgb(64,64,64);"/>
                </g>
                <g transform="matrix(-0.103723,0.579442,-0.387101,-0.155261,980.374,2013.05)">
                    <path d="M385.311,1850.37L371.577,1850.37L375.01,1836.63L381.877,1836.63L385.311,1850.37Z" style="fill:rgb(64,64,64);"/>
                </g>
                <g transform="matrix(0.156588,0.552195,-0.368898,0.234393,872.348,1314.65)">
                    <path d="M385.311,1850.37L371.577,1850.37L375.01,1836.63L381.877,1836.63L385.311,1850.37Z" style="fill:rgb(64,64,64);"/>
                </g>
                <g transform="matrix(-0.181939,-0.5345,0.357076,-0.272341,-346.946,2651.82)">
                    <path d="M385.311,1850.37L371.577,1850.37L375.01,1836.63L381.877,1836.63L385.311,1850.37Z" style="fill:rgb(64,64,64);"/>
                </g>
                <g transform="matrix(-0.181939,-0.5345,0.357076,-0.272341,-359.164,2664.18)">
                    <path d="M385.311,1850.37L371.577,1850.37L375.01,1836.63L381.877,1836.63L385.311,1850.37Z" style="fill:rgb(64,64,64);"/>
                </g>
                <g transform="matrix(-0.181939,-0.5345,0.357076,-0.272341,-364.668,2679.7)">
                    <path d="M385.311,1850.37L371.577,1850.37L375.01,1836.63L381.877,1836.63L385.311,1850.37Z" style="fill:rgb(64,64,64);"/>
                </g>
                <g transform="matrix(0.398561,-0.0627048,0.0418904,0.596597,-6.86534,886.988)">
                    <path d="M385.311,1850.37L371.577,1850.37L375.01,1836.63L381.877,1836.63L385.311,1850.37Z" style="fill:rgb(64,64,64);"/>
                </g>
                <g transform="matrix(-0.388852,-0.145125,0.0969517,-0.582064,202.769,3026.96)">
                    <path d="M385.311,1850.37L371.577,1850.37L375.01,1836.63L381.877,1836.63L385.311,1850.37Z" style="fill:rgb(64,64,64);"/>
                </g>
                <g transform="matrix(-0.324218,-0.352602,0.235559,-0.485316,-85.1448,2932.63)">
                    <path d="M385.311,1850.37L371.577,1850.37L375.01,1836.63L381.877,1836.63L385.311,1850.37Z" style="fill:rgb(64,64,64);"/>
                </g>
                <g transform="matrix(0.156588,0.552195,-0.368898,0.234393,840.695,1272.13)">
                    <path d="M385.311,1850.37L371.577,1850.37L375.01,1836.63L381.877,1836.63L385.311,1850.37Z" style="fill:rgb(64,64,64);"/>
                </g>
                <g transform="matrix(-0.324218,-0.352602,0.235559,-0.485316,-72.0261,2987.5)">
                    <path d="M385.311,1850.37L371.577,1850.37L375.01,1836.63L381.877,1836.63L385.311,1850.37Z" style="fill:rgb(64,64,64);"/>
                </g>
                <g transform="matrix(0.336102,-0.32672,0.218267,0.503104,-319.148,1119.26)">
                    <path d="M385.311,1850.37L371.577,1850.37L375.01,1836.63L381.877,1836.63L385.311,1850.37Z" style="fill:rgb(64,64,64);"/>
                </g>
                <g transform="matrix(-0.163002,0.54802,-0.366109,-0.243994,953.552,2175.26)">
                    <path d="M385.311,1850.37L371.577,1850.37L375.01,1836.63L381.877,1836.63L385.311,1850.37Z" style="fill:rgb(64,64,64);"/>
                </g>
                <g transform="matrix(0.336102,-0.32672,0.218267,0.503104,-310.829,1144.1)">
                    <path d="M385.311,1850.37L371.577,1850.37L375.01,1836.63L381.877,1836.63L385.311,1850.37Z" style="fill:rgb(64,64,64);"/>
                </g>
                <g transform="matrix(0.156588,0.552195,-0.368898,0.234393,823.366,1302.73)">
                    <path d="M385.311,1850.37L371.577,1850.37L375.01,1836.63L381.877,1836.63L385.311,1850.37Z" style="fill:rgb(64,64,64);"/>
                </g>
            </g>
        </g>
    </g>
</svg>
