<?xml version="1.0" encoding="UTF-8" standalone="no"?>
<!DOCTYPE svg PUBLIC "-//W3C//DTD SVG 1.1//EN" "http://www.w3.org/Graphics/SVG/1.1/DTD/svg11.dtd">
<svg width="100%" height="100%" viewBox="0 0 47 171" version="1.1" xmlns="http://www.w3.org/2000/svg" xmlns:xlink="http://www.w3.org/1999/xlink" xml:space="preserve" xmlns:serif="http://www.serif.com/" style="fill-rule:evenodd;clip-rule:evenodd;stroke-linejoin:round;stroke-miterlimit:2;">
    <g transform="matrix(1,0,0,1,-2044,-60)">
        <g transform="matrix(0.491836,0,0,0.491836,1936.83,-807.481)">
            <g id="Wrench">
                <path d="M289.276,1765.17C303.393,1773.35 312.898,1788.62 312.898,1806.09C312.898,1832.16 291.728,1853.33 265.654,1853.33C239.579,1853.33 218.409,1832.16 218.409,1806.09C218.409,1788.62 227.915,1773.35 242.031,1765.17L242.031,1790C242.031,1794.8 243.937,1799.4 247.33,1802.79C250.722,1806.18 255.323,1808.09 260.121,1808.09L270.202,1808.09C275.261,1808.09 280.112,1806.08 283.689,1802.5C287.266,1798.92 289.276,1794.07 289.276,1789.01L289.276,1765.17Z"/>
                <path d="M289.276,1765.17C303.393,1773.35 312.898,1788.62 312.898,1806.09C312.898,1832.16 291.728,1853.33 265.654,1853.33C239.579,1853.33 218.409,1832.16 218.409,1806.09C218.409,1788.62 227.915,1773.35 242.031,1765.17L242.031,1790C242.031,1794.8 243.937,1799.4 247.33,1802.79C250.722,1806.18 255.323,1808.09 260.121,1808.09L270.202,1808.09C275.261,1808.09 280.112,1806.08 283.689,1802.5C287.266,1798.92 289.276,1794.07 289.276,1789.01L289.276,1765.17ZM291.612,1769.45L291.612,1789.01C291.612,1794.69 289.356,1800.14 285.341,1804.15C281.326,1808.17 275.88,1810.42 270.202,1810.42L260.121,1810.42C254.703,1810.42 249.508,1808.27 245.677,1804.44C241.847,1800.61 239.695,1795.41 239.695,1790C239.695,1790 239.695,1769.45 239.695,1769.45C228.232,1777.59 220.746,1790.97 220.746,1806.09C220.746,1830.87 240.868,1850.99 265.654,1850.99C290.439,1850.99 310.561,1830.87 310.561,1806.09C310.561,1790.97 303.075,1777.59 291.612,1769.45Z"/>
                <path d="M283.465,1817.72C283.465,1817.72 289.276,2013.78 289.181,2087.08C289.164,2100.07 278.648,2110.61 265.655,2110.61L265.652,2110.61C252.659,2110.61 242.126,2100.07 242.126,2087.08C242.126,2017.53 248.031,1817.72 248.031,1817.72L283.465,1817.72ZM265.654,2072.91C259.135,2072.91 253.843,2078.2 253.843,2084.72C253.843,2091.24 259.135,2096.53 265.654,2096.53C272.172,2096.53 277.465,2091.24 277.465,2084.72C277.465,2078.2 272.172,2072.91 265.654,2072.91Z"/>
                <path d="M283.465,1817.72C283.465,1817.72 289.276,2013.78 289.181,2087.08C289.164,2100.07 278.648,2110.61 265.655,2110.61L265.652,2110.61C252.659,2110.61 242.126,2100.07 242.126,2087.08C242.126,2017.53 248.031,1817.72 248.031,1817.72L283.465,1817.72ZM265.653,2108.27C265.681,2108.27 265.71,2108.27 265.733,2108.27C277.4,2108.23 286.829,2098.76 286.845,2087.08C286.933,2018.43 281.84,1842.07 281.196,1820.05C281.196,1820.05 250.301,1820.05 250.301,1820.05C249.651,1842.29 244.463,2021.9 244.463,2087.08C244.463,2098.78 253.951,2108.27 265.653,2108.27ZM265.654,2070.57C273.462,2070.57 279.801,2076.91 279.801,2084.72C279.801,2092.53 273.462,2098.87 265.654,2098.87C257.845,2098.87 251.506,2092.53 251.506,2084.72C251.506,2076.91 257.845,2070.57 265.654,2070.57ZM265.654,2072.91C259.135,2072.91 253.843,2078.2 253.843,2084.72C253.843,2091.24 259.135,2096.53 265.654,2096.53C272.172,2096.53 277.465,2091.24 277.465,2084.72C277.465,2078.2 272.172,2072.91 265.654,2072.91Z"/>
            </g>
        </g>
    </g>
</svg>
