<?xml version="1.0" encoding="UTF-8" standalone="no"?>
<!DOCTYPE svg PUBLIC "-//W3C//DTD SVG 1.1//EN" "http://www.w3.org/Graphics/SVG/1.1/DTD/svg11.dtd">
<svg width="100%" height="100%" viewBox="0 0 102 120" version="1.1" xmlns="http://www.w3.org/2000/svg" xmlns:xlink="http://www.w3.org/1999/xlink" xml:space="preserve" xmlns:serif="http://www.serif.com/" style="fill-rule:evenodd;clip-rule:evenodd;stroke-linejoin:round;stroke-miterlimit:2;">
    <g transform="matrix(1,0,0,1,-428,-1312)">
        <g transform="matrix(0.659225,0,0,0.659225,-1109.35,233.105)">
            <g id="Agile-Team-Member-c" serif:id="Agile Team Member c">
                <g id="ZP-Base" serif:id="ZP Base" transform="matrix(1,0,0,1,0.294606,-0.521322)">
                    <g transform="matrix(-1.15022,1.68413e-16,0,1.32678,5495.67,-508.321)">
                        <g id="Z-Kopf" serif:id="Z Kopf">
                            <circle cx="2683.15" cy="1651.49" r="33.383" style="fill:white;"/>
                            <path d="M2683.15,1618.11C2664.73,1618.11 2649.77,1633.07 2649.77,1651.49C2649.77,1669.92 2664.73,1684.88 2683.15,1684.88C2701.58,1684.88 2716.53,1669.92 2716.53,1651.49C2716.53,1633.07 2701.58,1618.11 2683.15,1618.11ZM2683.15,1621.45C2691.65,1621.4 2699.33,1624.99 2704.72,1630.74C2709.82,1636.16 2712.89,1643.48 2712.9,1651.49C2712.73,1659.46 2709.49,1666.65 2704.35,1671.98C2698.98,1677.55 2691.46,1681.02 2683.15,1680.92C2674.9,1680.93 2667.49,1677.37 2662.24,1671.78C2657.25,1666.47 2654.16,1659.35 2654.1,1651.49C2654.02,1643.59 2656.97,1636.37 2661.92,1630.98C2667.2,1625.22 2674.72,1621.51 2683.15,1621.45Z" style="fill:rgb(155,155,155);"/>
                        </g>
                    </g>
                    <g id="Z-Body-Base" serif:id="Z Body Base" transform="matrix(1,0,0,1,0.0967552,-2.27374e-13)">
                        <path d="M2381.36,1730.32C2390.43,1730.32 2436.64,1730.32 2436.64,1730.32C2466.14,1730.32 2485.6,1747.3 2485.6,1769.29C2485.6,1781.51 2485.6,1801.18 2485.6,1801.18L2332.4,1801.18C2332.4,1801.18 2332.4,1781.51 2332.4,1769.29C2332.4,1747.3 2351.85,1730.32 2381.36,1730.32Z" style="fill:rgb(103,133,193);"/>
                        <g transform="matrix(-1.14692,0,0,2.9,5470.82,-3388.58)">
                            <ellipse cx="2669.6" cy="1789.37" rx="66.787" ry="5.906" style="fill:rgb(103,133,193);"/>
                        </g>
                    </g>
                </g>
                <g transform="matrix(1.8918,0,0,1.8918,-2159.36,-1866.32)">
                    <path d="M2430.85,1913.09C2433.58,1908.04 2439.04,1908.04 2441.77,1909.98C2444.5,1911.93 2444.5,1915.82 2441.77,1919.7C2439.86,1922.62 2434.95,1925.54 2430.85,1927.48C2426.76,1925.54 2421.85,1922.62 2419.94,1919.7C2417.21,1915.82 2417.21,1911.93 2419.94,1909.98C2422.67,1908.04 2428.12,1908.04 2430.85,1913.09Z" style="fill:rgb(233,230,229);"/>
                    <path d="M2430.85,1913.09C2433.58,1908.04 2439.04,1908.04 2441.77,1909.98C2444.5,1911.93 2444.5,1915.82 2441.77,1919.7C2439.86,1922.62 2434.95,1925.54 2430.85,1927.48C2426.76,1925.54 2421.85,1922.62 2419.94,1919.7C2417.21,1915.82 2417.21,1911.93 2419.94,1909.98C2422.67,1908.04 2428.12,1908.04 2430.85,1913.09ZM2427.91,1914.68C2427.18,1913.41 2426.16,1912.71 2425.11,1912.43C2423.97,1912.13 2422.8,1912.39 2422.06,1912.95C2421.47,1913.38 2421.57,1914.14 2421.77,1914.93C2421.99,1915.76 2422.46,1916.62 2423.1,1917.49C2423.12,1917.52 2423.14,1917.56 2423.17,1917.59C2423.79,1918.52 2424.9,1919.37 2426.13,1920.23C2427.6,1921.27 2429.29,1922.25 2430.93,1923.09C2432.57,1922.32 2434.26,1921.42 2435.74,1920.45C2437.05,1919.6 2438.25,1918.79 2438.94,1917.85C2438.96,1917.82 2438.98,1917.79 2439,1917.76C2439.88,1916.61 2440.52,1915.51 2440.65,1914.44C2440.74,1913.67 2440.54,1912.97 2439.94,1912.54C2439.1,1911.96 2437.77,1911.8 2436.52,1912.18C2435.46,1912.51 2434.5,1913.34 2433.8,1914.68C2433.22,1915.77 2432.09,1916.44 2430.85,1916.44C2429.62,1916.44 2428.49,1915.77 2427.91,1914.68Z" style="fill:rgb(233,230,229);"/>
                </g>
            </g>
        </g>
    </g>
</svg>
