<?xml version="1.0" encoding="UTF-8" standalone="no"?>
<!DOCTYPE svg PUBLIC "-//W3C//DTD SVG 1.1//EN" "http://www.w3.org/Graphics/SVG/1.1/DTD/svg11.dtd">
<svg width="100%" height="100%" viewBox="0 0 102 120" version="1.1" xmlns="http://www.w3.org/2000/svg" xmlns:xlink="http://www.w3.org/1999/xlink" xml:space="preserve" xmlns:serif="http://www.serif.com/" style="fill-rule:evenodd;clip-rule:evenodd;stroke-linejoin:round;stroke-miterlimit:2;">
    <g transform="matrix(1,0,0,1,-256,-1312)">
        <g transform="matrix(0.659225,0,0,0.659225,-1281.41,234.105)">
            <g id="Agile-Team-Member-b" serif:id="Agile Team Member b">
                <g id="ZP-Base" serif:id="ZP Base" transform="matrix(1,0,0,1,-0.0967552,-2.03826)">
                    <g transform="matrix(-1.15022,1.68413e-16,0,1.32678,5495.67,-508.321)">
                        <g id="Z-Kopf" serif:id="Z Kopf">
                            <circle cx="2683.15" cy="1651.49" r="33.383" style="fill:white;"/>
                            <path d="M2683.15,1618.11C2664.73,1618.11 2649.77,1633.07 2649.77,1651.49C2649.77,1669.92 2664.73,1684.88 2683.15,1684.88C2701.58,1684.88 2716.53,1669.92 2716.53,1651.49C2716.53,1633.07 2701.58,1618.11 2683.15,1618.11ZM2683.15,1621.45C2691.65,1621.4 2699.33,1624.99 2704.72,1630.74C2709.82,1636.16 2712.89,1643.48 2712.9,1651.49C2712.73,1659.46 2709.49,1666.65 2704.35,1671.98C2698.98,1677.55 2691.46,1681.02 2683.15,1680.92C2674.9,1680.93 2667.49,1677.37 2662.24,1671.78C2657.25,1666.47 2654.16,1659.35 2654.1,1651.49C2654.02,1643.59 2656.97,1636.37 2661.92,1630.98C2667.2,1625.22 2674.72,1621.51 2683.15,1621.45Z" style="fill:rgb(155,155,155);"/>
                        </g>
                    </g>
                    <g id="Z-Body-Base" serif:id="Z Body Base" transform="matrix(1,0,0,1,0.0967552,-2.27374e-13)">
                        <path d="M2381.36,1730.32C2390.43,1730.32 2436.64,1730.32 2436.64,1730.32C2466.14,1730.32 2485.6,1747.3 2485.6,1769.29C2485.6,1781.51 2485.6,1801.18 2485.6,1801.18L2332.4,1801.18C2332.4,1801.18 2332.4,1781.51 2332.4,1769.29C2332.4,1747.3 2351.85,1730.32 2381.36,1730.32Z" style="fill:rgb(103,133,193);"/>
                        <g transform="matrix(-1.14692,0,0,2.9,5470.82,-3388.58)">
                            <ellipse cx="2669.6" cy="1789.37" rx="66.787" ry="5.906" style="fill:rgb(103,133,193);"/>
                        </g>
                    </g>
                </g>
                <g transform="matrix(1.24516,0,0,1.24516,-410.999,-602.134)">
                    <path d="M2214.33,1890.9C2222.71,1892.66 2231.07,1893.92 2239.41,1894.85C2247.88,1895.79 2256.33,1896.44 2264.76,1896.48C2269.85,1896.51 2274.94,1896.31 2280.01,1895.97C2291.79,1895.16 2303.51,1893.45 2315.2,1890.9C2315.83,1890.77 2316.23,1890.15 2316.1,1889.52C2315.96,1888.89 2315.35,1888.49 2314.72,1888.63C2303.12,1891.03 2291.5,1892.56 2279.84,1893.27C2274.82,1893.57 2269.8,1893.7 2264.76,1893.73C2256.41,1893.77 2248.03,1893.53 2239.64,1892.67C2231.38,1891.82 2223.11,1890.42 2214.81,1888.63C2214.18,1888.49 2213.56,1888.89 2213.43,1889.52C2213.3,1890.15 2213.7,1890.77 2214.33,1890.9Z" style="fill:rgb(233,230,229);"/>
                </g>
                <g transform="matrix(1.34306,0,0,1.37351,-632.709,-830.649)">
                    <path d="M2214.33,1890.9C2222.71,1892.66 2231.07,1893.92 2239.41,1894.85C2247.88,1895.79 2256.33,1896.44 2264.76,1896.48C2269.85,1896.51 2274.94,1896.31 2280.01,1895.97C2291.79,1895.16 2303.51,1893.45 2315.2,1890.9C2315.83,1890.77 2316.23,1890.15 2316.1,1889.52C2315.96,1888.89 2315.35,1888.49 2314.72,1888.63C2303.12,1891.03 2291.5,1892.56 2279.84,1893.27C2274.82,1893.57 2269.8,1893.7 2264.76,1893.73C2256.41,1893.77 2248.03,1893.53 2239.64,1892.67C2231.38,1891.82 2223.11,1890.42 2214.81,1888.63C2214.18,1888.49 2213.56,1888.89 2213.43,1889.52C2213.3,1890.15 2213.7,1890.77 2214.33,1890.9Z" style="fill:rgb(233,230,229);"/>
                </g>
                <g transform="matrix(1.37351,0,0,1.37351,-701.672,-800.868)">
                    <path d="M2214.33,1890.9C2222.71,1892.66 2231.07,1893.92 2239.41,1894.85C2247.88,1895.79 2256.33,1896.44 2264.76,1896.48C2269.85,1896.51 2274.94,1896.31 2280.01,1895.97C2291.79,1895.16 2303.51,1893.45 2315.2,1890.9C2315.83,1890.77 2316.23,1890.15 2316.1,1889.52C2315.96,1888.89 2315.35,1888.49 2314.72,1888.63C2303.12,1891.03 2291.5,1892.56 2279.84,1893.27C2274.82,1893.57 2269.8,1893.7 2264.76,1893.73C2256.41,1893.77 2248.03,1893.53 2239.64,1892.67C2231.38,1891.82 2223.11,1890.42 2214.81,1888.63C2214.18,1888.49 2213.56,1888.89 2213.43,1889.52C2213.3,1890.15 2213.7,1890.77 2214.33,1890.9Z" style="fill:rgb(233,230,229);"/>
                </g>
                <g transform="matrix(1.37351,0,0,1.37351,-701.672,-815.759)">
                    <path d="M2214.33,1890.9C2222.71,1892.66 2231.07,1893.92 2239.41,1894.85C2247.88,1895.79 2256.33,1896.44 2264.76,1896.48C2269.85,1896.51 2274.94,1896.31 2280.01,1895.97C2291.79,1895.16 2303.51,1893.45 2315.2,1890.9C2315.83,1890.77 2316.23,1890.15 2316.1,1889.52C2315.96,1888.89 2315.35,1888.49 2314.72,1888.63C2303.12,1891.03 2291.5,1892.56 2279.84,1893.27C2274.82,1893.57 2269.8,1893.7 2264.76,1893.73C2256.41,1893.77 2248.03,1893.53 2239.64,1892.67C2231.38,1891.82 2223.11,1890.42 2214.81,1888.63C2214.18,1888.49 2213.56,1888.89 2213.43,1889.52C2213.3,1890.15 2213.7,1890.77 2214.33,1890.9Z" style="fill:rgb(233,230,229);"/>
                </g>
            </g>
        </g>
    </g>
</svg>
