<?xml version="1.0" encoding="UTF-8" standalone="no"?>
<!DOCTYPE svg PUBLIC "-//W3C//DTD SVG 1.1//EN" "http://www.w3.org/Graphics/SVG/1.1/DTD/svg11.dtd">
<svg width="100%" height="100%" viewBox="0 0 102 119" version="1.1" xmlns="http://www.w3.org/2000/svg" xmlns:xlink="http://www.w3.org/1999/xlink" xml:space="preserve" xmlns:serif="http://www.serif.com/" style="fill-rule:evenodd;clip-rule:evenodd;stroke-linejoin:round;stroke-miterlimit:2;">
    <g transform="matrix(1,0,0,1,-83,-1312)">
        <g transform="matrix(0.659225,0,0,0.659225,-1453.72,233.59)">
            <g id="Agile-Team-Member-a" serif:id="Agile Team Member a">
                <g id="ZP-Base-V-Ausschnitt" serif:id="ZP Base V Ausschnitt" transform="matrix(1,0,0,1,-0.467739,-2.11021)">
                    <g transform="matrix(-1.15022,1.68413e-16,0,1.32678,5495.67,-508.321)">
                        <g id="Z-Kopf" serif:id="Z Kopf">
                            <circle cx="2683.15" cy="1651.49" r="33.383" style="fill:white;"/>
                            <path d="M2683.15,1618.11C2664.73,1618.11 2649.77,1633.07 2649.77,1651.49C2649.77,1669.92 2664.73,1684.88 2683.15,1684.88C2701.58,1684.88 2716.53,1669.92 2716.53,1651.49C2716.53,1633.07 2701.58,1618.11 2683.15,1618.11ZM2683.15,1621.45C2691.65,1621.4 2699.33,1624.99 2704.72,1630.74C2709.82,1636.16 2712.89,1643.48 2712.9,1651.49C2712.73,1659.46 2709.49,1666.65 2704.35,1671.98C2698.98,1677.55 2691.46,1681.02 2683.15,1680.92C2674.9,1680.93 2667.49,1677.37 2662.24,1671.78C2657.25,1666.47 2654.16,1659.35 2654.1,1651.49C2654.02,1643.59 2656.97,1636.37 2661.92,1630.98C2667.2,1625.22 2674.72,1621.51 2683.15,1621.45Z" style="fill:rgb(155,155,155);"/>
                        </g>
                    </g>
                    <g id="Z-Body-V" serif:id="Z Body V" transform="matrix(1.51693,0,0,1.51693,1487.14,1525.88)">
                        <g transform="matrix(0.659225,0,0,0.659225,-980.063,-1005.9)">
                            <path d="M2437.9,1730.33C2466.7,1730.81 2485.6,1747.61 2485.6,1769.29L2485.6,1801.18L2332.4,1801.18L2332.4,1769.29C2332.4,1747.61 2351.3,1730.81 2380.09,1730.33L2404.93,1755.32C2406.01,1756.41 2407.47,1757.01 2409,1757.01C2410.52,1757.01 2411.99,1756.41 2413.06,1755.32L2437.9,1730.33Z" style="fill:rgb(103,133,193);"/>
                        </g>
                        <g transform="matrix(-0.756078,-5.55112e-17,1.11022e-16,1.91175,2626.44,-3239.74)">
                            <ellipse cx="2669.6" cy="1789.37" rx="66.787" ry="5.906" style="fill:rgb(103,133,193);"/>
                        </g>
                    </g>
                </g>
                <g transform="matrix(1.51693,0,0,1.46304,-846.878,-1121.56)">
                    <path d="M2120.35,1950.26C2121.07,1950.99 2120.48,1950.37 2121.26,1951.15C2129.53,1959.54 2140.68,1970.53 2145.71,1975.55L2146.35,1975.8L2146.97,1975.53C2146.97,1975.53 2164.03,1958.07 2171.86,1950.06L2175.49,1950.95C2167.09,1959.41 2154.73,1971.84 2149.03,1977.57C2148.32,1978.29 2147.36,1978.69 2146.35,1978.69C2145.35,1978.69 2144.38,1978.29 2143.68,1977.57C2137.75,1971.61 2125.8,1959.59 2117.5,1951.24L2120.35,1950.26Z" style="fill:rgb(233,230,229);"/>
                </g>
                <g transform="matrix(1.51693,0,0,1.46304,-846.878,-1101.67)">
                    <path d="M2110.55,1940.3C2111.27,1941.03 2120.48,1950.37 2121.26,1951.15C2129.53,1959.54 2140.68,1970.53 2145.71,1975.55L2146.35,1975.8L2146.97,1975.53C2146.97,1975.53 2174.09,1948.05 2181.92,1940.04L2184.7,1941.75C2176.29,1950.2 2154.73,1971.84 2149.03,1977.57C2148.32,1978.29 2147.36,1978.69 2146.35,1978.69C2145.35,1978.69 2144.38,1978.29 2143.68,1977.57C2137.75,1971.61 2116.55,1950.39 2108.25,1942.04L2110.55,1940.3Z" style="fill:rgb(233,230,229);"/>
                </g>
                <g transform="matrix(1.51693,0,0,1.46304,-846.878,-1082.35)">
                    <path d="M2103.38,1933C2104.09,1933.73 2120.48,1950.37 2121.26,1951.15C2129.53,1959.54 2140.68,1970.53 2145.71,1975.55L2146.35,1975.8L2146.97,1975.53C2146.97,1975.53 2181.59,1940.42 2189.43,1932.42L2191.53,1934.88C2183.12,1943.34 2154.73,1971.84 2149.03,1977.57C2148.32,1978.29 2147.36,1978.69 2146.35,1978.69C2145.35,1978.69 2144.38,1978.29 2143.68,1977.57C2137.75,1971.61 2109.86,1943.7 2101.56,1935.35L2103.38,1933Z" style="fill:rgb(233,230,229);"/>
                </g>
            </g>
        </g>
    </g>
</svg>
