<?xml version="1.0" encoding="UTF-8" standalone="no"?>
<!DOCTYPE svg PUBLIC "-//W3C//DTD SVG 1.1//EN" "http://www.w3.org/Graphics/SVG/1.1/DTD/svg11.dtd">
<svg width="100%" height="100%" viewBox="0 0 102 145" version="1.1" xmlns="http://www.w3.org/2000/svg" xmlns:xlink="http://www.w3.org/1999/xlink" xml:space="preserve" xmlns:serif="http://www.serif.com/" style="fill-rule:evenodd;clip-rule:evenodd;stroke-linejoin:round;stroke-miterlimit:2;">
    <g transform="matrix(1,0,0,1,-2661,-997)">
        <g transform="matrix(0.659225,0,0,0.659225,1123.65,-62.2181)">
            <g id="Client-b" serif:id="Client b">
                <g id="ZP-Base-Runder-Ausschnitt" serif:id="ZP Base Runder Ausschnitt" transform="matrix(1,0,0,1,-0.724098,12.7551)">
                    <g transform="matrix(-1.15022,1.68413e-16,0,1.32678,5495.66,-513.42)">
                        <g id="Z-Kopf" serif:id="Z Kopf">
                            <circle cx="2683.15" cy="1651.49" r="33.383" style="fill:white;"/>
                            <path d="M2683.15,1618.11C2664.73,1618.11 2649.77,1633.07 2649.77,1651.49C2649.77,1669.92 2664.73,1684.88 2683.15,1684.88C2701.58,1684.88 2716.53,1669.92 2716.53,1651.49C2716.53,1633.07 2701.58,1618.11 2683.15,1618.11ZM2683.15,1621.45C2691.65,1621.4 2699.33,1624.99 2704.72,1630.74C2709.82,1636.16 2712.89,1643.48 2712.9,1651.49C2712.73,1659.46 2709.49,1666.65 2704.35,1671.98C2698.98,1677.55 2691.46,1681.02 2683.15,1680.92C2674.9,1680.93 2667.49,1677.37 2662.24,1671.78C2657.25,1666.47 2654.16,1659.35 2654.1,1651.49C2654.02,1643.59 2656.97,1636.37 2661.92,1630.98C2667.2,1625.22 2674.72,1621.51 2683.15,1621.45Z" style="fill:rgb(155,155,155);"/>
                        </g>
                    </g>
                    <g id="Z-Body-Rund" serif:id="Z Body Rund" transform="matrix(1.51693,0,0,1.51693,1721.01,1548.63)">
                        <g transform="matrix(0.659225,0,0,0.659225,-1134.05,-1023.8)">
                            <path d="M2448.41,1731.28C2471.21,1735.17 2485.6,1750.38 2485.6,1769.29L2485.6,1801.18L2332.4,1801.18L2332.4,1769.29C2332.4,1750.16 2347.12,1734.82 2370.36,1731.15C2380.3,1741.28 2394.14,1747.57 2409.45,1747.57C2424.69,1747.57 2438.48,1741.34 2448.41,1731.28Z" style="fill:rgb(103,133,193);"/>
                        </g>
                        <g transform="matrix(-0.756078,0,0,1.91175,2472.45,-3257.64)">
                            <ellipse cx="2669.6" cy="1789.37" rx="66.787" ry="5.906" style="fill:rgb(103,133,193);"/>
                        </g>
                    </g>
                </g>
                <g id="Z-Hut-Melone" serif:id="Z Hut Melone" transform="matrix(0.259056,-0.00164311,0.00164311,0.259056,1880.77,1339.48)">
                    <path d="M1883.03,1223.01C1884.35,1203.87 1885.48,1180.78 1885.48,1157.48C1885.48,1127.21 1896.55,1102.79 1917.95,1081.38C1939.36,1059.98 1993.18,1046.04 2038.19,1046.04C2077.28,1046.04 2122.78,1059.01 2142.47,1078.7C2162.17,1098.4 2173.23,1117 2173.23,1144.85C2173.23,1171.66 2174.86,1200.75 2176.66,1224.68C2183.6,1221.38 2190.34,1217.61 2196.85,1213.32C2274.08,1162.41 2257.82,1288.06 2214.39,1328.08C2104.22,1429.59 1859.36,1410.31 1818.9,1267.28C1790.43,1166.64 1852.51,1207.03 1883.03,1223.01Z"/>
                    <g transform="matrix(0.967373,0,0,0.846939,63.59,201.876)">
                        <path d="M2177.12,1251.68C2177.12,1249.05 2176.01,1246.57 2174.13,1245.04C2172.26,1243.51 2169.85,1243.11 2167.66,1243.96C2070.86,1281.74 1988.82,1272.92 1905.16,1235.26C1902.96,1234.26 1900.47,1234.57 1898.51,1236.09C1896.56,1237.6 1895.38,1240.13 1895.38,1242.83C1895.37,1258.41 1895.37,1284.68 1895.37,1294.93C1895.37,1297.52 1896.78,1299.83 1898.89,1300.74C1987.21,1338.44 2072.2,1348.3 2172.22,1310.53C2175.14,1309.43 2177.12,1306.31 2177.12,1302.79C2177.12,1291.48 2177.12,1266.45 2177.12,1251.68Z" style="fill:rgb(164,164,164);"/>
                    </g>
                </g>
            </g>
        </g>
    </g>
</svg>
