<?xml version="1.0" encoding="UTF-8" standalone="no"?>
<!DOCTYPE svg PUBLIC "-//W3C//DTD SVG 1.1//EN" "http://www.w3.org/Graphics/SVG/1.1/DTD/svg11.dtd">
<svg width="100%" height="100%" viewBox="0 0 102 119" version="1.1" xmlns="http://www.w3.org/2000/svg" xmlns:xlink="http://www.w3.org/1999/xlink" xml:space="preserve" xmlns:serif="http://www.serif.com/" style="fill-rule:evenodd;clip-rule:evenodd;stroke-linejoin:round;stroke-miterlimit:2;">
    <g transform="matrix(1,0,0,1,-100,-732)">
        <g transform="matrix(0.659225,0,0,0.659225,-1436.97,-347.803)">
            <g id="Consumer-a" serif:id="Consumer a">
                <g id="ZP-Base" serif:id="ZP Base" transform="matrix(1,0,0,1,0.354243,2.27374e-13)">
                    <g transform="matrix(-1.15022,1.68413e-16,0,1.32678,5495.67,-508.321)">
                        <g id="Z-Kopf" serif:id="Z Kopf">
                            <circle cx="2683.15" cy="1651.49" r="33.383" style="fill:white;"/>
                            <path d="M2683.15,1618.11C2664.73,1618.11 2649.77,1633.07 2649.77,1651.49C2649.77,1669.92 2664.73,1684.88 2683.15,1684.88C2701.58,1684.88 2716.53,1669.92 2716.53,1651.49C2716.53,1633.07 2701.58,1618.11 2683.15,1618.11ZM2683.15,1621.45C2691.65,1621.4 2699.33,1624.99 2704.72,1630.74C2709.82,1636.16 2712.89,1643.48 2712.9,1651.49C2712.73,1659.46 2709.49,1666.65 2704.35,1671.98C2698.98,1677.55 2691.46,1681.02 2683.15,1680.92C2674.9,1680.93 2667.49,1677.37 2662.24,1671.78C2657.25,1666.47 2654.16,1659.35 2654.1,1651.49C2654.02,1643.59 2656.97,1636.37 2661.92,1630.98C2667.2,1625.22 2674.72,1621.51 2683.15,1621.45Z" style="fill:rgb(155,155,155);"/>
                        </g>
                    </g>
                    <g id="Z-Body-Base" serif:id="Z Body Base" transform="matrix(1,0,0,1,0.0967552,-2.27374e-13)">
                        <path d="M2381.36,1730.32C2390.43,1730.32 2436.64,1730.32 2436.64,1730.32C2466.14,1730.32 2485.6,1747.3 2485.6,1769.29C2485.6,1781.51 2485.6,1801.18 2485.6,1801.18L2332.4,1801.18C2332.4,1801.18 2332.4,1781.51 2332.4,1769.29C2332.4,1747.3 2351.85,1730.32 2381.36,1730.32Z" style="fill:rgb(103,133,193);"/>
                        <g transform="matrix(-1.14692,0,0,2.9,5470.82,-3388.58)">
                            <ellipse cx="2669.6" cy="1789.37" rx="66.787" ry="5.906" style="fill:rgb(103,133,193);"/>
                        </g>
                    </g>
                </g>
                <g id="Z-Fliege" serif:id="Z Fliege" transform="matrix(1.27814,0,0,0.929346,485.474,64.3252)">
                    <g transform="matrix(0.0960237,0,0,0.112881,1314.37,1657.11)">
                        <path d="M2025.91,1198.5L1948.82,1198.5C1936.99,1224.2 1938.38,1249.89 1948.82,1275.59L2025.91,1275.59C2039.69,1249.89 2039.63,1224.2 2025.91,1198.5Z" style="fill:rgb(164,164,164);"/>
                    </g>
                    <g transform="matrix(0.122796,0,0,0.122796,1261.97,1644.46)">
                        <path d="M1934.6,1288.8L1825.84,1348.9C1819.44,1352.44 1812.17,1351.36 1806.47,1346.02C1800.77,1340.68 1797.37,1331.79 1797.41,1322.3L1798.19,1152.75C1798.22,1144.37 1801.28,1136.57 1806.35,1131.93C1811.42,1127.29 1817.83,1126.41 1823.47,1129.59L1934.17,1192.09C1926.63,1224.33 1927.51,1256.56 1934.6,1288.8Z" style="fill:rgb(164,164,164);"/>
                    </g>
                    <g transform="matrix(0.122796,0,0,0.122796,1261.97,1644.46)">
                        <path d="M2028.27,1288.73C2040.3,1256.58 2040.33,1224.42 2028.52,1192.26L2135.71,1131.75C2142.2,1128.09 2149.59,1129.1 2155.43,1134.45C2161.27,1139.8 2164.8,1148.79 2164.84,1158.44L2165.61,1326.18C2165.64,1334.8 2162.56,1342.88 2157.38,1347.73C2152.2,1352.58 2145.6,1353.57 2139.78,1350.35L2028.27,1288.73Z" style="fill:rgb(164,164,164);"/>
                    </g>
                </g>
            </g>
        </g>
    </g>
</svg>
