<?xml version="1.0" encoding="UTF-8" standalone="no"?>
<!DOCTYPE svg PUBLIC "-//W3C//DTD SVG 1.1//EN" "http://www.w3.org/Graphics/SVG/1.1/DTD/svg11.dtd">
<svg width="100%" height="100%" viewBox="0 0 102 119" version="1.1" xmlns="http://www.w3.org/2000/svg" xmlns:xlink="http://www.w3.org/1999/xlink" xml:space="preserve" xmlns:serif="http://www.serif.com/" style="fill-rule:evenodd;clip-rule:evenodd;stroke-linejoin:round;stroke-miterlimit:2;">
    <g transform="matrix(1,0,0,1,-292,-731)">
        <g transform="matrix(0.659225,0,0,0.659225,-1245.26,-347.665)">
            <g id="Consumer-b" serif:id="Consumer b">
                <g id="ZP-Base-V-Long-Ausschnitt" serif:id="ZP Base V Long Ausschnitt" transform="matrix(1.51693,0,0,1.51693,1296.78,1199.05)">
                    <g transform="matrix(0.659225,0,0,0.659225,-854.575,-791.141)">
                        <g id="Z-Body-Y-Long" serif:id="Z Body Y Long">
                            <path id="Z-Body-Y-Long1" serif:id="Z Body Y Long" d="M2433.01,1730.32L2436.64,1730.32C2466.14,1730.32 2485.6,1747.3 2485.6,1769.29L2485.6,1801.18L2485.55,1801.18C2484.16,1810.36 2450.39,1817.72 2409,1817.72C2367.61,1817.72 2333.84,1810.36 2332.44,1801.18L2332.4,1801.18L2332.4,1769.29C2332.4,1747.3 2351.85,1730.32 2381.36,1730.32L2384.99,1730.32L2409,1801.18L2433.01,1730.32Z" style="fill:rgb(103,133,193);"/>
                        </g>
                    </g>
                    <g transform="matrix(-0.758254,1.11022e-16,0,0.874644,2768.01,-1126.16)">
                        <g id="Z-Kopf" serif:id="Z Kopf">
                            <circle cx="2683.15" cy="1651.49" r="33.383" style="fill:white;"/>
                            <path d="M2683.15,1618.11C2664.73,1618.11 2649.77,1633.07 2649.77,1651.49C2649.77,1669.92 2664.73,1684.88 2683.15,1684.88C2701.58,1684.88 2716.53,1669.92 2716.53,1651.49C2716.53,1633.07 2701.58,1618.11 2683.15,1618.11ZM2683.15,1621.45C2691.65,1621.4 2699.33,1624.99 2704.72,1630.74C2709.82,1636.16 2712.89,1643.48 2712.9,1651.49C2712.73,1659.46 2709.49,1666.65 2704.35,1671.98C2698.98,1677.55 2691.46,1681.02 2683.15,1680.92C2674.9,1680.93 2667.49,1677.37 2662.24,1671.78C2657.25,1666.47 2654.16,1659.35 2654.1,1651.49C2654.02,1643.59 2656.97,1636.37 2661.92,1630.98C2667.2,1625.22 2674.72,1621.51 2683.15,1621.45Z" style="fill:rgb(155,155,155);"/>
                        </g>
                    </g>
                </g>
                <g id="Z-Krawatte" serif:id="Z Krawatte" transform="matrix(0.989918,0,0,0.797734,-326.467,124.281)">
                    <g transform="matrix(1.35,5.84471e-17,-3.85829e-17,-0.963061,-813.455,3651.95)">
                        <path d="M2655.71,1709.65L2643.9,1709.65L2647.67,1699.02L2651.94,1699.02L2655.71,1709.65Z" style="fill:rgb(164,164,164);"/>
                    </g>
                    <g transform="matrix(1,0,0,1,93.3071,301.916)">
                        <path d="M2676.97,1766.93L2670.47,1776.97L2663.98,1766.93C2663.98,1766.93 2667.22,1717.32 2667.22,1717.32L2673.72,1717.32L2676.97,1766.93Z" style="fill:rgb(164,164,164);"/>
                    </g>
                </g>
            </g>
        </g>
    </g>
</svg>
