<?xml version="1.0" encoding="UTF-8" standalone="no"?>
<!DOCTYPE svg PUBLIC "-//W3C//DTD SVG 1.1//EN" "http://www.w3.org/Graphics/SVG/1.1/DTD/svg11.dtd">
<svg width="100%" height="100%" viewBox="0 0 102 119" version="1.1" xmlns="http://www.w3.org/2000/svg" xmlns:xlink="http://www.w3.org/1999/xlink" xml:space="preserve" xmlns:serif="http://www.serif.com/" style="fill-rule:evenodd;clip-rule:evenodd;stroke-linejoin:round;stroke-miterlimit:2;">
    <g transform="matrix(1,0,0,1,-486,-731)">
        <g transform="matrix(0.659225,0,0,0.659225,-1051.3,-348.365)">
            <g id="Consumer-c" serif:id="Consumer c">
                <g id="ZP-Base-V-Ausschnitt" serif:id="ZP Base V Ausschnitt" transform="matrix(1,0,0,1,-0.450998,3.41061e-13)">
                    <g transform="matrix(-1.15022,1.68413e-16,0,1.32678,5495.67,-508.321)">
                        <g id="Z-Kopf" serif:id="Z Kopf">
                            <circle cx="2683.15" cy="1651.49" r="33.383" style="fill:white;"/>
                            <path d="M2683.15,1618.11C2664.73,1618.11 2649.77,1633.07 2649.77,1651.49C2649.77,1669.92 2664.73,1684.88 2683.15,1684.88C2701.58,1684.88 2716.53,1669.92 2716.53,1651.49C2716.53,1633.07 2701.58,1618.11 2683.15,1618.11ZM2683.15,1621.45C2691.65,1621.4 2699.33,1624.99 2704.72,1630.74C2709.82,1636.16 2712.89,1643.48 2712.9,1651.49C2712.73,1659.46 2709.49,1666.65 2704.35,1671.98C2698.98,1677.55 2691.46,1681.02 2683.15,1680.92C2674.9,1680.93 2667.49,1677.37 2662.24,1671.78C2657.25,1666.47 2654.16,1659.35 2654.1,1651.49C2654.02,1643.59 2656.97,1636.37 2661.92,1630.98C2667.2,1625.22 2674.72,1621.51 2683.15,1621.45Z" style="fill:rgb(155,155,155);"/>
                        </g>
                    </g>
                    <g id="Z-Body-V" serif:id="Z Body V" transform="matrix(1.51693,0,0,1.51693,1487.14,1525.88)">
                        <g transform="matrix(0.659225,0,0,0.659225,-980.063,-1005.9)">
                            <path d="M2437.9,1730.33C2466.7,1730.81 2485.6,1747.61 2485.6,1769.29L2485.6,1801.18L2332.4,1801.18L2332.4,1769.29C2332.4,1747.61 2351.3,1730.81 2380.09,1730.33L2404.93,1755.32C2406.01,1756.41 2407.47,1757.01 2409,1757.01C2410.52,1757.01 2411.99,1756.41 2413.06,1755.32L2437.9,1730.33Z" style="fill:rgb(103,133,193);"/>
                        </g>
                        <g transform="matrix(-0.756078,-5.55112e-17,1.11022e-16,1.91175,2626.44,-3239.74)">
                            <ellipse cx="2669.6" cy="1789.37" rx="66.787" ry="5.906" style="fill:rgb(103,133,193);"/>
                        </g>
                    </g>
                </g>
                <g id="Z-Kette" serif:id="Z Kette" transform="matrix(1,0,0,1,-4.54747e-13,-2.22228)">
                    <g transform="matrix(0.686668,0,0,0.686668,755.084,543.065)">
                        <g transform="matrix(1.51693,0,0,1.51693,-1476.58,-907.115)">
                            <path d="M2543.99,1739.08C2543.71,1738.81 2543.71,1738.36 2543.99,1738.08C2544.27,1737.8 2544.72,1737.8 2544.99,1738.08C2544.99,1738.08 2546.72,1739.92 2549.14,1742.29C2550.44,1743.55 2551.97,1744.91 2553.44,1746.35C2554.3,1747.18 2555.14,1748.04 2555.94,1748.86C2559.11,1752.09 2561.71,1754.8 2561.71,1754.8C2561.99,1755.07 2561.99,1755.52 2561.71,1755.8C2561.43,1756.08 2560.98,1756.08 2560.71,1755.8C2560.71,1755.8 2558,1753.2 2554.77,1750.03C2553.95,1749.23 2553.09,1748.39 2552.26,1747.54C2550.82,1746.06 2549.46,1744.53 2548.2,1743.24C2545.83,1740.81 2543.99,1739.08 2543.99,1739.08Z" style="fill:rgb(164,164,164);"/>
                        </g>
                        <g transform="matrix(-1.51693,0,0,1.51693,6293.79,-907.115)">
                            <path d="M2544.99,1738.08C2544.72,1737.8 2544.27,1737.8 2543.99,1738.08C2543.71,1738.36 2543.71,1738.81 2543.99,1739.08C2543.99,1739.08 2545.83,1740.81 2548.2,1743.24C2549.46,1744.53 2550.82,1746.06 2552.26,1747.54C2553.09,1748.39 2553.95,1749.23 2554.77,1750.03C2558,1753.2 2560.71,1755.8 2560.71,1755.8C2560.98,1756.08 2561.43,1756.08 2561.71,1755.8C2561.99,1755.52 2561.99,1755.07 2561.71,1754.8C2561.71,1754.8 2559.11,1752.09 2555.94,1748.86C2555.14,1748.04 2554.3,1747.18 2553.44,1746.35C2551.97,1744.91 2550.44,1743.55 2549.14,1742.29C2546.72,1739.92 2544.99,1738.08 2544.99,1738.08Z" style="fill:rgb(164,164,164);"/>
                        </g>
                    </g>
                    <g transform="matrix(1.17583,0,0,1.17583,-397.299,-376.276)">
                        <path d="M2386.66,1806.13C2386.66,1806.13 2384.65,1810.35 2384.65,1812.16C2384.65,1813.27 2385.55,1814.17 2386.66,1814.17C2387.77,1814.17 2388.67,1813.27 2388.67,1812.16C2388.67,1810.35 2386.66,1806.13 2386.66,1806.13Z" style="fill:rgb(164,164,164);"/>
                        <path d="M2386.66,1806.13C2386.66,1806.13 2388.67,1810.35 2388.67,1812.16C2388.67,1813.27 2387.77,1814.17 2386.66,1814.17C2385.55,1814.17 2384.65,1813.27 2384.65,1812.16C2384.65,1810.35 2386.66,1806.13 2386.66,1806.13ZM2386.66,1808.64C2386.48,1809.08 2386.31,1809.54 2386.15,1810C2385.88,1810.82 2385.65,1811.61 2385.65,1812.16C2385.65,1812.44 2385.76,1812.69 2385.94,1812.88C2386.12,1813.06 2386.38,1813.17 2386.66,1813.17C2386.93,1813.17 2387.19,1813.06 2387.37,1812.88C2387.55,1812.69 2387.67,1812.44 2387.67,1812.16C2387.67,1811.61 2387.44,1810.82 2387.16,1810C2387,1809.54 2386.83,1809.08 2386.66,1808.64Z" style="fill:rgb(164,164,164);"/>
                    </g>
                </g>
            </g>
        </g>
    </g>
</svg>
