<?xml version="1.0" encoding="UTF-8" standalone="no"?><!DOCTYPE svg PUBLIC "-//W3C//DTD SVG 1.1//EN" "http://www.w3.org/Graphics/SVG/1.1/DTD/svg11.dtd"><svg width="100%" height="100%" viewBox="0 0 68 102" version="1.1" xmlns="http://www.w3.org/2000/svg" xmlns:xlink="http://www.w3.org/1999/xlink" xml:space="preserve" xmlns:serif="http://www.serif.com/" style="fill-rule:evenodd;clip-rule:evenodd;stroke-linejoin:round;stroke-miterlimit:2;"><g id="EF-Baseball" serif:id="EF Baseball"><path d="M20,51.767l1.312,1.863c2.902,4.12 7.626,6.571 12.664,6.571c5.039,-0 9.763,-2.451 12.665,-6.571l1.408,-2c6.505,1.334 13.034,3.642 19.589,6.99l-0,42.519l-67.323,0l-0,-42.519c6.538,-3.163 13.099,-5.47 19.685,-6.853Z" style="fill:#6785c1;"/><ellipse cx="34.748" cy="29.195" rx="17.898" ry="23.622" style="fill:#9b9b9b;"/><path d="M22.983,22.757c-2.066,0.587 -2.362,22.836 11.22,26.195c8.1,2.002 12.402,-12.09 12.993,-18.807c0.176,-2.005 -1.799,-7.606 -4.725,-8.06c-12.992,-2.015 -8.858,-4.701 -10.039,-4.701c-1.772,-0 -0,2.686 -9.449,5.373Z" style="fill:#fff;"/><path d="M44.369,48.833c12.732,2.061 13.963,-6.79 11.76,-6.15c-3.449,1.003 -5.453,3.437 -4.421,-7.207c0.229,-2.36 -9.66,12.981 -7.339,13.357Z" style="fill:#9b9b9b;"/><path d="M25.769,48.833c-12.733,2.061 -13.964,-6.79 -11.761,-6.15c3.45,1.003 5.453,3.437 4.421,-7.207c-0.228,-2.36 9.66,12.981 7.34,13.357Z" style="fill:#9b9b9b;"/><g><path d="M14.5,23.579c-0.172,0.561 -4.564,2.264 -5.44,2.177c-3.887,-0.389 -2.41,-3.148 -0,-3.731c0.075,-0.019 5.68,0.777 5.44,1.554Z" style="fill:#e9e6e5;"/><path d="M14.5,23.579c-0.172,0.561 -4.564,2.264 -5.44,2.177c-3.887,-0.389 -2.41,-3.148 -0,-3.731c0.075,-0.019 5.68,0.777 5.44,1.554Zm-0.265,-0.049c-0.029,-0.026 -0.074,-0.064 -0.116,-0.089c-0.336,-0.203 -0.976,-0.393 -1.687,-0.563c-1.136,-0.271 -2.45,-0.482 -3.061,-0.567c-0.135,-0.018 -0.234,-0.031 -0.288,-0.036c-0.623,0.157 -1.177,0.468 -1.573,0.844c-0.315,0.299 -0.531,0.637 -0.583,0.97c-0.051,0.328 0.073,0.643 0.415,0.892c0.357,0.259 0.923,0.445 1.742,0.527c0.112,0.012 0.289,-0.015 0.511,-0.063c0.574,-0.123 1.41,-0.398 2.223,-0.713c0.83,-0.321 1.636,-0.686 2.112,-0.979c0.106,-0.065 0.195,-0.126 0.261,-0.182c0.015,-0.012 0.03,-0.027 0.044,-0.041Z"/><path d="M21.107,17.983c7.773,-18.266 14.38,-17.189 16.712,-17.189c1.167,-0 3.87,2.032 0.777,20.298c-0.662,3.908 -17.704,-2.603 -17.489,-3.109Z" style="fill:#a4a4a4;"/><path d="M21.107,17.983c7.773,-18.266 14.38,-17.189 16.712,-17.189c1.167,-0 3.87,2.032 0.777,20.298c-0.662,3.908 -17.704,-2.603 -17.489,-3.109Zm0.29,-0.046c0.168,0.112 0.49,0.273 0.929,0.471c2.219,0.997 7.315,2.808 11.223,3.448c1.549,0.254 2.907,0.328 3.81,0.076c0.546,-0.151 0.914,-0.42 0.992,-0.882c1.198,-7.074 1.525,-11.704 1.407,-14.723c-0.084,-2.151 -0.392,-3.468 -0.774,-4.261c-0.39,-0.808 -0.837,-1.024 -1.165,-1.024c-1.467,0 -4.658,-0.432 -8.77,3.99c-2.311,2.485 -4.906,6.484 -7.652,12.905Z"/><path d="M38.459,21.481c-0.019,0.107 3.169,0.576 6.433,1.165c3.586,0.648 7.282,1.41 7.298,1.246c1.166,-11.938 1.213,-18.346 -14.06,-23.048c-0.758,-0.233 3.964,-0.062 0.329,20.637Z" style="fill:#a4a4a4;"/><path d="M38.126,0.843c-0.115,-0.037 -0.098,-0.062 -0,-0Zm-0,-0c0.001,0 0.002,0 0.004,0.001c15.273,4.702 15.226,11.11 14.06,23.048c-0.016,0.164 -3.712,-0.598 -7.298,-1.246c-3.264,-0.589 -6.452,-1.058 -6.433,-1.165c3.061,-17.434 0.195,-20.305 -0.333,-20.638Z"/><path d="M18.387,17.799c6.218,-19.248 18.836,-16.916 19.354,-16.916c0.518,-0 -9.25,-1.166 -16.245,16.916c-1.631,4.215 -3.866,2.342 -3.109,-0Z" style="fill:#a4a4a4;"/><path d="M37.57,0.868c-1.371,-0.014 -9.828,0.785 -16.074,16.931c-1.631,4.215 -3.866,2.342 -3.109,-0c5.901,-18.266 17.565,-17.098 19.183,-16.931Zm-0,-0c0.164,0.001 0.227,0.015 0.171,0.015c-0.026,-0 -0.084,-0.006 -0.171,-0.015Z"/><path d="M41.317,21.869c2.091,0.511 -5.186,4.263 -8.162,5.83c-3.692,1.943 -6.995,2.045 -10.882,-0c-3.699,-1.947 -4.974,-3.615 -13.213,-5.558c-0.579,-0.136 5.181,-3.122 7.772,-3.77c2.392,-0.597 4.99,-0.813 7.384,-0.227c4.664,1.14 16.712,3.63 17.101,3.725Z"/><path d="M41.317,21.869c2.091,0.511 -5.186,4.263 -8.162,5.83c-3.692,1.943 -6.995,2.045 -10.882,-0c-3.699,-1.947 -4.974,-3.615 -13.213,-5.558c-0.579,-0.136 5.181,-3.122 7.772,-3.77c2.392,-0.597 4.99,-0.813 7.384,-0.227c4.664,1.14 16.712,3.63 17.101,3.725Zm-31.819,0.121c2.936,0.708 4.964,1.381 6.54,2.045c2.681,1.129 4.048,2.232 6.351,3.444c1.876,0.987 3.613,1.467 5.326,1.467c1.76,0.001 3.493,-0.503 5.324,-1.467c1.647,-0.867 4.613,-2.403 6.572,-3.687c0.792,-0.52 1.417,-0.992 1.703,-1.36c0.052,-0.067 0.091,-0.128 0.113,-0.185c0.009,-0.022 0.024,-0.04 0.014,-0.055c-0.029,-0.043 -0.094,-0.06 -0.183,-0.082c-0.253,-0.061 -5.404,-1.129 -10.265,-2.183c-2.64,-0.573 -5.194,-1.141 -6.836,-1.542c-1.177,-0.288 -2.405,-0.378 -3.632,-0.323c-1.228,0.056 -2.456,0.256 -3.632,0.55c-1.933,0.483 -5.645,2.281 -7.115,3.196c-0.106,0.066 -0.2,0.127 -0.28,0.182Z"/></g></g></svg>