<?xml version="1.0" encoding="UTF-8" standalone="no"?><!DOCTYPE svg PUBLIC "-//W3C//DTD SVG 1.1//EN" "http://www.w3.org/Graphics/SVG/1.1/DTD/svg11.dtd"><svg width="100%" height="100%" viewBox="0 0 68 96" version="1.1" xmlns="http://www.w3.org/2000/svg" xmlns:xlink="http://www.w3.org/1999/xlink" xml:space="preserve" xmlns:serif="http://www.serif.com/" style="fill-rule:evenodd;clip-rule:evenodd;stroke-linejoin:round;stroke-miterlimit:2;"><g id="EF-Kette" serif:id="EF Kette"><path d="M18.375,46.724l12.79,18.16c0.637,0.905 1.674,1.443 2.78,1.443c1.106,-0 2.143,-0.538 2.779,-1.443l12.891,-18.302c5.976,1.371 11.973,3.568 17.991,6.642l0,42.52l-67.323,-0l0,-42.52c6.011,-2.907 12.041,-5.092 18.092,-6.5Z" style="fill:#6785c1;"/><ellipse cx="34.717" cy="23.799" rx="17.898" ry="23.622" style="fill:#9b9b9b;"/><path d="M22.951,17.362c-2.065,0.587 -2.362,22.836 11.221,26.194c8.099,2.003 12.401,-12.09 12.992,-18.806c0.176,-2.005 -1.799,-7.606 -4.724,-8.06c-12.993,-2.015 -8.859,-4.702 -10.04,-4.702c-1.771,0 0,2.687 -9.449,5.374Z" style="fill:#fff;"/><path d="M44.337,43.437c12.732,2.061 13.963,-6.79 11.761,-6.149c-3.45,1.003 -5.453,3.436 -4.422,-7.208c0.229,-2.359 -9.659,12.982 -7.339,13.357Z" style="fill:#9b9b9b;"/><path d="M25.737,43.437c-12.732,2.061 -13.963,-6.79 -11.76,-6.149c3.449,1.003 5.453,3.436 4.421,-7.208c-0.229,-2.359 9.659,12.982 7.339,13.357Z" style="fill:#9b9b9b;"/><path d="M24.516,47.876c-0.17,-0.233 -0.119,-0.559 0.114,-0.729c0.232,-0.169 0.559,-0.118 0.728,0.114l8.618,11.816l9.611,-11.307c0.186,-0.219 0.516,-0.246 0.735,-0.059c0.219,0.186 0.246,0.515 0.059,0.734l-10.039,11.811l-0.818,-0.03l-9.008,-12.35Z" style="fill:#a4a4a4;"/><path d="M33.945,59.13c-0,-0 -1.559,3.272 -1.559,4.675c0,0.86 0.699,1.558 1.559,1.558c0.86,0 1.558,-0.698 1.558,-1.558c0,-1.403 -1.558,-4.675 -1.558,-4.675Z" style="fill:#a4a4a4;"/><path d="M33.945,59.13c-0,-0 1.558,3.272 1.558,4.675c0,0.86 -0.698,1.558 -1.558,1.558c-0.86,0 -1.559,-0.698 -1.559,-1.558c0,-1.403 1.559,-4.675 1.559,-4.675Zm-0,1.948c-0.134,0.334 -0.269,0.694 -0.39,1.051c-0.215,0.631 -0.393,1.25 -0.393,1.676c-0,0.216 0.087,0.412 0.229,0.554c0.142,0.141 0.338,0.229 0.554,0.229c0.216,0 0.412,-0.088 0.554,-0.229c0.141,-0.142 0.229,-0.338 0.229,-0.554c0,-0.426 -0.179,-1.045 -0.393,-1.676c-0.121,-0.357 -0.257,-0.717 -0.39,-1.051Z" style="fill:#a4a4a4;"/></g></svg>