<?xml version="1.0" encoding="UTF-8" standalone="no"?><!DOCTYPE svg PUBLIC "-//W3C//DTD SVG 1.1//EN" "http://www.w3.org/Graphics/SVG/1.1/DTD/svg11.dtd"><svg width="100%" height="100%" viewBox="0 0 68 96" version="1.1" xmlns="http://www.w3.org/2000/svg" xmlns:xlink="http://www.w3.org/1999/xlink" xml:space="preserve" xmlns:serif="http://www.serif.com/" style="fill-rule:evenodd;clip-rule:evenodd;stroke-linejoin:round;stroke-miterlimit:2;"><g id="EF-V" serif:id="EF V"><path d="M19.874,46.305l13.976,19.845l14.073,-19.982c6.505,1.333 13.034,3.642 19.589,6.989l-0,42.52l-67.323,0l-0,-42.52c6.538,-3.162 13.099,-5.469 19.685,-6.852Z" style="fill:#6785c1;"/><ellipse cx="34.622" cy="23.733" rx="17.898" ry="23.622" style="fill:#9b9b9b;"/><path d="M22.857,17.295c-2.066,0.587 -2.362,22.836 11.22,26.194c8.1,2.003 12.402,-12.089 12.993,-18.806c0.176,-2.005 -1.799,-7.606 -4.725,-8.06c-12.992,-2.015 -8.858,-4.701 -10.039,-4.701c-1.772,-0 -0,2.686 -9.449,5.373Z" style="fill:#fff;"/><path d="M44.243,43.37c12.732,2.062 13.963,-6.789 11.76,-6.149c-3.449,1.003 -5.453,3.437 -4.421,-7.207c0.229,-2.36 -9.66,12.981 -7.339,13.356Z" style="fill:#9b9b9b;"/><path d="M25.643,43.37c-12.733,2.062 -13.964,-6.789 -11.761,-6.149c3.45,1.003 5.453,3.437 4.421,-7.207c-0.228,-2.36 9.66,12.981 7.34,13.356Z" style="fill:#9b9b9b;"/></g></svg>