<?xml version="1.0" encoding="UTF-8" standalone="no"?><!DOCTYPE svg PUBLIC "-//W3C//DTD SVG 1.1//EN" "http://www.w3.org/Graphics/SVG/1.1/DTD/svg11.dtd"><svg width="100%" height="100%" viewBox="0 0 69 120" version="1.1" xmlns="http://www.w3.org/2000/svg" xmlns:xlink="http://www.w3.org/1999/xlink" xml:space="preserve" xmlns:serif="http://www.serif.com/" style="fill-rule:evenodd;clip-rule:evenodd;stroke-linecap:round;stroke-miterlimit:1;"><g id="EF-Zylinder" serif:id="EF Zylinder"><path d="M20.645,70.127l13.977,19.844l14.073,-19.981c6.505,1.333 13.034,3.641 19.588,6.989l0,42.52l-67.322,-0l-0,-42.52c6.538,-3.162 13.099,-5.469 19.684,-6.852Z" style="fill:#6785c1;"/><ellipse cx="35.394" cy="47.554" rx="17.898" ry="23.622" style="fill:#9b9b9b;"/><path d="M23.629,41.116c-2.066,0.588 -2.363,22.837 11.22,26.195c8.1,2.003 12.402,-12.09 12.992,-18.806c0.176,-2.005 -1.799,-7.606 -4.724,-8.06c-12.992,-2.015 -8.858,-4.702 -10.04,-4.702c-1.771,0 0,2.687 -9.448,5.373Z" style="fill:#fff;"/><path d="M45.014,67.192c12.732,2.061 13.963,-6.79 11.761,-6.149c-3.45,1.003 -5.453,3.436 -4.421,-7.208c0.228,-2.359 -9.66,12.981 -7.34,13.357Z" style="fill:#9b9b9b;"/><path d="M26.414,67.192c-12.732,2.061 -13.963,-6.79 -11.76,-6.149c3.449,1.003 5.453,3.436 4.421,-7.208c-0.229,-2.359 9.659,12.981 7.339,13.357Z" style="fill:#9b9b9b;"/><g><path d="M16.39,32.01c-1.277,2.979 5.862,9.591 19.716,9.591c14.388,0 19.672,-8.414 19.184,-10.124c-1.066,-3.73 -12.923,-2.664 -18.651,-2.664c-6.039,-0 -18.65,-0.533 -20.249,3.197Z"/><path d="M16.39,32.01c1.599,-3.73 14.21,-3.197 20.249,-3.197c5.728,-0 17.585,-1.066 18.651,2.664c0.488,1.71 -4.796,10.124 -19.184,10.124c-13.854,0 -20.993,-6.612 -19.716,-9.591Zm37.868,-0.28c-0.1,-0.302 -0.352,-0.526 -0.676,-0.726c-0.504,-0.311 -1.172,-0.537 -1.945,-0.714c-4.147,-0.951 -11.05,-0.417 -14.998,-0.417c-4.162,-0 -11.497,-0.274 -16.062,0.832c-0.885,0.214 -1.658,0.478 -2.26,0.82c-0.446,0.253 -0.794,0.533 -0.952,0.902c-0.15,0.35 -0.035,0.776 0.203,1.248c0.35,0.698 0.993,1.441 1.892,2.178c2.988,2.447 8.662,4.688 16.646,4.688c9.58,0 14.946,-3.848 17.126,-6.759c0.423,-0.564 0.719,-1.083 0.889,-1.519c0.078,-0.199 0.128,-0.476 0.137,-0.533Z"/><path d="M25.055,29.004c-0.04,0.294 -0.086,0.586 -0.139,0.874c-1.112,6.118 23.121,6.214 22.914,0c-0.012,-0.351 -0.02,-0.703 -0.026,-1.053" style="stroke:#a4a4a4;stroke-width:0.4px;"/><path d="M47.804,28.825c-0.226,-15.594 5.916,-30.078 2.239,-26.123c-4.807,5.169 -24.061,2.103 -28.324,0.533c-3.085,-1.136 4.917,14.138 3.336,25.769" style="stroke:#000;stroke-width:0.4px;"/><path d="M24.916,0.833c-5.328,1.21 -5.328,2.617 0.199,4c3.584,0.897 18.722,2.132 22.452,0.533c3.638,-1.559 6.124,-4.208 -0.27,-4.795c-3.679,-0.338 -18.717,-0.57 -22.381,0.262Z"/><path d="M24.916,0.833c3.664,-0.832 18.702,-0.6 22.381,-0.262c6.394,0.587 3.908,3.236 0.27,4.795c-3.73,1.599 -18.868,0.364 -22.452,-0.533c-5.527,-1.383 -5.527,-2.79 -0.199,-4Zm-2.591,1.928c0.071,0.042 0.147,0.084 0.221,0.119c0.646,0.31 1.589,0.615 2.826,0.925c2.467,0.617 10.5,1.387 16.355,1.261c2.378,-0.052 4.381,-0.227 5.423,-0.674c0.982,-0.421 1.874,-0.922 2.482,-1.443c0.205,-0.176 0.421,-0.469 0.507,-0.591c-0.067,-0.05 -0.178,-0.127 -0.279,-0.174c-0.283,-0.133 -0.653,-0.245 -1.118,-0.34c-0.436,-0.09 -0.948,-0.163 -1.542,-0.218c-3.624,-0.333 -18.439,-0.579 -22.049,0.24c-1.184,0.269 -2.085,0.542 -2.698,0.829c-0.042,0.02 -0.085,0.042 -0.128,0.066Z" style="fill:#a4a4a4;"/></g></g></svg>