<?xml version="1.0" encoding="UTF-8" standalone="no"?><!DOCTYPE svg PUBLIC "-//W3C//DTD SVG 1.1//EN" "http://www.w3.org/Graphics/SVG/1.1/DTD/svg11.dtd"><svg width="100%" height="100%" viewBox="0 0 68 105" version="1.1" xmlns="http://www.w3.org/2000/svg" xmlns:xlink="http://www.w3.org/1999/xlink" xml:space="preserve" xmlns:serif="http://www.serif.com/" style="fill-rule:evenodd;clip-rule:evenodd;stroke-linejoin:round;stroke-miterlimit:2;"><g id="EM-Bahn-Master" serif:id="EM Bahn Master"><ellipse cx="36.189" cy="28.48" rx="17.898" ry="23.622" style="fill:#9b9b9b;"/><path d="M22.677,31.396c-0.584,-4.385 1.694,-11.887 3.579,-12.78c1.022,-0.485 2.556,2.556 6.134,2.556c6.646,-0 17.382,-11.247 17.382,10.224c-0,7.026 -6.266,16.359 -13.292,16.359c-7.135,0 -12.78,-8.69 -13.803,-16.359Z" style="fill:#fff;"/><path d="M20.862,54.933l13.28,12.901l13.409,-13.027c6.725,1.31 13.475,3.66 20.252,7.122l0,42.519l-67.323,0l0,-42.519c6.769,-3.274 13.562,-5.632 20.382,-6.996Z" style="fill:#6785c1;"/><g><path d="M11.338,10.497c5.661,-1.887 35.145,-8.651 44.337,-10.273c4.293,-0.757 5.438,2.355 4.326,3.785c-3.785,4.866 -3.64,6.946 -6.308,8.11c-9.913,4.326 -23.967,4.259 -31.541,3.785c-8.651,-0.54 -15.139,-3.965 -10.814,-5.407Z" style="fill:#d11a1a;"/><path d="M29.722,22.363c0.721,1.802 18.601,15.401 30.279,6.059c2.703,-2.163 1.985,-4.048 1.081,-5.746c-0.683,-1.283 -5.677,-4.798 -6.322,-5.068c-2.055,-0.861 -25.759,2.952 -25.038,4.755Z"/><path d="M18.502,14.634c-0.144,-0.016 0.253,4.78 0.406,4.866c8.381,4.731 29.197,3.785 36.226,-0.27c0.644,-0.372 0.541,-1.42 0.541,-2.163c0,-1.262 -0.643,-6.715 -0.811,-6.623c-8.651,4.731 -21.492,5.812 -36.362,4.19Z"/><path d="M20.754,17.431l-0.767,-0.101l0.202,-1.532l0.766,0.1c6.724,0.884 13.625,1.156 19.5,0.608c5.116,-0.477 9.444,-1.562 12.141,-3.449l0.633,-0.444l0.887,1.267l-0.633,0.443c-2.866,2.006 -7.449,3.215 -12.884,3.722c-5.979,0.558 -13.002,0.285 -19.845,-0.614Z" style="fill:#e9e6e5;"/></g></g></svg>