<?xml version="1.0" encoding="UTF-8" standalone="no"?><!DOCTYPE svg PUBLIC "-//W3C//DTD SVG 1.1//EN" "http://www.w3.org/Graphics/SVG/1.1/DTD/svg11.dtd"><svg width="100%" height="100%" viewBox="0 0 68 102" version="1.1" xmlns="http://www.w3.org/2000/svg" xmlns:xlink="http://www.w3.org/1999/xlink" xml:space="preserve" xmlns:serif="http://www.serif.com/" style="fill-rule:evenodd;clip-rule:evenodd;stroke-linejoin:round;stroke-miterlimit:2;"><g id="EM-Baseball" serif:id="EM Baseball"><ellipse cx="34.748" cy="25.71" rx="17.898" ry="23.622" style="fill:#9b9b9b;"/><path d="M21.236,28.626c-0.584,-4.385 1.694,-11.888 3.579,-12.78c1.022,-0.485 2.556,2.556 6.135,2.556c6.645,-0 17.381,-11.247 17.381,10.224c0,7.026 -6.266,16.359 -13.292,16.359c-7.134,0 -12.78,-8.691 -13.803,-16.359Z" style="fill:#fff;"/><path d="M20.221,51.882l3.265,3.172c5.842,5.676 15.138,5.676 20.98,0l3.398,-3.3c6.566,1.327 13.157,3.647 19.774,7.026l-0,42.52l-67.323,0l-0,-42.52c6.611,-3.197 13.246,-5.521 19.906,-6.898Z" style="fill:#6785c1;"/><g><path d="M12.841,24.362c-0.18,0.585 -4.763,2.362 -5.677,2.271c-4.056,-0.406 -2.515,-3.285 -0,-3.894c0.078,-0.019 5.927,0.812 5.677,1.623Z" style="fill:#e9e6e5;"/><path d="M12.841,24.362c-0.18,0.585 -4.763,2.362 -5.677,2.271c-4.056,-0.406 -2.515,-3.285 -0,-3.894c0.078,-0.019 5.927,0.812 5.677,1.623Zm-0.277,-0.052c-0.03,-0.027 -0.077,-0.066 -0.121,-0.093c-0.351,-0.211 -1.019,-0.409 -1.76,-0.587c-1.186,-0.283 -2.557,-0.503 -3.194,-0.591c-0.141,-0.02 -0.245,-0.033 -0.301,-0.039c-0.65,0.164 -1.228,0.489 -1.642,0.882c-0.328,0.312 -0.553,0.664 -0.608,1.012c-0.053,0.342 0.076,0.671 0.434,0.931c0.372,0.269 0.963,0.464 1.817,0.55c0.117,0.011 0.302,-0.017 0.534,-0.066c0.598,-0.129 1.471,-0.415 2.319,-0.744c0.866,-0.336 1.707,-0.716 2.204,-1.022c0.111,-0.068 0.203,-0.132 0.273,-0.19c0.015,-0.013 0.031,-0.029 0.045,-0.043Z"/><path d="M19.735,18.522c8.111,-19.061 15.006,-17.937 17.439,-17.937c1.217,0 4.038,2.121 0.811,21.181c-0.69,4.078 -18.474,-2.716 -18.25,-3.244Z" style="fill:#a4a4a4;"/><path d="M19.735,18.522c8.111,-19.061 15.006,-17.937 17.439,-17.937c1.217,0 4.038,2.121 0.811,21.181c-0.69,4.078 -18.474,-2.716 -18.25,-3.244Zm0.302,-0.048c0.176,0.117 0.512,0.285 0.971,0.491c2.315,1.04 7.632,2.931 11.711,3.599c1.616,0.265 3.033,0.341 3.975,0.079c0.57,-0.158 0.954,-0.439 1.035,-0.92c1.25,-7.382 1.591,-12.214 1.468,-15.364c-0.088,-2.245 -0.409,-3.619 -0.807,-4.446c-0.407,-0.844 -0.874,-1.068 -1.216,-1.068c-1.53,-0 -4.86,-0.451 -9.151,4.162c-2.412,2.593 -5.121,6.766 -7.986,13.467Z"/><path d="M37.842,22.172c-0.02,0.112 3.306,0.601 6.713,1.216c3.742,0.676 7.598,1.472 7.615,1.3c1.217,-12.458 1.266,-19.144 -14.672,-24.051c-0.79,-0.243 4.137,-0.064 0.344,21.535Z" style="fill:#a4a4a4;"/><path d="M37.494,0.636c0.002,0.001 0.003,0.001 0.004,0.001c15.938,4.907 15.889,11.593 14.672,24.051c-0.017,0.172 -3.873,-0.624 -7.615,-1.3c-3.407,-0.615 -6.733,-1.104 -6.713,-1.216c3.194,-18.192 0.203,-21.189 -0.348,-21.536Zm0,0c-0.12,-0.038 -0.102,-0.064 0,0Z"/><path d="M16.897,18.33c6.488,-20.085 19.655,-17.652 20.196,-17.652c0.54,-0 -9.652,-1.217 -16.952,17.652c-1.702,4.399 -4.034,2.444 -3.244,-0Z" style="fill:#a4a4a4;"/><path d="M36.914,0.662c-1.431,-0.014 -10.255,0.82 -16.773,17.668c-1.702,4.399 -4.034,2.444 -3.244,-0c6.157,-19.06 18.328,-17.842 20.017,-17.668Zm-0,0c0.171,0.002 0.237,0.016 0.179,0.016c-0.028,-0 -0.088,-0.006 -0.179,-0.016Z"/><path d="M40.824,22.577c2.182,0.534 -5.411,4.449 -8.517,6.083c-3.852,2.028 -7.299,2.135 -11.355,0c-3.86,-2.031 -5.191,-3.771 -13.788,-5.799c-0.604,-0.142 5.407,-3.258 8.11,-3.934c2.496,-0.623 5.207,-0.848 7.706,-0.237c4.866,1.189 17.438,3.788 17.844,3.887Z"/><path d="M40.824,22.577c2.182,0.534 -5.411,4.449 -8.517,6.083c-3.852,2.028 -7.299,2.135 -11.355,0c-3.86,-2.031 -5.191,-3.771 -13.788,-5.799c-0.604,-0.142 5.407,-3.258 8.11,-3.934c2.496,-0.623 5.207,-0.848 7.706,-0.237c4.866,1.189 17.438,3.788 17.844,3.887Zm-33.202,0.127c3.063,0.738 5.179,1.44 6.823,2.133c2.798,1.178 4.225,2.329 6.628,3.594c1.958,1.03 3.77,1.53 5.557,1.531c1.837,0.001 3.645,-0.525 5.557,-1.531c1.718,-0.904 4.813,-2.508 6.857,-3.848c0.826,-0.542 1.478,-1.034 1.777,-1.418c0.054,-0.07 0.096,-0.134 0.118,-0.194c0.009,-0.023 0.025,-0.041 0.014,-0.057c-0.029,-0.045 -0.097,-0.062 -0.191,-0.085c-0.263,-0.064 -5.638,-1.179 -10.711,-2.279c-2.755,-0.597 -5.42,-1.19 -7.133,-1.609c-1.228,-0.3 -2.509,-0.394 -3.79,-0.336c-1.282,0.058 -2.563,0.267 -3.791,0.574c-2.016,0.504 -5.89,2.38 -7.424,3.335c-0.11,0.068 -0.208,0.132 -0.291,0.19Z"/></g></g></svg>