<?xml version="1.0" encoding="UTF-8" standalone="no"?><!DOCTYPE svg PUBLIC "-//W3C//DTD SVG 1.1//EN" "http://www.w3.org/Graphics/SVG/1.1/DTD/svg11.dtd"><svg width="100%" height="100%" viewBox="0 0 68 100" version="1.1" xmlns="http://www.w3.org/2000/svg" xmlns:xlink="http://www.w3.org/1999/xlink" xml:space="preserve" xmlns:serif="http://www.serif.com/" style="fill-rule:evenodd;clip-rule:evenodd;stroke-linejoin:round;stroke-miterlimit:2;"><g id="EM-Krawatte" serif:id="EM Krawatte"><path d="M32.67,56.648c-0.313,1.801 -1.705,17.411 -1.678,20.484c0.015,1.656 2.551,4.586 2.805,4.577c0.254,-0.01 3.659,-2.962 3.691,-4.577c0.064,-3.206 -2.819,-19.219 -3.046,-20.484c0.646,-0.682 1.084,-2.085 1.772,-2.774c0.249,-0.249 0.249,-0.652 -0,-0.901c-0.653,-0.653 -1.595,-1.861 -2.3,-2.566c-0.146,-0.146 -0.344,-0.228 -0.551,-0.228c-0.206,0 -0.404,0.082 -0.55,0.228c-0.704,0.704 -1.664,1.887 -2.317,2.54c-0.12,0.12 -0.188,0.283 -0.188,0.453c0,0.17 0.068,0.332 0.188,0.452c0.748,0.749 2.162,2.786 2.174,2.796Z" style="fill:#a4a4a4;"/><ellipse cx="34.717" cy="24.195" rx="17.898" ry="23.622" style="fill:#9b9b9b;"/><path d="M21.205,27.111c-0.585,-4.385 1.694,-11.887 3.578,-12.78c1.023,-0.485 2.556,2.556 6.135,2.556c6.646,-0 17.382,-11.247 17.382,10.224c-0,7.026 -6.266,16.359 -13.292,16.359c-7.135,0 -12.781,-8.69 -13.803,-16.359Z" style="fill:#fff;"/><path d="M19.088,50.604l14.857,43.654l14.908,-43.805c6.228,1.356 12.479,3.608 18.753,6.813l0,42.519l-67.323,0l0,-42.519c6.247,-3.022 12.515,-5.263 18.805,-6.662Z" style="fill:#6785c1;"/></g></svg>