<?xml version="1.0" encoding="UTF-8" standalone="no"?><!DOCTYPE svg PUBLIC "-//W3C//DTD SVG 1.1//EN" "http://www.w3.org/Graphics/SVG/1.1/DTD/svg11.dtd"><svg width="100%" height="100%" viewBox="0 0 68 100" version="1.1" xmlns="http://www.w3.org/2000/svg" xmlns:xlink="http://www.w3.org/1999/xlink" xml:space="preserve" xmlns:serif="http://www.serif.com/" style="fill-rule:evenodd;clip-rule:evenodd;stroke-linejoin:round;stroke-miterlimit:2;"><g id="EM-V" serif:id="EM V"><ellipse cx="34.622" cy="23.976" rx="17.898" ry="23.622" style="fill:#9b9b9b;"/><path d="M21.11,26.893c-0.584,-4.385 1.694,-11.888 3.579,-12.781c1.022,-0.484 2.556,2.556 6.135,2.556c6.645,0 17.381,-11.246 17.381,10.225c0,7.026 -6.266,16.359 -13.292,16.359c-7.134,-0 -12.78,-8.691 -13.803,-16.359Z" style="fill:#fff;"/><path d="M20.095,50.149l13.755,13.363l13.888,-13.492c6.566,1.327 13.157,3.648 19.774,7.027l-0,42.52l-67.323,-0l-0,-42.52c6.611,-3.198 13.246,-5.521 19.906,-6.898Z" style="fill:#6785c1;"/></g></svg>