<?xml version="1.0" encoding="UTF-8" standalone="no"?>
<!DOCTYPE svg PUBLIC "-//W3C//DTD SVG 1.1//EN" "http://www.w3.org/Graphics/SVG/1.1/DTD/svg11.dtd">
<svg width="100%" height="100%" viewBox="0 0 102 126" version="1.1" xmlns="http://www.w3.org/2000/svg" xmlns:xlink="http://www.w3.org/1999/xlink" xml:space="preserve" xmlns:serif="http://www.serif.com/" style="fill-rule:evenodd;clip-rule:evenodd;stroke-linejoin:round;stroke-miterlimit:2;">
    <g transform="matrix(1,0,0,1,-2286,-1016)">
        <g transform="matrix(0.659225,0,0,0.659225,747.517,-57.0332)">
            <g id="Epic-Owner-b" serif:id="Epic Owner b">
                <g id="ZP-Base-Runder-Ausschnitt" serif:id="ZP Base Runder Ausschnitt" transform="matrix(1,-4.21034e-17,4.21034e-17,1,0.877646,4.88995)">
                    <g transform="matrix(-1.15022,1.68413e-16,0,1.32678,5495.66,-513.42)">
                        <g id="Z-Kopf" serif:id="Z Kopf">
                            <circle cx="2683.15" cy="1651.49" r="33.383" style="fill:white;"/>
                            <path d="M2683.15,1618.11C2664.73,1618.11 2649.77,1633.07 2649.77,1651.49C2649.77,1669.92 2664.73,1684.88 2683.15,1684.88C2701.58,1684.88 2716.53,1669.92 2716.53,1651.49C2716.53,1633.07 2701.58,1618.11 2683.15,1618.11ZM2683.15,1621.45C2691.65,1621.4 2699.33,1624.99 2704.72,1630.74C2709.82,1636.16 2712.89,1643.48 2712.9,1651.49C2712.73,1659.46 2709.49,1666.65 2704.35,1671.98C2698.98,1677.55 2691.46,1681.02 2683.15,1680.92C2674.9,1680.93 2667.49,1677.37 2662.24,1671.78C2657.25,1666.47 2654.16,1659.35 2654.1,1651.49C2654.02,1643.59 2656.97,1636.37 2661.92,1630.98C2667.2,1625.22 2674.72,1621.51 2683.15,1621.45Z" style="fill:rgb(155,155,155);"/>
                        </g>
                    </g>
                    <g id="Z-Body-Rund" serif:id="Z Body Rund" transform="matrix(1.51693,0,0,1.51693,1721.01,1548.63)">
                        <g transform="matrix(0.659225,0,0,0.659225,-1134.05,-1023.8)">
                            <path d="M2448.41,1731.28C2471.21,1735.17 2485.6,1750.38 2485.6,1769.29L2485.6,1801.18L2332.4,1801.18L2332.4,1769.29C2332.4,1750.16 2347.12,1734.82 2370.36,1731.15C2380.3,1741.28 2394.14,1747.57 2409.45,1747.57C2424.69,1747.57 2438.48,1741.34 2448.41,1731.28Z" style="fill:rgb(103,133,193);"/>
                        </g>
                        <g transform="matrix(-0.756078,0,0,1.91175,2472.45,-3257.64)">
                            <ellipse cx="2669.6" cy="1789.37" rx="66.787" ry="5.906" style="fill:rgb(103,133,193);"/>
                        </g>
                    </g>
                </g>
                <g id="Z-Hut-China" serif:id="Z Hut China" transform="matrix(0.210275,-0.0687197,0.0687197,0.210275,1864.19,1531.76)">
                    <g transform="matrix(6.5179,2.13011,-2.13011,6.5179,-10345.2,-3862.83)">
                        <path d="M1944.97,163.316C1944.61,165.262 1944.42,167.28 1944.42,169.347C1944.42,169.442 1944.43,169.537 1944.43,169.63C1933.82,172.446 1926.64,173.69 1926.27,172.563C1925.88,171.353 1933.42,167.715 1944.97,163.316ZM1988.23,149.413C1998,146.881 2004.51,145.807 2004.86,146.88C2005.19,147.898 1999.89,150.638 1991.33,154.103C1990.43,152.419 1989.39,150.848 1988.23,149.413Z" style="fill:rgb(164,164,164);"/>
                    </g>
                    <g transform="matrix(1.04348,0,0,1.58049,-104.759,-783.911)">
                        <path d="M2137.8,1228.35L2409.45,1359.04L1866.14,1359.04L2137.8,1228.35Z"/>
                        <clipPath id="_clip1">
                            <path d="M2137.8,1228.35L2409.45,1359.04L1866.14,1359.04L2137.8,1228.35Z"/>
                        </clipPath>
                        <g clip-path="url(#_clip1)">
                            <g transform="matrix(0.206604,0,0,0.207438,1696.12,971.231)">
                                <path d="M2137.8,1228.35L2409.45,1359.04L1866.14,1359.04L2137.8,1228.35Z" style="fill:rgb(164,164,164);"/>
                            </g>
                            <g transform="matrix(1.50405,0,0,0.993007,-1014.96,77.0195)">
                                <rect x="1889.76" y="1211.29" width="416.676" height="7.759" style="fill:rgb(164,164,164);"/>
                            </g>
                            <g transform="matrix(1.50405,0,0,0.993007,-1005.21,110.328)">
                                <rect x="1889.76" y="1211.29" width="416.676" height="7.759" style="fill:rgb(164,164,164);"/>
                            </g>
                        </g>
                    </g>
                </g>
            </g>
        </g>
    </g>
</svg>
