<?xml version="1.0" encoding="UTF-8" standalone="no"?>
<!DOCTYPE svg PUBLIC "-//W3C//DTD SVG 1.1//EN" "http://www.w3.org/Graphics/SVG/1.1/DTD/svg11.dtd">
<svg width="100%" height="100%" viewBox="0 0 102 119" version="1.1" xmlns="http://www.w3.org/2000/svg" xmlns:xlink="http://www.w3.org/1999/xlink" xml:space="preserve" xmlns:serif="http://www.serif.com/" style="fill-rule:evenodd;clip-rule:evenodd;stroke-linejoin:round;stroke-miterlimit:2;">
    <g transform="matrix(1,0,0,1,-403,-1614)">
        <g transform="matrix(1,0,0,1,308.623,398.103)">
            <g id="Manager-Level-3-BU002" serif:id="Manager Level 3 BU002">
                <g id="ZP-Base" serif:id="ZP Base" transform="matrix(0.659225,0,0,0.659225,-1443.15,136.362)">
                    <g transform="matrix(-1.15022,1.68413e-16,0,1.32678,5495.67,-508.321)">
                        <g id="Z-Kopf" serif:id="Z Kopf">
                            <circle cx="2683.15" cy="1651.49" r="33.383" style="fill:white;"/>
                            <path d="M2683.15,1618.11C2664.73,1618.11 2649.77,1633.07 2649.77,1651.49C2649.77,1669.92 2664.73,1684.88 2683.15,1684.88C2701.58,1684.88 2716.53,1669.92 2716.53,1651.49C2716.53,1633.07 2701.58,1618.11 2683.15,1618.11ZM2683.15,1621.45C2691.65,1621.4 2699.33,1624.99 2704.72,1630.74C2709.82,1636.16 2712.89,1643.48 2712.9,1651.49C2712.73,1659.46 2709.49,1666.65 2704.35,1671.98C2698.98,1677.55 2691.46,1681.02 2683.15,1680.92C2674.9,1680.93 2667.49,1677.37 2662.24,1671.78C2657.25,1666.47 2654.16,1659.35 2654.1,1651.49C2654.02,1643.59 2656.97,1636.37 2661.92,1630.98C2667.2,1625.22 2674.72,1621.51 2683.15,1621.45Z" style="fill:rgb(155,155,155);"/>
                        </g>
                    </g>
                    <g id="Z-Body-Base" serif:id="Z Body Base" transform="matrix(1,0,0,1,0.0967552,-2.27374e-13)">
                        <path d="M2381.36,1730.32C2390.43,1730.32 2436.64,1730.32 2436.64,1730.32C2466.14,1730.32 2485.6,1747.3 2485.6,1769.29C2485.6,1781.51 2485.6,1801.18 2485.6,1801.18L2332.4,1801.18C2332.4,1801.18 2332.4,1781.51 2332.4,1769.29C2332.4,1747.3 2351.85,1730.32 2381.36,1730.32Z" style="fill:rgb(103,133,193);"/>
                        <g transform="matrix(-1.14692,0,0,2.9,5470.82,-3388.58)">
                            <ellipse cx="2669.6" cy="1789.37" rx="66.787" ry="5.906" style="fill:rgb(103,133,193);"/>
                        </g>
                    </g>
                </g>
                <g transform="matrix(1,0,0,1,-43.1382,-74.2589)">
                    <path d="M206.342,1351.29C225.794,1351.29 238.619,1362.48 238.619,1376.98C238.619,1385.03 238.619,1398 238.619,1398C238.619,1401.97 229.477,1405.06 215.635,1407.07L215.619,1376.98C215.619,1362.48 202.794,1351.29 183.342,1351.29L206.342,1351.29Z" style="fill:rgb(164,164,164);"/>
                    <clipPath id="_clip1">
                        <path d="M206.342,1351.29C225.794,1351.29 238.619,1362.48 238.619,1376.98C238.619,1385.03 238.619,1398 238.619,1398C238.619,1401.97 229.477,1405.06 215.635,1407.07L215.619,1376.98C215.619,1362.48 202.794,1351.29 183.342,1351.29L206.342,1351.29Z"/>
                    </clipPath>
                    <g clip-path="url(#_clip1)">
                        <g transform="matrix(1,0,0,0.997537,1.24753,3.13728)">
                            <path d="M214.853,1410.12C213.364,1410.12 212.155,1408.9 212.155,1407.41C212.155,1407.36 212.157,1407.3 212.16,1407.25C212.16,1407.25 212.164,1407.17 212.168,1407.06C212.178,1406.71 212.18,1405.96 212.22,1404.36C212.307,1400.85 212.572,1393.31 213.023,1377.03C213.268,1369.94 209.932,1363.34 203.877,1358.71C198.702,1354.75 191.617,1352.19 183.049,1351.88C182.884,1351.88 182.749,1351.75 182.749,1351.58C182.749,1351.41 182.884,1351.28 183.049,1351.28C191.972,1350.95 199.512,1353.13 205.18,1356.87C212.425,1361.63 216.569,1368.96 216.848,1377.03C217.299,1393.33 217.516,1400.88 217.559,1404.39C217.58,1406.04 217.562,1406.81 217.558,1407.16C217.517,1411.17 214.853,1410.12 214.853,1410.12Z"/>
                        </g>
                        <g transform="matrix(1.56544,0,0,0.992063,-99.6514,10.8395)">
                            <path d="M217.679,1407.03C217.696,1408.53 216.937,1409.77 215.986,1409.8C215.035,1409.83 214.249,1408.63 214.232,1407.13L214.272,1377.02C214.305,1371.05 213.038,1366 210.809,1362.08C208.577,1358.14 205.427,1355.3 201.695,1353.73C199.636,1352.86 197.196,1352.37 194.472,1352.08C191.12,1351.72 187.353,1351.67 183.346,1351.59C183.24,1351.59 183.153,1351.46 183.151,1351.29C183.149,1351.13 183.233,1350.99 183.339,1350.99C187.36,1350.68 191.138,1350.39 194.512,1350.43C197.337,1350.47 199.875,1350.76 202.036,1351.47C206.19,1352.83 209.741,1355.69 212.338,1359.79C215.105,1364.16 216.772,1369.95 216.967,1376.94L217.679,1407.03Z"/>
                        </g>
                    </g>
                </g>
            </g>
        </g>
    </g>
</svg>
