<?xml version="1.0" encoding="UTF-8" standalone="no"?>
<!DOCTYPE svg PUBLIC "-//W3C//DTD SVG 1.1//EN" "http://www.w3.org/Graphics/SVG/1.1/DTD/svg11.dtd">
<svg width="100%" height="100%" viewBox="0 0 102 119" version="1.1" xmlns="http://www.w3.org/2000/svg" xmlns:xlink="http://www.w3.org/1999/xlink" xml:space="preserve" xmlns:serif="http://www.serif.com/" style="fill-rule:evenodd;clip-rule:evenodd;stroke-linejoin:round;stroke-miterlimit:2;">
    <g transform="matrix(1,0,0,1,-559,-1614)">
        <g transform="matrix(1,0,0,1,465.154,398.103)">
            <g id="Manager-Level-3-BU002" serif:id="Manager Level 3 BU002">
                <g id="ZP-Base" serif:id="ZP Base" transform="matrix(0.659225,0,0,0.659225,-1443.15,136.362)">
                    <g transform="matrix(-1.15022,1.68413e-16,0,1.32678,5495.67,-508.321)">
                        <g id="Z-Kopf" serif:id="Z Kopf">
                            <circle cx="2683.15" cy="1651.49" r="33.383" style="fill:white;"/>
                            <path d="M2683.15,1618.11C2664.73,1618.11 2649.77,1633.07 2649.77,1651.49C2649.77,1669.92 2664.73,1684.88 2683.15,1684.88C2701.58,1684.88 2716.53,1669.92 2716.53,1651.49C2716.53,1633.07 2701.58,1618.11 2683.15,1618.11ZM2683.15,1621.45C2691.65,1621.4 2699.33,1624.99 2704.72,1630.74C2709.82,1636.16 2712.89,1643.48 2712.9,1651.49C2712.73,1659.46 2709.49,1666.65 2704.35,1671.98C2698.98,1677.55 2691.46,1681.02 2683.15,1680.92C2674.9,1680.93 2667.49,1677.37 2662.24,1671.78C2657.25,1666.47 2654.16,1659.35 2654.1,1651.49C2654.02,1643.59 2656.97,1636.37 2661.92,1630.98C2667.2,1625.22 2674.72,1621.51 2683.15,1621.45Z" style="fill:rgb(155,155,155);"/>
                        </g>
                    </g>
                    <g id="Z-Body-Base" serif:id="Z Body Base" transform="matrix(1,0,0,1,0.0967552,-2.27374e-13)">
                        <path d="M2381.36,1730.32C2390.43,1730.32 2436.64,1730.32 2436.64,1730.32C2466.14,1730.32 2485.6,1747.3 2485.6,1769.29C2485.6,1781.51 2485.6,1801.18 2485.6,1801.18L2332.4,1801.18C2332.4,1801.18 2332.4,1781.51 2332.4,1769.29C2332.4,1747.3 2351.85,1730.32 2381.36,1730.32Z" style="fill:rgb(103,133,193);"/>
                        <g transform="matrix(-1.14692,0,0,2.9,5470.82,-3388.58)">
                            <ellipse cx="2669.6" cy="1789.37" rx="66.787" ry="5.906" style="fill:rgb(103,133,193);"/>
                        </g>
                    </g>
                </g>
                <g transform="matrix(1,0,0,1,-43.1382,-74.2589)">
                    <path d="M206.342,1351.29C225.794,1351.29 238.619,1362.48 238.619,1376.98C238.619,1385.03 238.619,1398 238.619,1398C238.619,1401.97 229.477,1405.06 215.635,1407.07L215.619,1376.98C215.619,1362.48 202.794,1351.29 183.342,1351.29L206.342,1351.29Z" style="fill:rgb(164,164,164);"/>
                    <clipPath id="_clip1">
                        <path d="M206.342,1351.29C225.794,1351.29 238.619,1362.48 238.619,1376.98C238.619,1385.03 238.619,1398 238.619,1398C238.619,1401.97 229.477,1405.06 215.635,1407.07L215.619,1376.98C215.619,1362.48 202.794,1351.29 183.342,1351.29L206.342,1351.29Z"/>
                    </clipPath>
                    <g clip-path="url(#_clip1)">
                        <g transform="matrix(1.13404,0,0,0.945908,-15.8214,73.3772)">
                            <path d="M214.935,1410.95C213.307,1410.95 211.985,1409.36 211.985,1407.41C211.985,1407.4 211.985,1407.39 211.985,1407.38C211.985,1407.37 211.988,1407.11 211.988,1407.11C211.991,1406.76 211.983,1406 212.014,1404.37C212.079,1400.86 212.321,1393.32 212.775,1377.03C213.029,1369.78 209.378,1363.08 202.917,1358.44C197.836,1354.8 191.104,1352.4 183.049,1351.97C182.868,1351.97 182.722,1351.8 182.722,1351.58C182.722,1351.36 182.868,1351.19 183.049,1351.19C193.514,1350.63 202.079,1353.57 207.966,1358.45C213.69,1363.19 216.846,1369.83 217.096,1377.03C217.549,1393.32 217.792,1400.86 217.857,1404.37C217.887,1406 217.879,1406.76 217.883,1407.11C217.932,1412.33 214.935,1410.95 214.935,1410.95Z"/>
                        </g>
                    </g>
                </g>
            </g>
        </g>
    </g>
</svg>
