<?xml version="1.0" encoding="UTF-8" standalone="no"?>
<!DOCTYPE svg PUBLIC "-//W3C//DTD SVG 1.1//EN" "http://www.w3.org/Graphics/SVG/1.1/DTD/svg11.dtd">
<svg width="100%" height="100%" viewBox="0 0 102 176" version="1.1" xmlns="http://www.w3.org/2000/svg" xmlns:xlink="http://www.w3.org/1999/xlink" xml:space="preserve" xmlns:serif="http://www.serif.com/" style="fill-rule:evenodd;clip-rule:evenodd;stroke-linecap:round;stroke-miterlimit:1;">
    <g transform="matrix(1,0,0,1,-1368,-966)">
        <g transform="matrix(0.659225,0,0,0.659225,-169.43,-59.9501)">
            <g id="Product-Management" serif:id="Product Management">
                <g id="ZP-Base-Runder-Ausschnitt" serif:id="ZP Base Runder Ausschnitt" transform="matrix(1,0,0,1,-0.2731,9.3147)">
                    <g transform="matrix(-1.15022,1.68413e-16,0,1.32678,5495.66,-513.42)">
                        <g id="Z-Kopf" serif:id="Z Kopf">
                            <circle cx="2683.15" cy="1651.49" r="33.383" style="fill:white;"/>
                            <path d="M2683.15,1618.11C2664.73,1618.11 2649.77,1633.07 2649.77,1651.49C2649.77,1669.92 2664.73,1684.88 2683.15,1684.88C2701.58,1684.88 2716.53,1669.92 2716.53,1651.49C2716.53,1633.07 2701.58,1618.11 2683.15,1618.11ZM2683.15,1621.45C2691.65,1621.4 2699.33,1624.99 2704.72,1630.74C2709.82,1636.16 2712.89,1643.48 2712.9,1651.49C2712.73,1659.46 2709.49,1666.65 2704.35,1671.98C2698.98,1677.55 2691.46,1681.02 2683.15,1680.92C2674.9,1680.93 2667.49,1677.37 2662.24,1671.78C2657.25,1666.47 2654.16,1659.35 2654.1,1651.49C2654.02,1643.59 2656.97,1636.37 2661.92,1630.98C2667.2,1625.22 2674.72,1621.51 2683.15,1621.45Z" style="fill:rgb(155,155,155);"/>
                        </g>
                    </g>
                    <g id="Z-Body-Rund" serif:id="Z Body Rund" transform="matrix(1.51693,0,0,1.51693,1721.01,1548.63)">
                        <g transform="matrix(0.659225,0,0,0.659225,-1134.05,-1023.8)">
                            <path d="M2448.41,1731.28C2471.21,1735.17 2485.6,1750.38 2485.6,1769.29L2485.6,1801.18L2332.4,1801.18L2332.4,1769.29C2332.4,1750.16 2347.12,1734.82 2370.36,1731.15C2380.3,1741.28 2394.14,1747.57 2409.45,1747.57C2424.69,1747.57 2438.48,1741.34 2448.41,1731.28Z" style="fill:rgb(103,133,193);"/>
                        </g>
                        <g transform="matrix(-0.756078,0,0,1.91175,2472.45,-3257.64)">
                            <ellipse cx="2669.6" cy="1789.37" rx="66.787" ry="5.906" style="fill:rgb(103,133,193);"/>
                        </g>
                    </g>
                </g>
                <g id="Z-Hut-Zylinder-Master" serif:id="Z Hut Zylinder Master" transform="matrix(0.203438,0,0,0.203438,1950.04,1207.35)">
                    <path d="M2043.31,2196.85C2029.16,2229.87 2108.27,2303.15 2261.81,2303.15C2421.26,2303.15 2479.82,2209.9 2474.41,2190.95C2462.6,2149.61 2331.2,2161.42 2267.72,2161.42C2200.79,2161.42 2061.02,2155.51 2043.31,2196.85Z"/>
                    <path d="M2043.31,2196.85C2061.02,2155.51 2200.79,2161.42 2267.72,2161.42C2331.2,2161.42 2462.6,2149.61 2474.41,2190.95C2479.82,2209.9 2421.26,2303.15 2261.81,2303.15C2108.27,2303.15 2029.16,2229.87 2043.31,2196.85ZM2462.98,2193.74C2461.86,2190.4 2459.07,2187.92 2455.48,2185.71C2449.89,2182.25 2442.5,2179.75 2433.93,2177.79C2387.97,2167.25 2311.46,2173.17 2267.72,2173.17C2221.59,2173.17 2140.3,2170.13 2089.71,2182.39C2079.9,2184.76 2071.34,2187.68 2064.66,2191.47C2059.71,2194.28 2055.86,2197.38 2054.11,2201.48C2052.44,2205.36 2053.72,2210.08 2056.36,2215.31C2060.24,2223.05 2067.37,2231.28 2077.33,2239.44C2110.44,2266.56 2173.33,2291.4 2261.81,2291.4C2367.97,2291.4 2427.44,2248.76 2451.61,2216.49C2456.29,2210.24 2459.57,2204.49 2461.46,2199.66C2462.32,2197.45 2462.87,2194.38 2462.98,2193.74Z"/>
                    <path d="M2139.27,2163.78C2138.84,2167.03 2138.35,2170.18 2137.8,2173.23C2125.47,2241.02 2394.03,2242.1 2391.73,2173.23C2391.61,2169.45 2391.52,2165.62 2391.46,2161.73" style="fill:none;stroke:rgb(164,164,164);stroke-width:4.42px;"/>
                    <path d="M2391.46,2161.73C2388.85,1983.34 2457.04,1694.87 2416.26,1738.73C2362.99,1796.01 2149.61,1762.03 2102.36,1744.63C2068.14,1732.03 2157.07,2028.85 2139.27,2163.78"/>
                    <clipPath id="_clip1">
                        <path d="M2391.46,2161.73C2388.85,1983.34 2457.04,1694.87 2416.26,1738.73C2362.99,1796.01 2149.61,1762.03 2102.36,1744.63C2068.14,1732.03 2157.07,2028.85 2139.27,2163.78"/>
                    </clipPath>
                    <g clip-path="url(#_clip1)">
                        <g transform="matrix(1,0,0,1,0,-220.791)">
                            <path d="M2121.9,2172.74C2130.66,2240.77 2392.1,2247.43 2407.55,2173.23" style="fill:none;stroke:rgb(164,164,164);stroke-width:4.42px;"/>
                        </g>
                    </g>
                    <path d="M2391.46,2161.73C2388.85,1983.34 2457.04,1694.87 2416.26,1738.73C2362.99,1796.01 2149.61,1762.03 2102.36,1744.63C2068.14,1732.03 2157.07,2028.85 2139.27,2163.78" style="fill:none;stroke:black;stroke-width:4.42px;"/>
                    <g transform="matrix(0.998002,0,0,1,4.85487,-129.965)">
                        <path d="M2136.97,1854.64C2082.72,1868.55 2076.25,1884.15 2139.67,1899.98C2179.39,1909.89 2347.85,1920.11 2388.83,1901.58C2426.65,1884.46 2456.69,1854.93 2385.83,1848.42C2345.06,1844.68 2177.3,1844.3 2136.97,1854.64Z" style="fill:rgb(164,164,164);"/>
                        <path d="M2136.97,1854.64C2177.3,1844.3 2345.06,1844.68 2385.83,1848.42C2456.69,1854.93 2426.65,1884.46 2388.83,1901.58C2347.85,1920.11 2179.39,1909.89 2139.67,1899.98C2076.25,1884.15 2082.72,1868.55 2136.97,1854.64ZM2108.99,1876.97C2109.67,1877.4 2110.38,1877.81 2111.06,1878.16C2117.99,1881.64 2128.4,1885.07 2142.52,1888.59C2169.82,1895.4 2259.07,1902.23 2323.96,1899.55C2350.34,1898.46 2372.52,1896.06 2383.97,1890.88C2394.21,1886.25 2403.86,1880.68 2410.56,1874.9C2412.94,1872.85 2415.49,1869.39 2416.48,1868C2415.32,1867.23 2413.01,1865.8 2410.81,1865C2408.26,1864.07 2405.25,1863.25 2401.75,1862.52C2396.96,1861.52 2391.32,1860.72 2384.75,1860.11C2344.64,1856.43 2179.58,1855.84 2139.89,1866.01C2127.84,1869.1 2118.31,1872.22 2111.63,1875.48C2110.76,1875.9 2109.85,1876.43 2108.99,1876.97Z" style="fill:rgb(164,164,164);"/>
                    </g>
                </g>
            </g>
        </g>
    </g>
</svg>
