<?xml version="1.0" encoding="UTF-8" standalone="no"?>
<!DOCTYPE svg PUBLIC "-//W3C//DTD SVG 1.1//EN" "http://www.w3.org/Graphics/SVG/1.1/DTD/svg11.dtd">
<svg width="100%" height="100%" viewBox="0 0 102 131" version="1.1" xmlns="http://www.w3.org/2000/svg" xmlns:xlink="http://www.w3.org/1999/xlink" xml:space="preserve" xmlns:serif="http://www.serif.com/" style="fill-rule:evenodd;clip-rule:evenodd;stroke-linejoin:round;stroke-miterlimit:2;">
    <g transform="matrix(1,0,0,1,-2860,-1011)">
        <g transform="matrix(0.659225,0,0,0.659225,1323.13,-57.288)">
            <g id="Scrum-Master" serif:id="Scrum Master">
                <g id="ZP-Base-Runder-Ausschnitt" serif:id="ZP Base Runder Ausschnitt" transform="matrix(1,0,0,1,-0.724098,5.27639)">
                    <g transform="matrix(-1.15022,1.68413e-16,0,1.32678,5495.66,-513.42)">
                        <g id="Z-Kopf" serif:id="Z Kopf">
                            <circle cx="2683.15" cy="1651.49" r="33.383" style="fill:white;"/>
                            <path d="M2683.15,1618.11C2664.73,1618.11 2649.77,1633.07 2649.77,1651.49C2649.77,1669.92 2664.73,1684.88 2683.15,1684.88C2701.58,1684.88 2716.53,1669.92 2716.53,1651.49C2716.53,1633.07 2701.58,1618.11 2683.15,1618.11ZM2683.15,1621.45C2691.65,1621.4 2699.33,1624.99 2704.72,1630.74C2709.82,1636.16 2712.89,1643.48 2712.9,1651.49C2712.73,1659.46 2709.49,1666.65 2704.35,1671.98C2698.98,1677.55 2691.46,1681.02 2683.15,1680.92C2674.9,1680.93 2667.49,1677.37 2662.24,1671.78C2657.25,1666.47 2654.16,1659.35 2654.1,1651.49C2654.02,1643.59 2656.97,1636.37 2661.92,1630.98C2667.2,1625.22 2674.72,1621.51 2683.15,1621.45Z" style="fill:rgb(155,155,155);"/>
                        </g>
                    </g>
                    <g id="Z-Body-Rund" serif:id="Z Body Rund" transform="matrix(1.51693,0,0,1.51693,1721.01,1548.63)">
                        <g transform="matrix(0.659225,0,0,0.659225,-1134.05,-1023.8)">
                            <path d="M2448.41,1731.28C2471.21,1735.17 2485.6,1750.38 2485.6,1769.29L2485.6,1801.18L2332.4,1801.18L2332.4,1769.29C2332.4,1750.16 2347.12,1734.82 2370.36,1731.15C2380.3,1741.28 2394.14,1747.57 2409.45,1747.57C2424.69,1747.57 2438.48,1741.34 2448.41,1731.28Z" style="fill:rgb(103,133,193);"/>
                        </g>
                        <g transform="matrix(-0.756078,0,0,1.91175,2472.45,-3257.64)">
                            <ellipse cx="2669.6" cy="1789.37" rx="66.787" ry="5.906" style="fill:rgb(103,133,193);"/>
                        </g>
                    </g>
                </g>
                <g id="Z-Hut-Baseball" serif:id="Z Hut Baseball" transform="matrix(0.145846,0,0,0.145846,2051.52,1340.84)">
                    <path d="M2137.8,2270.08C2135.17,2278.6 2068.44,2304.48 2055.12,2303.15C1996.06,2297.24 2018.5,2255.32 2055.12,2246.46C2056.27,2246.18 2141.43,2258.27 2137.8,2270.08Z" style="fill:rgb(233,230,229);"/>
                    <path d="M2137.8,2270.08C2135.17,2278.6 2068.44,2304.48 2055.12,2303.15C1996.06,2297.24 2018.5,2255.32 2055.12,2246.46C2056.27,2246.18 2141.43,2258.27 2137.8,2270.08ZM2133.75,2269.33C2133.32,2268.94 2132.64,2268.36 2132,2267.98C2126.89,2264.9 2117.16,2262.01 2106.37,2259.43C2089.1,2255.3 2069.13,2252.1 2059.86,2250.81C2057.8,2250.53 2056.29,2250.34 2055.47,2250.26C2046.01,2252.64 2037.59,2257.37 2031.57,2263.09C2026.78,2267.64 2023.51,2272.77 2022.71,2277.83C2021.93,2282.82 2023.82,2287.6 2029.02,2291.38C2034.44,2295.31 2043.05,2298.15 2055.49,2299.39C2057.19,2299.56 2059.88,2299.16 2063.26,2298.43C2071.97,2296.56 2084.68,2292.39 2097.03,2287.6C2109.64,2282.71 2121.89,2277.18 2129.12,2272.73C2130.74,2271.73 2132.09,2270.8 2133.1,2269.95C2133.32,2269.77 2133.55,2269.54 2133.75,2269.33Z"/>
                    <path d="M2238.19,2185.04C2356.3,1907.48 2456.69,1923.85 2492.13,1923.85C2509.86,1923.85 2550.93,1954.72 2503.94,2232.28C2493.88,2291.67 2234.92,2192.72 2238.19,2185.04Z" style="fill:rgb(164,164,164);"/>
                    <path d="M2238.19,2185.04C2356.3,1907.48 2456.69,1923.85 2492.13,1923.85C2509.86,1923.85 2550.93,1954.72 2503.94,2232.28C2493.88,2291.67 2234.92,2192.72 2238.19,2185.04ZM2242.59,2184.34C2245.14,2186.05 2250.04,2188.5 2256.71,2191.5C2290.43,2206.64 2367.86,2234.17 2427.25,2243.9C2450.78,2247.76 2471.42,2248.87 2485.14,2245.06C2493.43,2242.75 2499.03,2238.66 2500.22,2231.65C2518.41,2124.16 2523.38,2053.79 2521.59,2007.93C2520.31,1975.24 2515.64,1955.23 2509.83,1943.18C2503.91,1930.9 2497.12,1927.62 2492.13,1927.62C2469.84,1927.62 2421.36,1921.06 2358.87,1988.24C2323.74,2026 2284.31,2086.77 2242.59,2184.34Z"/>
                    <path d="M2501.85,2238.19C2501.57,2239.83 2550,2246.95 2599.61,2255.91C2654.1,2265.75 2710.29,2277.33 2710.5,2274.83C2719.08,2173.97 2703.49,2100.74 2671.79,2049.98C2635.62,1992.08 2584.56,1953.86 2496.85,1924.61C2485.42,1920.8 2557.09,1923.67 2501.85,2238.19Z" style="fill:rgb(164,164,164);"/>
                    <path d="M2497.14,1924.7C2584.67,1953.95 2635.66,1992.14 2671.79,2049.98C2703.49,2100.74 2719.08,2173.97 2710.5,2274.83C2710.29,2277.33 2654.1,2265.75 2599.61,2255.91C2550,2246.95 2501.57,2239.83 2501.85,2238.19C2547.79,1976.59 2505.95,1930.59 2497.14,1924.7ZM2497.14,1924.7C2497.04,1924.67 2496.95,1924.64 2496.85,1924.61C2494.93,1923.97 2495.36,1923.51 2497.14,1924.7Z"/>
                    <path d="M2196.85,2182.24C2291.34,1889.76 2483.07,1925.2 2490.95,1925.2C2498.82,1925.2 2350.39,1907.48 2244.09,2182.24C2219.31,2246.3 2185.35,2217.84 2196.85,2182.24Z" style="fill:rgb(164,164,164);"/>
                    <path d="M2488.34,1924.97C2490.84,1924.99 2491.79,1925.2 2490.95,1925.2C2490.54,1925.2 2489.66,1925.11 2488.34,1924.97ZM2488.34,1924.97C2467.51,1924.76 2339.01,1936.91 2244.09,2182.24C2219.31,2246.3 2185.35,2217.84 2196.85,2182.24C2286.52,1904.69 2463.75,1922.43 2488.34,1924.97Z"/>
                    <path d="M2545.28,2244.09C2577.06,2251.86 2466.48,2308.88 2421.26,2332.68C2365.16,2362.2 2314.96,2363.76 2255.91,2332.68C2199.7,2303.09 2180.32,2277.76 2055.12,2248.23C2046.33,2246.16 2133.86,2200.79 2173.23,2190.95C2209.56,2181.86 2249.05,2178.59 2285.43,2187.48C2356.3,2204.81 2539.37,2242.65 2545.28,2244.09Z"/>
                    <path d="M2545.28,2244.09C2577.06,2251.86 2466.48,2308.88 2421.26,2332.68C2365.16,2362.2 2314.96,2363.76 2255.91,2332.68C2199.7,2303.09 2180.32,2277.76 2055.12,2248.23C2046.33,2246.16 2133.86,2200.79 2173.23,2190.95C2209.56,2181.86 2249.05,2178.59 2285.43,2187.48C2356.3,2204.81 2539.37,2242.65 2545.28,2244.09ZM2061.79,2245.94C2106.39,2256.69 2137.21,2266.92 2161.15,2277C2201.9,2294.16 2222.67,2310.92 2257.66,2329.34C2286.17,2344.34 2312.56,2351.62 2338.59,2351.64C2365.33,2351.65 2391.67,2343.99 2419.5,2329.34C2444.52,2316.17 2489.6,2292.82 2519.36,2273.31C2531.39,2265.42 2540.89,2258.24 2545.24,2252.65C2546.03,2251.63 2546.63,2250.7 2546.96,2249.83C2547.09,2249.5 2547.32,2249.23 2547.16,2248.99C2546.73,2248.34 2545.74,2248.09 2544.38,2247.76C2540.55,2246.83 2462.27,2230.59 2388.4,2214.58C2348.29,2205.88 2309.47,2197.24 2284.54,2191.15C2266.65,2186.78 2247.99,2185.41 2229.34,2186.25C2210.68,2187.09 2192.03,2190.14 2174.14,2194.61C2144.78,2201.95 2088.37,2229.27 2066.03,2243.17C2064.43,2244.17 2063,2245.1 2061.79,2245.94Z"/>
                </g>
            </g>
        </g>
    </g>
</svg>
