<?xml version="1.0" encoding="UTF-8" standalone="no"?>
<!DOCTYPE svg PUBLIC "-//W3C//DTD SVG 1.1//EN" "http://www.w3.org/Graphics/SVG/1.1/DTD/svg11.dtd">
<svg width="100%" height="100%" viewBox="0 0 102 158" version="1.1" xmlns="http://www.w3.org/2000/svg" xmlns:xlink="http://www.w3.org/1999/xlink" xml:space="preserve" xmlns:serif="http://www.serif.com/" style="fill-rule:evenodd;clip-rule:evenodd;stroke-linejoin:round;stroke-miterlimit:2;">
    <g transform="matrix(1,0,0,1,-659,-984)">
        <g transform="matrix(0.659225,0,0,0.659225,-877.741,-56.6622)">
            <g id="Solution-Architect" serif:id="Solution Architect">
                <g id="ZP-Base-Runder-Ausschnitt" serif:id="ZP Base Runder Ausschnitt" transform="matrix(1,0,0,1,-0.724098,4.3271)">
                    <g transform="matrix(-1.15022,1.68413e-16,0,1.32678,5495.66,-513.42)">
                        <g id="Z-Kopf" serif:id="Z Kopf">
                            <circle cx="2683.15" cy="1651.49" r="33.383" style="fill:white;"/>
                            <path d="M2683.15,1618.11C2664.73,1618.11 2649.77,1633.07 2649.77,1651.49C2649.77,1669.92 2664.73,1684.88 2683.15,1684.88C2701.58,1684.88 2716.53,1669.92 2716.53,1651.49C2716.53,1633.07 2701.58,1618.11 2683.15,1618.11ZM2683.15,1621.45C2691.65,1621.4 2699.33,1624.99 2704.72,1630.74C2709.82,1636.16 2712.89,1643.48 2712.9,1651.49C2712.73,1659.46 2709.49,1666.65 2704.35,1671.98C2698.98,1677.55 2691.46,1681.02 2683.15,1680.92C2674.9,1680.93 2667.49,1677.37 2662.24,1671.78C2657.25,1666.47 2654.16,1659.35 2654.1,1651.49C2654.02,1643.59 2656.97,1636.37 2661.92,1630.98C2667.2,1625.22 2674.72,1621.51 2683.15,1621.45Z" style="fill:rgb(155,155,155);"/>
                        </g>
                    </g>
                    <g id="Z-Body-Rund" serif:id="Z Body Rund" transform="matrix(1.51693,0,0,1.51693,1721.01,1548.63)">
                        <g transform="matrix(0.659225,0,0,0.659225,-1134.05,-1023.8)">
                            <path d="M2448.41,1731.28C2471.21,1735.17 2485.6,1750.38 2485.6,1769.29L2485.6,1801.18L2332.4,1801.18L2332.4,1769.29C2332.4,1750.16 2347.12,1734.82 2370.36,1731.15C2380.3,1741.28 2394.14,1747.57 2409.45,1747.57C2424.69,1747.57 2438.48,1741.34 2448.41,1731.28Z" style="fill:rgb(103,133,193);"/>
                        </g>
                        <g transform="matrix(-0.756078,0,0,1.91175,2472.45,-3257.64)">
                            <ellipse cx="2669.6" cy="1789.37" rx="66.787" ry="5.906" style="fill:rgb(103,133,193);"/>
                        </g>
                    </g>
                </g>
                <g id="Z-Hut-Sheriff-Master" serif:id="Z Hut Sheriff Master" transform="matrix(0.199422,0,0,0.199422,1976.57,1401.53)">
                    <g transform="matrix(1.04376,0,0,3.12772,-109.519,-2601.77)">
                        <ellipse cx="2182.42" cy="1228.35" rx="292.657" ry="47.244" style="fill:rgb(164,164,164);"/>
                    </g>
                    <path d="M2060.33,932.639C2039.57,980.593 2009.22,1221.22 2008.87,1244.52C2008.41,1274.3 2079.6,1302.6 2167.32,1303.94C2255.05,1305.28 2327.95,1275.85 2327.95,1246.06C2327.95,1207.33 2299.61,953.916 2271.84,924.412C2242.9,893.653 2217.39,890.108 2167.82,890.108C2111.6,890.108 2070.55,909.035 2060.33,932.639Z"/>
                    <g transform="matrix(1.13075,0,0,1.13075,-308.992,-170.611)">
                        <path d="M2186.91,1137C2187.38,1135.15 2189.04,1133.86 2190.95,1133.86C2192.85,1133.86 2194.51,1135.15 2194.98,1137L2205.53,1178.75L2248.49,1175.88C2250.39,1175.75 2252.14,1176.93 2252.73,1178.75C2253.32,1180.56 2252.6,1182.54 2250.99,1183.55L2214.54,1206.49L2230.54,1246.46C2231.25,1248.23 2230.67,1250.25 2229.13,1251.37C2227.59,1252.49 2225.48,1252.42 2224.02,1251.2L2190.95,1223.63L2157.87,1251.2C2156.41,1252.42 2154.3,1252.49 2152.76,1251.37C2151.22,1250.25 2150.64,1248.23 2151.35,1246.46L2167.35,1206.49L2130.9,1183.55C2129.29,1182.54 2128.57,1180.56 2129.16,1178.75C2129.75,1176.93 2131.5,1175.75 2133.4,1175.88L2176.36,1178.75L2186.91,1137Z" style="fill:rgb(164,164,164);"/>
                    </g>
                    <g transform="matrix(1.13075,0,0,1.13075,-308.992,-339.505)">
                        <path d="M2186.91,1137C2187.38,1135.15 2189.04,1133.86 2190.95,1133.86C2192.85,1133.86 2194.51,1135.15 2194.98,1137L2205.53,1178.75L2248.49,1175.88C2250.39,1175.75 2252.14,1176.93 2252.73,1178.75C2253.32,1180.56 2252.6,1182.54 2250.99,1183.55L2214.54,1206.49L2230.54,1246.46C2231.25,1248.23 2230.67,1250.25 2229.13,1251.37C2227.59,1252.49 2225.48,1252.42 2224.02,1251.2L2190.95,1223.63L2157.87,1251.2C2156.41,1252.42 2154.3,1252.49 2152.76,1251.37C2151.22,1250.25 2150.64,1248.23 2151.35,1246.46L2167.35,1206.49L2130.9,1183.55C2129.29,1182.54 2128.57,1180.56 2129.16,1178.75C2129.75,1176.93 2131.5,1175.75 2133.4,1175.88L2176.36,1178.75L2186.91,1137Z" style="fill:rgb(164,164,164);"/>
                    </g>
                </g>
            </g>
        </g>
    </g>
</svg>
