<?xml version="1.0" encoding="UTF-8" standalone="no"?>
<!DOCTYPE svg PUBLIC "-//W3C//DTD SVG 1.1//EN" "http://www.w3.org/Graphics/SVG/1.1/DTD/svg11.dtd">
<svg width="100%" height="100%" viewBox="0 0 101 130" version="1.1" xmlns="http://www.w3.org/2000/svg" xmlns:xlink="http://www.w3.org/1999/xlink" xml:space="preserve" xmlns:serif="http://www.serif.com/" style="fill-rule:evenodd;clip-rule:evenodd;stroke-linejoin:round;stroke-miterlimit:2;">
    <g transform="matrix(1,0,0,1,-1753,-1012)">
        <g transform="matrix(0.659225,0,0,0.659225,215.435,-56.7121)">
            <g id="STE">
                <g id="ZP-Base-Runder-Ausschnitt" serif:id="ZP Base Runder Ausschnitt" transform="matrix(1,0,0,1,-0.724098,4.40279)">
                    <g transform="matrix(-1.15022,1.68413e-16,0,1.32678,5495.66,-513.42)">
                        <g id="Z-Kopf" serif:id="Z Kopf">
                            <circle cx="2683.15" cy="1651.49" r="33.383" style="fill:white;"/>
                            <path d="M2683.15,1618.11C2664.73,1618.11 2649.77,1633.07 2649.77,1651.49C2649.77,1669.92 2664.73,1684.88 2683.15,1684.88C2701.58,1684.88 2716.53,1669.92 2716.53,1651.49C2716.53,1633.07 2701.58,1618.11 2683.15,1618.11ZM2683.15,1621.45C2691.65,1621.4 2699.33,1624.99 2704.72,1630.74C2709.82,1636.16 2712.89,1643.48 2712.9,1651.49C2712.73,1659.46 2709.49,1666.65 2704.35,1671.98C2698.98,1677.55 2691.46,1681.02 2683.15,1680.92C2674.9,1680.93 2667.49,1677.37 2662.24,1671.78C2657.25,1666.47 2654.16,1659.35 2654.1,1651.49C2654.02,1643.59 2656.97,1636.37 2661.92,1630.98C2667.2,1625.22 2674.72,1621.51 2683.15,1621.45Z" style="fill:rgb(155,155,155);"/>
                        </g>
                    </g>
                    <g id="Z-Body-Rund" serif:id="Z Body Rund" transform="matrix(1.51693,0,0,1.51693,1721.01,1548.63)">
                        <g transform="matrix(0.659225,0,0,0.659225,-1134.05,-1023.8)">
                            <path d="M2448.41,1731.28C2471.21,1735.17 2485.6,1750.38 2485.6,1769.29L2485.6,1801.18L2332.4,1801.18L2332.4,1769.29C2332.4,1750.16 2347.12,1734.82 2370.36,1731.15C2380.3,1741.28 2394.14,1747.57 2409.45,1747.57C2424.69,1747.57 2438.48,1741.34 2448.41,1731.28Z" style="fill:rgb(103,133,193);"/>
                        </g>
                        <g transform="matrix(-0.756078,0,0,1.91175,2472.45,-3257.64)">
                            <ellipse cx="2669.6" cy="1789.37" rx="66.787" ry="5.906" style="fill:rgb(103,133,193);"/>
                        </g>
                    </g>
                </g>
                <g id="Z-Hut-Bahn-Master" serif:id="Z Hut Bahn Master" transform="matrix(1.76707,0,0,1.76707,-2712.19,-1104.41)">
                    <g transform="matrix(1,0,0,1,0,0.233766)">
                        <path d="M2871.26,1554.33C2877.44,1552.27 2909.65,1544.88 2919.68,1543.11C2924.37,1542.28 2925.62,1545.68 2924.41,1547.24C2920.28,1552.56 2920.95,1554.23 2917.48,1555.89C2905.99,1561.38 2892.45,1560.97 2883.07,1560.24C2873.63,1559.5 2866.53,1555.91 2871.26,1554.33Z" style="fill:rgb(209,26,26);"/>
                    </g>
                    <path d="M2891.34,1568.38C2892.13,1570.35 2911.66,1585.2 2924.41,1575C2927.36,1572.64 2926.58,1570.58 2925.59,1568.72C2924.85,1567.32 2919.39,1563.48 2918.68,1563.19C2916.44,1562.25 2890.55,1566.41 2891.34,1568.38Z"/>
                    <path d="M2879.09,1559.94C2878.93,1559.92 2879.36,1565.16 2879.53,1565.26C2888.68,1570.42 2911.42,1569.39 2919.09,1564.96C2919.8,1564.56 2919.68,1563.41 2919.68,1562.6C2919.68,1561.22 2918.98,1555.26 2918.8,1555.36C2909.35,1560.53 2895.33,1561.71 2879.09,1559.94Z"/>
                    <g transform="matrix(0.967894,0,0,1.03893,107.437,49.7764)">
                        <path d="M2866.15,1456.34C2865.78,1456.3 2865.51,1455.98 2865.56,1455.62C2865.61,1455.28 2865.95,1455.03 2866.33,1455.08C2873.94,1456.01 2881.85,1456.28 2888.59,1455.7C2894.48,1455.18 2899.47,1454.02 2902.53,1452.03C2902.84,1451.83 2903.27,1451.89 2903.49,1452.18C2903.7,1452.47 2903.63,1452.87 2903.32,1453.07C2900.11,1455.16 2894.89,1456.43 2888.72,1456.97C2881.89,1457.56 2873.87,1457.29 2866.15,1456.34Z" style="fill:rgb(233,230,229);"/>
                    </g>
                </g>
            </g>
        </g>
    </g>
</svg>
