<?xml version="1.0" encoding="UTF-8" standalone="no"?><!DOCTYPE svg PUBLIC "-//W3C//DTD SVG 1.1//EN" "http://www.w3.org/Graphics/SVG/1.1/DTD/svg11.dtd"><svg width="100%" height="100%" viewBox="0 0 102 119" version="1.1" xmlns="http://www.w3.org/2000/svg" xmlns:xlink="http://www.w3.org/1999/xlink" xml:space="preserve" xmlns:serif="http://www.serif.com/" style="fill-rule:evenodd;clip-rule:evenodd;stroke-linejoin:round;stroke-miterlimit:2;"><g id="ZP-Business-Kette" serif:id="ZP Business Kette"><g id="ZP-Base-V-Ausschnitt" serif:id="ZP Base V Ausschnitt"><g id="Z-Kopf" serif:id="Z Kopf"><ellipse cx="50.769" cy="30.006" rx="25.313" ry="29.198" style="fill:#fff;"/><path d="M50.769,0.808c13.97,0 25.313,13.084 25.313,29.198c-0,16.115 -11.343,29.198 -25.313,29.198c-13.97,0 -25.312,-13.083 -25.312,-29.198c-0,-16.114 11.342,-29.198 25.312,-29.198Zm0,2.923c-6.44,-0.043 -12.263,3.098 -16.356,8.123c-3.863,4.744 -6.192,11.141 -6.199,18.152c0.127,6.967 2.588,13.255 6.486,17.92c4.067,4.867 9.768,7.908 16.069,7.816c6.261,0.012 11.874,-3.104 15.855,-7.988c3.787,-4.646 6.132,-10.879 6.177,-17.748c0.056,-6.908 -2.181,-13.225 -5.931,-17.946c-4.002,-5.038 -9.708,-8.274 -16.101,-8.329Z" style="fill:#9b9b9b;"/></g><g id="Z-Body-V" serif:id="Z Body V"><path d="M69.825,61.308c18.982,0.317 31.441,11.396 31.441,25.688l-0,21.022l-100.993,0l-0,-21.022c-0,-14.292 12.459,-25.371 31.44,-25.688l16.377,16.48c0.709,0.713 1.673,1.114 2.679,1.114c1.006,0 1.97,-0.401 2.679,-1.114l16.377,-16.48Z" style="fill:#6785c1;"/><ellipse cx="50.769" cy="107.629" rx="50.496" ry="11.29" style="fill:#6785c1;"/></g></g><g id="Z-Kette" serif:id="Z Kette"><g><path d="M38.947,60.723c-0.191,-0.19 -0.191,-0.499 -0,-0.689c0.19,-0.19 0.498,-0.19 0.689,-0c-0,-0 1.184,1.26 2.85,2.889c0.886,0.867 1.943,1.801 2.952,2.786c0.589,0.575 1.162,1.166 1.715,1.729c2.174,2.214 3.961,4.074 3.961,4.074c0.19,0.19 0.19,0.499 -0,0.689c-0.191,0.19 -0.499,0.19 -0.689,-0c-0,-0 -1.86,-1.787 -4.074,-3.961c-0.563,-0.553 -1.154,-1.125 -1.729,-1.714c-0.985,-1.01 -1.919,-2.066 -2.786,-2.953c-1.629,-1.665 -2.889,-2.85 -2.889,-2.85Z" style="fill:#a4a4a4;"/><path d="M61.903,60.034c0.19,-0.19 0.498,-0.19 0.689,-0c0.19,0.19 0.19,0.499 -0,0.689c-0,-0 -1.261,1.185 -2.889,2.85c-0.868,0.887 -1.802,1.943 -2.787,2.953c-0.574,0.589 -1.166,1.161 -1.729,1.714c-2.214,2.174 -4.073,3.961 -4.073,3.961c-0.191,0.19 -0.499,0.19 -0.689,-0c-0.191,-0.19 -0.191,-0.499 -0,-0.689c-0,-0 1.787,-1.86 3.96,-4.074c0.553,-0.563 1.126,-1.154 1.715,-1.729c1.01,-0.985 2.066,-1.919 2.953,-2.786c1.665,-1.629 2.85,-2.889 2.85,-2.889Z" style="fill:#a4a4a4;"/></g><path d="M50.769,71.115c0,0 -1.558,3.273 -1.558,4.675c-0,0.86 0.698,1.559 1.558,1.559c0.86,-0 1.558,-0.699 1.558,-1.559c0,-1.402 -1.558,-4.675 -1.558,-4.675Z" style="fill:#a4a4a4;"/><path d="M50.769,71.115c0,0 1.558,3.273 1.558,4.675c0,0.86 -0.698,1.559 -1.558,1.559c-0.86,-0 -1.558,-0.699 -1.558,-1.559c-0,-1.402 1.558,-4.675 1.558,-4.675Zm0,1.948c-0.133,0.334 -0.269,0.694 -0.39,1.051c-0.214,0.631 -0.393,1.251 -0.393,1.676c-0,0.216 0.088,0.412 0.229,0.554c0.142,0.142 0.338,0.23 0.554,0.23c0.216,-0 0.412,-0.088 0.554,-0.23c0.141,-0.142 0.229,-0.338 0.229,-0.554c0,-0.425 -0.178,-1.045 -0.393,-1.676c-0.121,-0.357 -0.257,-0.716 -0.39,-1.051Z" style="fill:#a4a4a4;"/></g></g></svg>