<?xml version="1.0" encoding="UTF-8" standalone="no"?><!DOCTYPE svg PUBLIC "-//W3C//DTD SVG 1.1//EN" "http://www.w3.org/Graphics/SVG/1.1/DTD/svg11.dtd"><svg width="100%" height="100%" viewBox="0 0 102 119" version="1.1" xmlns="http://www.w3.org/2000/svg" xmlns:xlink="http://www.w3.org/1999/xlink" xml:space="preserve" xmlns:serif="http://www.serif.com/" style="fill-rule:evenodd;clip-rule:evenodd;stroke-linejoin:round;stroke-miterlimit:2;"><g id="ZP-Business-Fliege" serif:id="ZP Business Fliege"><g id="ZP-Base" serif:id="ZP Base"><g id="Z-Kopf" serif:id="Z Kopf"><ellipse cx="51.629" cy="29.569" rx="25.313" ry="29.198" style="fill:#fff;"/><path d="M51.629,0.371c13.97,-0 25.312,13.083 25.312,29.198c0,16.114 -11.342,29.198 -25.312,29.198c-13.971,-0 -25.313,-13.084 -25.313,-29.198c0,-16.115 11.342,-29.198 25.313,-29.198Zm-0,2.922c-6.44,-0.043 -12.263,3.098 -16.356,8.124c-3.863,4.743 -6.193,11.14 -6.2,18.152c0.127,6.966 2.589,13.255 6.487,17.92c4.067,4.867 9.768,7.908 16.069,7.815c6.26,0.012 11.874,-3.104 15.855,-7.988c3.786,-4.646 6.131,-10.878 6.177,-17.747c0.056,-6.909 -2.182,-13.226 -5.931,-17.946c-4.002,-5.038 -9.709,-8.275 -16.101,-8.33Z" style="fill:#9b9b9b;"/></g><g id="Z-Body-Base" serif:id="Z Body Base"><path d="M33.176,60.864c5.979,-0 36.439,-0 36.439,-0c19.451,-0 32.277,11.193 32.277,25.694c-0,8.051 -0,21.022 -0,21.022l-100.993,0c-0,0 -0,-12.971 -0,-21.022c-0,-14.501 12.826,-25.694 32.277,-25.694Z" style="fill:#6785c1;"/><ellipse cx="51.395" cy="107.191" rx="50.496" ry="11.29" style="fill:#6785c1;"/></g></g><g id="Z-Fliege" serif:id="Z Fliege"><path d="M54.434,60.709l-6.237,0c-0.957,1.777 -0.845,3.555 -0,5.332l6.237,-0c1.115,-1.777 1.111,-3.555 0,-5.332Z" style="fill:#a4a4a4;"/><path d="M46.542,67.035l-11.253,4.521c-0.663,0.266 -1.414,0.185 -2.004,-0.217c-0.59,-0.401 -0.942,-1.071 -0.937,-1.784l0.08,-12.756c0.003,-0.63 0.32,-1.217 0.845,-1.566c0.524,-0.349 1.188,-0.415 1.77,-0.176l11.455,4.702c-0.781,2.425 -0.69,4.85 0.044,7.276Z" style="fill:#a4a4a4;"/><path d="M56.233,67.029c1.244,-2.419 1.249,-4.838 0.026,-7.257l11.09,-4.552c0.672,-0.276 1.437,-0.2 2.041,0.202c0.604,0.403 0.969,1.079 0.974,1.805l0.079,12.62c0.004,0.648 -0.315,1.256 -0.852,1.621c-0.536,0.365 -1.218,0.439 -1.82,0.197l-11.538,-4.636Z" style="fill:#a4a4a4;"/></g></g></svg>