<?xml version="1.0" encoding="UTF-8" standalone="no"?><!DOCTYPE svg PUBLIC "-//W3C//DTD SVG 1.1//EN" "http://www.w3.org/Graphics/SVG/1.1/DTD/svg11.dtd"><svg width="100%" height="100%" viewBox="0 0 102 119" version="1.1" xmlns="http://www.w3.org/2000/svg" xmlns:xlink="http://www.w3.org/1999/xlink" xml:space="preserve" xmlns:serif="http://www.serif.com/" style="fill-rule:evenodd;clip-rule:evenodd;stroke-linejoin:round;stroke-miterlimit:2;"><g id="ZP-Business-Krawatte" serif:id="ZP Business Krawatte"><g id="ZP-Base-V-Long-Ausschnitt" serif:id="ZP Base V Long Ausschnitt"><g id="Z-Body-Y-Long" serif:id="Z Body Y Long"><path id="Z-Body-Y-Long1" serif:id="Z Body Y Long" d="M66.937,61.301l2.391,0c19.451,0 32.276,11.194 32.276,25.695l0,21.022l-0.029,0c-0.919,6.051 -23.18,10.901 -50.467,10.901c-27.287,-0 -49.548,-4.85 -50.467,-10.901l-0.029,0l-0,-21.022c-0,-14.501 12.825,-25.695 32.276,-25.695l2.391,0l15.829,46.717l15.829,-46.717Z" style="fill:#6785c1;"/></g><g id="Z-Kopf" serif:id="Z Kopf"><ellipse cx="51.108" cy="30.087" rx="25.313" ry="29.198" style="fill:#fff;"/><path d="M51.108,0.889c13.97,0 25.313,13.084 25.313,29.198c-0,16.115 -11.343,29.198 -25.313,29.198c-13.97,0 -25.313,-13.083 -25.313,-29.198c0,-16.114 11.343,-29.198 25.313,-29.198Zm0,2.923c-6.44,-0.043 -12.263,3.098 -16.356,8.123c-3.863,4.744 -6.192,11.141 -6.199,18.152c0.127,6.967 2.588,13.255 6.486,17.92c4.067,4.867 9.768,7.908 16.069,7.816c6.261,0.011 11.874,-3.104 15.855,-7.988c3.787,-4.646 6.131,-10.879 6.177,-17.748c0.056,-6.909 -2.182,-13.225 -5.931,-17.946c-4.002,-5.038 -9.708,-8.274 -16.101,-8.329Z" style="fill:#9b9b9b;"/></g></g><g id="Z-Krawatte" serif:id="Z Krawatte"><path d="M56.311,57.904l-10.406,0l3.323,5.384l3.76,-0l3.323,-5.384Z" style="fill:#a4a4a4;"/><path d="M55.347,91.24l-4.239,5.279l-4.239,-5.279l2.119,-26.087l4.24,-0l2.119,26.087Z" style="fill:#a4a4a4;"/></g></g></svg>