<?xml version="1.0" encoding="UTF-8" standalone="no"?><!DOCTYPE svg PUBLIC "-//W3C//DTD SVG 1.1//EN" "http://www.w3.org/Graphics/SVG/1.1/DTD/svg11.dtd"><svg width="100%" height="100%" viewBox="0 0 102 129" version="1.1" xmlns="http://www.w3.org/2000/svg" xmlns:xlink="http://www.w3.org/1999/xlink" xml:space="preserve" xmlns:serif="http://www.serif.com/" style="fill-rule:evenodd;clip-rule:evenodd;stroke-linejoin:round;stroke-miterlimit:2;"><g id="ZP-Hut-Bahn" serif:id="ZP Hut Bahn"><g id="ZP-Base-Runder-Ausschnitt" serif:id="ZP Base Runder Ausschnitt"><g id="Z-Kopf" serif:id="Z Kopf"><ellipse cx="50.566" cy="39.443" rx="25.313" ry="29.198" style="fill:#fff;"/><path d="M50.566,10.245c13.97,0 25.312,13.083 25.312,29.198c0,16.115 -11.342,29.198 -25.312,29.198c-13.971,-0 -25.313,-13.083 -25.313,-29.198c0,-16.115 11.342,-29.198 25.313,-29.198Zm-0,2.922c-6.44,-0.043 -12.263,3.098 -16.356,8.124c-3.864,4.744 -6.193,11.141 -6.2,18.152c0.127,6.966 2.589,13.255 6.487,17.92c4.067,4.867 9.767,7.908 16.069,7.816c6.26,0.011 11.874,-3.105 15.855,-7.989c3.786,-4.645 6.131,-10.878 6.177,-17.747c0.056,-6.909 -2.182,-13.226 -5.931,-17.946c-4.002,-5.038 -9.709,-8.275 -16.101,-8.33Z" style="fill:#9b9b9b;"/></g><g id="Z-Body-Rund" serif:id="Z Body Rund"><path d="M76.732,71.834c15.028,2.562 24.514,12.587 24.514,25.058l-0,21.022l-100.993,0l0,-21.022c0,-12.612 9.702,-22.722 25.026,-25.142c6.554,6.678 15.678,10.821 25.768,10.821c10.048,-0 19.137,-4.108 25.685,-10.737Z" style="fill:#6785c1;"/><ellipse cx="50.75" cy="117.525" rx="50.496" ry="11.29" style="fill:#6785c1;"/></g></g><g id="Z-Hut-Bahn" serif:id="Z Hut Bahn"><path d="M19.606,13.314c7.169,-2.39 44.509,-10.956 56.15,-13.01c5.437,-0.96 6.887,2.982 5.478,4.793c-4.793,6.163 -4.101,8.421 -8.26,10.222c-13.003,5.631 -27.809,5.763 -39.673,4.843c-10.944,-0.85 -19.173,-5.022 -13.695,-6.848Z" style="fill:#d11a1a;"/><path d="M42.888,29.341c0.913,2.282 23.557,19.504 38.346,7.673c3.424,-2.739 2.514,-5.126 1.37,-7.277c-0.865,-1.625 -7.19,-6.076 -8.007,-6.418c-2.603,-1.09 -32.622,3.739 -31.709,6.022Z"/><path d="M28.679,19.553c-0.183,-0.02 0.32,6.053 0.514,6.163c10.613,5.991 36.977,4.793 45.878,-0.343c0.816,-0.47 0.685,-1.798 0.685,-2.739c0,-1.598 -0.815,-8.504 -1.027,-8.388c-10.956,5.992 -27.219,7.361 -46.05,5.307Z"/></g></g></svg>