<?xml version="1.0" encoding="UTF-8" standalone="no"?><!DOCTYPE svg PUBLIC "-//W3C//DTD SVG 1.1//EN" "http://www.w3.org/Graphics/SVG/1.1/DTD/svg11.dtd"><svg width="100%" height="100%" viewBox="0 0 102 166" version="1.1" xmlns="http://www.w3.org/2000/svg" xmlns:xlink="http://www.w3.org/1999/xlink" xml:space="preserve" xmlns:serif="http://www.serif.com/" style="fill-rule:evenodd;clip-rule:evenodd;stroke-linejoin:round;stroke-miterlimit:2;"><g id="ZP-Hut-Melone-Master" serif:id="ZP Hut Melone Master"><g id="ZP-Base-Runder-Ausschnitt" serif:id="ZP Base Runder Ausschnitt"><g id="Z-Kopf" serif:id="Z Kopf"><ellipse cx="50.86" cy="76.443" rx="25.313" ry="29.198" style="fill:#fff;"/><path d="M50.86,47.245c13.971,0 25.313,13.083 25.313,29.198c-0,16.115 -11.342,29.198 -25.313,29.198c-13.97,-0 -25.312,-13.083 -25.312,-29.198c-0,-16.115 11.342,-29.198 25.312,-29.198Zm0,2.922c-6.44,-0.043 -12.262,3.098 -16.356,8.124c-3.863,4.744 -6.192,11.141 -6.199,18.152c0.127,6.966 2.588,13.255 6.486,17.92c4.067,4.867 9.768,7.908 16.069,7.816c6.261,0.011 11.874,-3.105 15.855,-7.989c3.787,-4.645 6.132,-10.878 6.177,-17.747c0.056,-6.909 -2.181,-13.226 -5.931,-17.946c-4.002,-5.038 -9.708,-8.275 -16.101,-8.33Z" style="fill:#9b9b9b;"/></g><g id="Z-Body-Rund" serif:id="Z Body Rund"><path d="M77.027,108.834c15.028,2.562 24.514,12.587 24.514,25.058l-0,21.022l-100.993,0l-0,-21.022c-0,-12.612 9.701,-22.722 25.025,-25.142c6.555,6.678 15.678,10.821 25.769,10.821c10.047,-0 19.137,-4.108 25.685,-10.737Z" style="fill:#6785c1;"/><ellipse cx="51.044" cy="154.525" rx="50.496" ry="11.29" style="fill:#6785c1;"/></g></g><g id="Z-Hut-Melone-Master" serif:id="Z Hut Melone Master"><path d="M25.332,51.702c0.315,-9.634 0.78,-25.111 0.739,-31.565c-0.033,-5.17 1.831,-9.353 5.464,-13.031c3.632,-3.679 12.808,-6.117 20.496,-6.166c6.674,-0.042 14.459,2.124 17.844,5.465c3.384,3.342 5.293,6.507 5.323,11.263c0.043,6.781 0.704,23.524 1.142,33.973c1.016,-0.514 2.007,-1.089 2.967,-1.73c13.134,-8.777 10.492,12.698 3.119,19.58c-18.704,17.454 -60.541,14.428 -67.606,-9.956c-4.85,-16.736 5.165,-10.644 10.512,-7.833Z"/><path d="M74.719,58.25c-0.002,-0.381 -0.188,-0.737 -0.5,-0.957c-0.311,-0.22 -0.71,-0.276 -1.07,-0.15c-15.957,5.565 -29.519,4.376 -43.374,-0.984c-0.365,-0.142 -0.775,-0.094 -1.097,0.127c-0.322,0.222 -0.514,0.588 -0.511,0.979c0.012,2.253 0.036,6.053 0.046,7.536c0.002,0.373 0.236,0.707 0.587,0.836c14.625,5.361 28.674,6.698 45.163,1.13c0.482,-0.163 0.805,-0.616 0.802,-1.125c-0.009,-1.636 -0.032,-5.256 -0.046,-7.392Z" style="fill:#a4a4a4;"/></g></g></svg>