<?xml version="1.0" encoding="UTF-8" standalone="no"?><!DOCTYPE svg PUBLIC "-//W3C//DTD SVG 1.1//EN" "http://www.w3.org/Graphics/SVG/1.1/DTD/svg11.dtd"><svg width="100%" height="100%" viewBox="0 0 102 151" version="1.1" xmlns="http://www.w3.org/2000/svg" xmlns:xlink="http://www.w3.org/1999/xlink" xml:space="preserve" xmlns:serif="http://www.serif.com/" style="fill-rule:evenodd;clip-rule:evenodd;stroke-linecap:round;stroke-miterlimit:1;"><g id="ZP-Hut-Zylinder" serif:id="ZP Hut Zylinder"><g id="ZP-Base-Runder-Ausschnitt" serif:id="ZP Base Runder Ausschnitt"><g id="Z-Kopf" serif:id="Z Kopf"><ellipse cx="51.09" cy="61.443" rx="25.313" ry="29.198" style="fill:#fff;"/><path d="M51.09,32.245c13.97,0 25.312,13.083 25.312,29.198c0,16.115 -11.342,29.198 -25.312,29.198c-13.97,-0 -25.313,-13.083 -25.313,-29.198c0,-16.115 11.343,-29.198 25.313,-29.198Zm-0,2.922c-6.44,-0.043 -12.263,3.098 -16.356,8.124c-3.863,4.744 -6.192,11.141 -6.199,18.152c0.127,6.966 2.588,13.255 6.486,17.92c4.067,4.867 9.768,7.908 16.069,7.816c6.261,0.011 11.874,-3.105 15.855,-7.989c3.787,-4.645 6.131,-10.878 6.177,-17.747c0.056,-6.909 -2.182,-13.226 -5.931,-17.946c-4.002,-5.038 -9.708,-8.275 -16.101,-8.33Z" style="fill:#9b9b9b;"/></g><g id="Z-Body-Rund" serif:id="Z Body Rund"><path d="M77.257,93.834c15.027,2.562 24.513,12.587 24.513,25.058l0,21.022l-100.993,0l0,-21.022c0,-12.612 9.702,-22.722 25.026,-25.142c6.554,6.678 15.678,10.821 25.768,10.821c10.048,-0 19.138,-4.108 25.686,-10.737Z" style="fill:#6785c1;"/><ellipse cx="51.274" cy="139.525" rx="50.496" ry="11.29" style="fill:#6785c1;"/></g></g><g id="Z-Hut-Zylinder" serif:id="Z Hut Zylinder"><path d="M25.523,42.341c-1.695,3.956 7.784,12.736 26.181,12.736c19.105,0 26.123,-11.173 25.474,-13.444c-1.415,-4.953 -17.16,-3.538 -24.766,-3.538c-8.02,0 -24.766,-0.708 -26.889,4.246Z"/><path d="M25.523,42.341c2.123,-4.954 18.869,-4.246 26.889,-4.246c7.606,0 23.351,-1.415 24.766,3.538c0.649,2.271 -6.369,13.444 -25.474,13.444c-18.397,0 -27.876,-8.78 -26.181,-12.736Zm50.285,-0.373c-0.134,-0.4 -0.468,-0.697 -0.898,-0.963c-0.67,-0.413 -1.556,-0.713 -2.583,-0.948c-5.506,-1.263 -14.674,-0.554 -19.915,-0.554c-5.528,-0 -15.267,-0.364 -21.329,1.104c-1.176,0.285 -2.202,0.635 -3.001,1.089c-0.593,0.337 -1.055,0.709 -1.265,1.199c-0.199,0.465 -0.046,1.03 0.269,1.657c0.466,0.927 1.32,1.914 2.514,2.892c3.967,3.25 11.502,6.226 22.104,6.226c12.721,-0 19.846,-5.11 22.742,-8.976c0.561,-0.748 0.954,-1.438 1.18,-2.017c0.103,-0.265 0.169,-0.632 0.182,-0.709Z"/><path d="M37.029,38.35c-0.053,0.39 -0.115,0.777 -0.184,1.16c-1.477,8.123 30.702,8.252 30.426,0c-0.015,-0.467 -0.026,-0.933 -0.033,-1.399" style="fill:none;stroke:#a4a4a4;stroke-width:0.53px;"/><path d="M67.238,38.111c-0.301,-20.706 7.855,-39.94 2.972,-34.688c-6.382,6.864 -31.95,2.792 -37.611,0.707c-4.096,-1.508 6.53,18.774 4.43,34.22" style="stroke:#000;stroke-width:0.53px;"/><path d="M36.876,1.774c-7.076,1.606 -7.076,3.476 0.264,5.312c4.758,1.191 25.015,2.213 29.968,0.091c4.831,-2.071 8.132,-5.589 -0.359,-6.369c-4.885,-0.448 -25.008,-0.139 -29.873,0.966Z" style="fill:#a4a4a4;"/><path d="M36.876,1.774c4.865,-1.105 24.988,-1.414 29.873,-0.966c8.491,0.78 5.19,4.298 0.359,6.369c-4.953,2.122 -25.21,1.1 -29.968,-0.091c-7.34,-1.836 -7.34,-3.706 -0.264,-5.312Zm-3.441,2.56c0.094,0.056 0.194,0.112 0.293,0.159c0.858,0.411 2.11,0.816 3.753,1.228c3.271,0.818 13.998,1.537 21.807,1.191c3.19,-0.141 5.875,-0.433 7.266,-1.029c1.304,-0.559 2.489,-1.225 3.296,-1.916c0.272,-0.234 0.559,-0.623 0.674,-0.785c-0.09,-0.067 -0.237,-0.168 -0.371,-0.232c-0.376,-0.176 -0.867,-0.324 -1.484,-0.451c-0.58,-0.12 -1.26,-0.217 -2.049,-0.289c-4.812,-0.442 -24.639,-0.152 -29.433,0.936c-1.572,0.357 -2.769,0.719 -3.583,1.101c-0.056,0.026 -0.113,0.055 -0.169,0.087Z" style="fill:#a4a4a4;"/></g></g></svg>