<?xml version="1.0" encoding="UTF-8" standalone="no"?><!DOCTYPE svg PUBLIC "-//W3C//DTD SVG 1.1//EN" "http://www.w3.org/Graphics/SVG/1.1/DTD/svg11.dtd"><svg width="100%" height="100%" viewBox="0 0 102 140" version="1.1" xmlns="http://www.w3.org/2000/svg" xmlns:xlink="http://www.w3.org/1999/xlink" xml:space="preserve" xmlns:serif="http://www.serif.com/" style="fill-rule:evenodd;clip-rule:evenodd;stroke-linejoin:round;stroke-miterlimit:2;"><g id="ZP-Hut-Sheriff" serif:id="ZP Hut Sheriff"><g id="ZP-Base-Runder-Ausschnitt" serif:id="ZP Base Runder Ausschnitt"><g id="Z-Kopf" serif:id="Z Kopf"><ellipse cx="50.506" cy="50.443" rx="25.313" ry="29.198" style="fill:#fff;"/><path d="M50.506,21.245c13.97,0 25.312,13.083 25.312,29.198c0,16.115 -11.342,29.198 -25.312,29.198c-13.97,-0 -25.313,-13.083 -25.313,-29.198c0,-16.115 11.343,-29.198 25.313,-29.198Zm-0,2.922c-6.44,-0.043 -12.263,3.098 -16.356,8.124c-3.863,4.744 -6.192,11.141 -6.199,18.152c0.127,6.966 2.588,13.255 6.486,17.92c4.067,4.867 9.768,7.908 16.069,7.816c6.261,0.011 11.874,-3.105 15.855,-7.989c3.787,-4.645 6.131,-10.878 6.177,-17.747c0.056,-6.909 -2.182,-13.226 -5.931,-17.946c-4.002,-5.038 -9.708,-8.275 -16.101,-8.33Z" style="fill:#9b9b9b;"/></g><g id="Z-Body-Rund" serif:id="Z Body Rund"><path d="M76.672,82.834c15.028,2.562 24.514,12.587 24.514,25.058l0,21.022l-100.993,0l0,-21.022c0,-12.612 9.702,-22.722 25.026,-25.142c6.554,6.678 15.678,10.821 25.768,10.821c10.048,-0 19.138,-4.108 25.685,-10.737Z" style="fill:#6785c1;"/><ellipse cx="50.69" cy="128.525" rx="50.496" ry="11.29" style="fill:#6785c1;"/></g></g><g id="Z-Hut-Sheriff" serif:id="Z Hut Sheriff"><path d="M54.049,11.584c21.733,3.832 37.872,15.479 36.018,25.992c-1.854,10.513 -21.003,15.937 -42.736,12.105c-21.733,-3.832 -37.872,-15.478 -36.018,-25.991c1.854,-10.514 21.003,-15.938 42.736,-12.106Z" style="fill:#a4a4a4;"/><path d="M41.053,3.813c-3.766,5.71 -10.453,20.76 -11.029,23.755c-0.735,3.83 7.798,9.095 19.076,11.262c11.279,2.166 21.345,0.031 22.022,-3.81c0.881,-4.993 0.293,-23.025 -2.616,-27.46c-3.032,-4.623 -6.24,-5.66 -12.63,-6.786c-7.247,-1.278 -12.969,0.229 -14.823,3.039Z"/><path d="M53.042,13.857c0.115,-0.257 0.391,-0.403 0.668,-0.354c0.278,0.049 0.487,0.281 0.507,0.562l0.465,6.356l6.337,0.687c0.28,0.03 0.504,0.247 0.543,0.526c0.039,0.279 -0.116,0.549 -0.377,0.656l-5.902,2.406l1.305,6.239c0.058,0.276 -0.079,0.556 -0.332,0.679c-0.254,0.124 -0.559,0.059 -0.741,-0.156l-4.112,-4.869l-5.53,3.169c-0.244,0.14 -0.553,0.096 -0.749,-0.107c-0.196,-0.202 -0.229,-0.512 -0.08,-0.752l3.36,-5.416l-4.723,-4.28c-0.209,-0.189 -0.262,-0.496 -0.13,-0.745c0.132,-0.249 0.417,-0.376 0.691,-0.308l6.189,1.521l2.611,-5.814Z" style="fill:#a4a4a4;"/></g></g></svg>