<?xml version="1.0" encoding="UTF-8" standalone="no"?><!DOCTYPE svg PUBLIC "-//W3C//DTD SVG 1.1//EN" "http://www.w3.org/Graphics/SVG/1.1/DTD/svg11.dtd"><svg width="100%" height="100%" viewBox="0 0 102 125" version="1.1" xmlns="http://www.w3.org/2000/svg" xmlns:xlink="http://www.w3.org/1999/xlink" xml:space="preserve" xmlns:serif="http://www.serif.com/" style="fill-rule:evenodd;clip-rule:evenodd;stroke-linejoin:round;stroke-miterlimit:2;"><g id="ZP-Hut-China" serif:id="ZP Hut China"><g id="ZP-Base-Runder-Ausschnitt" serif:id="ZP Base Runder Ausschnitt"><g id="Z-Kopf" serif:id="Z Kopf"><ellipse cx="51.095" cy="35.443" rx="25.313" ry="29.198" style="fill:#fff;"/><path d="M51.095,6.245c13.971,0 25.313,13.083 25.313,29.198c-0,16.115 -11.342,29.198 -25.313,29.198c-13.97,-0 -25.312,-13.083 -25.312,-29.198c-0,-16.115 11.342,-29.198 25.312,-29.198Zm0,2.922c-6.44,-0.043 -12.262,3.098 -16.356,8.124c-3.863,4.744 -6.192,11.141 -6.199,18.152c0.127,6.966 2.588,13.255 6.487,17.92c4.066,4.867 9.767,7.908 16.068,7.816c6.261,0.011 11.874,-3.105 15.855,-7.989c3.787,-4.645 6.132,-10.878 6.178,-17.747c0.055,-6.909 -2.182,-13.226 -5.932,-17.946c-4.002,-5.038 -9.708,-8.275 -16.101,-8.33Z" style="fill:#9b9b9b;"/></g><g id="Z-Body-Rund" serif:id="Z Body Rund"><path d="M77.262,67.834c15.028,2.562 24.514,12.587 24.514,25.058l-0,21.022l-100.993,0l-0,-21.022c-0,-12.612 9.701,-22.722 25.026,-25.142c6.554,6.678 15.677,10.821 25.768,10.821c10.047,-0 19.137,-4.108 25.685,-10.737Z" style="fill:#6785c1;"/><ellipse cx="51.279" cy="113.525" rx="50.496" ry="11.29" style="fill:#6785c1;"/></g></g><g id="Z-Hut-China" serif:id="Z Hut China"><path d="M27.018,32.491c-0.355,1.947 -0.542,3.964 -0.542,6.032c0,0.095 0.001,0.19 0.002,0.283c-10.61,2.816 -17.787,4.06 -18.155,2.932c-0.396,-1.21 7.153,-4.847 18.695,-9.247Zm43.259,-13.903c9.769,-2.531 16.282,-3.605 16.633,-2.533c0.333,1.019 -4.964,3.758 -13.533,7.223c-0.896,-1.683 -1.936,-3.254 -3.1,-4.69Z" style="fill:#a4a4a4;"/><path d="M38.212,0.12l48.651,15.791l-78.587,25.683l29.936,-41.474Z"/><clipPath id="_clip1"><path d="M38.212,0.12l48.651,15.791l-78.587,25.683l29.936,-41.474Z"/></clipPath><g clip-path="url(#_clip1)"><path d="M38.046,-0.386l10.06,3.286l-16.237,5.307l6.177,-8.593Z" style="fill:#a4a4a4;"/><path d="M87.641,-3.547l-90.649,29.625l0.552,1.688l90.649,-29.625l-0.552,-1.688Z" style="fill:#a4a4a4;"/><path d="M91.436,3.29l-90.649,29.624l0.551,1.688l90.649,-29.625l-0.551,-1.687Z" style="fill:#a4a4a4;"/></g></g></g></svg>