<?xml version="1.0" encoding="UTF-8" standalone="no"?><!DOCTYPE svg PUBLIC "-//W3C//DTD SVG 1.1//EN" "http://www.w3.org/Graphics/SVG/1.1/DTD/svg11.dtd"><svg width="100%" height="100%" viewBox="0 0 102 200" version="1.1" xmlns="http://www.w3.org/2000/svg" xmlns:xlink="http://www.w3.org/1999/xlink" xml:space="preserve" xmlns:serif="http://www.serif.com/" style="fill-rule:evenodd;clip-rule:evenodd;stroke-linecap:round;stroke-miterlimit:1;"><g id="ZP-Hut-Zylinder-Master-Master" serif:id="ZP Hut Zylinder Master Master"><g id="ZP-Base-Runder-Ausschnitt" serif:id="ZP Base Runder Ausschnitt"><g id="Z-Kopf" serif:id="Z Kopf"><ellipse cx="50.832" cy="110.007" rx="25.313" ry="29.198" style="fill:#fff;"/><path d="M50.832,80.809c13.97,0 25.313,13.084 25.313,29.198c-0,16.115 -11.343,29.198 -25.313,29.198c-13.97,0 -25.312,-13.083 -25.312,-29.198c-0,-16.114 11.342,-29.198 25.312,-29.198Zm0,2.923c-6.44,-0.043 -12.263,3.098 -16.356,8.123c-3.863,4.744 -6.192,11.141 -6.199,18.152c0.127,6.967 2.588,13.255 6.486,17.92c4.067,4.867 9.768,7.908 16.069,7.816c6.261,0.011 11.874,-3.104 15.855,-7.988c3.787,-4.646 6.132,-10.879 6.177,-17.748c0.056,-6.909 -2.181,-13.225 -5.931,-17.946c-4.002,-5.038 -9.708,-8.274 -16.101,-8.329Z" style="fill:#9b9b9b;"/></g><g id="Z-Body-Rund" serif:id="Z Body Rund"><path d="M76.999,142.398c15.028,2.563 24.513,12.587 24.513,25.058l0,21.022l-100.992,0l-0,-21.022c-0,-12.612 9.701,-22.722 25.025,-25.142c6.554,6.679 15.678,10.821 25.768,10.821c10.048,-0 19.138,-4.108 25.686,-10.737Z" style="fill:#6785c1;"/><ellipse cx="51.016" cy="188.089" rx="50.496" ry="11.29" style="fill:#6785c1;"/></g></g><g id="Z-Hut-Zylinder-Master-Master" serif:id="Z Hut Zylinder Master Master"><path d="M21.232,85.944c-1.898,4.428 8.712,14.256 29.304,14.256c21.384,-0 29.238,-12.507 28.512,-15.048c-1.584,-5.544 -19.206,-3.96 -27.72,-3.96c-8.976,-0 -27.72,-0.792 -30.096,4.752Z"/><path d="M21.232,85.944c2.376,-5.544 21.12,-4.752 30.096,-4.752c8.514,-0 26.136,-1.584 27.72,3.96c0.726,2.541 -7.128,15.048 -28.512,15.048c-20.592,-0 -31.202,-9.828 -29.304,-14.256Zm56.283,-0.417c-0.15,-0.448 -0.525,-0.78 -1.006,-1.078c-0.749,-0.463 -1.741,-0.798 -2.89,-1.062c-6.163,-1.413 -16.425,-0.62 -22.291,-0.62c-6.187,0 -17.088,-0.406 -23.873,1.237c-1.316,0.318 -2.464,0.71 -3.359,1.219c-0.664,0.377 -1.181,0.792 -1.416,1.341c-0.223,0.52 -0.051,1.153 0.302,1.855c0.521,1.038 1.476,2.142 2.813,3.237c4.44,3.637 12.874,6.968 24.741,6.968c14.238,0 22.213,-5.719 25.454,-10.046c0.628,-0.838 1.068,-1.61 1.321,-2.258c0.115,-0.296 0.189,-0.707 0.204,-0.793Z"/><path d="M34.101,81.509c-0.057,0.435 -0.123,0.858 -0.197,1.267c-1.653,9.092 34.364,9.236 34.056,-0c-0.017,-0.507 -0.029,-1.021 -0.037,-1.542" style="fill:none;stroke:#a4a4a4;stroke-width:0.59px;"/><path d="M67.923,81.234c-0.35,-23.925 10.04,-83.843 4.571,-77.961c-7.144,7.682 -35.761,3.125 -42.097,0.792c-4.59,-1.691 6.092,59.348 3.704,77.444"/><clipPath id="_clip1"><path d="M67.923,81.234c-0.35,-23.925 10.04,-83.843 4.571,-77.961c-7.144,7.682 -35.761,3.125 -42.097,0.792c-4.59,-1.691 6.092,59.348 3.704,77.444"/></clipPath><g clip-path="url(#_clip1)"><path d="M33.516,56.066c-0.365,9.235 34.83,9.557 36.045,0.193" style="fill:none;stroke:#a4a4a4;stroke-width:0.59px;"/><path d="M30.509,28.923c0.123,9.299 39.945,10.069 41.986,0.34" style="fill:none;stroke:#a4a4a4;stroke-width:0.59px;"/></g><path d="M67.923,81.234c-0.35,-23.925 10.04,-83.843 4.571,-77.961c-7.144,7.682 -35.761,3.125 -42.097,0.792c-4.59,-1.691 6.092,59.348 3.704,77.444" style="fill:none;stroke:#000;stroke-width:0.59px;"/><path d="M35.067,1.75c-7.26,1.865 -8.127,3.958 0.361,6.08c5.317,1.329 27.864,2.7 33.349,0.214c5.063,-2.295 9.083,-6.255 -0.402,-7.128c-5.456,-0.502 -27.91,-0.553 -33.308,0.834Z" style="fill:#a4a4a4;"/><path d="M35.067,1.75c5.398,-1.387 27.852,-1.336 33.308,-0.834c9.485,0.873 5.465,4.833 0.402,7.128c-5.485,2.486 -28.032,1.115 -33.349,-0.214c-8.488,-2.122 -7.621,-4.215 -0.361,-6.08Zm-3.745,2.995c0.091,0.057 0.187,0.113 0.278,0.159c0.928,0.466 2.321,0.927 4.21,1.399c3.654,0.914 15.6,1.829 24.285,1.47c3.53,-0.146 6.5,-0.468 8.032,-1.162c1.37,-0.622 2.662,-1.369 3.559,-2.144c0.318,-0.275 0.659,-0.739 0.792,-0.926c-0.155,-0.103 -0.465,-0.295 -0.759,-0.402c-0.341,-0.124 -0.744,-0.234 -1.213,-0.332c-0.64,-0.134 -1.395,-0.242 -2.275,-0.323c-5.368,-0.494 -27.461,-0.574 -32.773,0.791c-1.613,0.414 -2.889,0.833 -3.782,1.269c-0.116,0.057 -0.239,0.128 -0.354,0.201Z" style="fill:#a4a4a4;"/></g></g></svg>