<?xml version="1.0" encoding="UTF-8" standalone="no"?><!DOCTYPE svg PUBLIC "-//W3C//DTD SVG 1.1//EN" "http://www.w3.org/Graphics/SVG/1.1/DTD/svg11.dtd"><svg width="100%" height="100%" viewBox="0 0 102 145" version="1.1" xmlns="http://www.w3.org/2000/svg" xmlns:xlink="http://www.w3.org/1999/xlink" xml:space="preserve" xmlns:serif="http://www.serif.com/" style="fill-rule:evenodd;clip-rule:evenodd;stroke-linejoin:round;stroke-miterlimit:2;"><g id="ZP-Hut-Melone" serif:id="ZP Hut Melone"><g id="ZP-Base-Runder-Ausschnitt" serif:id="ZP Base Runder Ausschnitt"><g id="Z-Kopf" serif:id="Z Kopf"><ellipse cx="50.679" cy="55.443" rx="25.313" ry="29.198" style="fill:#fff;"/><path d="M50.679,26.245c13.971,0 25.313,13.083 25.313,29.198c-0,16.115 -11.342,29.198 -25.313,29.198c-13.97,-0 -25.312,-13.083 -25.312,-29.198c-0,-16.115 11.342,-29.198 25.312,-29.198Zm0,2.922c-6.44,-0.043 -12.262,3.098 -16.355,8.124c-3.864,4.744 -6.193,11.141 -6.2,18.152c0.127,6.966 2.588,13.255 6.487,17.92c4.066,4.867 9.767,7.908 16.068,7.816c6.261,0.011 11.874,-3.105 15.855,-7.989c3.787,-4.645 6.132,-10.878 6.178,-17.747c0.055,-6.909 -2.182,-13.226 -5.932,-17.946c-4.002,-5.038 -9.708,-8.275 -16.101,-8.33Z" style="fill:#9b9b9b;"/></g><g id="Z-Body-Rund" serif:id="Z Body Rund"><path d="M76.846,87.834c15.028,2.562 24.514,12.587 24.514,25.058l-0,21.022l-100.993,0l-0,-21.022c-0,-12.612 9.701,-22.722 25.026,-25.142c6.554,6.678 15.678,10.821 25.768,10.821c10.047,-0 19.137,-4.108 25.685,-10.737Z" style="fill:#6785c1;"/><ellipse cx="50.863" cy="133.525" rx="50.496" ry="11.29" style="fill:#6785c1;"/></g></g><g id="Z-Hut-Melone" serif:id="Z Hut Melone"><path d="M25.543,30.865c0.205,-3.27 0.372,-7.214 0.347,-11.193c-0.033,-5.17 1.831,-9.352 5.464,-13.031c3.632,-3.679 12.808,-6.116 20.496,-6.165c6.674,-0.042 14.459,2.123 17.844,5.465c3.384,3.341 5.293,6.506 5.323,11.262c0.029,4.578 0.34,9.545 0.674,13.629c1.18,-0.571 2.328,-1.222 3.435,-1.962c13.134,-8.777 10.493,12.698 3.119,19.58c-18.704,17.454 -60.541,14.428 -67.606,-9.956c-4.971,-17.154 5.675,-10.325 10.904,-7.629Z"/><path d="M74.539,37.209c-0.003,-0.381 -0.189,-0.737 -0.501,-0.957c-0.311,-0.22 -0.71,-0.276 -1.07,-0.15c-15.957,5.565 -29.518,4.376 -43.374,-0.984c-0.364,-0.142 -0.775,-0.094 -1.097,0.127c-0.322,0.222 -0.514,0.589 -0.511,0.979c0.012,2.253 0.037,6.053 0.046,7.536c0.002,0.373 0.236,0.707 0.587,0.836c14.625,5.361 28.674,6.698 45.163,1.13c0.482,-0.163 0.805,-0.616 0.802,-1.125c-0.009,-1.636 -0.032,-5.256 -0.045,-7.392Z" style="fill:#a4a4a4;"/></g></g></svg>