<?xml version="1.0" encoding="UTF-8" standalone="no"?><!DOCTYPE svg PUBLIC "-//W3C//DTD SVG 1.1//EN" "http://www.w3.org/Graphics/SVG/1.1/DTD/svg11.dtd"><svg width="100%" height="100%" viewBox="0 0 102 219" version="1.1" xmlns="http://www.w3.org/2000/svg" xmlns:xlink="http://www.w3.org/1999/xlink" xml:space="preserve" xmlns:serif="http://www.serif.com/" style="fill-rule:evenodd;clip-rule:evenodd;stroke-linejoin:round;stroke-miterlimit:2;"><g id="ZP-Hut-Zauberer-Master" serif:id="ZP Hut Zauberer Master"><g id="ZP-Base-Runder-Ausschnitt" serif:id="ZP Base Runder Ausschnitt"><g id="Z-Kopf" serif:id="Z Kopf"><ellipse cx="51.211" cy="129.443" rx="25.313" ry="29.198" style="fill:#fff;"/><path d="M51.211,100.245c13.971,0 25.313,13.083 25.313,29.198c-0,16.115 -11.342,29.198 -25.313,29.198c-13.97,-0 -25.312,-13.083 -25.312,-29.198c-0,-16.115 11.342,-29.198 25.312,-29.198Zm0,2.922c-6.44,-0.043 -12.262,3.098 -16.356,8.124c-3.863,4.744 -6.192,11.141 -6.199,18.152c0.127,6.966 2.588,13.255 6.486,17.92c4.067,4.867 9.768,7.908 16.069,7.816c6.261,0.011 11.874,-3.105 15.855,-7.989c3.787,-4.645 6.132,-10.878 6.177,-17.747c0.056,-6.909 -2.181,-13.226 -5.931,-17.946c-4.002,-5.038 -9.708,-8.275 -16.101,-8.33Z" style="fill:#9b9b9b;"/></g><g id="Z-Body-Rund" serif:id="Z Body Rund"><path d="M77.378,161.834c15.028,2.562 24.514,12.587 24.514,25.058l-0,21.022l-100.993,0l-0,-21.022c-0,-12.612 9.701,-22.722 25.025,-25.142c6.555,6.678 15.678,10.821 25.769,10.821c10.047,-0 19.137,-4.108 25.685,-10.737Z" style="fill:#6785c1;"/><ellipse cx="51.395" cy="207.525" rx="50.496" ry="11.29" style="fill:#6785c1;"/></g></g><g id="Z-Hut-Zauberer-Master" serif:id="Z Hut Zauberer Master"><path d="M1.576,97.539c-4.086,-8.9 0.624,-3.045 9.029,0.685c3.41,1.514 8.307,3.059 12.614,0.663c5.125,-2.851 2.775,0.947 14.473,1.393c7.702,0.294 23.745,-1.88 32.619,-2.924c6.917,-0.814 17.323,-2.034 20.625,-3.344c7.794,-3.09 6.78,-4.681 0.855,6.201c-3.594,6.6 -13.798,15.585 -23.664,19.459c-10.973,4.308 -22.811,5.632 -35.288,3.163c-10.998,-2.176 -28.965,-20.289 -31.263,-25.296Z"/><path d="M33.888,81.191c-8.249,1.338 2.133,-2.881 -0.625,-16.982c-0.929,-4.748 1.947,-4.958 1.325,-17.755c-0.252,-5.197 -0.511,-11.854 0.659,-16.799c1.301,-5.497 12.25,-10.066 21.858,-19.596c1.575,-1.563 3.103,-3.311 3.62,-6.303c0.787,-4.554 3.859,-3.634 5.311,-0.775c0.548,1.079 -0.781,3.475 -2.111,6.467c-1.452,3.267 -2.988,7.194 -4.125,9.636c-0.819,1.757 -2.965,3.174 -4.141,4.855c-0.995,1.422 -2.69,3.343 -2.567,4.714c0.399,4.448 -0.977,5.767 -2.801,5.931c-1.687,0.151 -2.506,3.712 -1.309,4.91c4.926,4.929 9.128,11.029 10.65,18.764c1.098,5.581 0.556,8.631 0.634,10.405c0.577,13.101 8.773,11.171 -0.769,11.428c-3.584,0.097 -19.994,0.19 -25.609,1.1Z"/><path d="M26.428,98.002c-0.813,-0.58 -1.335,-17.34 4.442,-17.138c7.197,0.252 32.902,-3.099 34.018,-0.658c1.84,4.025 7.246,16.851 5.746,17.42c-7.227,2.74 -35.265,6.748 -44.206,0.376Z" style="fill:#a4a4a4;"/><path d="M45.817,76.834c5.202,-0.467 10.022,5.798 10.755,13.982c0.734,8.183 -2.894,15.205 -8.097,15.671c-5.202,0.467 -10.022,-5.798 -10.755,-13.981c-0.734,-8.184 2.894,-15.206 8.097,-15.672Zm0.664,7.413c2.602,-0.233 5.011,2.899 5.378,6.991c0.367,4.092 -1.447,7.603 -4.048,7.836c-2.602,0.233 -5.011,-2.899 -5.378,-6.991c-0.367,-4.092 1.447,-7.603 4.048,-7.836Z"/><path d="M45.817,76.834c5.202,-0.467 10.022,5.798 10.755,13.982c0.734,8.183 -2.894,15.205 -8.097,15.671c-5.202,0.467 -10.022,-5.798 -10.755,-13.981c-0.734,-8.184 2.894,-15.206 8.097,-15.672Zm0.114,1.273c-2.043,0.2 -3.734,1.673 -4.941,3.816c-1.513,2.686 -2.235,6.425 -1.841,10.454c0.315,3.275 1.331,6.212 2.769,8.461c1.696,2.652 3.966,4.365 6.422,4.141c2.476,-0.187 4.454,-2.255 5.694,-5.172c1.055,-2.48 1.575,-5.573 1.337,-8.884c-0.301,-3.32 -1.302,-6.31 -2.759,-8.59c-1.754,-2.745 -4.141,-4.47 -6.681,-4.226Zm0.436,4.867c1.601,-0.122 3.168,0.645 4.393,2.126c1.195,1.444 2.089,3.578 2.301,6.03c0.309,2.468 -0.139,4.765 -1.03,6.436c-0.942,1.766 -2.426,2.823 -4.085,3.017c-1.676,0.146 -3.342,-0.63 -4.629,-2.181c-1.225,-1.477 -2.119,-3.678 -2.314,-6.191c-0.183,-2.493 0.344,-4.786 1.319,-6.421c0.993,-1.669 2.429,-2.698 4.045,-2.816Zm0.114,1.273c-2.601,0.233 -4.415,3.744 -4.048,7.836c0.367,4.092 2.776,7.224 5.378,6.991c2.601,-0.233 4.415,-3.744 4.048,-7.836c-0.367,-4.092 -2.776,-7.224 -5.378,-6.991Z" style="fill:#a4a4a4;"/><path d="M25.327,101.351l1.712,5.497l4.189,2.739l-3.132,0.659l1.712,5.497l-3.647,-5.09l-3.132,0.658l0.878,-3.804l-3.647,-5.091l4.189,2.739l0.878,-3.804Z" style="fill:#a4a4a4;"/><path d="M74.061,100.02l-0.706,5.714l-3.636,3.441l3.199,0.091l-0.706,5.714l2.683,-5.658l3.199,0.091l-1.54,-3.588l2.683,-5.658l-3.635,3.441l-1.541,-3.588Z" style="fill:#a4a4a4;"/><path d="M47.601,108.011l1.964,4.513l4.89,-0.439l-3.677,3.227l1.964,4.513l-4.236,-2.518l-3.677,3.227l1.059,-4.783l-4.236,-2.518l4.89,-0.439l1.059,-4.783Z" style="fill:#a4a4a4;"/><path d="M40.675,67.533l0.302,2.419l2.386,0.476l-2.2,1.02l0.302,2.419l-1.661,-1.789l-2.199,1.019l1.172,-2.125l-1.661,-1.79l2.386,0.476l1.173,-2.125Z" style="fill:#a4a4a4;"/><path d="M56.624,68.525l0.302,2.42l2.386,0.476l-2.199,1.019l0.302,2.42l-1.661,-1.79l-2.2,1.02l1.173,-2.126l-1.661,-1.789l2.386,0.476l1.172,-2.126Z" style="fill:#a4a4a4;"/><path d="M48.694,63.319l0.302,2.42l2.386,0.476l-2.2,1.02l0.302,2.419l-1.661,-1.789l-2.199,1.019l1.173,-2.125l-1.662,-1.79l2.386,0.476l1.173,-2.126Z" style="fill:#a4a4a4;"/><path d="M43.095,54.621l0.241,1.931l1.905,0.38l-1.756,0.814l0.241,1.932l-1.326,-1.429l-1.755,0.814l0.936,-1.697l-1.326,-1.428l1.904,0.38l0.936,-1.697Z" style="fill:#a4a4a4;"/><path d="M53.22,53.713l0.241,1.932l1.904,0.38l-1.755,0.814l0.241,1.931l-1.326,-1.428l-1.756,0.813l0.936,-1.696l-1.326,-1.429l1.905,0.38l0.936,-1.697Z" style="fill:#a4a4a4;"/><path d="M45.729,45.073l0.224,1.48l1.584,0.315l-1.445,0.599l0.225,1.48l-1.118,-1.11l-1.444,0.599l0.754,-1.285l-1.118,-1.11l1.584,0.316l0.754,-1.284Z" style="fill:#a4a4a4;"/></g></g></svg>