<?xml version="1.0" encoding="UTF-8" standalone="no"?><!DOCTYPE svg PUBLIC "-//W3C//DTD SVG 1.1//EN" "http://www.w3.org/Graphics/SVG/1.1/DTD/svg11.dtd"><svg width="100%" height="100%" viewBox="0 0 102 153" version="1.1" xmlns="http://www.w3.org/2000/svg" xmlns:xlink="http://www.w3.org/1999/xlink" xml:space="preserve" xmlns:serif="http://www.serif.com/" style="fill-rule:evenodd;clip-rule:evenodd;stroke-linejoin:round;stroke-miterlimit:2;"><g id="ZP-Hut-China-Master" serif:id="ZP Hut China Master"><g id="ZP-Base-Runder-Ausschnitt" serif:id="ZP Base Runder Ausschnitt"><g id="Z-Kopf" serif:id="Z Kopf"><ellipse cx="50.385" cy="63.443" rx="25.313" ry="29.198" style="fill:#fff;"/><path d="M50.385,34.245c13.97,0 25.312,13.083 25.312,29.198c0,16.115 -11.342,29.198 -25.312,29.198c-13.971,-0 -25.313,-13.083 -25.313,-29.198c0,-16.115 11.342,-29.198 25.313,-29.198Zm-0,2.922c-6.44,-0.043 -12.263,3.098 -16.356,8.124c-3.863,4.744 -6.193,11.141 -6.2,18.152c0.127,6.966 2.589,13.255 6.487,17.92c4.067,4.867 9.767,7.908 16.069,7.816c6.26,0.011 11.874,-3.105 15.855,-7.989c3.786,-4.645 6.131,-10.878 6.177,-17.747c0.056,-6.909 -2.182,-13.226 -5.931,-17.946c-4.002,-5.038 -9.709,-8.275 -16.101,-8.33Z" style="fill:#9b9b9b;"/></g><g id="Z-Body-Rund" serif:id="Z Body Rund"><path d="M76.551,95.834c15.028,2.562 24.514,12.587 24.514,25.058l0,21.022l-100.993,0l0,-21.022c0,-12.612 9.702,-22.722 25.026,-25.142c6.554,6.678 15.678,10.821 25.768,10.821c10.048,-0 19.137,-4.108 25.685,-10.737Z" style="fill:#6785c1;"/><ellipse cx="50.569" cy="141.525" rx="50.496" ry="11.29" style="fill:#6785c1;"/></g></g><g id="Z-Hut-China-Master" serif:id="Z Hut China Master"><path d="M26.741,58.416c-0.678,2.633 -1.042,5.424 -1.042,8.311c-0,1.428 0.089,2.832 0.261,4.207c-12.377,2.761 -20.915,3.376 -21.643,1.149c-0.813,-2.489 8.343,-7.874 22.424,-13.667Zm41.114,-13.476c15.041,-3.737 25.835,-4.85 26.657,-2.333c0.769,2.354 -7.383,7.301 -20.189,12.734c-1.472,-4.002 -3.696,-7.547 -6.468,-10.401Z" style="fill:#a4a4a4;"/><path d="M30.875,0.616l63.544,41.707l-90.195,29.476l26.651,-71.183Z"/><clipPath id="_clip1"><path d="M30.875,0.616l63.544,41.707l-90.195,29.476l26.651,-71.183Z"/></clipPath><g clip-path="url(#_clip1)"><path d="M111.584,15.415l-131.883,43.101l1.378,4.218l131.883,-43.101l-1.378,-4.218Z" style="fill:#a4a4a4;"/><path d="M103.573,4.85l-131.883,43.101l1.379,4.218l131.883,-43.101l-1.379,-4.218Z" style="fill:#a4a4a4;"/><path d="M30.549,-0.381l13.144,8.663l-18.635,6.09l5.491,-14.753Z" style="fill:#a4a4a4;"/></g></g></g></svg>