<?xml version="1.0" encoding="UTF-8" standalone="no"?><!DOCTYPE svg PUBLIC "-//W3C//DTD SVG 1.1//EN" "http://www.w3.org/Graphics/SVG/1.1/DTD/svg11.dtd"><svg width="100%" height="100%" viewBox="0 0 102 202" version="1.1" xmlns="http://www.w3.org/2000/svg" xmlns:xlink="http://www.w3.org/1999/xlink" xml:space="preserve" xmlns:serif="http://www.serif.com/" style="fill-rule:evenodd;clip-rule:evenodd;stroke-linejoin:round;stroke-miterlimit:2;"><g id="ZP-Hut-Zauberer" serif:id="ZP Hut Zauberer"><g id="ZP-Base-Runder-Ausschnitt" serif:id="ZP Base Runder Ausschnitt"><g id="Z-Kopf" serif:id="Z Kopf"><ellipse cx="50.976" cy="112.443" rx="25.313" ry="29.198" style="fill:#fff;"/><path d="M50.976,83.245c13.971,0 25.313,13.083 25.313,29.198c-0,16.115 -11.342,29.198 -25.313,29.198c-13.97,-0 -25.312,-13.083 -25.312,-29.198c-0,-16.115 11.342,-29.198 25.312,-29.198Zm0,2.922c-6.44,-0.043 -12.263,3.098 -16.356,8.124c-3.863,4.744 -6.192,11.141 -6.199,18.152c0.127,6.966 2.588,13.255 6.486,17.92c4.067,4.867 9.768,7.908 16.069,7.816c6.261,0.011 11.874,-3.105 15.855,-7.989c3.787,-4.645 6.132,-10.878 6.177,-17.747c0.056,-6.909 -2.181,-13.226 -5.931,-17.946c-4.002,-5.038 -9.708,-8.275 -16.101,-8.33Z" style="fill:#9b9b9b;"/></g><g id="Z-Body-Rund" serif:id="Z Body Rund"><path d="M77.143,144.834c15.028,2.562 24.514,12.587 24.514,25.058l-0,21.022l-100.993,0l-0,-21.022c-0,-12.612 9.701,-22.722 25.025,-25.142c6.554,6.678 15.678,10.821 25.768,10.821c10.048,-0 19.138,-4.108 25.686,-10.737Z" style="fill:#6785c1;"/><ellipse cx="51.16" cy="190.525" rx="50.496" ry="11.29" style="fill:#6785c1;"/></g></g><g id="Z-Hut-Zauberer" serif:id="Z Hut Zauberer"><path d="M7.646,86.105c-3.679,-7.718 0.506,-2.666 7.89,0.484c2.995,1.278 7.289,2.565 11.019,0.42c4.437,-2.553 2.434,0.792 12.651,1.034c6.726,0.159 20.703,-1.939 28.436,-2.963c6.027,-0.798 15.095,-1.994 17.961,-3.178c6.764,-2.795 5.859,-4.172 0.824,5.402c-3.053,5.806 -11.848,13.778 -20.411,17.283c-9.524,3.899 -19.841,5.203 -30.763,3.205c-9.628,-1.761 -25.538,-17.346 -27.607,-21.687Z"/><path d="M35.645,71.428c-7.184,1.271 1.826,-2.542 -0.759,-14.816c-0.871,-4.132 1.637,-4.351 0.933,-15.515c-0.286,-4.533 -0.595,-10.34 0.364,-14.671c1.066,-4.815 10.566,-8.941 18.833,-17.38c1.356,-1.384 2.667,-2.93 3.08,-5.548c0.631,-3.985 3.323,-3.22 4.627,-0.743c0.491,0.934 -0.638,3.043 -1.761,5.671c-1.227,2.87 -2.518,6.317 -3.48,8.464c-0.693,1.544 -2.548,2.808 -3.554,4.29c-0.85,1.253 -2.305,2.951 -2.181,4.147c0.404,3.877 -0.78,5.046 -2.37,5.212c-1.471,0.153 -2.141,3.271 -1.081,4.302c4.362,4.24 8.107,9.513 9.532,16.245c1.029,4.858 0.594,7.527 0.685,9.075c0.668,11.428 7.798,9.64 -0.528,9.985c-3.127,0.129 -17.45,0.417 -22.34,1.282Z"/><path d="M29.344,86.196c-0.717,-0.496 -1.383,-15.119 3.662,-15.015c6.285,0.129 28.682,-3.119 29.686,-1.003c1.657,3.491 6.537,14.619 5.235,15.134c-6.274,2.483 -30.698,6.334 -38.583,0.884Z" style="fill:#a4a4a4;"/><path d="M46.003,67.475c4.535,-0.473 8.821,4.935 9.564,12.069c0.743,7.134 -2.335,13.309 -6.871,13.782c-4.535,0.472 -8.821,-4.936 -9.564,-12.07c-0.743,-7.134 2.335,-13.309 6.871,-13.781Zm0.522,5.009c2.777,-0.289 5.402,3.023 5.857,7.392c0.455,4.369 -1.43,8.151 -4.208,8.44c-2.777,0.289 -5.402,-3.023 -5.857,-7.392c-0.455,-4.368 1.43,-8.15 4.208,-8.44Z"/><path d="M46.003,67.475c4.535,-0.473 8.821,4.935 9.564,12.069c0.743,7.134 -2.335,13.309 -6.871,13.782c-4.535,0.472 -8.821,-4.936 -9.564,-12.07c-0.743,-7.134 2.335,-13.309 6.871,-13.781Zm0.078,0.75c-1.892,0.208 -3.464,1.569 -4.559,3.569c-1.326,2.42 -1.942,5.773 -1.547,9.374c0.389,3.591 1.713,6.718 3.52,8.792c1.468,1.686 3.252,2.671 5.108,2.476c1.866,-0.177 3.428,-1.498 4.538,-3.449c1.368,-2.405 2.051,-5.752 1.718,-9.369c-0.382,-3.626 -1.705,-6.793 -3.53,-8.886c-1.505,-1.727 -3.347,-2.714 -5.248,-2.507Zm0.365,3.508c1.527,-0.147 3.026,0.588 4.223,1.982c1.24,1.443 2.167,3.602 2.421,6.087c0.31,2.494 -0.119,4.82 -1.018,6.509c-0.886,1.662 -2.244,2.709 -3.805,2.895c-1.571,0.161 -3.128,-0.577 -4.362,-2.012c-1.258,-1.463 -2.186,-3.66 -2.431,-6.182c-0.239,-2.51 0.243,-4.832 1.189,-6.503c0.911,-1.608 2.247,-2.63 3.783,-2.776Zm0.079,0.751c-2.778,0.29 -4.663,4.072 -4.208,8.44c0.455,4.369 3.08,7.681 5.857,7.392c2.778,-0.289 4.663,-4.071 4.208,-8.44c-0.455,-4.369 -3.08,-7.681 -5.857,-7.392Z" style="fill:#a4a4a4;"/></g></g></svg>