<?xml version="1.0" encoding="UTF-8" standalone="no"?><!DOCTYPE svg PUBLIC "-//W3C//DTD SVG 1.1//EN" "http://www.w3.org/Graphics/SVG/1.1/DTD/svg11.dtd"><svg width="100%" height="100%" viewBox="0 0 102 131" version="1.1" xmlns="http://www.w3.org/2000/svg" xmlns:xlink="http://www.w3.org/1999/xlink" xml:space="preserve" xmlns:serif="http://www.serif.com/" style="fill-rule:evenodd;clip-rule:evenodd;stroke-linejoin:round;stroke-miterlimit:2;"><g id="ZP-Hut-Baseball" serif:id="ZP Hut Baseball"><g id="ZP-Base-Runder-Ausschnitt" serif:id="ZP Base Runder Ausschnitt"><g id="Z-Kopf" serif:id="Z Kopf"><ellipse cx="50.444" cy="41.443" rx="25.313" ry="29.198" style="fill:#fff;"/><path d="M50.444,12.245c13.971,0 25.313,13.083 25.313,29.198c-0,16.115 -11.342,29.198 -25.313,29.198c-13.97,-0 -25.312,-13.083 -25.312,-29.198c-0,-16.115 11.342,-29.198 25.312,-29.198Zm0,2.922c-6.44,-0.043 -12.262,3.098 -16.356,8.124c-3.863,4.744 -6.192,11.141 -6.199,18.152c0.127,6.966 2.588,13.255 6.486,17.92c4.067,4.867 9.768,7.908 16.069,7.816c6.261,0.011 11.874,-3.105 15.855,-7.989c3.787,-4.645 6.132,-10.878 6.177,-17.747c0.056,-6.909 -2.181,-13.226 -5.931,-17.946c-4.002,-5.038 -9.708,-8.275 -16.101,-8.33Z" style="fill:#9b9b9b;"/></g><g id="Z-Body-Rund" serif:id="Z Body Rund"><path d="M76.611,73.834c15.028,2.562 24.514,12.587 24.514,25.058l-0,21.022l-100.993,0l-0,-21.022c-0,-12.612 9.701,-22.722 25.025,-25.142c6.555,6.678 15.678,10.821 25.769,10.821c10.047,-0 19.137,-4.108 25.685,-10.737Z" style="fill:#6785c1;"/><ellipse cx="50.628" cy="119.525" rx="50.496" ry="11.29" style="fill:#6785c1;"/></g></g><g id="Z-Hut-Baseball" serif:id="Z Hut Baseball"><path d="M20.509,34.128c-0.252,0.819 -6.668,3.308 -7.949,3.18c-5.678,-0.568 -3.52,-4.599 0,-5.451c0.111,-0.027 8.299,1.136 7.949,2.271Z" style="fill:#e9e6e5;"/><path d="M20.509,34.128c-0.252,0.819 -6.668,3.308 -7.949,3.18c-5.678,-0.568 -3.52,-4.599 0,-5.451c0.111,-0.027 8.299,1.136 7.949,2.271Zm-0.388,-0.072c-0.042,-0.038 -0.108,-0.093 -0.169,-0.13c-0.491,-0.296 -1.426,-0.573 -2.464,-0.822c-1.661,-0.397 -3.581,-0.704 -4.472,-0.828c-0.198,-0.028 -0.343,-0.046 -0.421,-0.054c-0.91,0.23 -1.72,0.685 -2.299,1.234c-0.46,0.437 -0.775,0.931 -0.851,1.418c-0.075,0.479 0.106,0.939 0.607,1.302c0.52,0.378 1.348,0.651 2.544,0.771c0.164,0.016 0.423,-0.023 0.747,-0.093c0.838,-0.18 2.059,-0.581 3.247,-1.041c1.212,-0.47 2.39,-1.002 3.086,-1.43c0.155,-0.096 0.285,-0.185 0.382,-0.267c0.021,-0.017 0.043,-0.04 0.063,-0.06Z"/><path d="M30.162,25.952c11.355,-26.686 21.008,-25.112 24.415,-25.112c1.704,-0 5.653,2.968 1.135,29.654c-0.967,5.71 -25.865,-3.803 -25.55,-4.542Z" style="fill:#a4a4a4;"/><path d="M30.162,25.952c11.355,-26.686 21.008,-25.112 24.415,-25.112c1.704,-0 5.653,2.968 1.135,29.654c-0.967,5.71 -25.865,-3.803 -25.55,-4.542Zm0.423,-0.067c0.245,0.164 0.716,0.4 1.358,0.688c3.241,1.456 10.686,4.103 16.396,5.038c2.263,0.371 4.246,0.478 5.566,0.111c0.797,-0.221 1.335,-0.614 1.449,-1.288c1.75,-10.335 2.228,-17.101 2.055,-21.51c-0.123,-3.143 -0.572,-5.067 -1.13,-6.226c-0.57,-1.181 -1.223,-1.495 -1.702,-1.495c-2.143,-0 -6.805,-0.631 -12.813,5.828c-3.377,3.63 -7.168,9.473 -11.179,18.854Z"/><path d="M55.512,31.062c-0.028,0.158 4.629,0.842 9.398,1.703c5.24,0.947 10.641,2.061 10.662,1.82c0.825,-9.697 -0.674,-16.738 -3.722,-21.618c-3.477,-5.567 -8.386,-9.241 -16.819,-12.054c-1.099,-0.367 5.791,-0.091 0.481,30.149Z" style="fill:#a4a4a4;"/><path d="M55.059,0.922c-0.01,-0.003 -0.019,-0.006 -0.028,-0.009c-0.185,-0.062 -0.144,-0.105 0.028,0.009Zm-0,-0c8.415,2.812 13.318,6.484 16.791,12.045c3.048,4.88 4.547,11.921 3.722,21.618c-0.021,0.241 -5.422,-0.873 -10.662,-1.82c-4.769,-0.861 -9.426,-1.545 -9.398,-1.703c4.417,-25.151 0.393,-29.574 -0.453,-30.14Z"/><path d="M26.187,25.683c9.085,-28.12 27.519,-24.714 28.276,-24.714c0.757,0 -13.513,-1.703 -23.733,24.714c-2.383,6.159 -5.648,3.422 -4.543,-0Z" style="fill:#a4a4a4;"/><path d="M54.212,0.947c-2.002,-0.02 -14.357,1.148 -23.482,24.736c-2.383,6.159 -5.648,3.422 -4.543,-0c8.621,-26.685 25.662,-24.979 28.025,-24.736Zm0,0c0.241,0.003 0.332,0.022 0.251,0.022c-0.039,0 -0.123,-0.008 -0.251,-0.022Z"/><path d="M59.687,31.63c3.055,0.747 -7.576,6.228 -11.924,8.517c-5.394,2.839 -10.22,2.988 -15.898,-0c-5.404,-2.845 -7.268,-5.281 -19.305,-8.12c-0.845,-0.199 7.571,-4.561 11.356,-5.507c3.494,-0.874 7.29,-1.188 10.788,-0.333c6.813,1.665 24.415,5.304 24.983,5.443Z"/><path d="M59.687,31.63c3.055,0.747 -7.576,6.228 -11.924,8.517c-5.394,2.839 -10.22,2.988 -15.898,-0c-5.404,-2.845 -7.268,-5.281 -19.305,-8.12c-0.845,-0.199 7.571,-4.561 11.356,-5.507c3.494,-0.874 7.29,-1.188 10.788,-0.333c6.813,1.665 24.415,5.304 24.983,5.443Zm-46.486,0.177c4.289,1.034 7.252,2.017 9.554,2.987c3.918,1.649 5.915,3.261 9.279,5.032c2.741,1.442 5.278,2.142 7.781,2.143c2.571,0.002 5.103,-0.735 7.779,-2.143c2.405,-1.266 6.74,-3.512 9.6,-5.388c1.158,-0.758 2.071,-1.448 2.489,-1.986c0.076,-0.098 0.134,-0.187 0.165,-0.271c0.013,-0.032 0.035,-0.057 0.02,-0.08c-0.041,-0.063 -0.137,-0.087 -0.268,-0.119c-0.368,-0.09 -7.894,-1.65 -14.996,-3.19c-3.857,-0.836 -7.589,-1.666 -9.986,-2.253c-1.72,-0.42 -3.514,-0.551 -5.307,-0.471c-1.794,0.081 -3.588,0.374 -5.307,0.804c-2.823,0.706 -8.246,3.332 -10.394,4.669c-0.155,0.096 -0.292,0.185 -0.409,0.266Z"/></g></g></svg>