<?xml version="1.0" encoding="UTF-8" standalone="no"?><!DOCTYPE svg PUBLIC "-//W3C//DTD SVG 1.1//EN" "http://www.w3.org/Graphics/SVG/1.1/DTD/svg11.dtd"><svg width="100%" height="100%" viewBox="0 0 102 176" version="1.1" xmlns="http://www.w3.org/2000/svg" xmlns:xlink="http://www.w3.org/1999/xlink" xml:space="preserve" xmlns:serif="http://www.serif.com/" style="fill-rule:evenodd;clip-rule:evenodd;stroke-linecap:round;stroke-miterlimit:1;"><g id="ZP-Hut-Zylinder-Master" serif:id="ZP Hut Zylinder Master"><g id="ZP-Base-Runder-Ausschnitt" serif:id="ZP Base Runder Ausschnitt"><g id="Z-Kopf" serif:id="Z Kopf"><ellipse cx="50.581" cy="86.443" rx="25.313" ry="29.198" style="fill:#fff;"/><path d="M50.581,57.245c13.97,0 25.312,13.083 25.312,29.198c0,16.115 -11.342,29.198 -25.312,29.198c-13.97,-0 -25.313,-13.083 -25.313,-29.198c0,-16.115 11.343,-29.198 25.313,-29.198Zm-0,2.922c-6.44,-0.043 -12.263,3.098 -16.356,8.124c-3.863,4.744 -6.192,11.141 -6.2,18.152c0.128,6.966 2.589,13.255 6.487,17.92c4.067,4.867 9.768,7.908 16.069,7.816c6.261,0.011 11.874,-3.105 15.855,-7.989c3.787,-4.645 6.131,-10.878 6.177,-17.747c0.056,-6.909 -2.182,-13.226 -5.931,-17.946c-4.002,-5.038 -9.708,-8.275 -16.101,-8.33Z" style="fill:#9b9b9b;"/></g><g id="Z-Body-Rund" serif:id="Z Body Rund"><path d="M76.747,118.834c15.028,2.562 24.514,12.587 24.514,25.058l0,21.022l-100.993,0l0,-21.022c0,-12.612 9.702,-22.722 25.026,-25.142c6.554,6.678 15.678,10.821 25.768,10.821c10.048,-0 19.137,-4.108 25.685,-10.737Z" style="fill:#6785c1;"/><ellipse cx="50.765" cy="164.525" rx="50.496" ry="11.29" style="fill:#6785c1;"/></g></g><g id="Z-Hut-Zylinder-Master" serif:id="Z Hut Zylinder Master"><path d="M21.943,64.832c-1.898,4.428 8.712,14.256 29.304,14.256c21.383,0 29.238,-12.506 28.511,-15.048c-1.584,-5.544 -19.206,-3.96 -27.719,-3.96c-8.976,0 -27.72,-0.792 -30.096,4.752Z"/><path d="M21.943,64.832c2.376,-5.544 21.12,-4.752 30.096,-4.752c8.513,0 26.135,-1.584 27.719,3.96c0.727,2.542 -7.128,15.048 -28.511,15.048c-20.592,0 -31.202,-9.828 -29.304,-14.256Zm56.283,-0.416c-0.15,-0.448 -0.525,-0.781 -1.006,-1.078c-0.75,-0.463 -1.741,-0.798 -2.891,-1.062c-6.163,-1.414 -16.424,-0.62 -22.29,-0.62c-6.187,0 -17.088,-0.407 -23.873,1.236c-1.316,0.319 -2.464,0.711 -3.36,1.219c-0.663,0.377 -1.18,0.793 -1.415,1.342c-0.223,0.52 -0.051,1.153 0.302,1.855c0.521,1.037 1.476,2.141 2.813,3.237c4.44,3.637 12.874,6.968 24.741,6.968c14.237,-0 22.213,-5.719 25.454,-10.046c0.628,-0.838 1.068,-1.61 1.32,-2.258c0.116,-0.296 0.19,-0.707 0.205,-0.793Z"/><path d="M34.812,60.398c-0.057,0.435 -0.123,0.857 -0.197,1.266c-1.653,9.092 34.363,9.236 34.055,0c-0.016,-0.506 -0.029,-1.02 -0.036,-1.541" style="fill:none;stroke:#a4a4a4;stroke-width:0.59px;"/><path d="M68.634,60.123c-0.35,-23.925 8.795,-62.612 3.326,-56.73c-7.144,7.683 -35.761,3.125 -42.097,0.792c-4.59,-1.691 7.336,38.117 4.949,56.213"/><clipPath id="_clip1"><path d="M68.634,60.123c-0.35,-23.925 8.795,-62.612 3.326,-56.73c-7.144,7.683 -35.761,3.125 -42.097,0.792c-4.59,-1.691 7.336,38.117 4.949,56.213"/></clipPath><g clip-path="url(#_clip1)"><path d="M32.483,31.989c1.175,9.123 36.237,10.015 38.308,0.065" style="fill:none;stroke:#a4a4a4;stroke-width:0.59px;"/></g><path d="M68.634,60.123c-0.35,-23.925 8.795,-62.612 3.326,-56.73c-7.144,7.683 -35.761,3.125 -42.097,0.792c-4.59,-1.691 7.336,38.117 4.949,56.213" style="fill:none;stroke:#000;stroke-width:0.59px;"/><path d="M34.582,1.509c-7.26,1.865 -8.127,3.957 0.361,6.079c5.317,1.33 27.864,2.701 33.349,0.215c5.063,-2.295 9.083,-6.256 -0.402,-7.128c-5.456,-0.502 -27.91,-0.553 -33.308,0.834Z" style="fill:#a4a4a4;"/><path d="M34.582,1.509c5.398,-1.387 27.852,-1.336 33.308,-0.834c9.485,0.872 5.465,4.833 0.402,7.128c-5.485,2.486 -28.032,1.115 -33.349,-0.215c-8.488,-2.122 -7.621,-4.214 -0.361,-6.079Zm-3.745,2.994c0.091,0.058 0.187,0.113 0.278,0.159c0.928,0.467 2.321,0.927 4.21,1.399c3.654,0.914 15.6,1.83 24.285,1.47c3.53,-0.146 6.5,-0.467 8.032,-1.162c1.37,-0.621 2.662,-1.368 3.559,-2.144c0.318,-0.274 0.659,-0.738 0.792,-0.926c-0.155,-0.102 -0.465,-0.294 -0.759,-0.402c-0.341,-0.124 -0.744,-0.234 -1.213,-0.332c-0.641,-0.134 -1.395,-0.242 -2.275,-0.323c-5.368,-0.494 -27.461,-0.573 -32.773,0.791c-1.613,0.415 -2.889,0.833 -3.782,1.27c-0.116,0.056 -0.239,0.128 -0.354,0.2Z" style="fill:#a4a4a4;"/></g></g></svg>