<?xml version="1.0" encoding="UTF-8" standalone="no"?><!DOCTYPE svg PUBLIC "-//W3C//DTD SVG 1.1//EN" "http://www.w3.org/Graphics/SVG/1.1/DTD/svg11.dtd"><svg width="100%" height="100%" viewBox="0 0 102 182" version="1.1" xmlns="http://www.w3.org/2000/svg" xmlns:xlink="http://www.w3.org/1999/xlink" xml:space="preserve" xmlns:serif="http://www.serif.com/" style="fill-rule:evenodd;clip-rule:evenodd;stroke-linejoin:round;stroke-miterlimit:2;"><g id="ZP-Hut-Sheriff-Master-Master" serif:id="ZP Hut Sheriff Master Master"><g id="ZP-Base-Runder-Ausschnitt" serif:id="ZP Base Runder Ausschnitt"><g id="Z-Kopf" serif:id="Z Kopf"><ellipse cx="50.779" cy="92.2" rx="25.313" ry="29.198" style="fill:#fff;"/><path d="M50.779,63.002c13.971,0 25.313,13.083 25.313,29.198c-0,16.115 -11.342,29.198 -25.313,29.198c-13.97,0 -25.312,-13.083 -25.312,-29.198c-0,-16.115 11.342,-29.198 25.312,-29.198Zm0,2.922c-6.44,-0.043 -12.262,3.098 -16.356,8.124c-3.863,4.744 -6.192,11.141 -6.199,18.152c0.127,6.966 2.588,13.255 6.486,17.92c4.067,4.867 9.768,7.908 16.069,7.816c6.261,0.011 11.874,-3.105 15.855,-7.989c3.787,-4.645 6.132,-10.878 6.177,-17.747c0.056,-6.909 -2.181,-13.226 -5.931,-17.946c-4.002,-5.038 -9.708,-8.275 -16.101,-8.33Z" style="fill:#9b9b9b;"/></g><g id="Z-Body-Rund" serif:id="Z Body Rund"><path d="M76.946,124.591c15.028,2.562 24.514,12.587 24.514,25.058l-0,21.022l-100.993,0l-0,-21.022c-0,-12.612 9.701,-22.722 25.026,-25.142c6.554,6.678 15.677,10.821 25.768,10.821c10.047,-0 19.137,-4.108 25.685,-10.737Z" style="fill:#6785c1;"/><ellipse cx="50.963" cy="170.282" rx="50.496" ry="11.29" style="fill:#6785c1;"/></g></g><g id="Z-Hut-Sheriff-Master-Master" serif:id="Z Hut Sheriff Master Master"><ellipse cx="49.999" cy="65.676" rx="40.157" ry="19.426" style="fill:#a4a4a4;"/><path d="M35.79,5.865c-2.729,6.304 -6.718,57.321 -6.765,60.384c-0.06,3.916 9.298,7.636 20.831,7.812c11.533,0.175 21.117,-3.692 21.117,-7.609c0.001,-5.092 -3.726,-57.79 -7.376,-61.669c-3.806,-4.044 -7.159,-4.51 -13.676,-4.51c-7.391,0 -12.787,2.489 -14.131,5.592Z"/><path d="M49.4,47.814c0.069,-0.274 0.316,-0.467 0.599,-0.467c0.283,0 0.53,0.193 0.599,0.467l1.569,6.206l6.387,-0.426c0.282,-0.019 0.541,0.157 0.629,0.426c0.087,0.269 -0.019,0.563 -0.259,0.714l-5.417,3.41l2.379,5.942c0.105,0.263 0.018,0.564 -0.211,0.73c-0.229,0.167 -0.542,0.156 -0.759,-0.025l-4.917,-4.099l-4.917,4.099c-0.217,0.181 -0.53,0.192 -0.759,0.025c-0.229,-0.166 -0.316,-0.467 -0.211,-0.73l2.379,-5.942l-5.417,-3.41c-0.24,-0.151 -0.346,-0.445 -0.259,-0.714c0.088,-0.269 0.347,-0.445 0.629,-0.426l6.387,0.426l1.569,-6.206Z" style="fill:#a4a4a4;"/><path d="M49.4,26.499c0.069,-0.275 0.316,-0.467 0.599,-0.467c0.283,-0 0.53,0.192 0.599,0.467l1.569,6.205l6.387,-0.426c0.282,-0.018 0.541,0.157 0.629,0.426c0.087,0.27 -0.019,0.564 -0.259,0.715l-5.417,3.409l2.379,5.943c0.105,0.262 0.018,0.563 -0.211,0.73c-0.229,0.166 -0.542,0.156 -0.759,-0.026l-4.917,-4.098l-4.917,4.098c-0.217,0.182 -0.53,0.192 -0.759,0.026c-0.229,-0.167 -0.316,-0.468 -0.211,-0.73l2.379,-5.943l-5.417,-3.409c-0.24,-0.151 -0.346,-0.445 -0.259,-0.715c0.088,-0.269 0.347,-0.444 0.629,-0.426l6.387,0.426l1.569,-6.205Z" style="fill:#a4a4a4;"/><path d="M49.4,5.183c0.069,-0.275 0.316,-0.467 0.599,-0.467c0.283,0 0.53,0.192 0.599,0.467l1.569,6.206l6.387,-0.426c0.282,-0.019 0.541,0.156 0.629,0.426c0.087,0.269 -0.019,0.563 -0.259,0.714l-5.417,3.409l2.379,5.943c0.105,0.263 0.018,0.564 -0.211,0.73c-0.229,0.166 -0.542,0.156 -0.759,-0.025l-4.917,-4.099l-4.917,4.099c-0.217,0.181 -0.53,0.191 -0.759,0.025c-0.229,-0.166 -0.316,-0.467 -0.211,-0.73l2.379,-5.943l-5.417,-3.409c-0.24,-0.151 -0.346,-0.445 -0.259,-0.714c0.088,-0.27 0.347,-0.445 0.629,-0.426l6.387,0.426l1.569,-6.206Z" style="fill:#a4a4a4;"/></g></g></svg>