<?xml version="1.0" encoding="UTF-8" standalone="no"?><!DOCTYPE svg PUBLIC "-//W3C//DTD SVG 1.1//EN" "http://www.w3.org/Graphics/SVG/1.1/DTD/svg11.dtd"><svg width="100%" height="100%" viewBox="0 0 102 145" version="1.1" xmlns="http://www.w3.org/2000/svg" xmlns:xlink="http://www.w3.org/1999/xlink" xml:space="preserve" xmlns:serif="http://www.serif.com/" style="fill-rule:evenodd;clip-rule:evenodd;stroke-linejoin:round;stroke-miterlimit:2;"><g id="ZP-Hut-Melone" serif:id="ZP Hut Melone"><g id="ZP-Base-Runder-Ausschnitt" serif:id="ZP Base Runder Ausschnitt"><g id="Z-Kopf" serif:id="Z Kopf"><ellipse cx="50.625" cy="55.443" rx="25.313" ry="29.198" style="fill:#fff;"/><path d="M50.625,26.245c13.971,0 25.313,13.083 25.313,29.198c-0,16.115 -11.342,29.198 -25.313,29.198c-13.97,-0 -25.312,-13.083 -25.312,-29.198c-0,-16.115 11.342,-29.198 25.312,-29.198Zm0,2.922c-6.44,-0.043 -12.263,3.098 -16.356,8.124c-3.863,4.744 -6.192,11.141 -6.199,18.152c0.127,6.966 2.588,13.255 6.486,17.92c4.067,4.867 9.768,7.908 16.069,7.816c6.261,0.011 11.874,-3.105 15.855,-7.989c3.787,-4.645 6.132,-10.878 6.177,-17.747c0.056,-6.909 -2.181,-13.226 -5.931,-17.946c-4.002,-5.038 -9.708,-8.275 -16.101,-8.33Z" style="fill:#9b9b9b;"/></g><g id="Z-Body-Rund" serif:id="Z Body Rund"><path d="M76.792,87.834c15.028,2.562 24.514,12.587 24.514,25.058l-0,21.022l-100.993,0l-0,-21.022c-0,-12.612 9.701,-22.722 25.025,-25.142c6.554,6.678 15.678,10.821 25.768,10.821c10.048,-0 19.138,-4.108 25.686,-10.737Z" style="fill:#6785c1;"/><ellipse cx="50.809" cy="133.525" rx="50.496" ry="11.29" style="fill:#6785c1;"/></g></g><g id="Z-Hut-Melone" serif:id="Z Hut Melone"><path d="M25.489,30.865c0.205,-3.27 0.372,-7.214 0.346,-11.193c-0.032,-5.17 1.832,-9.352 5.464,-13.031c3.633,-3.679 12.809,-6.116 20.497,-6.165c6.674,-0.042 14.459,2.123 17.843,5.465c3.385,3.341 5.294,6.506 5.324,11.262c0.029,4.578 0.34,9.545 0.673,13.629c1.181,-0.571 2.329,-1.222 3.435,-1.962c13.135,-8.777 10.493,12.698 3.12,19.58c-18.704,17.454 -60.541,14.428 -67.606,-9.956c-4.971,-17.154 5.674,-10.325 10.904,-7.629Z"/><path d="M74.484,37.209c-0.002,-0.381 -0.189,-0.737 -0.5,-0.957c-0.312,-0.22 -0.71,-0.276 -1.07,-0.15c-15.957,5.565 -29.519,4.376 -43.374,-0.984c-0.365,-0.142 -0.775,-0.094 -1.097,0.127c-0.322,0.222 -0.514,0.589 -0.511,0.979c0.012,2.253 0.036,6.053 0.046,7.536c0.002,0.373 0.236,0.707 0.587,0.836c14.625,5.361 28.673,6.698 45.163,1.13c0.482,-0.163 0.805,-0.616 0.802,-1.125c-0.009,-1.636 -0.032,-5.256 -0.046,-7.392Z" style="fill:#a4a4a4;"/></g></g></svg>