<?xml version="1.0" encoding="UTF-8" standalone="no"?><!DOCTYPE svg PUBLIC "-//W3C//DTD SVG 1.1//EN" "http://www.w3.org/Graphics/SVG/1.1/DTD/svg11.dtd"><svg width="100%" height="100%" viewBox="0 0 102 129" version="1.1" xmlns="http://www.w3.org/2000/svg" xmlns:xlink="http://www.w3.org/1999/xlink" xml:space="preserve" xmlns:serif="http://www.serif.com/" style="fill-rule:evenodd;clip-rule:evenodd;stroke-linejoin:round;stroke-miterlimit:2;"><g id="ZP-Hut-Bahn-Master" serif:id="ZP Hut Bahn Master"><g id="ZP-Base-Runder-Ausschnitt" serif:id="ZP Base Runder Ausschnitt"><g id="Z-Kopf" serif:id="Z Kopf"><ellipse cx="50.855" cy="39.443" rx="25.313" ry="29.198" style="fill:#fff;"/><path d="M50.855,10.245c13.97,0 25.312,13.083 25.312,29.198c0,16.115 -11.342,29.198 -25.312,29.198c-13.97,-0 -25.313,-13.083 -25.313,-29.198c0,-16.115 11.343,-29.198 25.313,-29.198Zm-0,2.922c-6.44,-0.043 -12.263,3.098 -16.356,8.124c-3.863,4.744 -6.192,11.141 -6.2,18.152c0.128,6.966 2.589,13.255 6.487,17.92c4.067,4.867 9.768,7.908 16.069,7.816c6.261,0.011 11.874,-3.105 15.855,-7.989c3.787,-4.645 6.131,-10.878 6.177,-17.747c0.056,-6.909 -2.182,-13.226 -5.931,-17.946c-4.002,-5.038 -9.708,-8.275 -16.101,-8.33Z" style="fill:#9b9b9b;"/></g><g id="Z-Body-Rund" serif:id="Z Body Rund"><path d="M77.021,71.834c15.028,2.562 24.514,12.587 24.514,25.058l0,21.022l-100.993,0l0,-21.022c0,-12.612 9.702,-22.722 25.026,-25.142c6.554,6.678 15.678,10.821 25.768,10.821c10.048,-0 19.137,-4.108 25.685,-10.737Z" style="fill:#6785c1;"/><ellipse cx="51.039" cy="117.525" rx="50.496" ry="11.29" style="fill:#6785c1;"/></g></g><g id="Z-Hut-Bahn-Master" serif:id="Z Hut Bahn Master"><path d="M19.751,13.386c7.202,-2.401 44.716,-11.007 56.41,-13.071c5.462,-0.964 6.919,2.997 5.504,4.816c-4.816,6.191 -4.025,8.136 -8.075,10.072c-13.386,6.397 -29.16,5.911 -40.08,5.062c-10.996,-0.855 -19.262,-5.045 -13.759,-6.879Z" style="fill:#d11a1a;"/><path d="M43.141,29.482c0.917,2.293 23.666,19.596 38.524,7.709c3.44,-2.751 2.526,-5.15 1.376,-7.311c-0.869,-1.632 -7.224,-6.103 -8.044,-6.447c-2.615,-1.096 -32.774,3.756 -31.856,6.049Z"/><path d="M28.866,19.649c-0.184,-0.02 0.321,6.081 0.516,6.191c10.663,6.02 37.148,4.816 46.091,-0.344c0.819,-0.472 0.688,-1.806 0.688,-2.751c0,-1.605 -0.818,-8.544 -1.031,-8.427c-11.007,6.019 -27.346,7.395 -46.264,5.331Z"/><path d="M31.758,22.999c-0.423,-0.056 -0.721,-0.444 -0.666,-0.867c0.056,-0.423 0.444,-0.721 0.867,-0.666c8.58,1.128 17.501,1.464 25.103,0.752c6.639,-0.622 12.263,-2.026 15.715,-4.441c0.349,-0.245 0.831,-0.16 1.076,0.189c0.245,0.35 0.159,0.832 -0.19,1.077c-3.618,2.532 -9.497,4.062 -16.457,4.714c-7.707,0.721 -16.75,0.385 -25.448,-0.758Z" style="fill:#e9e6e5;"/></g></g></svg>