<?xml version="1.0" encoding="UTF-8" standalone="no"?><!DOCTYPE svg PUBLIC "-//W3C//DTD SVG 1.1//EN" "http://www.w3.org/Graphics/SVG/1.1/DTD/svg11.dtd"><svg width="100%" height="100%" viewBox="0 0 102 119" version="1.1" xmlns="http://www.w3.org/2000/svg" xmlns:xlink="http://www.w3.org/1999/xlink" xml:space="preserve" xmlns:serif="http://www.serif.com/" style="fill-rule:evenodd;clip-rule:evenodd;stroke-linejoin:round;stroke-miterlimit:2;"><g id="ZP-Legacy-1-Linien-Black" serif:id="ZP Legacy 1 Linien Black"><g id="ZP-Base" serif:id="ZP Base"><g id="Z-Kopf" serif:id="Z Kopf"><ellipse cx="51.224" cy="29.837" rx="25.313" ry="29.198" style="fill:#fff;"/><path d="M51.224,0.639c13.97,-0 25.312,13.083 25.312,29.198c0,16.115 -11.342,29.198 -25.312,29.198c-13.971,-0 -25.313,-13.083 -25.313,-29.198c0,-16.115 11.342,-29.198 25.313,-29.198Zm-0,2.922c-6.44,-0.043 -12.263,3.098 -16.356,8.124c-3.863,4.743 -6.193,11.14 -6.2,18.152c0.127,6.966 2.589,13.255 6.487,17.92c4.067,4.867 9.768,7.908 16.069,7.815c6.26,0.012 11.874,-3.104 15.855,-7.988c3.786,-4.646 6.131,-10.878 6.177,-17.747c0.056,-6.909 -2.182,-13.226 -5.931,-17.946c-4.002,-5.038 -9.709,-8.275 -16.101,-8.33Z" style="fill:#9b9b9b;"/></g><g id="Z-Body-Base" serif:id="Z Body Base"><path d="M32.771,61.132c5.978,-0 36.439,-0 36.439,-0c19.451,-0 32.277,11.193 32.277,25.694c-0,8.052 -0,21.023 -0,21.023l-100.993,-0c-0,-0 -0,-12.971 -0,-21.023c-0,-14.501 12.825,-25.694 32.277,-25.694Z" style="fill:#6785c1;"/><ellipse cx="50.99" cy="107.459" rx="50.496" ry="11.29" style="fill:#6785c1;"/></g></g><path d="M69.21,61.132c19.451,-0 32.277,11.193 32.277,25.694c-0,8.052 -0,21.023 -0,21.023c-0,3.964 -9.143,7.05 -22.985,9.065l-0.015,-30.088c-0,-14.501 -12.826,-25.694 -32.277,-25.694l23,-0Z" style="fill:#a4a4a4;"/><clipPath id="_clip1"><path d="M69.21,61.132c19.451,-0 32.277,11.193 32.277,25.694c-0,8.052 -0,21.023 -0,21.023c-0,3.964 -9.143,7.05 -22.985,9.065l-0.015,-30.088c-0,-14.501 -12.826,-25.694 -32.277,-25.694l23,-0Z"/></clipPath><g clip-path="url(#_clip1)"><path d="M90.791,117.85c-1.846,-0 -3.345,-1.499 -3.345,-3.346c-0,-0.009 -0,-0.019 -0,-0.028c-0,-0.008 0.003,-0.259 0.003,-0.259c0.004,-0.332 -0.005,-1.047 0.029,-2.586c0.074,-3.321 0.349,-10.457 0.863,-25.865c0.288,-6.857 -3.853,-13.197 -11.179,-17.582c-5.762,-3.449 -13.397,-5.713 -22.531,-6.119c-0.205,0 -0.372,-0.166 -0.372,-0.372c0,-0.205 0.167,-0.371 0.372,-0.371c11.867,-0.527 21.58,2.253 28.257,6.869c6.491,4.488 10.07,10.763 10.353,17.575c0.515,15.408 0.79,22.544 0.864,25.865c0.034,1.539 0.025,2.254 0.029,2.586c0.055,4.937 -3.343,3.633 -3.343,3.633Z"/></g></g></svg>