<?xml version="1.0" encoding="UTF-8" standalone="no"?><!DOCTYPE svg PUBLIC "-//W3C//DTD SVG 1.1//EN" "http://www.w3.org/Graphics/SVG/1.1/DTD/svg11.dtd"><svg width="100%" height="100%" viewBox="0 0 102 119" version="1.1" xmlns="http://www.w3.org/2000/svg" xmlns:xlink="http://www.w3.org/1999/xlink" xml:space="preserve" xmlns:serif="http://www.serif.com/" style="fill-rule:evenodd;clip-rule:evenodd;stroke-linejoin:round;stroke-miterlimit:1;"><g id="ZP-Legacy-Black-2" serif:id="ZP Legacy Black 2"><g id="ZP-Base" serif:id="ZP Base"><g id="Z-Kopf" serif:id="Z Kopf"><ellipse cx="50.841" cy="29.837" rx="25.313" ry="29.198" style="fill:#fff;"/><path d="M50.841,0.639c13.971,-0 25.313,13.083 25.313,29.198c0,16.115 -11.342,29.198 -25.313,29.198c-13.97,-0 -25.312,-13.083 -25.312,-29.198c-0,-16.115 11.342,-29.198 25.312,-29.198Zm0,2.922c-6.439,-0.043 -12.262,3.098 -16.355,8.124c-3.864,4.743 -6.193,11.14 -6.2,18.152c0.127,6.966 2.589,13.255 6.487,17.92c4.067,4.867 9.767,7.908 16.068,7.815c6.261,0.012 11.875,-3.104 15.856,-7.988c3.786,-4.646 6.131,-10.878 6.177,-17.747c0.056,-6.909 -2.182,-13.226 -5.932,-17.946c-4.001,-5.038 -9.708,-8.275 -16.101,-8.33Z" style="fill:#9b9b9b;"/></g><g id="Z-Body-Base" serif:id="Z Body Base"><path d="M32.388,61.132c5.979,-0 36.44,-0 36.44,-0c19.451,-0 32.276,11.193 32.276,25.694c0,8.052 0,21.023 0,21.023l-100.992,-0c-0,-0 -0,-12.971 -0,-21.023c-0,-14.501 12.825,-25.694 32.276,-25.694Z" style="fill:#6785c1;"/><ellipse cx="50.608" cy="107.459" rx="50.496" ry="11.29" style="fill:#6785c1;"/></g></g><path d="M68.828,61.132c19.451,-0 32.276,11.193 32.276,25.694c0,8.052 0,21.023 0,21.023c0,3.964 -9.142,7.05 -22.984,9.065l-0.016,-30.088c0,-14.501 -12.825,-25.694 -32.276,-25.694l23,-0Z" style="fill:#a4a4a4;"/><clipPath id="_clip1"><path d="M68.828,61.132c19.451,-0 32.276,11.193 32.276,25.694c0,8.052 0,21.023 0,21.023c0,3.964 -9.142,7.05 -22.984,9.065l-0.016,-30.088c0,-14.501 -12.825,-25.694 -32.276,-25.694l23,-0Z"/></clipPath><g clip-path="url(#_clip1)"><path d="M66.963,80.105l21.755,12.472l17.733,-18.889" style="fill:none;stroke:#000;stroke-width:3.18px;"/><path d="M65.364,70.799l22.236,12.748l17.037,-18.146" style="fill:none;stroke:#000;stroke-width:3.18px;"/><path d="M94.442,70.438c0.247,-0.265 0.359,-0.628 0.303,-0.985c-0.055,-0.358 -0.271,-0.671 -0.586,-0.849c-5.673,-3.205 -32.679,-18.465 -32.679,-18.465c0,-0 -14.61,11.277 -14.295,11.455c1.869,1.056 11.785,1.154 16.056,3.567c8.693,4.912 19.792,11.184 22.849,12.912c0.476,0.268 1.073,0.176 1.445,-0.223c1.47,-1.578 5.119,-5.493 6.907,-7.412Z"/></g></g></svg>