<?xml version="1.0" encoding="UTF-8" standalone="no"?><!DOCTYPE svg PUBLIC "-//W3C//DTD SVG 1.1//EN" "http://www.w3.org/Graphics/SVG/1.1/DTD/svg11.dtd"><svg width="100%" height="100%" viewBox="0 0 102 119" version="1.1" xmlns="http://www.w3.org/2000/svg" xmlns:xlink="http://www.w3.org/1999/xlink" xml:space="preserve" xmlns:serif="http://www.serif.com/" style="fill-rule:evenodd;clip-rule:evenodd;stroke-linejoin:round;stroke-miterlimit:1;"><g id="ZP-Legacy-Gray-3" serif:id="ZP Legacy Gray 3"><g id="ZP-Base" serif:id="ZP Base"><g id="Z-Kopf" serif:id="Z Kopf"><ellipse cx="51.589" cy="29.837" rx="25.313" ry="29.198" style="fill:#fff;"/><path d="M51.589,0.639c13.97,-0 25.312,13.083 25.312,29.198c0,16.115 -11.342,29.198 -25.312,29.198c-13.971,-0 -25.313,-13.083 -25.313,-29.198c0,-16.115 11.342,-29.198 25.313,-29.198Zm-0,2.922c-6.44,-0.043 -12.263,3.098 -16.356,8.124c-3.863,4.743 -6.192,11.14 -6.2,18.152c0.127,6.966 2.589,13.255 6.487,17.92c4.067,4.867 9.768,7.908 16.069,7.815c6.26,0.012 11.874,-3.104 15.855,-7.988c3.786,-4.646 6.131,-10.878 6.177,-17.747c0.056,-6.909 -2.182,-13.226 -5.931,-17.946c-4.002,-5.038 -9.709,-8.275 -16.101,-8.33Z" style="fill:#9b9b9b;"/></g><g id="Z-Body-Base" serif:id="Z Body Base"><path d="M33.136,61.132c5.979,-0 36.439,-0 36.439,-0c19.451,-0 32.277,11.193 32.277,25.694c-0,8.052 -0,21.023 -0,21.023l-100.993,-0c-0,-0 -0,-12.971 -0,-21.023c-0,-14.501 12.826,-25.694 32.277,-25.694Z" style="fill:#6785c1;"/><ellipse cx="51.355" cy="107.459" rx="50.496" ry="11.29" style="fill:#6785c1;"/></g></g><path d="M69.575,61.132c19.451,-0 32.277,11.193 32.277,25.694c-0,8.052 -0,21.023 -0,21.023c-0,3.964 -9.143,7.05 -22.985,9.065l-0.015,-30.088c-0,-14.501 -12.826,-25.694 -32.277,-25.694l23,-0Z" style="fill:none;"/><clipPath id="_clip1"><path d="M69.575,61.132c19.451,-0 32.277,11.193 32.277,25.694c-0,8.052 -0,21.023 -0,21.023c-0,3.964 -9.143,7.05 -22.985,9.065l-0.015,-30.088c-0,-14.501 -12.826,-25.694 -32.277,-25.694l23,-0Z"/></clipPath><g clip-path="url(#_clip1)"><path d="M68.406,88.358l22.637,12.979l17.48,-18.619" style="fill:none;stroke:#a4a4a4;stroke-width:3.18px;"/><path d="M67.711,80.105l21.754,12.472l17.734,-18.889" style="fill:none;stroke:#a4a4a4;stroke-width:3.18px;"/><path d="M66.112,70.799l22.236,12.748l17.036,-18.146" style="fill:none;stroke:#a4a4a4;stroke-width:3.18px;"/><path d="M93.997,69.637c0.228,-0.245 0.325,-0.584 0.264,-0.92c-0.062,-0.336 -0.275,-0.633 -0.579,-0.804c-5.476,-3.094 -31.538,-17.821 -31.538,-17.821c-0,-0 -13.61,10.357 -13.306,10.529c1.803,1.019 11.236,1.262 15.357,3.591c8.389,4.74 19.102,10.793 22.052,12.46c0.459,0.26 1.025,0.182 1.369,-0.187c1.358,-1.457 4.729,-5.074 6.381,-6.848Z" style="fill:#a4a4a4;"/></g></g></svg>