<?xml version="1.0" encoding="UTF-8" standalone="no"?><!DOCTYPE svg PUBLIC "-//W3C//DTD SVG 1.1//EN" "http://www.w3.org/Graphics/SVG/1.1/DTD/svg11.dtd"><svg width="100%" height="100%" viewBox="0 0 102 119" version="1.1" xmlns="http://www.w3.org/2000/svg" xmlns:xlink="http://www.w3.org/1999/xlink" xml:space="preserve" xmlns:serif="http://www.serif.com/" style="fill-rule:evenodd;clip-rule:evenodd;stroke-linejoin:round;stroke-miterlimit:2;"><g id="ZP-Legacy-3-Linien-Black" serif:id="ZP Legacy 3 Linien Black"><g id="ZP-Base" serif:id="ZP Base"><g id="Z-Kopf" serif:id="Z Kopf"><ellipse cx="51.437" cy="29.837" rx="25.313" ry="29.198" style="fill:#fff;"/><path d="M51.437,0.639c13.97,-0 25.312,13.083 25.312,29.198c0,16.115 -11.342,29.198 -25.312,29.198c-13.97,-0 -25.313,-13.083 -25.313,-29.198c0,-16.115 11.343,-29.198 25.313,-29.198Zm-0,2.922c-6.44,-0.043 -12.263,3.098 -16.356,8.124c-3.863,4.743 -6.192,11.14 -6.199,18.152c0.127,6.966 2.588,13.255 6.486,17.92c4.067,4.867 9.768,7.908 16.069,7.815c6.261,0.012 11.874,-3.104 15.855,-7.988c3.787,-4.646 6.131,-10.878 6.177,-17.747c0.056,-6.909 -2.182,-13.226 -5.931,-17.946c-4.002,-5.038 -9.708,-8.275 -16.101,-8.33Z" style="fill:#9b9b9b;"/></g><g id="Z-Body-Base" serif:id="Z Body Base"><path d="M32.984,61.132c5.979,-0 36.439,-0 36.439,-0c19.451,-0 32.277,11.193 32.277,25.694c-0,8.052 -0,21.023 -0,21.023l-100.993,-0c-0,-0 -0,-12.971 -0,-21.023c-0,-14.501 12.826,-25.694 32.277,-25.694Z" style="fill:#6785c1;"/><ellipse cx="51.203" cy="107.459" rx="50.496" ry="11.29" style="fill:#6785c1;"/></g></g><path d="M69.423,61.132c19.451,-0 32.277,11.193 32.277,25.694c-0,8.052 -0,21.023 -0,21.023c-0,3.964 -9.143,7.05 -22.985,9.065l-0.015,-30.088c-0,-14.501 -12.826,-25.694 -32.277,-25.694l23,-0Z" style="fill:#a4a4a4;"/><clipPath id="_clip1"><path d="M69.423,61.132c19.451,-0 32.277,11.193 32.277,25.694c-0,8.052 -0,21.023 -0,21.023c-0,3.964 -9.143,7.05 -22.985,9.065l-0.015,-30.088c-0,-14.501 -12.826,-25.694 -32.277,-25.694l23,-0Z"/></clipPath><g clip-path="url(#_clip1)"><path d="M79.181,119.626c-1.489,-0 -2.698,-1.21 -2.698,-2.699c-0,-0.054 0.002,-0.108 0.005,-0.162c-0,0 0.004,-0.078 0.008,-0.194c0.01,-0.345 0.012,-1.089 0.052,-2.691c0.087,-3.498 0.352,-11.022 0.803,-27.26c0.245,-7.077 -3.091,-13.655 -9.146,-18.276c-5.175,-3.951 -12.26,-6.498 -20.828,-6.81c-0.165,-0 -0.299,-0.135 -0.299,-0.3c-0,-0.166 0.134,-0.3 0.299,-0.3c8.923,-0.325 16.463,1.849 22.131,5.571c7.245,4.757 11.389,12.062 11.668,20.115c0.451,16.256 0.668,23.79 0.712,27.293c0.02,1.646 0.002,2.41 -0.002,2.765c-0.041,3.999 -2.705,2.948 -2.705,2.948Z"/><path d="M91.005,116.154c-0.911,0 -1.651,-0.739 -1.651,-1.65c0,-0.009 0,-0.019 0.001,-0.028l0.001,-0.259c0.002,-0.332 -0.003,-1.047 0.014,-2.586c0.037,-3.319 0.173,-10.464 0.426,-25.865c0.121,-5.886 -2.837,-11.383 -8.183,-15.609c-6.13,-4.848 -15.334,-8.03 -26.769,-8.28c-0.101,-0 -0.183,-0.082 -0.183,-0.184c0,-0.101 0.082,-0.183 0.183,-0.183c11.716,-0.256 21.267,2.652 27.752,7.348c6.092,4.411 9.484,10.412 9.617,16.908c0.253,15.401 0.389,22.546 0.426,25.865c0.017,1.539 0.012,2.254 0.014,2.586c0.014,2.544 -1.648,1.937 -1.648,1.937Z"/><path d="M104.194,116.548c0.026,1.489 -1.162,2.719 -2.651,2.745c-1.489,0.026 -2.719,-1.161 -2.746,-2.65l0.063,-29.87c0.051,-5.923 -1.931,-10.93 -5.421,-14.825c-3.495,-3.9 -8.425,-6.717 -14.267,-8.282c-3.224,-0.865 -7.043,-1.349 -11.308,-1.635c-5.247,-0.352 -11.144,-0.41 -17.417,-0.485c-0.166,0.003 -0.302,-0.129 -0.305,-0.295c-0.003,-0.165 0.129,-0.302 0.294,-0.305c6.294,-0.298 12.209,-0.595 17.49,-0.549c4.423,0.038 8.397,0.325 11.779,1.027c6.504,1.354 12.061,4.191 16.128,8.259c4.331,4.333 6.941,10.082 7.245,17.016l1.116,29.849Z"/></g></g></svg>