<?xml version="1.0" encoding="UTF-8" standalone="no"?><!DOCTYPE svg PUBLIC "-//W3C//DTD SVG 1.1//EN" "http://www.w3.org/Graphics/SVG/1.1/DTD/svg11.dtd"><svg width="100%" height="100%" viewBox="0 0 102 119" version="1.1" xmlns="http://www.w3.org/2000/svg" xmlns:xlink="http://www.w3.org/1999/xlink" xml:space="preserve" xmlns:serif="http://www.serif.com/" style="fill-rule:evenodd;clip-rule:evenodd;stroke-linejoin:round;stroke-miterlimit:1;"><g id="ZP-Legacy-Rechteck-3" serif:id="ZP Legacy Rechteck 3"><g id="ZP-Base" serif:id="ZP Base"><g id="Z-Kopf" serif:id="Z Kopf"><ellipse cx="51.473" cy="29.837" rx="25.313" ry="29.198" style="fill:#fff;"/><path d="M51.473,0.639c13.97,-0 25.313,13.083 25.313,29.198c-0,16.115 -11.343,29.198 -25.313,29.198c-13.97,-0 -25.312,-13.083 -25.312,-29.198c-0,-16.115 11.342,-29.198 25.312,-29.198Zm0,2.922c-6.44,-0.043 -12.263,3.098 -16.356,8.124c-3.863,4.743 -6.192,11.14 -6.199,18.152c0.127,6.966 2.588,13.255 6.486,17.92c4.067,4.867 9.768,7.908 16.069,7.815c6.261,0.012 11.874,-3.104 15.855,-7.988c3.787,-4.646 6.132,-10.878 6.177,-17.747c0.056,-6.909 -2.181,-13.226 -5.931,-17.946c-4.002,-5.038 -9.708,-8.275 -16.101,-8.33Z" style="fill:#9b9b9b;"/></g><g id="Z-Body-Base" serif:id="Z Body Base"><path d="M33.02,61.132c5.979,-0 36.439,-0 36.439,-0c19.451,-0 32.277,11.193 32.277,25.694c0,8.052 0,21.023 0,21.023l-100.993,-0c0,-0 0,-12.971 0,-21.023c0,-14.501 12.826,-25.694 32.277,-25.694Z" style="fill:#6785c1;"/><ellipse cx="51.24" cy="107.459" rx="50.496" ry="11.29" style="fill:#6785c1;"/></g></g><path d="M69.459,61.132c19.451,-0 32.277,11.193 32.277,25.694c0,8.052 0,21.023 0,21.023c0,3.964 -9.143,7.05 -22.984,9.065l-0.016,-30.088c0,-14.501 -12.826,-25.694 -32.277,-25.694l23,-0Z" style="fill:#a4a4a4;"/><clipPath id="_clip1"><path d="M69.459,61.132c19.451,-0 32.277,11.193 32.277,25.694c0,8.052 0,21.023 0,21.023c0,3.964 -9.143,7.05 -22.984,9.065l-0.016,-30.088c0,-14.501 -12.826,-25.694 -32.277,-25.694l23,-0Z"/></clipPath><g clip-path="url(#_clip1)"><path d="M68.29,88.358l22.637,12.979l17.48,-18.619" style="fill:none;stroke:#000;stroke-width:3.18px;"/><path d="M67.595,80.105l21.754,12.472l17.734,-18.889" style="fill:none;stroke:#000;stroke-width:3.18px;"/><path d="M65.996,70.799l22.236,12.748l17.037,-18.146" style="fill:none;stroke:#000;stroke-width:3.18px;"/><path d="M93.844,71.758c0.246,-0.265 0.358,-0.628 0.303,-0.985c-0.055,-0.358 -0.271,-0.67 -0.586,-0.848c-1.865,-1.054 -5.239,-2.96 -6.782,-3.833c-0.476,-0.268 -1.073,-0.176 -1.445,0.224c-1.271,1.363 -4.138,4.44 -5.677,6.091c-0.247,0.265 -0.358,0.628 -0.303,0.985c0.055,0.358 0.271,0.67 0.586,0.848c1.865,1.054 5.238,2.961 6.782,3.833c0.475,0.268 1.073,0.176 1.445,-0.223c1.271,-1.364 4.138,-4.441 5.677,-6.092Z"/></g></g></svg>