<?xml version="1.0" encoding="UTF-8" standalone="no"?><!DOCTYPE svg PUBLIC "-//W3C//DTD SVG 1.1//EN" "http://www.w3.org/Graphics/SVG/1.1/DTD/svg11.dtd"><svg width="100%" height="100%" viewBox="0 0 102 119" version="1.1" xmlns="http://www.w3.org/2000/svg" xmlns:xlink="http://www.w3.org/1999/xlink" xml:space="preserve" xmlns:serif="http://www.serif.com/" style="fill-rule:evenodd;clip-rule:evenodd;stroke-linejoin:round;stroke-miterlimit:2;"><g id="ZP-Legacy-Gray" serif:id="ZP Legacy Gray"><g id="ZP-Base" serif:id="ZP Base"><g id="Z-Kopf" serif:id="Z Kopf"><ellipse cx="51.01" cy="29.837" rx="25.313" ry="29.198" style="fill:#fff;"/><path d="M51.01,0.639c13.971,-0 25.313,13.083 25.313,29.198c-0,16.115 -11.342,29.198 -25.313,29.198c-13.97,-0 -25.312,-13.083 -25.312,-29.198c-0,-16.115 11.342,-29.198 25.312,-29.198Zm0,2.922c-6.439,-0.043 -12.262,3.098 -16.355,8.124c-3.864,4.743 -6.193,11.14 -6.2,18.152c0.127,6.966 2.588,13.255 6.487,17.92c4.067,4.867 9.767,7.908 16.068,7.815c6.261,0.012 11.874,-3.104 15.856,-7.988c3.786,-4.646 6.131,-10.878 6.177,-17.747c0.056,-6.909 -2.182,-13.226 -5.932,-17.946c-4.002,-5.038 -9.708,-8.275 -16.101,-8.33Z" style="fill:#9b9b9b;"/></g><g id="Z-Body-Base" serif:id="Z Body Base"><path d="M32.557,61.132c5.979,-0 36.44,-0 36.44,-0c19.451,-0 32.276,11.193 32.276,25.694c0,8.052 0,21.023 0,21.023l-100.993,-0c0,-0 0,-12.971 0,-21.023c0,-14.501 12.826,-25.694 32.277,-25.694Z" style="fill:#6785c1;"/><ellipse cx="50.777" cy="107.459" rx="50.496" ry="11.29" style="fill:#6785c1;"/></g></g><path d="M68.997,61.132c19.451,-0 32.276,11.193 32.276,25.694c0,8.052 0,21.023 0,21.023c0,3.964 -9.142,7.05 -22.984,9.065l-0.016,-30.088c0,-14.501 -12.825,-25.694 -32.276,-25.694l23,-0Z" style="fill:#a4a4a4;"/></g></svg>