<?xml version="1.0" encoding="UTF-8" standalone="no"?><!DOCTYPE svg PUBLIC "-//W3C//DTD SVG 1.1//EN" "http://www.w3.org/Graphics/SVG/1.1/DTD/svg11.dtd"><svg width="100%" height="100%" viewBox="0 0 102 120" version="1.1" xmlns="http://www.w3.org/2000/svg" xmlns:xlink="http://www.w3.org/1999/xlink" xml:space="preserve" xmlns:serif="http://www.serif.com/" style="fill-rule:evenodd;clip-rule:evenodd;stroke-linejoin:round;stroke-miterlimit:2;"><g id="ZP-Std-Herz" serif:id="ZP Std Herz"><g id="ZP-Base" serif:id="ZP Base"><g id="Z-Kopf" serif:id="Z Kopf"><ellipse cx="51.261" cy="30.133" rx="25.313" ry="29.198" style="fill:#fff;"/><path d="M51.261,0.935c13.97,-0 25.312,13.083 25.312,29.198c0,16.115 -11.342,29.198 -25.312,29.198c-13.971,-0 -25.313,-13.083 -25.313,-29.198c0,-16.115 11.342,-29.198 25.313,-29.198Zm-0,2.922c-6.44,-0.043 -12.263,3.098 -16.356,8.124c-3.864,4.743 -6.193,11.14 -6.2,18.152c0.127,6.966 2.589,13.255 6.487,17.92c4.067,4.867 9.767,7.908 16.069,7.815c6.26,0.012 11.874,-3.104 15.855,-7.988c3.786,-4.646 6.131,-10.878 6.177,-17.747c0.056,-6.909 -2.182,-13.226 -5.931,-17.946c-4.002,-5.038 -9.709,-8.275 -16.101,-8.33Z" style="fill:#9b9b9b;"/></g><g id="Z-Body-Base" serif:id="Z Body Base"><path d="M32.808,61.428c5.978,-0 36.439,-0 36.439,-0c19.451,-0 32.277,11.193 32.277,25.694c-0,8.052 -0,21.023 -0,21.023l-100.993,-0c-0,-0 -0,-12.971 -0,-21.023c-0,-14.501 12.825,-25.694 32.277,-25.694Z" style="fill:#6785c1;"/><ellipse cx="51.027" cy="107.755" rx="50.496" ry="11.29" style="fill:#6785c1;"/></g></g><path d="M70.767,76.639c3.403,-6.299 10.208,-6.299 13.611,-3.874c3.403,2.424 3.403,7.273 0,12.122c-2.382,3.637 -8.507,7.274 -13.611,9.699c-5.104,-2.425 -11.23,-6.062 -13.612,-9.699c-3.402,-4.849 -3.402,-9.698 0,-12.122c3.403,-2.425 10.209,-2.425 13.612,3.874Z" style="fill:#e9e6e5;"/><path d="M70.767,76.639c3.403,-6.299 10.208,-6.299 13.611,-3.874c3.403,2.424 3.403,7.273 0,12.122c-2.382,3.637 -8.507,7.274 -13.611,9.699c-5.104,-2.425 -11.23,-6.062 -13.612,-9.699c-3.402,-4.849 -3.402,-9.698 0,-12.122c3.403,-2.425 10.209,-2.425 13.612,3.874Zm-3.677,1.986c-0.906,-1.589 -2.178,-2.459 -3.485,-2.804c-1.42,-0.374 -2.882,-0.048 -3.811,0.648c-0.724,0.538 -0.603,1.487 -0.351,2.469c0.267,1.034 0.855,2.098 1.649,3.187c0.03,0.042 0.058,0.084 0.087,0.127c0.782,1.155 2.161,2.217 3.692,3.296c1.84,1.296 3.943,2.515 5.99,3.566c2.047,-0.965 4.149,-2.082 6,-3.291c1.632,-1.065 3.131,-2.076 3.989,-3.246c0.025,-0.038 0.05,-0.075 0.076,-0.112c1.097,-1.431 1.901,-2.808 2.054,-4.138c0.111,-0.959 -0.131,-1.835 -0.877,-2.368c-1.058,-0.732 -2.707,-0.927 -4.265,-0.451c-1.331,0.408 -2.529,1.443 -3.394,3.117c-0.73,1.351 -2.142,2.193 -3.677,2.193c-1.536,0 -2.947,-0.842 -3.677,-2.193Z" style="fill:#e9e6e5;"/></g></svg>