<?xml version="1.0" encoding="UTF-8" standalone="no"?><!DOCTYPE svg PUBLIC "-//W3C//DTD SVG 1.1//EN" "http://www.w3.org/Graphics/SVG/1.1/DTD/svg11.dtd"><svg width="100%" height="100%" viewBox="0 0 102 120" version="1.1" xmlns="http://www.w3.org/2000/svg" xmlns:xlink="http://www.w3.org/1999/xlink" xml:space="preserve" xmlns:serif="http://www.serif.com/" style="fill-rule:evenodd;clip-rule:evenodd;stroke-linejoin:round;stroke-miterlimit:2;"><g id="ZP-Std-Steifen" serif:id="ZP Std Steifen"><g id="ZP-Base" serif:id="ZP Base"><g id="Z-Kopf" serif:id="Z Kopf"><ellipse cx="51.139" cy="30.133" rx="25.313" ry="29.198" style="fill:#fff;"/><path d="M51.139,0.935c13.97,-0 25.313,13.083 25.313,29.198c-0,16.115 -11.343,29.198 -25.313,29.198c-13.97,-0 -25.312,-13.083 -25.312,-29.198c-0,-16.115 11.342,-29.198 25.312,-29.198Zm0,2.922c-6.44,-0.043 -12.263,3.098 -16.356,8.124c-3.863,4.743 -6.192,11.14 -6.199,18.152c0.127,6.966 2.588,13.255 6.486,17.92c4.067,4.867 9.768,7.908 16.069,7.815c6.261,0.012 11.874,-3.104 15.855,-7.988c3.787,-4.646 6.131,-10.878 6.177,-17.747c0.056,-6.909 -2.181,-13.226 -5.931,-17.946c-4.002,-5.038 -9.708,-8.275 -16.101,-8.33Z" style="fill:#9b9b9b;"/></g><g id="Z-Body-Base" serif:id="Z Body Base"><path d="M32.686,61.428c5.979,-0 36.439,-0 36.439,-0c19.451,-0 32.277,11.193 32.277,25.694c-0,8.052 -0,21.023 -0,21.023l-100.993,-0c0,-0 0,-12.971 0,-21.023c0,-14.501 12.826,-25.694 32.277,-25.694Z" style="fill:#6785c1;"/><ellipse cx="50.906" cy="107.755" rx="50.496" ry="11.29" style="fill:#6785c1;"/></g></g><path d="M9.503,77.293c6.88,1.447 13.748,2.478 20.59,3.239c6.955,0.774 13.886,1.31 20.812,1.342c4.178,0.019 8.351,-0.142 12.517,-0.424c9.664,-0.657 19.291,-2.065 28.885,-4.157c0.516,-0.109 0.845,-0.616 0.735,-1.132c-0.109,-0.515 -0.616,-0.844 -1.131,-0.735c-9.518,1.969 -19.062,3.225 -28.632,3.807c-4.12,0.251 -8.244,0.359 -12.374,0.38c-6.854,0.033 -13.731,-0.164 -20.621,-0.871c-6.785,-0.696 -13.574,-1.846 -20.383,-3.316c-0.515,-0.109 -1.023,0.22 -1.132,0.735c-0.11,0.515 0.219,1.022 0.734,1.132Z" style="fill:#e9e6e5;"/><path d="M6.248,86.637c7.421,1.596 14.829,2.734 22.208,3.573c7.503,0.854 14.978,1.445 22.449,1.48c4.507,0.021 9.008,-0.156 13.501,-0.468c10.424,-0.724 20.808,-2.278 31.156,-4.585c0.556,-0.121 0.911,-0.68 0.793,-1.248c-0.118,-0.569 -0.665,-0.932 -1.22,-0.811c-10.266,2.171 -20.561,3.556 -30.883,4.199c-4.444,0.277 -8.892,0.396 -13.347,0.419c-7.393,0.037 -14.811,-0.18 -22.242,-0.961c-7.318,-0.768 -14.641,-2.036 -21.986,-3.657c-0.556,-0.121 -1.103,0.242 -1.221,0.81c-0.119,0.568 0.236,1.128 0.792,1.249Z" style="fill:#e9e6e5;"/><path d="M5.235,106.269c7.59,1.596 15.166,2.734 22.712,3.573c7.673,0.854 15.318,1.445 22.958,1.48c4.609,0.021 9.212,-0.156 13.807,-0.468c10.661,-0.724 21.28,-2.277 31.863,-4.585c0.568,-0.121 0.931,-0.68 0.811,-1.248c-0.121,-0.568 -0.68,-0.932 -1.248,-0.811c-10.499,2.171 -21.027,3.557 -31.584,4.199c-4.544,0.277 -9.093,0.396 -13.649,0.419c-7.561,0.037 -15.147,-0.18 -22.747,-0.96c-7.483,-0.769 -14.973,-2.037 -22.484,-3.658c-0.568,-0.121 -1.128,0.242 -1.249,0.81c-0.121,0.568 0.242,1.128 0.81,1.249Z" style="fill:#e9e6e5;"/><path d="M5.235,96.453c7.59,1.596 15.166,2.734 22.712,3.573c7.673,0.854 15.318,1.445 22.958,1.48c4.609,0.021 9.212,-0.156 13.807,-0.468c10.661,-0.724 21.28,-2.277 31.863,-4.585c0.568,-0.121 0.931,-0.68 0.811,-1.248c-0.121,-0.568 -0.68,-0.932 -1.248,-0.811c-10.499,2.171 -21.027,3.556 -31.584,4.199c-4.544,0.277 -9.093,0.396 -13.649,0.419c-7.561,0.037 -15.147,-0.18 -22.747,-0.961c-7.483,-0.768 -14.973,-2.036 -22.484,-3.657c-0.568,-0.121 -1.128,0.242 -1.249,0.81c-0.121,0.568 0.242,1.128 0.81,1.249Z" style="fill:#e9e6e5;"/></g></svg>