<?xml version="1.0" encoding="UTF-8" standalone="no"?><!DOCTYPE svg PUBLIC "-//W3C//DTD SVG 1.1//EN" "http://www.w3.org/Graphics/SVG/1.1/DTD/svg11.dtd"><svg width="100%" height="100%" viewBox="0 0 102 120" version="1.1" xmlns="http://www.w3.org/2000/svg" xmlns:xlink="http://www.w3.org/1999/xlink" xml:space="preserve" xmlns:serif="http://www.serif.com/" style="fill-rule:evenodd;clip-rule:evenodd;stroke-linejoin:round;stroke-miterlimit:2;"><g id="ZP-Std-Stop" serif:id="ZP Std Stop"><g id="ZP-Base-Runder-Ausschnitt" serif:id="ZP Base Runder Ausschnitt"><g id="Z-Kopf" serif:id="Z Kopf"><ellipse cx="51.1" cy="29.673" rx="25.313" ry="29.198" style="fill:#fff;"/><path d="M51.1,0.476c13.971,-0 25.313,13.083 25.313,29.197c-0,16.115 -11.342,29.198 -25.313,29.198c-13.97,0 -25.312,-13.083 -25.312,-29.198c-0,-16.114 11.342,-29.197 25.312,-29.197Zm0,2.922c-6.44,-0.043 -12.262,3.098 -16.356,8.124c-3.863,4.743 -6.192,11.14 -6.199,18.151c0.127,6.967 2.588,13.256 6.486,17.921c4.067,4.867 9.768,7.908 16.069,7.815c6.261,0.012 11.874,-3.104 15.855,-7.988c3.787,-4.646 6.132,-10.879 6.177,-17.748c0.056,-6.908 -2.181,-13.225 -5.931,-17.945c-4.002,-5.039 -9.708,-8.275 -16.101,-8.33Z" style="fill:#9b9b9b;"/></g><g id="Z-Body-Rund" serif:id="Z Body Rund"><path d="M77.267,62.064c15.028,2.563 24.514,12.588 24.514,25.058l-0,21.023l-100.993,-0l-0,-21.023c-0,-12.611 9.701,-22.721 25.025,-25.142c6.554,6.679 15.678,10.821 25.769,10.821c10.047,-0 19.137,-4.107 25.685,-10.737Z" style="fill:#6785c1;"/><ellipse cx="51.284" cy="107.755" rx="50.496" ry="11.29" style="fill:#6785c1;"/></g></g><path d="M80.478,71.782l10.298,5.946l-0,11.89l-10.298,5.945l-10.297,-5.945l0,-11.89l10.297,-5.946Z" style="fill:#e9e6e5;"/><path d="M80.478,71.782l10.298,5.946l-0,11.89l-10.298,5.945l-10.297,-5.945l0,-11.89l10.297,-5.946Zm0.074,3.737c-0,-0 -6.827,4.155 -6.827,4.155l0.151,7.743c-0,-0 6.683,3.791 6.683,3.791c-0,0 7.018,-3.662 7.018,-3.662c0.056,-1.087 0.118,-2.479 0.151,-3.873c0.036,-1.513 0.038,-3.027 0.032,-4.148l-7.208,-4.006Z" style="fill:#e9e6e5;"/></g></svg>