<?xml version="1.0" encoding="UTF-8" standalone="no"?><!DOCTYPE svg PUBLIC "-//W3C//DTD SVG 1.1//EN" "http://www.w3.org/Graphics/SVG/1.1/DTD/svg11.dtd"><svg width="100%" height="100%" viewBox="0 0 102 119" version="1.1" xmlns="http://www.w3.org/2000/svg" xmlns:xlink="http://www.w3.org/1999/xlink" xml:space="preserve" xmlns:serif="http://www.serif.com/" style="fill-rule:evenodd;clip-rule:evenodd;stroke-linejoin:round;stroke-miterlimit:2;"><g id="ZP-Std-VVV" serif:id="ZP Std VVV"><g id="ZP-Base-V-Ausschnitt" serif:id="ZP Base V Ausschnitt"><g id="Z-Kopf" serif:id="Z Kopf"><ellipse cx="51.343" cy="29.571" rx="25.313" ry="29.198" style="fill:#fff;"/><path d="M51.343,0.373c13.97,-0 25.312,13.083 25.312,29.198c0,16.114 -11.342,29.198 -25.312,29.198c-13.97,-0 -25.313,-13.084 -25.313,-29.198c0,-16.115 11.343,-29.198 25.313,-29.198Zm-0,2.922c-6.44,-0.043 -12.263,3.098 -16.356,8.124c-3.863,4.743 -6.192,11.14 -6.2,18.152c0.128,6.966 2.589,13.255 6.487,17.92c4.067,4.867 9.768,7.908 16.069,7.815c6.261,0.012 11.874,-3.104 15.855,-7.988c3.787,-4.646 6.131,-10.878 6.177,-17.747c0.056,-6.909 -2.182,-13.226 -5.931,-17.946c-4.002,-5.038 -9.708,-8.275 -16.101,-8.33Z" style="fill:#9b9b9b;"/></g><g id="Z-Body-V" serif:id="Z Body V"><path d="M70.399,60.873c18.981,0.316 31.44,11.395 31.44,25.687l0,21.022l-100.993,0l0,-21.022c0,-14.292 12.459,-25.371 31.441,-25.687l16.377,16.479c0.709,0.713 1.673,1.115 2.679,1.115c1.006,-0 1.97,-0.402 2.679,-1.115l16.377,-16.479Z" style="fill:#6785c1;"/><ellipse cx="51.343" cy="107.193" rx="50.496" ry="11.29" style="fill:#6785c1;"/></g></g><path d="M25.354,63.211c0.715,0.704 0.13,0.106 0.902,0.861c8.274,8.091 19.42,18.689 24.452,23.531l0.646,0.24l0.618,-0.267c-0,0 17.056,-16.835 24.89,-24.557l3.631,0.854c-8.406,8.158 -20.76,20.147 -26.46,25.679c-0.709,0.688 -1.673,1.074 -2.679,1.074c-1.006,0 -1.97,-0.386 -2.679,-1.074c-5.926,-5.752 -17.874,-17.348 -26.173,-25.402l2.852,-0.939Z" style="fill:#e9e6e5;"/><path d="M15.552,66.71c0.715,0.705 9.932,9.717 10.704,10.472c8.274,8.092 19.42,18.689 24.452,23.531l0.646,0.241l0.618,-0.268c-0,0 27.114,-26.502 34.947,-34.225l2.78,1.645c-8.406,8.158 -29.966,29.024 -35.666,34.556c-0.709,0.688 -1.673,1.075 -2.679,1.075c-1.006,-0 -1.97,-0.387 -2.679,-1.075c-5.926,-5.751 -27.123,-26.216 -35.422,-34.27l2.299,-1.682Z" style="fill:#e9e6e5;"/><path d="M8.379,72.404c0.715,0.704 17.105,16.756 17.877,17.511c8.274,8.092 19.42,18.689 24.452,23.532l0.646,0.24l0.618,-0.268c-0,0 34.619,-33.854 42.453,-41.577l2.101,2.375c-8.406,8.158 -36.793,35.646 -42.493,41.178c-0.709,0.688 -1.673,1.075 -2.679,1.075c-1.006,-0 -1.97,-0.387 -2.679,-1.075c-5.926,-5.751 -33.816,-32.671 -42.115,-40.725l1.819,-2.266Z" style="fill:#e9e6e5;"/></g></svg>