<?xml version="1.0" encoding="UTF-8" standalone="no"?>
<!DOCTYPE svg PUBLIC "-//W3C//DTD SVG 1.1//EN" "http://www.w3.org/Graphics/SVG/1.1/DTD/svg11.dtd">
<svg width="100%" height="100%" viewBox="0 0 177 159" version="1.1" xmlns="http://www.w3.org/2000/svg" xmlns:xlink="http://www.w3.org/1999/xlink" xml:space="preserve" xmlns:serif="http://www.serif.com/" style="fill-rule:evenodd;clip-rule:evenodd;stroke-linejoin:round;stroke-miterlimit:2;">
    <g transform="matrix(1,0,0,1,-105,-2816)">
        <g transform="matrix(1,0,0,1,47.2441,2747)">
            <g id="CostEfficient" transform="matrix(1.06873,0,0,1.09789,-1727.72,-1266.41)">
                <g transform="matrix(0.415774,0,0,0.415774,1072.65,709.256)">
                    <path d="M1438.87,1546.44L1447.32,1470.87C1449.13,1454.71 1463.67,1442.78 1480.35,1443.79L1508.61,1445.51C1514.21,1445.85 1519.45,1448.36 1523.13,1452.48C1526.82,1456.61 1528.65,1462 1528.23,1467.45L1522.3,1542.86C1521.49,1553.1 1512.68,1560.99 1502.13,1560.92L1451.79,1560.56C1448.09,1560.53 1444.57,1558.98 1442.11,1556.29C1439.65,1553.6 1438.47,1550.02 1438.87,1546.44ZM1485.83,1513.84C1476.61,1513.84 1469.12,1521.33 1469.12,1530.56C1469.12,1539.78 1476.61,1547.27 1485.83,1547.27C1495.06,1547.27 1502.55,1539.78 1502.55,1530.56C1502.55,1521.33 1495.06,1513.84 1485.83,1513.84Z"/>
                </g>
                <g transform="matrix(0.415774,0,0,0.415774,1072.65,709.256)">
                    <path d="M1553.78,1452.95C1554.12,1450.28 1557.37,1448.36 1560,1447.8C1569.65,1445.75 1596.64,1441.33 1611.71,1440.67C1624.63,1440.11 1637.75,1441.04 1650.37,1443.86C1669.61,1448.15 1712.26,1462.16 1727.1,1466.45C1748.1,1472.53 1737.38,1491.28 1728.62,1493.59C1695.94,1502.24 1676.6,1493.97 1665.69,1491.93C1639.01,1486.93 1658.99,1499.9 1661.75,1501.18C1668.32,1504.21 1690.65,1508.01 1705.11,1510.12C1730.92,1513.89 1768.5,1500.64 1787.15,1493.9C1796.63,1490.47 1807.23,1482.89 1814.29,1480.55C1837.93,1472.73 1836.89,1498.28 1830.21,1505.57C1812.02,1525.44 1757.44,1552.02 1736.96,1562.44C1726.61,1567.7 1716.45,1566.8 1706.18,1565.77C1681.86,1563.35 1617.31,1551.96 1591.08,1547.88C1582.99,1546.62 1574.39,1543.88 1566.52,1546.82C1561.89,1548.55 1557.05,1552.38 1554.84,1554.86C1549.16,1561.23 1546.12,1556.42 1547.11,1551.06C1550.2,1534.36 1551.63,1470.17 1553.78,1452.95Z"/>
                </g>
                <g transform="matrix(0.48128,0,0,0.478032,965.735,634.01)">
                    <path d="M1717.05,1219.7C1767.26,1219.7 1808.03,1260.46 1808.03,1310.68C1808.03,1360.89 1767.26,1401.66 1717.05,1401.66C1666.83,1401.66 1626.07,1360.89 1626.07,1310.68C1626.07,1260.46 1666.83,1219.7 1717.05,1219.7ZM1717.05,1234.15C1759.28,1234.15 1793.58,1268.44 1793.58,1310.68C1793.58,1352.92 1759.28,1387.21 1717.05,1387.21C1674.81,1387.21 1640.52,1352.92 1640.52,1310.68C1640.52,1268.44 1674.81,1234.15 1717.05,1234.15Z"/>
                </g>
                <g transform="matrix(0.93569,0,0,0.910834,443.175,55.1599)">
                    <g transform="matrix(66.6667,0,0,66.6667,1458.15,1347.42)">
                    </g>
                    <text x="1416px" y="1347.42px" style="font-family:'LucidaGrande', 'Lucida Grande', sans-serif;font-weight:500;font-size:66.667px;">€</text>
                </g>
            </g>
        </g>
    </g>
</svg>
