<?xml version="1.0" encoding="UTF-8" standalone="no"?>
<!DOCTYPE svg PUBLIC "-//W3C//DTD SVG 1.1//EN" "http://www.w3.org/Graphics/SVG/1.1/DTD/svg11.dtd">
<svg width="100%" height="100%" viewBox="0 0 176 169" version="1.1" xmlns="http://www.w3.org/2000/svg" xmlns:xlink="http://www.w3.org/1999/xlink" xml:space="preserve" xmlns:serif="http://www.serif.com/" style="fill-rule:evenodd;clip-rule:evenodd;stroke-linejoin:round;stroke-miterlimit:2;">
    <g transform="matrix(1,0,0,1,-749,-2799)">
        <g transform="matrix(1,0,0,1,47.2441,2747)">
            <g id="Excellent" transform="matrix(0.962901,0,0,0.962901,-1598.24,-1358.69)">
                <g transform="matrix(0.659225,0,0,0.659225,852.449,396.662)">
                    <g transform="matrix(-1.15022,0,0,1.32678,5495.67,-508.321)">
                        <path d="M2683.15,1618.11C2664.73,1618.11 2649.77,1633.07 2649.77,1651.49C2649.77,1669.92 2664.73,1684.88 2683.15,1684.88C2701.58,1684.88 2716.53,1669.92 2716.53,1651.49C2716.53,1633.07 2701.58,1618.11 2683.15,1618.11ZM2683.15,1621.45C2691.65,1621.4 2699.33,1624.99 2704.72,1630.74C2709.82,1636.16 2712.89,1643.48 2712.9,1651.49C2712.73,1659.46 2709.49,1666.65 2704.35,1671.98C2698.98,1677.55 2691.46,1681.02 2683.15,1680.92C2674.9,1680.93 2667.49,1677.37 2662.24,1671.78C2657.25,1666.47 2654.16,1659.35 2654.1,1651.49C2654.02,1643.59 2656.97,1636.37 2661.92,1630.98C2667.2,1625.22 2674.72,1621.51 2683.15,1621.45Z"/>
                    </g>
                    <path d="M2445.12,1730.81C2469.82,1733.74 2485.6,1749.48 2485.6,1769.29L2485.6,1801.18L2332.4,1801.18L2332.4,1769.29C2332.4,1749.26 2348.53,1733.4 2373.68,1730.72C2383.28,1740.27 2395.79,1746.05 2409.45,1746.05C2423.07,1746.05 2435.53,1740.31 2445.12,1730.81Z" style="fill:rgb(16,16,16);"/>
                    <g transform="matrix(-1.14692,0,0,2.9,5470.82,-3388.58)">
                        <ellipse cx="2669.6" cy="1789.37" rx="66.787" ry="5.906" style="fill:rgb(16,16,16);"/>
                    </g>
                    <g transform="matrix(0.145846,0,0,0.145846,2051.52,1340.84)">
                        <path d="M2137.8,2270.08C2135.17,2278.6 2068.44,2304.48 2055.12,2303.15C1996.06,2297.24 2018.5,2255.32 2055.12,2246.46C2056.27,2246.18 2141.43,2258.27 2137.8,2270.08Z" style="fill:rgb(231,231,231);"/>
                        <path d="M2137.8,2270.08C2135.17,2278.6 2068.44,2304.48 2055.12,2303.15C1996.06,2297.24 2018.5,2255.32 2055.12,2246.46C2056.27,2246.18 2141.43,2258.27 2137.8,2270.08ZM2133.75,2269.33C2133.32,2268.94 2132.64,2268.36 2132,2267.98C2126.89,2264.9 2117.16,2262.01 2106.37,2259.43C2089.1,2255.3 2069.13,2252.1 2059.86,2250.81C2057.8,2250.53 2056.29,2250.34 2055.47,2250.26C2046.01,2252.64 2037.59,2257.37 2031.57,2263.09C2026.78,2267.64 2023.51,2272.77 2022.71,2277.83C2021.93,2282.82 2023.82,2287.6 2029.02,2291.38C2034.44,2295.31 2043.05,2298.15 2055.49,2299.39C2057.19,2299.56 2059.88,2299.16 2063.26,2298.43C2071.97,2296.56 2084.68,2292.39 2097.03,2287.6C2109.64,2282.71 2121.89,2277.18 2129.12,2272.73C2130.74,2271.73 2132.09,2270.8 2133.1,2269.95C2133.32,2269.77 2133.55,2269.54 2133.75,2269.33Z" style="fill:rgb(64,64,64);"/>
                        <path d="M2238.19,2185.04C2356.3,1907.48 2456.69,1923.85 2492.13,1923.85C2509.86,1923.85 2550.93,1954.72 2503.94,2232.28C2493.88,2291.67 2234.92,2192.72 2238.19,2185.04Z" style="fill:rgb(231,231,231);"/>
                        <path d="M2238.19,2185.04C2356.3,1907.48 2456.69,1923.85 2492.13,1923.85C2509.86,1923.85 2550.93,1954.72 2503.94,2232.28C2493.88,2291.67 2234.92,2192.72 2238.19,2185.04ZM2242.59,2184.34C2245.14,2186.05 2250.04,2188.5 2256.71,2191.5C2290.43,2206.64 2367.86,2234.17 2427.25,2243.9C2450.78,2247.76 2471.42,2248.87 2485.14,2245.06C2493.43,2242.75 2499.03,2238.66 2500.22,2231.65C2518.41,2124.16 2523.38,2053.79 2521.59,2007.93C2520.31,1975.24 2515.64,1955.23 2509.83,1943.18C2503.91,1930.9 2497.12,1927.62 2492.13,1927.62C2469.84,1927.62 2421.36,1921.06 2358.87,1988.24C2323.74,2026 2284.31,2086.76 2242.59,2184.34Z" style="fill:rgb(64,64,64);"/>
                        <path d="M2501.85,2238.19C2501.57,2239.83 2550,2246.95 2599.61,2255.91C2654.1,2265.75 2710.26,2277.33 2710.5,2274.83C2728.22,2093.42 2728.94,1996.06 2496.85,1924.61C2485.34,1921.06 2557.09,1923.67 2501.85,2238.19Z" style="fill:rgb(231,231,231);"/>
                        <path d="M2496.79,1924.59C2496.81,1924.59 2496.83,1924.6 2496.85,1924.61C2728.94,1996.06 2728.22,2093.42 2710.5,2274.83C2710.26,2277.33 2654.1,2265.75 2599.61,2255.91C2550,2246.95 2501.57,2239.83 2501.85,2238.19C2548.37,1973.29 2504.82,1929.65 2496.79,1924.59ZM2496.79,1924.59C2495.04,1924.04 2495.31,1923.65 2496.79,1924.59Z" style="fill:rgb(64,64,64);"/>
                        <path d="M2196.85,2182.24C2291.34,1889.76 2483.07,1925.2 2490.95,1925.2C2498.82,1925.2 2350.39,1907.48 2244.09,2182.24C2219.31,2246.3 2185.35,2217.84 2196.85,2182.24Z" style="fill:rgb(231,231,231);"/>
                        <path d="M2488.34,1924.97C2490.84,1924.99 2491.79,1925.2 2490.95,1925.2C2490.54,1925.2 2489.66,1925.11 2488.34,1924.97ZM2488.34,1924.97C2467.51,1924.76 2339.01,1936.91 2244.09,2182.24C2219.31,2246.3 2185.35,2217.84 2196.85,2182.24C2286.52,1904.69 2463.75,1922.43 2488.34,1924.97Z" style="fill:rgb(64,64,64);"/>
                        <path d="M2545.28,2244.09C2577.06,2251.86 2466.48,2308.88 2421.26,2332.68C2365.16,2362.2 2314.96,2363.76 2255.91,2332.68C2199.7,2303.09 2180.32,2277.76 2055.12,2248.23C2046.33,2246.16 2133.86,2200.79 2173.23,2190.95C2209.56,2181.86 2249.05,2178.59 2285.43,2187.48C2356.3,2204.81 2539.37,2242.65 2545.28,2244.09Z" style="fill:rgb(64,64,64);"/>
                        <path d="M2545.28,2244.09C2577.06,2251.86 2466.48,2308.88 2421.26,2332.68C2365.16,2362.2 2314.96,2363.76 2255.91,2332.68C2199.7,2303.09 2180.32,2277.76 2055.12,2248.23C2046.33,2246.16 2133.86,2200.79 2173.23,2190.95C2209.56,2181.86 2249.05,2178.59 2285.43,2187.48C2356.3,2204.81 2539.37,2242.65 2545.28,2244.09ZM2061.79,2245.94C2106.39,2256.69 2137.21,2266.92 2161.15,2277C2201.9,2294.16 2222.67,2310.92 2257.66,2329.34C2286.17,2344.34 2312.56,2351.62 2338.59,2351.64C2365.33,2351.65 2391.67,2343.99 2419.5,2329.34C2444.52,2316.17 2489.6,2292.82 2519.36,2273.31C2531.39,2265.42 2540.89,2258.24 2545.24,2252.65C2546.03,2251.63 2546.63,2250.7 2546.96,2249.83C2547.09,2249.5 2547.32,2249.23 2547.16,2248.99C2546.73,2248.34 2545.74,2248.09 2544.38,2247.76C2540.55,2246.83 2462.28,2230.6 2388.4,2214.58C2348.29,2205.88 2309.47,2197.24 2284.54,2191.15C2266.65,2186.78 2247.99,2185.41 2229.34,2186.25C2210.68,2187.09 2192.03,2190.14 2174.14,2194.61C2144.78,2201.95 2088.37,2229.27 2066.03,2243.17C2064.43,2244.17 2063,2245.1 2061.79,2245.94Z" style="fill:rgb(64,64,64);"/>
                    </g>
                </g>
                <g transform="matrix(1,0,0,1,-142.066,-0.925499)">
                    <circle cx="2653.27" cy="1549.19" r="44.887" style="fill:white;"/>
                </g>
                <g id="Daumen-Hoch" serif:id="Daumen Hoch" transform="matrix(0.557946,0,0,0.557946,717.577,570.465)">
                    <g transform="matrix(1.17437,0,0,1.17437,-591.4,-302.53)">
                        <path d="M3240.99,1690.39C3257.41,1690.39 3272.29,1697.06 3283.06,1707.83C3293.83,1718.6 3300.5,1733.48 3300.5,1749.9C3300.5,1766.33 3293.83,1781.2 3283.06,1791.98C3272.29,1802.75 3257.41,1809.41 3240.99,1809.41C3224.57,1809.41 3209.69,1802.75 3198.92,1791.98C3188.14,1781.2 3181.48,1766.33 3181.48,1749.9C3181.48,1733.48 3188.14,1718.6 3198.92,1707.83C3209.69,1697.06 3224.57,1690.39 3240.99,1690.39ZM3240.99,1692.64C3225.19,1692.64 3210.87,1699.05 3200.51,1709.42C3190.14,1719.79 3183.73,1734.1 3183.73,1749.9C3183.73,1765.7 3190.14,1780.02 3200.51,1790.39C3210.87,1800.75 3225.19,1807.17 3240.99,1807.17C3256.79,1807.17 3271.11,1800.75 3281.47,1790.39C3291.84,1780.02 3298.25,1765.7 3298.25,1749.9C3298.25,1734.1 3291.84,1719.79 3281.47,1709.42C3271.11,1699.05 3256.79,1692.64 3240.99,1692.64Z"/>
                    </g>
                    <g transform="matrix(1,0,0,0.96748,0,58.1686)">
                        <path d="M3190.23,1742.05L3190.23,1788.68C3190.23,1789.44 3189.63,1790.06 3188.89,1790.06L3168.23,1790.06C3167.49,1790.06 3166.89,1789.44 3166.89,1788.68L3166.89,1742.05C3166.89,1741.28 3167.49,1740.66 3168.23,1740.66L3188.89,1740.66C3189.63,1740.66 3190.23,1741.28 3190.23,1742.05ZM3187.55,1743.43L3169.57,1743.43C3169.57,1743.43 3169.57,1787.29 3169.57,1787.29L3187.55,1787.29L3187.55,1743.43Z"/>
                    </g>
                    <g transform="matrix(1,0,0,1,-0.758169,0)">
                        <rect x="3178.29" y="1743.56" width="2.639" height="43.027"/>
                    </g>
                    <path d="M3260.09,1749.39C3260.8,1749.87 3261.56,1750.44 3262.14,1751.04C3263.34,1752.25 3264.32,1753.86 3264.51,1755.97C3264.6,1756.82 3264.32,1757.64 3263.77,1758.42C3263.02,1759.48 3261.67,1760.47 3260.64,1761.37C3260.39,1761.58 3260.11,1761.89 3259.96,1762.07C3261.04,1763.83 3262.08,1765.45 3262.42,1766.87C3262.7,1768.05 3262.58,1769.14 3261.9,1770.12C3261.06,1771.34 3259.33,1772.35 3258.23,1773.42C3257.91,1773.74 3257.59,1774.04 3257.88,1774.47C3260.28,1778.07 3260.95,1782.17 3260.12,1785.19C3259.33,1788.08 3257.27,1790.08 3254.07,1790.21C3250.55,1790.36 3239.74,1790.6 3229.76,1790.65C3223.23,1790.68 3217.06,1790.62 3213.49,1790.39C3208.6,1790.08 3205.73,1789.05 3203.86,1787.63C3201.09,1785.52 3200.49,1782.46 3199.02,1778.97C3197.9,1776.32 3197.23,1772.66 3196.9,1768.66C3196.48,1763.61 3196.6,1758 3196.96,1753.27C3197.56,1745.42 3199.45,1740.14 3201.76,1736.32C3203.98,1732.67 3206.6,1730.34 3208.91,1728.39C3210.78,1726.82 3212.45,1725.56 3213.38,1723.9C3216.53,1718.31 3219.83,1713.47 3222.28,1707.68C3223.72,1704.26 3224.87,1700.51 3225.51,1696.06C3225.73,1694.5 3226.81,1693.72 3228.52,1693.79C3229.91,1693.85 3231.93,1694.65 3233.88,1695.97C3237.43,1698.37 3240.67,1702.46 3240.15,1706.06C3239.97,1707.35 3239.62,1708.86 3239.2,1710.46C3238.37,1713.58 3237.23,1717.1 3236.46,1720.2C3235.64,1723.47 3234.67,1726.07 3234.14,1728.05C3233.85,1729.17 3233.64,1730.02 3233.89,1730.65C3234.09,1731.18 3234.7,1731.33 3235.71,1731.47C3237.38,1731.71 3239.89,1731.62 3243.54,1731.27C3246.18,1731.02 3250.59,1730.91 3254.52,1731.18C3257.72,1731.4 3260.6,1731.92 3262.08,1732.73C3267.7,1735.84 3268.36,1739.49 3267.23,1742.55C3266.05,1745.74 3262.54,1748.37 3260.09,1749.39ZM3228.18,1696.51C3227.5,1701.19 3226.29,1705.14 3224.77,1708.74C3222.28,1714.62 3218.94,1719.55 3215.74,1725.23C3214.89,1726.74 3213.55,1728.01 3211.97,1729.36C3209.57,1731.39 3206.55,1733.66 3204.08,1737.73C3201.93,1741.27 3200.22,1746.18 3199.66,1753.47C3199.31,1758.07 3199.19,1763.52 3199.6,1768.44C3199.9,1772.11 3200.49,1775.48 3201.51,1777.91C3202.78,1780.92 3203.12,1783.66 3205.5,1785.47C3207.08,1786.67 3209.53,1787.42 3213.67,1787.69C3217.19,1787.91 3223.29,1787.97 3229.75,1787.94C3239.68,1787.89 3250.45,1787.65 3253.96,1787.51C3256.35,1787.41 3257.57,1785.49 3257.74,1783.08C3257.88,1780.89 3257.18,1778.31 3255.62,1775.97C3254.68,1774.55 3254.89,1773.36 3255.66,1772.26C3256.55,1771 3258.72,1769.96 3259.67,1768.59C3260,1768.11 3259.85,1767.56 3259.61,1766.95C3259.17,1765.83 3258.32,1764.58 3257.49,1763.23C3257.1,1762.58 3257.06,1761.92 3257.31,1761.25C3257.66,1760.31 3259.03,1759.21 3260.34,1758.09C3260.76,1757.73 3261.17,1757.36 3261.47,1756.98C3261.66,1756.73 3261.84,1756.49 3261.82,1756.22C3261.48,1752.66 3257.9,1751.25 3256.67,1750.5C3255.77,1749.96 3255.51,1749.27 3255.5,1748.93C3255.49,1748.48 3255.63,1747.99 3256.22,1747.62C3256.47,1747.46 3257.09,1747.25 3258.25,1747.14C3259.86,1746.99 3263.59,1744.58 3264.69,1741.61C3265.46,1739.51 3264.62,1737.23 3260.77,1735.1C3259.51,1734.41 3257.05,1734.07 3254.33,1733.88C3250.57,1733.62 3246.33,1733.72 3243.8,1733.97C3238.79,1734.45 3235.73,1734.4 3233.97,1733.86C3232.53,1733.4 3231.75,1732.63 3231.36,1731.64C3231.05,1730.84 3231.01,1729.83 3231.24,1728.6C3231.64,1726.48 3232.84,1723.5 3233.83,1719.54C3234.61,1716.43 3235.75,1712.89 3236.58,1709.76C3236.97,1708.27 3237.3,1706.88 3237.47,1705.67C3237.73,1703.86 3236.51,1701.98 3234.95,1700.37C3233.18,1698.56 3230.9,1697.11 3229.18,1696.63C3228.93,1696.56 3228.69,1696.52 3228.47,1696.5C3228.38,1696.5 3228.26,1696.51 3228.18,1696.51Z"/>
                </g>
                <g transform="matrix(0.579725,0,0,0.579725,995.205,665.164)">
                    <path d="M2432.15,1626.92C2432.34,1626.2 2433,1625.7 2433.74,1625.7C2434.49,1625.7 2435.15,1626.2 2435.34,1626.92L2440.72,1647.17L2461.64,1646.03C2462.38,1645.99 2463.06,1646.46 2463.29,1647.17C2463.52,1647.88 2463.25,1648.65 2462.62,1649.06L2445.03,1660.43L2452.58,1679.98C2452.84,1680.67 2452.61,1681.46 2452.01,1681.9C2451.4,1682.34 2450.58,1682.32 2450,1681.85L2433.74,1668.63L2417.49,1681.85C2416.91,1682.32 2416.09,1682.34 2415.48,1681.9C2414.88,1681.46 2414.64,1680.67 2414.91,1679.98L2422.46,1660.43L2404.87,1649.06C2404.24,1648.65 2403.97,1647.88 2404.2,1647.17C2404.43,1646.46 2405.11,1645.99 2405.85,1646.03L2426.77,1647.17L2432.15,1626.92Z" style="fill:rgb(16,16,16);"/>
                </g>
                <g transform="matrix(0.579725,0,0,0.579725,1032.2,665.164)">
                    <path d="M2432.15,1626.92C2432.34,1626.2 2433,1625.7 2433.74,1625.7C2434.49,1625.7 2435.15,1626.2 2435.34,1626.92L2440.72,1647.17L2461.64,1646.03C2462.38,1645.99 2463.06,1646.46 2463.29,1647.17C2463.52,1647.88 2463.25,1648.65 2462.62,1649.06L2445.03,1660.43L2452.58,1679.98C2452.84,1680.67 2452.61,1681.46 2452.01,1681.9C2451.4,1682.34 2450.58,1682.32 2450,1681.85L2433.74,1668.63L2417.49,1681.85C2416.91,1682.32 2416.09,1682.34 2415.48,1681.9C2414.88,1681.46 2414.64,1680.67 2414.91,1679.98L2422.46,1660.43L2404.87,1649.06C2404.24,1648.65 2403.97,1647.88 2404.2,1647.17C2404.43,1646.46 2405.11,1645.99 2405.85,1646.03L2426.77,1647.17L2432.15,1626.92Z" style="fill:rgb(16,16,16);"/>
                </g>
                <g transform="matrix(0.579725,0,0,0.579725,1069.19,665.164)">
                    <path d="M2432.15,1626.92C2432.34,1626.2 2433,1625.7 2433.74,1625.7C2434.49,1625.7 2435.15,1626.2 2435.34,1626.92L2440.72,1647.17L2461.64,1646.03C2462.38,1645.99 2463.06,1646.46 2463.29,1647.17C2463.52,1647.88 2463.25,1648.65 2462.62,1649.06L2445.03,1660.43L2452.58,1679.98C2452.84,1680.67 2452.61,1681.46 2452.01,1681.9C2451.4,1682.34 2450.58,1682.32 2450,1681.85L2433.74,1668.63L2417.49,1681.85C2416.91,1682.32 2416.09,1682.34 2415.48,1681.9C2414.88,1681.46 2414.64,1680.67 2414.91,1679.98L2422.46,1660.43L2404.87,1649.06C2404.24,1648.65 2403.97,1647.88 2404.2,1647.17C2404.43,1646.46 2405.11,1645.99 2405.85,1646.03L2426.77,1647.17L2432.15,1626.92Z" style="fill:rgb(16,16,16);"/>
                </g>
                <g transform="matrix(0.579725,0,0,0.579725,1106.18,665.164)">
                    <path d="M2432.15,1626.92C2432.34,1626.2 2433,1625.7 2433.74,1625.7C2434.49,1625.7 2435.15,1626.2 2435.34,1626.92L2440.72,1647.17L2461.64,1646.03C2462.38,1645.99 2463.06,1646.46 2463.29,1647.17C2463.52,1647.88 2463.25,1648.65 2462.62,1649.06L2445.03,1660.43L2452.58,1679.98C2452.84,1680.67 2452.61,1681.46 2452.01,1681.9C2451.4,1682.34 2450.58,1682.32 2450,1681.85L2433.74,1668.63L2417.49,1681.85C2416.91,1682.32 2416.09,1682.34 2415.48,1681.9C2414.88,1681.46 2414.64,1680.67 2414.91,1679.98L2422.46,1660.43L2404.87,1649.06C2404.24,1648.65 2403.97,1647.88 2404.2,1647.17C2404.43,1646.46 2405.11,1645.99 2405.85,1646.03L2426.77,1647.17L2432.15,1626.92Z" style="fill:rgb(16,16,16);"/>
                </g>
                <g transform="matrix(0.579725,0,0,0.579725,1143.17,665.164)">
                    <path d="M2432.15,1626.92C2432.34,1626.2 2433,1625.7 2433.74,1625.7C2434.49,1625.7 2435.15,1626.2 2435.34,1626.92L2440.72,1647.17L2461.64,1646.03C2462.38,1645.99 2463.06,1646.46 2463.29,1647.17C2463.52,1647.88 2463.25,1648.65 2462.62,1649.06L2445.03,1660.43L2452.58,1679.98C2452.84,1680.67 2452.61,1681.46 2452.01,1681.9C2451.4,1682.34 2450.58,1682.32 2450,1681.85L2433.74,1668.63L2417.49,1681.85C2416.91,1682.32 2416.09,1682.34 2415.48,1681.9C2414.88,1681.46 2414.64,1680.67 2414.91,1679.98L2422.46,1660.43L2404.87,1649.06C2404.24,1648.65 2403.97,1647.88 2404.2,1647.17C2404.43,1646.46 2405.11,1645.99 2405.85,1646.03L2426.77,1647.17L2432.15,1626.92Z" style="fill:rgb(16,16,16);"/>
                </g>
            </g>
        </g>
    </g>
</svg>
