<?xml version="1.0" encoding="UTF-8" standalone="no"?><!DOCTYPE svg PUBLIC "-//W3C//DTD SVG 1.1//EN" "http://www.w3.org/Graphics/SVG/1.1/DTD/svg11.dtd"><svg width="100%" height="100%" viewBox="0 0 69 104" version="1.1" xmlns="http://www.w3.org/2000/svg" xmlns:xlink="http://www.w3.org/1999/xlink" xml:space="preserve" xmlns:serif="http://www.serif.com/" style="fill-rule:evenodd;clip-rule:evenodd;stroke-linejoin:round;stroke-miterlimit:2;"><g id="EF-Bahn" serif:id="EF Bahn"><path d="M20.449,53.917l13.976,19.845l14.073,-19.982c6.505,1.333 13.034,3.642 19.589,6.989l-0,42.52l-67.323,0l-0,-42.52c6.538,-3.162 13.099,-5.469 19.685,-6.852Z" style="fill:#6785c1;"/><ellipse cx="35.197" cy="31.345" rx="17.898" ry="23.622" style="fill:#9b9b9b;"/><path d="M23.432,24.907c-2.066,0.587 -2.362,22.836 11.22,26.194c8.1,2.003 12.402,-12.089 12.992,-18.806c0.177,-2.005 -1.798,-7.606 -4.724,-8.06c-12.992,-2.015 -8.858,-4.701 -10.039,-4.701c-1.772,-0 -0,2.686 -9.449,5.373Z" style="fill:#fff;"/><path d="M44.817,50.982c12.733,2.062 13.964,-6.789 11.761,-6.149c-3.449,1.003 -5.453,3.436 -4.421,-7.207c0.228,-2.36 -9.66,12.981 -7.34,13.356Z" style="fill:#9b9b9b;"/><path d="M26.217,50.982c-12.732,2.062 -13.963,-6.789 -11.76,-6.149c3.449,1.003 5.453,3.436 4.421,-7.207c-0.229,-2.36 9.66,12.981 7.339,13.356Z" style="fill:#9b9b9b;"/><g><path d="M9.85,11.172c5.661,-1.887 35.145,-8.651 44.337,-10.273c4.293,-0.757 5.438,2.355 4.326,3.785c-3.785,4.866 -3.64,6.946 -6.309,8.11c-9.912,4.326 -23.966,4.259 -31.54,3.785c-8.651,-0.541 -15.139,-3.965 -10.814,-5.407Z" style="fill:#d11a1a;"/><path d="M28.234,23.037c0.721,1.803 18.601,15.402 30.279,6.06c2.703,-2.163 1.985,-4.048 1.081,-5.747c-0.683,-1.282 -5.677,-4.797 -6.323,-5.067c-2.055,-0.861 -25.758,2.952 -25.037,4.754Z"/><path d="M17.014,15.309c-0.144,-0.016 0.253,4.78 0.406,4.866c8.381,4.731 29.197,3.785 36.226,-0.27c0.644,-0.372 0.541,-1.42 0.541,-2.163c-0,-1.262 -0.643,-6.715 -0.811,-6.624c-8.651,4.732 -21.493,5.813 -36.362,4.191Z"/></g></g></svg>