<?xml version="1.0" encoding="UTF-8" standalone="no"?><!DOCTYPE svg PUBLIC "-//W3C//DTD SVG 1.1//EN" "http://www.w3.org/Graphics/SVG/1.1/DTD/svg11.dtd"><svg width="100%" height="100%" viewBox="0 0 68 102" version="1.1" xmlns="http://www.w3.org/2000/svg" xmlns:xlink="http://www.w3.org/1999/xlink" xml:space="preserve" xmlns:serif="http://www.serif.com/" style="fill-rule:evenodd;clip-rule:evenodd;stroke-linejoin:round;stroke-miterlimit:2;"><g id="EF-Bahn-Master" serif:id="EF Bahn Master"><path d="M20.165,52.127l13.977,19.844l14.073,-19.981c6.504,1.333 13.034,3.641 19.588,6.989l0,42.52l-67.323,-0l0,-42.52c6.538,-3.162 13.1,-5.469 19.685,-6.852Z" style="fill:#6785c1;"/><ellipse cx="34.913" cy="29.554" rx="17.898" ry="23.622" style="fill:#9b9b9b;"/><path d="M23.148,23.116c-2.065,0.588 -2.362,22.837 11.221,26.195c8.099,2.003 12.401,-12.09 12.992,-18.806c0.176,-2.005 -1.799,-7.606 -4.725,-8.06c-12.992,-2.015 -8.858,-4.702 -10.039,-4.702c-1.772,0 0,2.687 -9.449,5.373Z" style="fill:#fff;"/><path d="M44.534,49.192c12.732,2.061 13.963,-6.79 11.76,-6.149c-3.449,1.003 -5.452,3.436 -4.421,-7.208c0.229,-2.359 -9.659,12.981 -7.339,13.357Z" style="fill:#9b9b9b;"/><path d="M25.934,49.192c-12.732,2.061 -13.963,-6.79 -11.76,-6.149c3.449,1.003 5.452,3.436 4.421,-7.208c-0.229,-2.359 9.659,12.981 7.339,13.357Z" style="fill:#9b9b9b;"/><g><path d="M9.567,10.59c5.66,-1.887 35.145,-8.651 44.336,-10.273c4.293,-0.758 5.438,2.355 4.326,3.784c-3.785,4.867 -3.639,6.946 -6.308,8.111c-9.913,4.325 -23.966,4.258 -31.54,3.785c-8.652,-0.541 -15.14,-3.965 -10.814,-5.407Z" style="fill:#d11a1a;"/><path d="M27.95,22.455c0.721,1.802 18.601,15.401 30.279,6.059c2.704,-2.163 1.985,-4.048 1.081,-5.746c-0.682,-1.283 -5.677,-4.797 -6.322,-5.068c-2.055,-0.861 -25.759,2.953 -25.038,4.755Z"/><path d="M16.731,14.726c-0.145,-0.015 0.252,4.78 0.405,4.867c8.381,4.731 29.198,3.784 36.227,-0.271c0.643,-0.371 0.54,-1.419 0.54,-2.163c0,-1.261 -0.643,-6.715 -0.811,-6.623c-8.651,4.731 -21.492,5.812 -36.361,4.19Z"/><path d="M18.982,17.523l-0.766,-0.1l0.201,-1.533l0.766,0.101c6.725,0.884 13.625,1.156 19.501,0.607c5.115,-0.477 9.444,-1.561 12.141,-3.449l0.633,-0.443l0.886,1.266l-0.633,0.443c-2.865,2.006 -7.448,3.215 -12.884,3.723c-5.979,0.558 -13.002,0.285 -19.845,-0.615Z" style="fill:#e9e6e5;"/></g></g></svg>