<?xml version="1.0" encoding="UTF-8" standalone="no"?><!DOCTYPE svg PUBLIC "-//W3C//DTD SVG 1.1//EN" "http://www.w3.org/Graphics/SVG/1.1/DTD/svg11.dtd"><svg width="100%" height="100%" viewBox="0 0 69 131" version="1.1" xmlns="http://www.w3.org/2000/svg" xmlns:xlink="http://www.w3.org/1999/xlink" xml:space="preserve" xmlns:serif="http://www.serif.com/" style="fill-rule:evenodd;clip-rule:evenodd;stroke-linecap:round;stroke-miterlimit:1;"><g id="EF-Zylinder-Master" serif:id="EF Zylinder Master"><path d="M20.645,81.336l13.977,19.845l14.073,-19.981c6.505,1.333 13.034,3.641 19.588,6.989l0,42.52l-67.322,-0l-0,-42.52c6.538,-3.163 13.099,-5.47 19.684,-6.853Z" style="fill:#6785c1;"/><ellipse cx="35.394" cy="58.764" rx="17.898" ry="23.622" style="fill:#9b9b9b;"/><path d="M23.629,52.326c-2.066,0.588 -2.363,22.837 11.22,26.195c8.1,2.003 12.402,-12.09 12.992,-18.806c0.176,-2.005 -1.799,-7.607 -4.724,-8.06c-12.992,-2.015 -8.858,-4.702 -10.04,-4.702c-1.771,0 0,2.687 -9.448,5.373Z" style="fill:#fff;"/><path d="M45.014,78.402c12.732,2.061 13.963,-6.79 11.761,-6.149c-3.45,1.003 -5.453,3.436 -4.421,-7.208c0.228,-2.359 -9.66,12.981 -7.34,13.357Z" style="fill:#9b9b9b;"/><path d="M26.414,78.402c-12.732,2.061 -13.963,-6.79 -11.76,-6.149c3.449,1.003 5.453,3.436 4.421,-7.208c-0.229,-2.359 9.659,12.981 7.339,13.357Z" style="fill:#9b9b9b;"/><g><path d="M15.297,43.749c-1.272,2.969 5.841,9.558 19.648,9.558c14.338,0 19.604,-8.385 19.117,-10.089c-1.062,-3.717 -12.878,-2.655 -18.586,-2.655c-6.018,-0 -18.586,-0.531 -20.179,3.186Z"/><path d="M15.297,43.749c1.593,-3.717 14.161,-3.186 20.179,-3.186c5.708,-0 17.524,-1.062 18.586,2.655c0.487,1.704 -4.779,10.089 -19.117,10.089c-13.807,0 -20.92,-6.589 -19.648,-9.558Zm37.737,-0.28c-0.101,-0.3 -0.352,-0.523 -0.674,-0.722c-0.503,-0.311 -1.168,-0.536 -1.938,-0.712c-4.133,-0.948 -11.012,-0.416 -14.946,-0.416c-4.148,0 -11.457,-0.273 -16.006,0.829c-0.882,0.214 -1.652,0.476 -2.253,0.817c-0.444,0.253 -0.791,0.532 -0.949,0.9c-0.149,0.348 -0.034,0.773 0.203,1.244c0.349,0.695 0.99,1.435 1.886,2.17c2.977,2.438 8.632,4.672 16.588,4.672c9.546,-0 14.894,-3.835 17.067,-6.736c0.421,-0.562 0.716,-1.079 0.885,-1.514c0.077,-0.198 0.127,-0.474 0.137,-0.532Z"/><path d="M23.926,40.775c-0.038,0.292 -0.083,0.575 -0.132,0.85c-1.109,6.096 23.04,6.192 22.833,-0c-0.011,-0.34 -0.019,-0.685 -0.024,-1.034" style="stroke:#a4a4a4;stroke-width:0.4px;"/><path d="M46.603,40.591c-0.235,-16.041 5.897,-41.98 2.23,-38.036c-4.79,5.151 -23.977,2.095 -28.226,0.531c-3.077,-1.134 4.92,25.556 3.319,37.689" style="stroke:#000;stroke-width:0.4px;"/><path d="M23.794,0.725c-5.311,1.206 -5.311,2.609 0.198,3.987c3.571,0.894 18.657,2.124 22.374,0.531c3.626,-1.553 6.103,-4.194 -0.27,-4.779c-3.665,-0.336 -18.651,-0.568 -22.302,0.261Z"/><path d="M23.794,0.725c3.651,-0.829 18.637,-0.597 22.302,-0.261c6.373,0.585 3.896,3.226 0.27,4.779c-3.717,1.593 -18.803,0.363 -22.374,-0.531c-5.509,-1.378 -5.509,-2.781 -0.198,-3.987Zm-2.583,1.922c0.071,0.042 0.146,0.084 0.22,0.119c0.644,0.308 1.584,0.613 2.817,0.921c2.458,0.615 10.463,1.383 16.298,1.257c2.369,-0.051 4.365,-0.227 5.404,-0.672c0.978,-0.419 1.868,-0.919 2.474,-1.438c0.204,-0.175 0.419,-0.467 0.505,-0.589c-0.067,-0.049 -0.177,-0.126 -0.278,-0.173c-0.283,-0.133 -0.651,-0.244 -1.114,-0.339c-0.435,-0.09 -0.945,-0.163 -1.537,-0.217c-3.612,-0.332 -18.375,-0.577 -21.972,0.239c-1.18,0.268 -2.079,0.54 -2.689,0.826c-0.042,0.02 -0.085,0.042 -0.128,0.066Z" style="fill:#a4a4a4;"/></g></g></svg>