<?xml version="1.0" encoding="UTF-8" standalone="no"?><!DOCTYPE svg PUBLIC "-//W3C//DTD SVG 1.1//EN" "http://www.w3.org/Graphics/SVG/1.1/DTD/svg11.dtd"><svg width="100%" height="100%" viewBox="0 0 69 106" version="1.1" xmlns="http://www.w3.org/2000/svg" xmlns:xlink="http://www.w3.org/1999/xlink" xml:space="preserve" xmlns:serif="http://www.serif.com/" style="fill-rule:evenodd;clip-rule:evenodd;stroke-linejoin:round;stroke-miterlimit:2;"><g id="EM-Bahn" serif:id="EM Bahn"><ellipse cx="35.197" cy="30.729" rx="17.898" ry="23.622" style="fill:#9b9b9b;"/><path d="M21.685,33.646c-0.585,-4.386 1.694,-11.888 3.579,-12.781c1.022,-0.484 2.556,2.556 6.134,2.556c6.646,0 17.382,-11.247 17.382,10.225c-0,7.026 -6.266,16.359 -13.292,16.359c-7.135,-0 -12.78,-8.691 -13.803,-16.359Z" style="fill:#fff;"/><path d="M21.145,55.592l13.28,12.901l13.41,-13.027c6.724,1.31 13.474,3.66 20.252,7.121l-0,42.52l-67.323,0l-0,-42.52c6.768,-3.274 13.562,-5.631 20.381,-6.995Z" style="fill:#6785c1;"/><g><path d="M11.622,11.156c5.66,-1.887 35.145,-8.651 44.337,-10.273c4.292,-0.758 5.437,2.355 4.325,3.785c-3.785,4.866 -3.639,6.946 -6.308,8.11c-9.913,4.326 -23.966,4.258 -31.54,3.785c-8.651,-0.541 -15.14,-3.965 -10.814,-5.407Z" style="fill:#d11a1a;"/><path d="M30.005,23.021c0.721,1.803 18.601,15.402 30.279,6.059c2.704,-2.162 1.985,-4.047 1.082,-5.746c-0.683,-1.283 -5.678,-4.797 -6.323,-5.067c-2.055,-0.861 -25.759,2.952 -25.038,4.754Z"/><path d="M18.786,15.293c-0.145,-0.016 0.252,4.779 0.405,4.866c8.381,4.731 29.198,3.785 36.227,-0.27c0.644,-0.372 0.541,-1.42 0.541,-2.163c-0,-1.262 -0.644,-6.715 -0.811,-6.624c-8.652,4.731 -21.493,5.813 -36.362,4.191Z"/></g></g></svg>