<?xml version="1.0" encoding="UTF-8" standalone="no"?><!DOCTYPE svg PUBLIC "-//W3C//DTD SVG 1.1//EN" "http://www.w3.org/Graphics/SVG/1.1/DTD/svg11.dtd"><svg width="100%" height="100%" viewBox="0 0 69 124" version="1.1" xmlns="http://www.w3.org/2000/svg" xmlns:xlink="http://www.w3.org/1999/xlink" xml:space="preserve" xmlns:serif="http://www.serif.com/" style="fill-rule:evenodd;clip-rule:evenodd;stroke-linecap:round;stroke-miterlimit:1;"><g id="EM-Zylinder" serif:id="EM Zylinder"><ellipse cx="35.394" cy="48.407" rx="17.898" ry="23.622" style="fill:#9b9b9b;"/><path d="M21.882,51.324c-0.585,-4.385 1.694,-11.888 3.579,-12.781c1.022,-0.484 2.556,2.556 6.134,2.556c6.646,0 17.382,-11.246 17.382,10.225c-0,7.026 -6.266,16.359 -13.292,16.359c-7.135,0 -12.781,-8.691 -13.803,-16.359Z" style="fill:#fff;"/><path d="M20.867,74.58l13.755,13.363l13.888,-13.492c6.566,1.328 13.157,3.648 19.773,7.027l0,42.52l-67.322,-0l-0,-42.52c6.611,-3.198 13.246,-5.521 19.906,-6.898Z" style="fill:#6785c1;"/><g><path d="M16.39,31.904c-1.277,2.98 5.862,9.592 19.716,9.592c14.388,0 19.672,-8.414 19.184,-10.124c-1.066,-3.731 -12.923,-2.665 -18.651,-2.665c-6.039,0 -18.65,-0.533 -20.249,3.197Z"/><path d="M16.39,31.904c1.599,-3.73 14.21,-3.197 20.249,-3.197c5.728,0 17.585,-1.066 18.651,2.665c0.488,1.71 -4.796,10.124 -19.184,10.124c-13.854,0 -20.993,-6.612 -19.716,-9.592Zm37.868,-0.28c-0.1,-0.301 -0.352,-0.525 -0.676,-0.725c-0.504,-0.312 -1.172,-0.537 -1.945,-0.715c-4.147,-0.951 -11.05,-0.417 -14.998,-0.417c-4.162,0 -11.497,-0.273 -16.062,0.832c-0.885,0.214 -1.658,0.478 -2.26,0.82c-0.446,0.254 -0.794,0.534 -0.952,0.903c-0.15,0.35 -0.035,0.776 0.203,1.248c0.35,0.698 0.993,1.441 1.892,2.178c2.988,2.447 8.662,4.688 16.646,4.688c9.58,-0 14.946,-3.848 17.126,-6.759c0.423,-0.564 0.719,-1.083 0.889,-1.519c0.078,-0.199 0.128,-0.476 0.137,-0.534Z"/><path d="M25.055,28.899c-0.04,0.294 -0.086,0.585 -0.139,0.874c-1.112,6.117 23.121,6.214 22.914,-0c-0.012,-0.352 -0.02,-0.703 -0.026,-1.054" style="fill:none;stroke:#a4a4a4;stroke-width:0.4px;"/><path d="M47.804,28.719c-0.226,-15.593 5.916,-30.077 2.239,-26.122c-4.807,5.169 -24.061,2.102 -28.324,0.532c-3.085,-1.136 4.917,14.139 3.336,25.77" style="stroke:#000;stroke-width:0.4px;"/><path d="M24.916,0.727c-5.328,1.21 -5.328,2.618 0.199,4.001c3.584,0.897 18.722,2.132 22.452,0.533c3.638,-1.559 6.124,-4.209 -0.27,-4.796c-3.679,-0.338 -18.717,-0.57 -22.381,0.262Z" style="fill:#a4a4a4;"/><path d="M24.916,0.727c3.664,-0.832 18.702,-0.6 22.381,-0.262c6.394,0.587 3.908,3.237 0.27,4.796c-3.73,1.599 -18.868,0.364 -22.452,-0.533c-5.527,-1.383 -5.527,-2.791 -0.199,-4.001Zm-2.591,1.928c0.071,0.043 0.147,0.085 0.221,0.12c0.646,0.309 1.589,0.615 2.826,0.925c2.467,0.617 10.5,1.387 16.355,1.26c2.378,-0.051 4.381,-0.227 5.423,-0.673c0.982,-0.421 1.874,-0.923 2.482,-1.443c0.205,-0.176 0.421,-0.469 0.507,-0.592c-0.067,-0.049 -0.178,-0.126 -0.279,-0.174c-0.283,-0.133 -0.653,-0.244 -1.118,-0.34c-0.436,-0.09 -0.948,-0.163 -1.542,-0.217c-3.624,-0.333 -18.439,-0.58 -22.049,0.24c-1.184,0.269 -2.085,0.542 -2.698,0.829c-0.042,0.019 -0.085,0.042 -0.128,0.065Z" style="fill:#a4a4a4;"/></g></g></svg>