<?xml version="1.0" encoding="UTF-8" standalone="no"?><!DOCTYPE svg PUBLIC "-//W3C//DTD SVG 1.1//EN" "http://www.w3.org/Graphics/SVG/1.1/DTD/svg11.dtd"><svg width="100%" height="100%" viewBox="0 0 68 136" version="1.1" xmlns="http://www.w3.org/2000/svg" xmlns:xlink="http://www.w3.org/1999/xlink" xml:space="preserve" xmlns:serif="http://www.serif.com/" style="fill-rule:evenodd;clip-rule:evenodd;stroke-linecap:round;stroke-miterlimit:1;"><g id="EM-Zylinder-Master" serif:id="EM Zylinder Master"><ellipse cx="35.055" cy="59.976" rx="17.898" ry="23.622" style="fill:#9b9b9b;"/><path d="M21.543,62.893c-0.584,-4.385 1.694,-11.888 3.579,-12.781c1.022,-0.484 2.556,2.556 6.135,2.556c6.645,0 17.381,-11.246 17.381,10.225c0,7.026 -6.266,16.359 -13.292,16.359c-7.134,-0 -12.78,-8.691 -13.803,-16.359Z" style="fill:#fff;"/><path d="M20.528,86.149l13.755,13.363l13.888,-13.492c6.566,1.327 13.157,3.648 19.774,7.027l-0,42.52l-67.323,-0l0,-42.52c6.611,-3.198 13.246,-5.521 19.906,-6.898Z" style="fill:#6785c1;"/><g><path d="M15.057,43.749c-1.272,2.969 5.842,9.558 19.648,9.558c14.338,0 19.604,-8.385 19.117,-10.089c-1.062,-3.717 -12.877,-2.655 -18.586,-2.655c-6.018,-0 -18.585,-0.531 -20.179,3.186Z"/><path d="M15.057,43.749c1.594,-3.717 14.161,-3.186 20.179,-3.186c5.709,-0 17.524,-1.062 18.586,2.655c0.487,1.704 -4.779,10.089 -19.117,10.089c-13.806,0 -20.92,-6.589 -19.648,-9.558Zm37.737,-0.28c-0.1,-0.3 -0.351,-0.523 -0.674,-0.722c-0.503,-0.311 -1.167,-0.536 -1.938,-0.712c-4.132,-0.948 -11.012,-0.416 -14.946,-0.416c-4.148,0 -11.457,-0.273 -16.006,0.829c-0.882,0.214 -1.652,0.476 -2.252,0.817c-0.445,0.253 -0.792,0.532 -0.95,0.9c-0.149,0.348 -0.034,0.773 0.203,1.244c0.349,0.695 0.99,1.435 1.886,2.17c2.977,2.438 8.632,4.672 16.588,4.672c9.546,-0 14.894,-3.835 17.067,-6.736c0.421,-0.562 0.716,-1.079 0.885,-1.514c0.078,-0.198 0.127,-0.474 0.137,-0.532Z"/><path d="M23.686,40.775c-0.038,0.292 -0.082,0.575 -0.132,0.85c-1.109,6.096 23.04,6.192 22.834,-0c-0.012,-0.34 -0.02,-0.685 -0.025,-1.034" style="fill:none;stroke:#a4a4a4;stroke-width:0.4px;"/><path d="M46.363,40.591c-0.235,-16.041 5.897,-41.98 2.23,-38.036c-4.79,5.151 -23.977,2.095 -28.225,0.531c-3.078,-1.134 4.919,25.556 3.318,37.689" style="stroke:#000;stroke-width:0.4px;"/><path d="M23.554,0.725c-5.31,1.206 -5.31,2.609 0.198,3.987c3.571,0.894 18.657,2.124 22.374,0.531c3.626,-1.553 6.103,-4.194 -0.269,-4.779c-3.666,-0.336 -18.652,-0.568 -22.303,0.261Z" style="fill:#a4a4a4;"/><path d="M23.554,0.725c3.651,-0.829 18.637,-0.597 22.303,-0.261c6.372,0.585 3.895,3.226 0.269,4.779c-3.717,1.593 -18.803,0.363 -22.374,-0.531c-5.508,-1.378 -5.508,-2.781 -0.198,-3.987Zm-2.582,1.922c0.071,0.042 0.146,0.084 0.219,0.119c0.644,0.308 1.584,0.613 2.817,0.921c2.458,0.615 10.463,1.383 16.298,1.257c2.37,-0.051 4.366,-0.227 5.404,-0.672c0.979,-0.419 1.868,-0.919 2.474,-1.438c0.204,-0.175 0.419,-0.467 0.505,-0.589c-0.067,-0.049 -0.177,-0.126 -0.278,-0.173c-0.282,-0.133 -0.651,-0.244 -1.114,-0.339c-0.435,-0.09 -0.945,-0.163 -1.537,-0.217c-3.611,-0.332 -18.375,-0.577 -21.972,0.239c-1.18,0.268 -2.078,0.54 -2.689,0.826c-0.042,0.02 -0.085,0.042 -0.127,0.066Z" style="fill:#a4a4a4;"/></g></g></svg>